<svg width="134" height="134" viewBox="0 0 134 134" fill="none" xmlns="http://www.w3.org/2000/svg">
<path d="M133.873 67.1332C133.883 77.2121 131.619 87.1622 127.253 96.2364C122.886 105.311 116.53 113.273 108.661 119.526C108.461 119.687 108.26 119.848 108.06 120.005C108.02 120.035 107.98 120.07 107.939 120.1C107.744 120.252 107.549 120.408 107.348 120.559C97.5053 128.026 85.7815 132.582 73.4989 133.713C73.2832 133.734 73.0626 133.754 72.842 133.774C72.7417 133.779 72.6465 133.789 72.5462 133.794H72.5413C72.3156 133.814 72.09 133.829 71.8644 133.839C70.3555 133.945 68.8415 134.001 67.3125 134.001C56.3637 134.017 45.5814 131.307 35.9298 126.114L35.9197 126.109L35.4836 122.941L31.1126 120.951L32.0602 123.857C18.5962 115.401 8.57733 102.397 3.80577 87.1826C3.69049 86.8199 3.58013 86.4524 3.4699 86.0847C3.4549 86.0293 3.43975 85.9789 3.42475 85.9235C3.31438 85.566 3.21439 85.1983 3.11398 84.8307C0.14253 73.8762 -0.0214945 62.3444 2.63718 51.3091C2.6972 51.0372 2.76746 50.7651 2.83758 50.4932C5.51149 40.0786 10.6414 30.4635 17.7938 22.4603C24.9462 14.457 33.911 8.30085 43.9309 4.5118C44.7028 5.29754 45.4615 6.1 46.2069 6.91918C46.5026 7.24152 46.7935 7.56385 47.0842 7.89126C50.2258 6.62218 53.446 5.55898 56.7246 4.70833C57.632 4.47146 58.5377 4.25657 59.4418 4.06365L59.6222 0.714479C62.1751 0.419009 64.7427 0.271028 67.3125 0.271266C81.8071 0.247706 95.9094 4.99961 107.458 13.7987C107.724 13.9952 107.98 14.1965 108.24 14.4031C118.549 22.4798 126.266 33.4223 130.434 45.8699L129.406 47.1994L130.87 52.3113L131.943 51.0824C133.23 56.3346 133.878 61.7242 133.873 67.1332Z" fill="url(#paint0_linear_22_106)" style="mix-blend-mode:screen"/>
<g style="mix-blend-mode:multiply">
<path d="M5.71853 72.5553C6.09142 69.6971 6.76529 66.8869 7.72881 64.1717C8.22795 70.7595 10.1562 77.1577 13.3782 82.9172C18.0026 91.835 24.6997 100.201 33.9586 104.021C47.2185 109.493 62.1413 106.011 74.7497 100.416C87.3096 94.8427 100.214 86.8685 109.815 76.9354C115.276 71.2187 118.991 64.0481 120.518 56.2744C122.044 48.5006 121.319 40.45 118.429 33.0778C125.193 45.477 131.059 58.1245 129.897 72.2157C128.812 85.3869 121.473 97.5506 111.484 106.151C101.494 114.751 89.0357 120.05 76.2746 123.263C64.0079 126.352 50.8199 127.572 38.8747 123.401C18.0685 116.135 2.86908 94.4226 5.71853 72.5553Z" fill="url(#paint1_linear_22_106)" style="mix-blend-mode:screen"/>
</g>
<path style="mix-blend-mode:screen" d="M82.5175 35.2685C77.6197 45.8091 67.7537 53.6408 58.108 59.5636C49.5805 64.8064 40.271 69.47 30.2796 69.903C24.8002 70.1448 18.9096 68.8807 15.1045 64.9071C11.6605 61.3111 10.4627 56.0633 10.4374 51.0725C10.3577 37.0413 18.2331 24.5915 29.2121 16.0752C34.3322 12.0972 40.0756 9.00298 46.2069 6.91918C46.5026 7.24151 46.7935 7.56385 47.0842 7.89126C50.2258 6.62218 53.446 5.55897 56.7245 4.70833C68.3853 4.09887 81.7907 9.79978 84.4022 22.1692C85.1955 26.6255 84.5344 31.2201 82.5175 35.2685Z" fill="url(#paint2_linear_22_106)"/>
<path style="mix-blend-mode:screen" d="M78.5123 53.5623L78.7466 54.3482C73.578 55.9551 68.7621 58.5381 64.5573 61.9584C60.3552 65.3508 56.822 69.5031 54.1401 74.201C52.8156 76.5447 51.718 79.0105 50.8624 81.5648C49.9777 84.1103 49.3115 86.7272 48.8711 89.3869C48.0006 94.7642 48.1423 100.258 49.289 105.583L49.3947 106.054L48.9514 106.213C46.3042 107.112 43.505 107.472 40.7177 107.271C37.9304 107.07 35.211 106.312 32.7187 105.043L33.0974 104.315C37.7864 106.61 43.1806 106.981 48.1372 105.35C46.9668 100.043 46.7672 94.5671 47.5482 89.1889C47.9095 86.4263 48.5437 83.7067 49.4414 81.0704C50.3663 78.4421 51.5403 75.9091 52.9473 73.5064C53.2839 72.9327 53.1274 73.0059 53.4896 72.4497C51.1436 71.5346 48.8458 70.4997 46.605 69.349L44.7578 68.3653L42.9378 67.3296C42.3426 66.965 41.7426 66.6071 41.1378 66.2559C40.5432 65.8888 39.9517 65.515 39.3746 65.1201C37.1064 63.4856 34.9345 61.7205 32.8696 59.8335C30.8168 57.943 28.8636 55.9462 27.018 53.8511L27.621 53.2973C29.5112 55.3012 31.5214 57.1872 33.6405 58.9447C35.7473 60.7064 37.947 62.3529 40.23 63.8771C40.8012 64.2557 41.3579 64.6555 41.9116 65.0616C42.4752 65.4525 43.0445 65.8356 43.6192 66.211L45.3674 67.299L47.146 68.338C49.3627 69.5892 51.6431 70.7229 53.9778 71.7346C56.738 67.7175 60.0743 64.1324 63.8784 61.0956C68.2471 57.6914 73.2101 55.1365 78.5123 53.5623ZM124.528 85.3593C124.217 81.1343 123.221 76.9888 121.581 73.0858L121.305 72.4261L120.763 72.8744C117.857 75.3077 114.671 77.3824 111.273 79.0538L111.629 79.7942C114.894 78.2438 117.985 76.3478 120.849 74.1385C122.196 77.7653 122.992 81.5751 123.21 85.4399C123.318 87.4772 123.243 89.5202 122.984 91.5438C122.71 93.5567 122.263 95.5418 121.646 97.4766C120.391 101.373 118.433 105.004 115.871 108.189C113.313 111.398 110.204 114.122 106.691 116.232L106.271 116.484L106.541 116.887C107.013 117.616 107.39 118.403 107.664 119.228C107.76 119.515 107.855 119.808 107.94 120.1C107.98 120.069 108.02 120.034 108.06 120.004C108.261 119.848 108.461 119.687 108.662 119.525C108.607 119.334 108.547 119.142 108.487 118.951C108.25 118.201 107.938 117.477 107.554 116.79C111.054 114.721 114.172 112.062 116.773 108.929C119.481 105.663 121.598 101.945 123.03 97.9451C123.734 95.9323 124.199 93.8428 124.414 91.7202C124.645 89.6079 124.683 87.4786 124.528 85.3593ZM111.836 44.3456L105.237 47.3955L101.937 48.9206C101.05 49.3284 100.165 49.7402 99.2729 50.1392C98.6721 48.9765 97.9827 47.863 97.3096 46.7416C96.5132 45.4367 95.7017 44.1417 94.8624 42.8652C93.1829 40.3124 91.4161 37.8217 89.6076 35.3657L88.9438 35.8438C90.6696 38.3391 92.2857 40.9085 93.8312 43.5155C94.6045 44.819 95.3661 46.1286 96.103 47.4522C96.8503 48.7698 97.525 50.1264 98.3161 51.419L98.69 52.03L99.2616 51.72C100.327 51.1424 101.411 50.6013 102.489 50.0473L105.724 48.392L112.196 45.0813L111.836 44.3456ZM107.789 14.2736C107.448 14.4549 107.117 14.6464 106.786 14.8478C105.648 15.5436 104.576 16.3426 103.583 17.2349C100.902 15.6615 98.0929 14.3187 95.1863 13.2211L92.9005 12.4002C92.1292 12.1584 91.3614 11.9071 90.5794 11.6851C89.7973 11.4885 89.0053 11.3174 88.2181 11.1356L85.8319 10.6975C82.6426 10.1721 79.4129 9.93441 76.1814 9.98729C72.9564 10.0382 69.7415 10.3634 66.5711 10.9594L66.7165 11.7701C69.8423 11.2523 73.009 11.0247 76.1764 11.0903C79.3361 11.1555 82.485 11.4823 85.5912 12.0673L87.9074 12.5604C88.6693 12.7567 89.4313 12.9633 90.1984 13.1446C90.9503 13.3662 91.7173 13.5575 92.4793 13.759L94.7403 14.4692C97.7302 15.5013 100.624 16.7956 103.388 18.3369L103.734 18.5334L104.01 18.2665C105.369 16.9318 106.904 15.7913 108.572 14.877C108.311 14.6715 108.055 14.4701 107.789 14.2736ZM38.9615 18.3733C40.3436 17.3777 41.7693 16.4546 43.2386 15.6038C43.6052 15.3911 43.9611 15.161 44.3093 14.9153C44.6668 14.6858 45.0314 14.4679 45.397 14.2509L46.5102 13.6291L47.6419 13.0391C49.1656 12.2723 50.7326 11.5957 52.3349 11.0128L52.0813 10.2329C50.4092 10.7242 48.767 11.3133 47.1633 11.9971L45.9657 12.5281L44.7828 13.0941C44.013 13.5069 43.2001 13.8491 42.4558 14.3138C40.9832 15.2624 39.5749 16.3082 38.2401 17.4441C36.9114 18.5765 35.6416 19.7767 34.4355 21.04L35.0095 21.6237C36.2544 20.4543 37.5748 19.3688 38.9615 18.3733ZM28.3051 36.2103C28.531 36.5523 28.8596 36.817 29.1113 37.1356C29.3848 37.4382 29.6648 37.7334 29.9515 38.0211C30.5251 38.5924 31.1312 39.1298 31.7667 39.6307L32.3129 39.0207C31.7778 38.4641 31.2753 37.8768 30.8079 37.2618C30.5765 36.9543 30.353 36.6422 30.1374 36.3254C30.0315 36.1656 29.9271 36.0051 29.8335 35.8369C29.7525 35.6633 29.6538 35.4986 29.539 35.3455C29.073 34.7433 28.6247 34.1225 28.2002 33.4801C27.7719 32.8364 27.3915 32.1617 27.0623 31.4616L26.3039 31.7663C26.5638 32.53 26.841 33.2937 27.1682 34.0405C27.492 34.7914 27.8723 35.517 28.3051 36.2103ZM7.16792 85.4637C6.71678 85.5241 6.26045 85.5695 5.80931 85.6046L5.13254 85.6499C5.01902 85.6575 4.90513 85.6575 4.79162 85.6499C4.67829 85.633 4.56287 85.6364 4.45071 85.6599C4.10489 85.7456 3.75388 85.8312 3.40301 85.9269C3.51828 86.3495 3.63356 86.7679 3.75893 87.1807C4.06473 87.1858 4.37054 87.1758 4.67635 87.1506C4.91194 87.1304 5.12763 86.9794 5.35817 86.9393L6.03495 86.7279C6.48104 86.5818 6.92727 86.4257 7.36845 86.2646L7.16792 85.4637ZM70.6613 129.15C69.7347 126.837 68.9413 124.473 68.285 122.069L68.1448 121.555L67.6033 121.646C64.7368 122.124 61.8362 122.366 58.9305 122.371C56.0286 122.457 53.1242 122.344 50.2377 122.033C47.3463 121.714 44.4814 121.188 41.6651 120.457C38.8422 119.725 36.0813 118.771 33.4081 117.602L33.0723 118.353C35.7656 119.592 38.5432 120.637 41.3842 121.48C44.231 122.32 47.1369 122.943 50.0771 123.344C53.0229 123.757 55.9968 123.933 58.9706 123.872C61.7618 123.736 64.5415 123.42 67.2924 122.926C67.986 125.176 68.801 127.387 69.7338 129.548C70.3676 131.016 71.079 132.448 71.8651 133.839C72.0907 133.829 72.3163 133.814 72.542 133.793H72.5469C72.6472 133.789 72.7424 133.778 72.8427 133.773C72.026 132.276 71.2977 130.733 70.6613 129.15ZM20.727 32.8101C17.7528 35.6158 15.1633 38.8066 13.0267 42.2984L12.2346 43.6179C11.979 44.0612 11.7233 44.5044 11.4926 44.9627C11.2671 45.426 11.0616 45.8994 10.8509 46.3627L10.2645 47.788C9.58302 49.5121 9.00699 51.2764 8.53956 53.0711C6.72477 52.4919 4.90493 51.9128 3.09519 51.3185C3.02507 51.5904 2.95495 51.8625 2.89465 52.1344C4.85487 52.8495 6.79994 53.5847 8.74501 54.3201L9.29193 54.5216L9.47241 53.9374C10.0542 52.028 10.7472 50.1546 11.5479 48.3269L12.1746 46.9722C12.3902 46.529 12.6257 46.0908 12.8364 45.6375C13.0669 45.1993 13.2776 44.7461 13.483 44.2928C13.7086 43.8497 13.9392 43.4115 14.1749 42.9685C16.117 39.4743 18.5127 36.2548 21.2989 33.3945L20.727 32.8101Z" fill="url(#paint3_linear_22_106)"/>
<path d="M63.0348 60.7064C59.4029 63.5275 56.2333 66.9026 53.6409 70.709C51.3063 69.6973 49.026 68.5635 46.8094 67.3122L45.0306 66.2734L43.2824 65.1853C42.7085 64.8091 42.1393 64.426 41.5748 64.036C41.0211 63.6299 40.4645 63.23 39.8934 62.8515C37.6102 61.3274 35.4105 59.6808 33.3037 57.919C31.1846 56.1612 29.1743 54.2751 27.2842 52.271L26.6819 52.825C28.5274 54.92 30.4806 56.9168 32.5334 58.8072C34.5982 60.6942 36.7702 62.4594 39.0383 64.0939C39.6154 64.4884 40.2069 64.8624 40.8015 65.2297C41.4071 65.5799 42.0072 65.9378 42.6016 66.3034L44.4216 67.3391L46.2689 68.3226C48.5096 69.4735 50.8075 70.5084 53.1535 71.4234C52.7911 71.98 52.4412 72.5447 52.1037 73.1175C50.6963 75.5201 49.522 78.053 48.5969 80.6813C47.6993 83.3176 47.0651 86.0372 46.7038 88.7997C45.9478 94.1519 46.1729 99.5979 47.3681 104.869C42.4111 106.5 37.0166 106.129 32.3274 103.834L31.9487 104.561C34.441 105.831 37.1604 106.589 39.9477 106.79C42.735 106.991 45.5342 106.631 48.1814 105.732L48.6247 105.573L48.519 105.101C47.3477 99.8123 47.1804 94.3487 48.0259 88.9974C48.4662 86.3377 49.1325 83.7208 50.0173 81.1752C50.8728 78.6209 51.9704 76.155 53.2948 73.8114C55.9766 69.1135 59.5098 64.9612 63.7118 61.5688C67.9171 58.1486 72.7333 55.5658 77.9021 53.9591L77.6679 53.1731C72.3661 54.7475 67.4033 57.3023 63.0348 60.7064Z" fill="url(#paint4_linear_22_106)" style="mix-blend-mode:screen"/>
<path d="M123.571 91.3325C123.356 93.4551 122.891 95.5446 122.187 97.5574C120.755 101.557 118.638 105.275 115.931 108.542C113.329 111.674 110.211 114.333 106.711 116.403C107.095 117.089 107.407 117.813 107.644 118.563C107.799 119.047 107.935 119.525 108.06 120.004C107.824 120.19 107.589 120.376 107.348 120.558C107.178 119.979 107.011 119.399 106.822 118.84C106.548 118.015 106.17 117.228 105.699 116.498L105.428 116.096L105.849 115.844C109.361 113.734 112.47 111.01 115.028 107.801C117.59 104.616 119.548 100.985 120.803 97.0887C121.42 95.1538 121.868 93.1687 122.142 91.1558C122.4 89.1322 122.475 87.0892 122.367 85.0519C122.149 81.1871 121.353 77.3772 120.006 73.7504C117.142 75.9598 114.051 77.8558 110.787 79.4062L110.431 78.6659C113.828 76.9943 117.014 74.9196 119.921 72.4862L120.462 72.0381L120.738 72.6978C122.378 76.6008 123.374 80.7463 123.686 84.9713C123.84 87.0908 123.802 89.2201 123.571 91.3325Z" fill="url(#paint5_linear_22_106)" style="mix-blend-mode:screen"/>
<path d="M110.992 43.9563L104.393 47.0066L101.093 48.5316C100.206 48.9402 99.3204 49.3513 98.4286 49.7501C97.8279 48.5875 97.1385 47.474 96.4653 46.3526C95.6688 45.0478 94.8573 43.7526 94.0179 42.4761C92.3395 39.9233 90.5725 37.4324 88.7635 34.9766L88.0999 35.4547C89.8256 37.95 91.4415 40.5194 92.9872 43.1264C93.7605 44.4297 94.522 45.7395 95.259 47.0631C96.0065 48.3806 96.6812 49.7373 97.4722 51.0299L97.8461 51.6407L98.4177 51.3308C99.4835 50.7532 100.567 50.2122 101.645 49.6582L104.88 48.0029L111.352 44.6922L110.992 43.9563Z" fill="url(#paint6_linear_22_106)" style="mix-blend-mode:screen"/>
<path d="M108.24 14.4031C106.572 15.3174 105.037 16.4579 103.678 17.7925L103.403 18.0595L103.057 17.863C100.292 16.3217 97.3987 15.0274 94.4088 13.9952L92.1479 13.285C91.3859 13.0836 90.6193 12.8923 89.8668 12.6707C89.0999 12.4893 88.3382 12.2828 87.5758 12.0864L85.2596 11.5933C82.1535 11.0082 79.0046 10.6814 75.8449 10.6162C72.6775 10.5507 69.5108 10.7783 66.3849 11.2961L66.2396 10.4853C69.41 9.88943 72.625 9.56424 75.85 9.51323C79.0814 9.46034 82.311 9.69802 85.5003 10.2234L87.8867 10.6616C88.6737 10.8429 89.4657 11.0138 90.2478 11.211C91.0299 11.4326 91.7969 11.6844 92.569 11.9261L94.8549 12.747C97.7616 13.8446 100.571 15.1874 103.252 16.761C104.245 15.8686 105.317 15.0695 106.455 14.3738C106.786 14.1723 107.117 13.9809 107.458 13.7995C107.723 13.9952 107.98 14.1965 108.24 14.4031Z" fill="url(#paint7_linear_22_106)" style="mix-blend-mode:screen"/>
<path d="M38.1168 17.9837C39.499 16.9882 40.9247 16.065 42.394 15.2143C42.7606 15.0015 43.1165 14.7713 43.4647 14.5258C43.8222 14.2963 44.1869 14.0783 44.5524 13.8614L45.6657 13.2394L46.7973 12.6495C48.321 11.8828 49.888 11.2062 51.4903 10.6231L51.2369 9.84317C49.5647 10.3346 47.9225 10.9237 46.3188 11.6076L45.1212 12.1386L43.9383 12.7045C43.1685 13.1174 42.3556 13.4596 41.6112 13.9242C40.1385 14.8731 38.7301 15.919 37.3952 17.0552C36.0665 18.1876 34.7967 19.3878 33.5906 20.651L34.1646 21.2346C35.4097 20.0652 36.73 18.9793 38.1168 17.9837Z" fill="url(#paint8_linear_22_106)" style="mix-blend-mode:screen"/>
<path d="M28.3046 35.0812C28.5305 35.4234 28.8591 35.688 29.1108 36.0065C29.3843 36.3092 29.6644 36.6043 29.951 36.8921C30.5246 37.4634 31.1307 38.0009 31.7662 38.5017L32.3124 37.8918C31.7773 37.3352 31.2748 36.7478 30.8074 36.1328C30.576 35.8254 30.3525 35.5133 30.137 35.1965C30.0311 35.0366 29.9266 34.8761 29.8331 34.708C29.7521 34.5344 29.6534 34.3697 29.5386 34.2165C29.0726 33.6142 28.6242 32.9936 28.1997 32.3511C27.7714 31.7074 27.3911 31.0327 27.0619 30.3327L26.3035 30.6373C26.5633 31.401 26.8406 32.1647 27.1677 32.9115C27.4916 33.6625 27.8717 34.3879 28.3046 35.0812Z" fill="url(#paint9_linear_22_106)" style="mix-blend-mode:screen"/>
<path d="M7.07885 85.1681C6.63767 85.3293 6.19144 85.4854 5.74535 85.6315L5.06843 85.8428C4.83788 85.8831 4.62234 86.0342 4.38675 86.0541C4.08094 86.0792 3.77513 86.0892 3.46932 86.0843C3.34395 85.6713 3.22868 85.2531 3.1134 84.8304C3.46399 84.7346 3.81458 84.6491 4.16111 84.5634C4.27327 84.5399 4.38868 84.5365 4.50202 84.5534C4.61553 84.561 4.72942 84.561 4.84293 84.5534L5.51971 84.5081C5.97085 84.4729 6.42703 84.4275 6.87831 84.3672L7.07885 85.1681Z" fill="url(#paint10_linear_22_106)" style="mix-blend-mode:screen"/>
<path d="M73.4989 133.713C73.1829 133.743 72.8622 133.773 72.5462 133.793H72.5413C71.5712 132.159 70.7071 130.463 69.9544 128.717C69.0216 126.556 68.2066 124.345 67.513 122.094C64.7621 122.589 61.9823 122.905 59.191 123.041C56.2173 123.102 53.2435 122.925 50.2977 122.512C47.3575 122.112 44.4516 121.489 41.6048 120.649C38.7638 119.806 35.9862 118.76 33.2928 117.521L33.6287 116.771C36.3019 117.94 39.0627 118.894 41.8855 119.626C44.7018 120.357 47.5667 120.884 50.4581 121.203C53.3447 121.514 56.249 121.627 59.1509 121.541C62.0567 121.536 64.9572 121.294 67.8238 120.816L68.3653 120.725L68.5055 121.239C69.1617 123.643 69.9551 126.007 70.8818 128.32C71.625 130.178 72.4996 131.98 73.4989 133.713Z" fill="url(#paint11_linear_22_106)" style="mix-blend-mode:screen"/>
<path d="M21.0406 32.569C18.2543 35.4293 15.8587 38.6488 13.9166 42.1431C13.681 42.5863 13.4505 43.0244 13.2248 43.4673C13.0192 43.9206 12.8087 44.3738 12.578 44.8121C12.3677 45.2653 12.132 45.7034 11.9164 46.1466L11.2897 47.5013C10.4891 49.329 9.79603 51.2024 9.21421 53.1118L9.03387 53.696L8.48695 53.4946C6.54188 52.7593 4.59667 52.0239 2.6366 51.3088C2.69662 51.0369 2.76688 50.7649 2.83699 50.493C4.64688 51.0872 6.46657 51.6664 8.28136 52.2455C8.74892 50.4509 9.32495 48.6866 10.0063 46.9625L10.5929 45.5372C10.8032 45.0738 11.0089 44.6005 11.2346 44.1371C11.4651 43.6788 11.7208 43.2354 11.9764 42.7924L12.7686 41.4729C14.9052 37.9811 17.4946 34.7903 20.4688 31.9845L21.0406 32.569Z" fill="url(#paint12_linear_22_106)" style="mix-blend-mode:screen"/>
<path d="M35.6189 123.917L35.9197 126.108L35.9298 126.113C35.8245 125.383 35.7192 124.653 35.6189 123.917ZM129.406 47.1994L129.476 47.1038C127.398 49.6537 125.041 51.96 122.448 53.9788C116.58 43.653 109.306 34.2008 100.836 25.8959C95.7098 26.676 90.6302 27.7386 85.6203 29.0788C83.1538 29.7337 80.7074 30.4555 78.281 31.2445C77.7045 31.4309 77.1279 31.6223 76.5514 31.8186C73.4632 32.8611 70.4068 34.0077 67.3822 35.2585C65.4437 32.7385 63.6365 30.1193 61.968 27.4114C64.0635 26.1877 66.139 25.0544 68.2445 23.9767C70.4503 22.8436 72.6862 21.7708 75.0023 20.7182C70.5684 13.569 65.411 6.89923 59.6121 0.815207L59.4418 4.06365C55.2222 4.98611 51.0882 6.26657 47.0842 7.89126C46.9388 7.71994 46.7884 7.55878 46.6379 7.39817C50.0917 11.2569 53.1362 15.4665 55.722 19.9587C45.6871 24.7932 36.873 31.8489 29.9416 40.596C23.0102 49.3432 18.1416 59.5543 15.7015 70.4626C15.7005 69.8422 15.5368 69.2331 15.227 68.6964C14.9173 68.1597 14.4723 67.7145 13.9368 67.4055L13.9318 67.4004C13.2778 66.9204 12.5173 66.6076 11.716 66.4889C10.7173 66.4391 9.72391 66.6642 8.84313 67.1399C7.96235 67.6157 7.22756 68.3239 6.71803 69.1883C5.72395 70.9373 5.18753 72.9109 5.15889 74.9247C4.86231 82.0593 6.66898 89.123 10.3524 95.2302C11.6407 97.3304 13.9318 99.1435 16.3532 98.7154C17.5441 98.4687 18.5995 97.7822 19.3109 96.7915H19.316C19.7576 96.2135 20.106 95.5695 20.3487 94.8828C20.8865 93.0148 21.0935 91.0663 20.9604 89.1263C23.3616 90.2998 25.2366 91.5034 27.638 92.6765C27.0418 102.236 28.2215 111.824 31.1171 120.95L35.4836 122.94L35.6189 123.917C34.0815 112.982 33.0994 101.975 32.6762 90.9397C27.2988 87.9151 22.406 84.0932 18.1629 79.603C19.3917 70.2712 22.5566 61.3024 27.453 53.2768C32.3495 45.2511 38.8683 38.3475 46.5879 33.0122C46.7733 33.2791 46.9639 33.541 47.1543 33.7979C50.4487 37.9984 54.0177 41.9741 57.8375 45.6986C60.6702 44.359 64.2695 43.0747 67.1019 41.7351C74.422 48.1645 79.3825 56.8758 81.1891 66.4738C75.6595 68.5414 70.7264 71.9539 66.8312 76.406C65.484 77.9665 64.2934 79.6568 63.2768 81.4523C61.295 84.9128 60.0665 88.7563 59.6725 92.7289C59.2785 96.7016 59.7278 100.713 60.9909 104.498C61.6321 106.286 62.4837 107.99 63.5277 109.575L63.5376 109.59C66.8345 114.74 72.0118 118.384 77.9557 119.738C85.1498 121.234 92.6644 118.937 99.0663 115.321C100.541 114.493 101.965 113.578 103.333 112.582C105.09 111.313 106.728 109.885 108.225 108.316C109.292 107.193 110.264 105.983 111.133 104.7C112.272 103.021 113.182 101.197 113.84 99.2758C116.326 91.948 114.627 83.6483 110.681 76.9953C110.05 75.9301 109.355 74.9043 108.601 73.9232C105.252 69.2636 100.412 65.9014 94.8897 64.3996C93.3794 64.0367 91.8305 63.8607 90.2776 63.8758C87.0385 55.6974 82.715 47.9957 77.4242 40.9796C79.9905 39.786 82.693 38.6075 85.4653 37.5197C90.3964 35.5147 95.4923 33.9458 100.695 32.8309C108.696 41.2013 115.995 50.5738 120.813 61.1298C124.501 58.5988 127.877 55.6369 130.869 52.3062L129.406 47.1994ZM31.1572 17.3947C27.9556 18.2363 25.0739 20.0115 22.8754 22.4964C20.8149 24.6419 17.8522 27.9256 17.6616 31.0479C17.6436 31.3185 17.6537 31.5902 17.6918 31.8587C17.7663 32.3248 17.9364 32.7703 18.1912 33.167C18.446 33.5637 18.78 33.903 19.172 34.1634C19.564 34.4237 20.0056 34.5995 20.4687 34.6796C20.9319 34.7597 21.4065 34.7424 21.8626 34.6287C23.0042 34.3524 24.0885 33.8768 25.0662 33.2236C29.1074 30.9987 32.497 27.7479 34.8967 23.7956C36.6968 20.5272 35.544 16.468 31.1572 17.3947Z" fill="url(#paint13_linear_22_106)" style="mix-blend-mode:screen"/>
<path d="M96.224 64.9625C94.7331 68.5425 92.5523 71.7911 89.8071 74.5214L85.1849 69.8426C83.0539 71.9679 80.5278 73.6518 77.7503 74.7984L80.2465 80.8973C76.7002 82.3627 72.9017 83.1139 69.0671 83.1083H68.997V76.515C68.2651 76.515 67.5431 76.4747 66.8313 76.4043C70.7265 71.9522 75.6596 68.5397 81.1892 66.4722C79.3826 56.8741 74.4221 48.1628 67.102 41.7334C64.2692 43.073 60.6701 44.3573 57.8376 45.6969C54.0178 41.9724 50.4489 37.9967 47.1544 33.7963C47.5204 33.3832 47.8964 32.9853 48.2875 32.5926L52.9192 37.2628C55.0455 35.1349 57.5662 33.4462 60.3388 32.2921L57.8374 26.1984C61.1426 24.826 64.6699 24.0733 68.2449 23.9774C66.1394 25.0551 64.0639 26.1884 61.9684 27.4121C63.6369 30.12 65.4441 32.7392 67.3826 35.2592C70.4107 34.01 73.4671 32.8634 76.5518 31.8193C76.988 31.9704 77.4191 32.1367 77.8402 32.3123L78.2814 31.2446C80.7078 30.454 83.1542 29.7321 85.6207 29.079C87.1522 30.129 88.5822 31.3211 89.892 32.6396L85.2502 37.2983C85.3203 37.3687 85.3956 37.4444 85.4657 37.5199C82.6934 38.6076 79.9913 39.7861 77.4246 40.9798C82.7153 47.9954 87.0388 55.6966 90.278 63.8746C91.8309 63.8595 93.3798 64.0354 94.8901 64.3984L96.224 64.9625Z" fill="url(#paint14_linear_22_106)" style="mix-blend-mode:screen"/>
<path d="M85.6207 29.0788C86.0547 29.265 86.4789 29.4735 86.8915 29.7035C87.275 29.9717 87.6448 30.2592 87.9994 30.5649C88.718 31.1645 89.4078 31.7967 90.069 32.4614L90.2464 32.6396L90.0689 32.8177L87.7478 35.147L86.5907 36.3151C86.1602 36.6595 85.7086 36.9826 85.2495 37.2981C85.5641 36.8372 85.8862 36.3838 86.2295 35.9519L87.3934 34.7907L89.7146 32.4614V32.8175C89.0649 32.1648 88.3864 31.543 87.6791 30.9521C87.3309 30.6507 86.9549 30.3852 86.6084 30.0806L85.6207 29.0788Z" fill="url(#paint15_linear_22_106)" style="mix-blend-mode:screen"/>
<path d="M47.1543 33.7979L48.2128 32.5194L48.2765 32.4425L48.362 32.5196L49.585 33.6216C49.9897 33.9919 50.4124 34.3443 50.7821 34.7496L53.0971 37.085H52.7425C54.8921 34.9338 57.4403 33.2264 60.2431 32.059L60.1073 32.3876L57.6058 26.2942L57.5103 26.0614L57.7418 25.9654C59.4051 25.2746 61.1279 24.7382 62.8885 24.3627C63.767 24.1675 64.661 24.0504 65.56 24.0126C66.4539 23.9535 67.3503 23.9416 68.2455 23.9771C67.3561 24.0646 66.4725 24.1786 65.5975 24.3318C64.7215 24.4819 63.8627 24.7011 62.9925 24.8554C61.262 25.2246 59.5687 25.7519 57.9338 26.4308L58.0698 26.1022L60.5713 32.196L60.6667 32.4284L60.4356 32.5247C57.6933 33.6664 55.2001 35.3365 53.0966 37.4407L52.9191 37.6185L52.742 37.4407L50.4247 35.1076C50.0225 34.7348 49.6731 34.3091 49.3058 33.9014L48.2128 32.6691H48.3616L47.1543 33.7979Z" fill="url(#paint16_linear_22_106)" style="mix-blend-mode:screen"/>
<path d="M96.224 64.9625C95.5532 66.7867 94.6966 68.5364 93.6679 70.1838C93.1547 71.0123 92.5798 71.8006 91.9482 72.542C91.3286 73.2934 90.6738 74.0127 89.9838 74.7001L89.8058 74.8776L89.6292 74.6988L85.0071 70.0201L85.3613 70.0215C83.2067 72.1697 80.653 73.8719 77.8454 75.0314L77.9823 74.7026L80.4784 80.8015L80.5737 81.0341L80.3419 81.1303C76.7429 82.6156 72.8876 83.3733 68.9968 83.36L68.7466 83.3593V83.1081L68.7433 81.4598C68.7447 80.9104 68.777 80.3609 68.7925 79.8115L68.909 76.5149L68.9972 76.6035L66.8306 76.405L68.9962 76.4271L69.0815 76.428L69.0846 76.5157L69.2011 79.8124C69.2165 80.3618 69.2489 80.9112 69.2503 81.4607L69.247 83.109L68.9964 82.8572C72.8218 82.8706 76.6122 82.1257 80.1506 80.6653L80.0141 80.9939L77.5179 74.895L77.4226 74.6616L77.6549 74.5661C80.4017 73.4315 82.9 71.7661 85.0081 69.6645L85.1859 69.4873L85.3624 69.6659L89.9846 74.3446L89.6301 74.3433C90.3075 73.6677 90.9514 72.9603 91.5618 72.2214C92.1737 71.4847 92.7247 70.7021 93.3034 69.9378C94.4296 68.3747 95.4074 66.709 96.224 64.9625Z" fill="url(#paint17_linear_22_106)" style="mix-blend-mode:screen"/>
<path d="M113.84 99.2747C113.182 101.196 112.272 103.02 111.133 104.699C110.035 105.519 108.839 106.199 107.574 106.723L108.226 108.315C106.728 109.885 105.09 111.312 103.333 112.581C102.676 112.646 102.015 112.677 101.348 112.677H101.298V107.952C99.1459 107.949 97.016 107.517 95.0311 106.683L93.2163 111.044C90.6622 109.972 88.3437 108.405 86.3935 106.431L89.7272 103.097C88.2094 101.564 87.0053 99.7471 86.1829 97.7488L81.8364 99.5521C80.7848 96.9919 80.2463 94.2485 80.2518 91.4789L84.9541 91.4638C84.9516 89.296 85.3776 87.1493 86.2074 85.1482L81.866 83.3309C82.9306 80.7632 84.4894 78.4321 86.4531 76.4713L89.7718 79.8155C91.2968 78.2914 93.1037 77.0814 95.0907 76.2535L93.2956 71.8821C95.824 70.8344 98.5316 70.2921 101.267 70.2855H101.367V75.0096C103.518 75.0078 105.648 75.4339 107.633 76.2634L108.601 73.9215C109.356 74.9027 110.051 75.9288 110.682 76.9942C114.627 83.6471 116.327 91.9469 113.84 99.2747Z" fill="url(#paint18_linear_22_106)" style="mix-blend-mode:screen"/>
<path d="M101.297 107.952C99.137 107.99 96.9907 107.599 94.9816 106.801L95.1479 106.732L93.4193 111.13L93.3395 111.333L93.1309 111.248C92.4808 110.993 91.8457 110.701 91.2288 110.373C90.6127 110.043 90.0149 109.68 89.4382 109.284C88.2796 108.5 87.2002 107.604 86.2154 106.609L86.0386 106.43L86.2163 106.252L89.5499 102.918L89.5488 103.275C88.0081 101.718 86.7858 99.8732 85.9506 97.8446L86.278 97.9814L81.9316 99.7847L81.7001 99.8806L81.6042 99.6479C80.5409 97.0571 79.9961 94.2812 80.001 91.4788V91.2277L80.2506 91.2269L84.9529 91.2118L84.703 91.4635C84.7015 89.2626 85.1341 87.0832 85.9756 85.0512L86.1105 85.3806L81.7691 83.5625L81.5381 83.4657L81.6342 83.2331C82.7121 80.6354 84.2895 78.2768 86.276 76.2923L86.4538 76.1146L86.6307 76.2929L89.9493 79.6368L89.5952 79.636C91.1435 78.0895 92.9775 76.8616 94.9943 76.0214L94.8584 76.3499L93.0634 71.9785L92.9678 71.7456L93.1997 71.6497C94.4917 71.1148 95.8329 70.7089 97.204 70.4381C97.8886 70.2991 98.5801 70.1973 99.2756 70.133C99.9709 70.0744 100.669 70.0529 101.366 70.0686L101.587 70.0718L101.583 70.2865L101.492 75.0106L101.366 74.8846C103.525 74.9256 105.655 75.3948 107.633 76.2652C105.639 75.4781 103.509 75.0947 101.366 75.1371L101.243 75.1396L101.241 75.0111L101.149 70.2871L101.366 70.505C100.002 70.5379 98.6424 70.681 97.3008 70.9327C95.9619 71.1974 94.6522 71.5938 93.3906 72.1161L93.5269 71.7873L95.3219 76.1587L95.4175 76.3915L95.186 76.4876C93.2294 77.3027 91.4501 78.4938 89.9479 79.9941L89.7704 80.1713L89.5937 79.9932L86.2754 76.648H86.63C84.6901 78.5859 83.1498 80.8892 82.0973 83.426L81.9624 83.0967L86.3036 84.9148L86.5353 85.0117L86.4385 85.2442C85.6225 87.2148 85.2031 89.3283 85.2045 91.4627V91.7137L84.9544 91.7146L80.2522 91.7297L80.5019 91.4779C80.497 94.2144 81.0289 96.9251 82.0672 99.455L81.7398 99.3182L86.0863 97.515L86.3181 97.4187L86.4137 97.6516C87.2238 99.6194 88.4095 101.409 89.904 102.919L90.0806 103.097L89.9031 103.275L86.5694 106.609L86.5702 106.253C87.5319 107.225 88.5861 108.1 89.7175 108.866C90.283 109.248 90.8719 109.594 91.4685 109.925C92.0691 110.248 92.6745 110.565 93.3005 110.839L93.0122 110.958L94.9128 106.633L94.9653 106.513L95.0794 106.564C97.0407 107.434 99.1538 107.905 101.297 107.952Z" fill="url(#paint19_linear_22_106)" style="mix-blend-mode:screen"/>
<path d="M59.6144 0.817601C65.4129 6.90051 70.5698 13.5695 75.0027 20.7181L73.3143 21.4958C69.41 15.1419 64.7518 9.28804 59.4421 4.06281L59.6144 0.817601ZM15.7016 70.4621L16.601 70.3482C22.6424 47.9155 36.0977 32.6606 55.722 21.4963V19.9582C45.5259 24.5604 36.5733 31.5458 29.6114 40.3314C22.6495 49.117 17.8802 59.4479 15.7016 70.4621ZM7.32443 84.367C3.59416 67.5307 10.3775 66.4176 13.9318 67.3997C13.2778 66.9197 12.5173 66.6069 11.7161 66.4882C10.7173 66.4384 9.72393 66.6635 8.84315 67.1392C7.96237 67.615 7.22759 68.3232 6.71805 69.1876C5.72398 70.9366 5.18755 72.9102 5.15891 74.924C4.86219 82.0588 6.66887 89.1229 10.3524 95.2303C11.6407 97.3304 13.9318 99.1435 16.3532 98.7154C17.5441 98.4687 18.5996 97.7822 19.3109 96.7915C18.9402 97.0537 11.2693 102.165 7.32443 84.367ZM27.638 92.6769C27.0044 103.263 28.5084 113.869 32.0596 123.857L33.5432 122.056C30.6232 112.293 29.5171 102.074 30.2802 91.909L23.3682 88.0514L20.9604 89.1263L27.638 92.6769ZM61.9684 27.4118V29.9306L67.0152 36.9606C77.7454 33.0413 88.7563 29.9463 99.9531 27.7024C108.268 35.7832 115.627 44.801 121.883 54.577L122.448 53.9789C116.58 43.6528 109.306 34.2005 100.836 25.8959C89.3521 27.6609 78.1207 30.8043 67.3826 35.2585L61.9684 27.4118ZM59.3966 102.997C59.3515 102.77 59.3215 102.609 59.3014 102.523C59.322 102.683 59.3538 102.841 59.3966 102.997ZM110.682 76.9942C106.281 69.5807 98.8711 63.7891 90.2781 63.8746C87.0387 55.6965 82.715 47.9953 77.4242 40.9797V43.8201C82.2105 50.5381 86.0988 57.8579 88.9896 65.5921C88.9896 65.5921 106.882 63.2726 111.921 87.7088C116.954 112.14 83.5252 123.368 71.664 115.995C68.6953 114.215 65.9645 112.062 63.5375 109.589C66.8344 114.739 72.0117 118.383 77.9556 119.737C85.1497 121.233 92.6643 118.936 99.0662 115.32C105.533 111.664 111.444 106.326 113.84 99.2747C116.327 91.9469 114.627 83.6471 110.682 76.9942ZM59.8706 91.2416C62.194 80.958 69.8431 72.8848 80.3696 68.0351L81.1891 66.4733C68.271 71.8721 61.9158 80.4967 59.8706 91.2416ZM131.943 51.0824L130.605 51.3812C127.561 54.7354 124.15 57.7334 120.437 60.3179L120.814 61.1298C124.946 58.2852 128.687 54.9071 131.943 51.0824ZM18.5288 33.057C18.4899 32.7894 18.4791 32.5184 18.4965 32.2485C18.6884 29.1242 21.6488 25.8418 23.7132 23.6936C25.9108 21.2085 28.7929 19.4341 31.9947 18.595C32.5744 18.4186 33.1874 18.3824 33.7837 18.4892C34.38 18.5959 34.9427 18.8428 35.426 19.2095C34.8615 17.7911 33.4533 16.9098 31.1586 17.3969C27.9567 18.2359 25.0745 20.0104 22.8769 22.4957C20.8129 24.6437 17.8525 27.9261 17.6601 31.0506C17.6428 31.3205 17.6537 31.5914 17.6926 31.859C17.7987 32.6192 18.1692 33.3171 18.7385 33.8291C18.6388 33.5809 18.5684 33.3217 18.5288 33.057Z" fill="url(#paint20_linear_22_106)" style="mix-blend-mode:screen"/>
<path style="mix-blend-mode:screen" d="M35.7951 45.5686C34.9046 46.8305 34.097 48.4915 34.8242 49.8548C35.2218 50.3903 35.74 50.8236 36.3364 51.1191C36.9328 51.4146 37.5904 51.564 38.2554 51.5551C41.2482 51.8892 44.2766 51.6758 47.1937 50.9253C47.9768 50.8136 48.7257 50.5295 49.3868 50.0933C50.0479 49.6571 50.605 49.0797 51.0182 48.4021C51.446 46.939 51.3005 45.3669 50.6115 44.008C50.1119 42.2894 49.2629 40.6935 48.118 39.3213C43.8046 34.8165 38.1837 42.1838 35.7951 45.5686Z" fill="url(#paint21_linear_22_106)"/>
<path style="mix-blend-mode:screen" d="M39.7237 22.5711C39.3451 23.2262 39.0339 24.1277 39.5545 24.6762C39.8112 24.8618 40.1112 24.978 40.4255 25.0137C40.7398 25.0494 41.058 25.0034 41.3495 24.88C43.6886 24.289 45.9505 23.4241 48.0888 22.3032C48.8439 21.9508 49.5293 21.4639 50.1117 20.8662C50.4005 20.5648 50.617 20.2011 50.7448 19.803C50.8725 19.4048 50.9081 18.9826 50.8489 18.5685C50.6825 18.011 50.3498 17.5182 49.8958 17.1566C49.4417 16.7951 48.8881 16.5822 48.3098 16.5467C44.4334 16.1083 41.4784 19.5392 39.7237 22.5711Z" fill="url(#paint22_linear_22_106)"/>
<path d="M108.22 97.7274C107.911 98.2189 107.496 98.634 107.006 98.9419C106.515 99.2498 105.962 99.4425 105.387 99.5056C104.206 99.4862 103.08 99.0006 102.252 98.154C101.425 97.3405 100.834 96.3165 100.541 95.1914C100.248 94.0664 100.265 92.8826 100.59 91.7666C100.968 90.5998 101.637 89.5498 102.533 88.7168C103.43 87.8838 104.524 87.2957 105.711 87.0087C104.032 86.9526 102.357 87.2196 100.777 87.7951C99.1894 88.3801 97.8448 89.4858 96.9604 90.9334C96.3707 92.0935 96.0856 93.3857 96.1322 94.6874C96.1789 95.9892 96.5557 97.2574 97.2269 98.3719C98.5901 100.583 100.568 102.345 102.916 103.441C101.098 103.665 99.2575 103.294 97.6665 102.384C92.8762 99.8504 89.7462 94.9829 91.2843 89.4319C91.7223 87.851 92.5171 86.3927 93.607 85.1704C94.6968 83.948 96.0524 82.9944 97.5685 82.3836C99.0846 81.7727 100.72 81.5211 102.349 81.6482C103.978 81.7753 105.555 82.2777 106.959 83.1165C109.801 84.8139 110.563 89.8335 110.183 92.8826C109.917 94.6303 109.244 96.2902 108.22 97.7274Z" fill="url(#paint23_linear_22_106)" style="mix-blend-mode:screen"/>
<defs>
<linearGradient id="paint0_linear_22_106" x1="29.7109" y1="3.29779" x2="100.833" y2="119.268" gradientUnits="userSpaceOnUse">
<stop stop-color="#C9FA49"/>
<stop offset="0.359375" stop-color="#7A972B"/>
<stop offset="0.682292" stop-color="#3D4C15"/>
<stop offset="1" stop-color="#1C2602"/>
</linearGradient>
<linearGradient id="paint1_linear_22_106" x1="32.4913" y1="35.1826" x2="74.3507" y2="127.103" gradientUnits="userSpaceOnUse">
<stop stop-color="#C9FA49"/>
<stop offset="0.359375" stop-color="#7A972B"/>
<stop offset="0.682292" stop-color="#3D4C15"/>
<stop offset="1" stop-color="#1C2602"/>
</linearGradient>
<linearGradient id="paint2_linear_22_106" x1="26.5958" y1="6.14137" x2="59.0365" y2="66.6308" gradientUnits="userSpaceOnUse">
<stop stop-color="#C9FA49"/>
<stop offset="0.359375" stop-color="#7A972B"/>
<stop offset="0.682292" stop-color="#3D4C15"/>
<stop offset="1" stop-color="#1C2602"/>
</linearGradient>
<linearGradient id="paint3_linear_22_106" x1="29.371" y1="12.7833" x2="95.6212" y2="119.44" gradientUnits="userSpaceOnUse">
<stop stop-color="#C9FA49"/>
<stop offset="0.359375" stop-color="#7A972B"/>
<stop offset="0.682292" stop-color="#3D4C15"/>
<stop offset="1" stop-color="#1C2602"/>
</linearGradient>
<linearGradient id="paint4_linear_22_106" x1="37.8226" y1="53.5061" x2="67.5887" y2="99.2707" gradientUnits="userSpaceOnUse">
<stop stop-color="#C9FA49"/>
<stop offset="0.359375" stop-color="#7A972B"/>
<stop offset="0.682292" stop-color="#3D4C15"/>
<stop offset="1" stop-color="#1C2602"/>
</linearGradient>
<linearGradient id="paint5_linear_22_106" x1="109.419" y1="73.1362" x2="135.342" y2="89.1967" gradientUnits="userSpaceOnUse">
<stop stop-color="#C9FA49"/>
<stop offset="0.359375" stop-color="#7A972B"/>
<stop offset="0.682292" stop-color="#3D4C15"/>
<stop offset="1" stop-color="#1C2602"/>
</linearGradient>
<linearGradient id="paint6_linear_22_106" x1="93.1573" y1="35.3537" x2="100.46" y2="52.0452" gradientUnits="userSpaceOnUse">
<stop stop-color="#C9FA49"/>
<stop offset="0.359375" stop-color="#7A972B"/>
<stop offset="0.682292" stop-color="#3D4C15"/>
<stop offset="1" stop-color="#1C2602"/>
</linearGradient>
<linearGradient id="paint7_linear_22_106" x1="75.375" y1="9.69959" x2="76.6247" y2="19.7517" gradientUnits="userSpaceOnUse">
<stop stop-color="#C9FA49"/>
<stop offset="0.359375" stop-color="#7A972B"/>
<stop offset="0.682292" stop-color="#3D4C15"/>
<stop offset="1" stop-color="#1C2602"/>
</linearGradient>
<linearGradient id="paint8_linear_22_106" x1="37.4839" y1="10.101" x2="42.0726" y2="21.9123" gradientUnits="userSpaceOnUse">
<stop stop-color="#C9FA49"/>
<stop offset="0.359375" stop-color="#7A972B"/>
<stop offset="0.682292" stop-color="#3D4C15"/>
<stop offset="1" stop-color="#1C2602"/>
</linearGradient>
<linearGradient id="paint9_linear_22_106" x1="27.6105" y1="30.5176" x2="32.4012" y2="36.2903" gradientUnits="userSpaceOnUse">
<stop stop-color="#C9FA49"/>
<stop offset="0.359375" stop-color="#7A972B"/>
<stop offset="0.682292" stop-color="#3D4C15"/>
<stop offset="1" stop-color="#1C2602"/>
</linearGradient>
<linearGradient id="paint10_linear_22_106" x1="3.97591" y1="84.4061" x2="4.48286" y2="86.3225" gradientUnits="userSpaceOnUse">
<stop stop-color="#C9FA49"/>
<stop offset="0.359375" stop-color="#7A972B"/>
<stop offset="0.682292" stop-color="#3D4C15"/>
<stop offset="1" stop-color="#1C2602"/>
</linearGradient>
<linearGradient id="paint11_linear_22_106" x1="42.0379" y1="117.156" x2="46.9595" y2="136.198" gradientUnits="userSpaceOnUse">
<stop stop-color="#C9FA49"/>
<stop offset="0.359375" stop-color="#7A972B"/>
<stop offset="0.682292" stop-color="#3D4C15"/>
<stop offset="1" stop-color="#1C2602"/>
</linearGradient>
<linearGradient id="paint12_linear_22_106" x1="6.63958" y1="32.4759" x2="18.9265" y2="49.5369" gradientUnits="userSpaceOnUse">
<stop stop-color="#C9FA49"/>
<stop offset="0.359375" stop-color="#7A972B"/>
<stop offset="0.682292" stop-color="#3D4C15"/>
<stop offset="1" stop-color="#1C2602"/>
</linearGradient>
<linearGradient id="paint13_linear_22_106" x1="32.4771" y1="3.65099" x2="98.8677" y2="112.791" gradientUnits="userSpaceOnUse">
<stop stop-color="#C9FA49"/>
<stop offset="0.359375" stop-color="#7A972B"/>
<stop offset="0.682292" stop-color="#3D4C15"/>
<stop offset="1" stop-color="#1C2602"/>
</linearGradient>
<linearGradient id="paint14_linear_22_106" x1="57.8274" y1="25.3157" x2="91.5096" y2="71.1025" gradientUnits="userSpaceOnUse">
<stop stop-color="#C9FA49"/>
<stop offset="0.359375" stop-color="#7A972B"/>
<stop offset="0.682292" stop-color="#3D4C15"/>
<stop offset="1" stop-color="#1C2602"/>
</linearGradient>
<linearGradient id="paint15_linear_22_106" x1="86.3364" y1="29.2649" x2="91.2406" y2="34.1489" gradientUnits="userSpaceOnUse">
<stop stop-color="#C9FA49"/>
<stop offset="0.359375" stop-color="#7A972B"/>
<stop offset="0.682292" stop-color="#3D4C15"/>
<stop offset="1" stop-color="#1C2602"/>
</linearGradient>
<linearGradient id="paint16_linear_22_106" x1="51.7418" y1="24.2663" x2="57.3165" y2="38.3649" gradientUnits="userSpaceOnUse">
<stop stop-color="#C9FA49"/>
<stop offset="0.359375" stop-color="#7A972B"/>
<stop offset="0.682292" stop-color="#3D4C15"/>
<stop offset="1" stop-color="#1C2602"/>
</linearGradient>
<linearGradient id="paint17_linear_22_106" x1="73.2238" y1="65.3788" x2="80.5441" y2="84.537" gradientUnits="userSpaceOnUse">
<stop stop-color="#C9FA49"/>
<stop offset="0.359375" stop-color="#7A972B"/>
<stop offset="0.682292" stop-color="#3D4C15"/>
<stop offset="1" stop-color="#1C2602"/>
</linearGradient>
<linearGradient id="paint18_linear_22_106" x1="87.8107" y1="71.2449" x2="112.044" y2="103.788" gradientUnits="userSpaceOnUse">
<stop stop-color="#C9FA49"/>
<stop offset="0.359375" stop-color="#7A972B"/>
<stop offset="0.682292" stop-color="#3D4C15"/>
<stop offset="1" stop-color="#1C2602"/>
</linearGradient>
<linearGradient id="paint19_linear_22_106" x1="86.0111" y1="70.9976" x2="110.531" y2="97.8909" gradientUnits="userSpaceOnUse">
<stop stop-color="#C9FA49"/>
<stop offset="0.359375" stop-color="#7A972B"/>
<stop offset="0.682292" stop-color="#3D4C15"/>
<stop offset="1" stop-color="#1C2602"/>
</linearGradient>
<linearGradient id="paint20_linear_22_106" x1="32.7106" y1="3.60226" x2="97.0909" y2="112.301" gradientUnits="userSpaceOnUse">
<stop stop-color="#C9FA49"/>
<stop offset="0.359375" stop-color="#7A972B"/>
<stop offset="0.682292" stop-color="#3D4C15"/>
<stop offset="1" stop-color="#1C2602"/>
</linearGradient>
<linearGradient id="paint21_linear_22_106" x1="38.1783" y1="38.2154" x2="44.8007" y2="51.3516" gradientUnits="userSpaceOnUse">
<stop stop-color="#C9FA49"/>
<stop offset="0.359375" stop-color="#7A972B"/>
<stop offset="0.682292" stop-color="#3D4C15"/>
<stop offset="1" stop-color="#1C2602"/>
</linearGradient>
<linearGradient id="paint22_linear_22_106" x1="41.8019" y1="16.7014" x2="45.5958" y2="25.1642" gradientUnits="userSpaceOnUse">
<stop stop-color="#C9FA49"/>
<stop offset="0.359375" stop-color="#7A972B"/>
<stop offset="0.682292" stop-color="#3D4C15"/>
<stop offset="1" stop-color="#1C2602"/>
</linearGradient>
<linearGradient id="paint23_linear_22_106" x1="95.1058" y1="82.1115" x2="107.312" y2="99.8186" gradientUnits="userSpaceOnUse">
<stop stop-color="#C9FA49"/>
<stop offset="0.359375" stop-color="#7A972B"/>
<stop offset="0.682292" stop-color="#3D4C15"/>
<stop offset="1" stop-color="#1C2602"/>
</linearGradient>
</defs>
</svg>
