<svg width="32" height="33" viewBox="0 0 32 33" fill="none" xmlns="http://www.w3.org/2000/svg">
<path d="M26.6386 27.4039C25.9423 27.1546 25.1872 27.123 24.4728 27.3133C24.5179 27.9428 24.6433 28.5522 24.6831 29.1817C24.6981 29.4385 23.0539 30.2746 22.8132 30.4106C22.1258 30.8071 21.4103 31.1521 20.6725 31.443C19.4344 31.9394 18.1302 32.25 16.802 32.3646C15.1631 32.5035 13.5136 32.2897 11.9635 31.7374C10.4134 31.185 8.99836 30.3069 7.81289 29.1615C7.42696 28.7637 5.56702 27.3687 5.62718 26.734C5.62213 26.724 5.62718 26.7189 5.62718 26.714C5.71244 26.155 6.18363 25.616 6.2689 25.057H6.26483C5.66322 25.1023 4.89052 24.9361 4.29466 24.9815C2.92573 23.2956 1.92213 21.3413 1.34806 19.2435C0.774 17.1457 0.642111 14.9507 0.960835 12.7987C1.25197 10.717 1.97659 8.72021 3.08744 6.93866C4.1983 5.15712 5.67044 3.63078 7.40789 2.45916L7.54322 2.36843C7.85796 2.6248 8.20523 2.83799 8.57592 3.0024C8.66118 3.04269 8.74139 3.08298 8.83157 3.1182L8.85162 3.1282C9.11232 2.47353 9.63371 1.6829 9.90437 1.01808C9.91986 0.989073 9.93326 0.958989 9.94448 0.928059C16.6672 -0.779143 23.7414 -0.83465 28.86 6.97173C33.7874 14.4966 30.8546 21.8691 26.6386 27.4039Z" fill="url(#paint0_linear_22_143)" style="mix-blend-mode:screen"/>
<path d="M3.17023 18.7528C4.39327 20.6171 6.119 22.0934 8.14592 23.0093C10.1728 23.9252 12.4173 24.2429 14.6172 23.9254C16.8079 23.5595 18.8957 22.7285 20.7413 21.4878C22.5869 20.2471 24.1479 18.6252 25.3202 16.7304C26.3057 15.3587 26.9814 13.7874 27.3002 12.1262C27.619 10.465 27.5731 8.754 27.1658 7.11247C28.2934 8.96637 29.0294 11.0334 29.3281 13.1852C29.6268 15.3369 29.4818 17.5274 28.9021 19.6205C28.4586 21.4564 27.6086 23.1682 26.4154 24.6284C25.1584 26.0363 23.6014 27.1412 21.8604 27.8608C20.0278 28.6945 18.0459 29.1459 16.0346 29.1877C14.0232 29.2295 12.0244 28.8609 10.159 28.1041C8.29164 27.2812 6.66724 25.9881 5.44293 24.3499C4.21861 22.7117 3.43581 20.7839 3.17023 18.7528Z" fill="url(#paint1_linear_22_143)" style="mix-blend-mode:screen"/>
<path style="mix-blend-mode:screen" d="M7.22276 4.24173C8.92157 2.72662 10.9895 1.69045 13.2162 1.23856C15.2944 0.867903 17.5403 0.78591 19.0964 2.47296C19.8422 3.29787 20.2753 4.36021 20.3195 5.47374C20.2831 6.48876 19.8626 7.45158 19.1438 8.16584C17.6548 10.1379 15.7038 11.7097 13.4642 12.7415C11.23 13.7667 8.85814 14.4569 6.4244 14.7899C5.63309 14.9917 4.79757 14.9247 4.04811 14.5995C3.64708 14.3177 3.32263 13.9395 3.10432 13.4995C2.886 13.0595 2.78076 12.5716 2.79819 12.0802C2.79817 10.4461 3.31601 8.85438 4.27669 7.53568C5.11013 6.31223 6.10072 5.20468 7.22276 4.24173Z" fill="url(#paint2_linear_22_143)"/>
<path style="mix-blend-mode:screen" d="M24.6834 29.1817L24.473 27.3133L15.7368 15.8419C15.8003 15.7902 15.8616 15.7358 15.9252 15.6844C15.5543 15.6443 15.1281 15.5989 14.7572 15.5586C11.2393 18.0291 8.33367 21.2789 6.26483 25.057H6.26988C6.18461 25.616 5.71342 26.155 5.62816 26.714C5.62816 26.7189 5.62311 26.724 5.62816 26.734C8.22323 23.004 11.2843 19.6242 14.7362 16.6773C17.4612 21.287 20.8087 25.4951 24.6834 29.1817Z" fill="url(#paint3_linear_22_143)"/>
<path d="M15.159 15.5132C11.5643 17.9541 8.55 21.1619 6.33132 24.9078C5.65327 24.7505 4.94535 24.7821 4.28387 24.9992C6.89268 21.1906 10.2402 17.9505 14.1256 15.4731C14.4616 15.5717 14.8165 15.5855 15.159 15.5132Z" fill="url(#paint4_linear_22_143)" style="mix-blend-mode:screen"/>
<path style="mix-blend-mode:screen" d="M15.159 15.5132C14.8165 15.5831 14.4623 15.5693 14.1263 15.4729C10.7089 11.8592 8.38001 7.34725 7.409 2.45916L7.54432 2.36843C7.85906 2.6248 8.20634 2.838 8.57702 3.0024C9.94718 7.56015 12.1822 11.8085 15.159 15.5132Z" fill="url(#paint5_linear_22_143)"/>
<path d="M15.9252 15.6443C15.6668 15.6934 15.3997 15.6635 15.1583 15.5586C12.207 11.9019 10.0517 7.66407 8.83154 3.11877L8.8516 3.12877C9.1123 2.47409 9.63369 1.68347 9.90435 1.01865C11.2263 6.15081 13.2527 11.0732 15.9252 15.6443Z" fill="url(#paint6_linear_22_143)" style="mix-blend-mode:screen"/>
<path d="M15.9253 15.6443C18.7957 20.1549 22.4204 24.1333 26.6393 27.4039L24.4735 27.3133C20.6828 23.9969 17.5262 20.0134 15.1591 15.5586L15.9253 15.6443Z" fill="url(#paint7_linear_22_143)" style="mix-blend-mode:screen"/>
<path style="mix-blend-mode:screen" d="M6.04577 5.34934C6.15431 5.26129 6.28915 5.21243 6.42864 5.21062C6.56814 5.2088 6.70419 5.25414 6.81496 5.33934C6.93078 5.46596 7.00288 5.62672 7.02055 5.79777C7.12358 6.39213 7.01837 7.004 6.72283 7.5292C6.67412 7.63949 6.60088 7.73709 6.50874 7.81449C6.4166 7.89189 6.30801 7.94702 6.19133 7.97565C5.87735 8.01313 5.61889 7.72009 5.50165 7.42509C5.36465 7.06542 5.34346 6.67162 5.44108 6.29922C5.5387 5.92681 5.7502 5.59457 6.04577 5.34934ZM8.16978 14.978C8.20922 15.3008 8.34706 15.6034 8.5644 15.8443C8.73156 15.9941 8.93881 16.0913 9.16046 16.1239C9.3821 16.1564 9.60839 16.1229 9.81124 16.0274C10.0116 15.9272 10.1874 15.7837 10.3261 15.6071C10.4648 15.4306 10.5629 15.2254 10.6134 15.0063C10.7221 14.5868 10.6611 14.141 10.4436 13.7666C10.3522 13.6151 10.2319 13.4835 10.0894 13.3792C9.94694 13.275 9.78526 13.2002 9.61377 13.1593C9.44228 13.1185 9.26441 13.1123 9.09052 13.1411C8.91662 13.1699 8.75017 13.2332 8.60086 13.3273C8.036 13.6559 8.0653 14.398 8.16978 14.978ZM4.44498 20.1236C4.45998 20.1475 4.47583 20.1711 4.49252 20.194C4.63283 20.3895 4.8226 20.5438 5.04218 20.6409C5.26176 20.738 5.50318 20.7744 5.74146 20.7463C5.97881 20.7112 6.20089 20.6075 6.38065 20.4479C6.56042 20.2883 6.69012 20.0796 6.75396 19.8473C6.79542 19.5459 6.77524 19.2391 6.69466 18.9458C6.61408 18.6525 6.47478 18.3788 6.28529 18.1414C5.90343 17.7103 5.19875 18.0597 4.80833 18.3276C4.52381 18.518 4.32588 18.8138 4.25779 19.1503C4.18971 19.4868 4.257 19.8367 4.44498 20.1236ZM14.0591 21.5925C14.3019 21.6729 14.5643 21.6712 14.806 21.5876C15.0478 21.504 15.2556 21.3431 15.3977 21.1296C15.5187 20.927 15.5784 20.6933 15.5693 20.4572C15.5602 20.2211 15.4828 19.9928 15.3466 19.8001C15.2048 19.6116 15.0151 19.4649 14.7974 19.3754C14.5798 19.2858 14.3422 19.2567 14.1095 19.2911C12.834 19.4859 13.0001 21.2137 14.0591 21.5925ZM13.7146 7.37522C14.0012 7.51886 14.3267 7.56424 14.6414 7.50443C14.9561 7.44461 15.2427 7.2829 15.4573 7.044C15.6626 6.79692 15.7956 6.49743 15.8415 6.1789C15.8873 5.86036 15.8443 5.53529 15.7171 5.23988C15.6006 4.9327 15.3681 4.68413 15.0702 4.54815C14.7722 4.45232 14.4512 4.45632 14.1556 4.55956C13.8769 4.62823 13.6187 4.76296 13.4025 4.95248C13.2626 5.1313 13.1596 5.33635 13.0995 5.55564C13.0393 5.77493 13.0233 6.00406 13.0524 6.22964C13.0814 6.45521 13.155 6.67271 13.2687 6.86941C13.3824 7.0661 13.5339 7.23806 13.7146 7.37522ZM19.4722 18.1526C19.6801 18.3939 19.9672 18.5524 20.2814 18.5992C20.4577 18.6033 20.6328 18.5689 20.7945 18.4984C20.9563 18.4278 21.1009 18.3228 21.2183 18.1907C21.4825 17.9197 21.6589 17.5747 21.7243 17.2011C21.7897 16.8275 21.7411 16.4428 21.5848 16.0974C21.4285 15.7521 21.172 15.4624 20.8487 15.2662C20.5255 15.0701 20.1508 14.9768 19.7739 14.9986C19.5182 15.0051 19.2707 15.0902 19.0646 15.2423C18.2582 15.8843 18.911 17.569 19.4722 18.1526ZM26.485 25.424C26.685 25.3296 26.8565 25.1837 26.9821 25.0012C27.1078 24.8186 27.183 24.6058 27.2002 24.3845C27.2069 24.2016 27.1759 24.0192 27.1092 23.8489C27.0426 23.6785 26.9417 23.5237 26.8129 23.3943C26.5515 23.1362 26.2139 22.9701 25.8507 22.9211C25.6593 22.8839 25.4617 22.895 25.2756 22.9533C25.0895 23.0115 24.9206 23.1152 24.7841 23.2549C24.6475 23.3947 24.5475 23.5663 24.493 23.7543C24.4385 23.9423 24.4312 24.141 24.4718 24.3326C24.5224 24.5433 24.6166 24.7409 24.7483 24.9127C24.88 25.0844 25.0462 25.2264 25.2361 25.3293C25.426 25.4323 25.6353 25.494 25.8505 25.5104C26.0656 25.5268 26.2818 25.497 26.485 25.424ZM18.8281 28.9125C19.1471 29.199 19.5466 29.3793 19.9717 29.4284C20.2465 29.4873 20.5325 29.4621 20.7928 29.3558C21.0531 29.2495 21.2756 29.0671 21.4315 28.8323C21.5025 28.6755 21.5381 28.5048 21.5357 28.3326C21.5333 28.1603 21.4929 27.9907 21.4174 27.836C21.2634 27.5273 21.0372 27.2607 20.7583 27.0589C20.4675 26.8201 20.1249 26.6534 19.7582 26.5721C19.5749 26.5327 19.3856 26.5304 19.2014 26.5653C19.0172 26.6001 18.8418 26.6715 18.6854 26.7752C17.9718 27.2837 18.2771 28.3943 18.8281 28.9125Z" fill="url(#paint8_linear_22_143)"/>
<defs>
<linearGradient id="paint0_linear_22_143" x1="7.45643" y1="0.733417" x2="25.078" y2="28.0291" gradientUnits="userSpaceOnUse">
<stop stop-color="#C9FA49"/>
<stop offset="0.359375" stop-color="#7A972B"/>
<stop offset="0.682292" stop-color="#3D4C15"/>
<stop offset="1" stop-color="#1C2602"/>
</linearGradient>
<linearGradient id="paint1_linear_22_143" x1="8.89261" y1="7.61216" x2="19.5843" y2="28.4824" gradientUnits="userSpaceOnUse">
<stop stop-color="#C9FA49"/>
<stop offset="0.359375" stop-color="#7A972B"/>
<stop offset="0.682292" stop-color="#3D4C15"/>
<stop offset="1" stop-color="#1C2602"/>
</linearGradient>
<linearGradient id="paint2_linear_22_143" x1="6.60773" y1="1.33303" x2="13.1033" y2="14.7612" gradientUnits="userSpaceOnUse">
<stop stop-color="#C9FA49"/>
<stop offset="0.359375" stop-color="#7A972B"/>
<stop offset="0.682292" stop-color="#3D4C15"/>
<stop offset="1" stop-color="#1C2602"/>
</linearGradient>
<linearGradient id="paint3_linear_22_143" x1="9.77104" y1="15.8669" x2="15.7306" y2="29.5236" gradientUnits="userSpaceOnUse">
<stop stop-color="#C9FA49"/>
<stop offset="0.359375" stop-color="#7A972B"/>
<stop offset="0.682292" stop-color="#3D4C15"/>
<stop offset="1" stop-color="#1C2602"/>
</linearGradient>
<linearGradient id="paint4_linear_22_143" x1="6.64929" y1="15.6887" x2="11.3765" y2="24.529" gradientUnits="userSpaceOnUse">
<stop stop-color="#C9FA49"/>
<stop offset="0.359375" stop-color="#7A972B"/>
<stop offset="0.682292" stop-color="#3D4C15"/>
<stop offset="1" stop-color="#1C2602"/>
</linearGradient>
<linearGradient id="paint5_linear_22_143" x1="9.09467" y1="2.66692" x2="16.9584" y2="10.2365" gradientUnits="userSpaceOnUse">
<stop stop-color="#C9FA49"/>
<stop offset="0.359375" stop-color="#7A972B"/>
<stop offset="0.682292" stop-color="#3D4C15"/>
<stop offset="1" stop-color="#1C2602"/>
</linearGradient>
<linearGradient id="paint6_linear_22_143" x1="10.3745" y1="1.35018" x2="18.8857" y2="8.10184" gradientUnits="userSpaceOnUse">
<stop stop-color="#C9FA49"/>
<stop offset="0.359375" stop-color="#7A972B"/>
<stop offset="0.682292" stop-color="#3D4C15"/>
<stop offset="1" stop-color="#1C2602"/>
</linearGradient>
<linearGradient id="paint7_linear_22_143" x1="17.6561" y1="15.8267" x2="24.0307" y2="25.9472" gradientUnits="userSpaceOnUse">
<stop stop-color="#C9FA49"/>
<stop offset="0.359375" stop-color="#7A972B"/>
<stop offset="0.682292" stop-color="#3D4C15"/>
<stop offset="1" stop-color="#1C2602"/>
</linearGradient>
<linearGradient id="paint8_linear_22_143" x1="9.22782" y1="5.04445" x2="22.9646" y2="25.7351" gradientUnits="userSpaceOnUse">
<stop stop-color="#C9FA49"/>
<stop offset="0.359375" stop-color="#7A972B"/>
<stop offset="0.682292" stop-color="#3D4C15"/>
<stop offset="1" stop-color="#1C2602"/>
</linearGradient>
</defs>
</svg>
