<svg width="239" height="291" viewBox="0 0 239 291" fill="none" xmlns="http://www.w3.org/2000/svg">
<g clip-path="url(#clip0_50_94)">
<path d="M211.687 252.305C207.455 254.234 202.839 256.934 198.992 258.863C200.146 260.02 200.146 261.564 200.531 263.492C198.223 265.036 195.915 266.193 193.607 267.736C190.529 275.452 187.067 283.939 182.835 290.883C180.527 294.741 177.834 298.213 174.757 302.071C170.141 307.858 165.524 314.03 160.908 319.817C158.215 323.289 155.138 327.147 150.906 328.305H150.521C148.598 331.005 145.136 334.091 142.443 336.02C142.443 336.406 142.443 336.406 142.443 336.792C142.443 337.178 142.443 337.563 142.443 337.949C142.058 339.492 141.289 341.036 140.519 341.807C139.365 343.35 137.442 344.122 135.903 345.279C128.594 349.137 121.285 352.995 113.976 356.467C112.437 363.025 111.283 369.198 110.514 376.142C110.514 376.528 110.514 376.914 110.514 377.3C108.59 374.599 105.513 372.67 102.435 370.741C101.666 373.827 100.127 376.528 98.9729 379.228C98.9729 379.614 98.5882 379.614 98.5882 379.614H98.2035H97.8188C95.126 378.843 92.4332 378.071 89.3557 377.3C81.6618 375.371 73.968 373.442 67.813 368.812C67.4283 368.812 67.4283 368.812 67.0436 368.812C62.4273 369.584 57.4264 370.355 52.4254 370.741C49.3479 370.741 46.2704 370.741 42.8082 370.355C40.8847 370.355 39.3459 368.812 37.4225 368.426H37.0378C33.1909 368.041 29.344 368.426 25.4971 368.041C25.4971 368.426 25.1124 368.812 24.7277 369.198C24.343 369.584 23.5736 369.584 23.1889 369.584C22.8043 369.584 22.4196 369.584 22.0349 369.584C18.9574 369.584 15.8799 369.584 13.187 369.97C12.4176 369.97 11.6483 369.97 10.8789 369.584C8.57076 368.812 8.95543 367.269 6.2626 368.041C4.33916 368.812 2.03101 369.198 0.107559 369.584C-4.12402 370.355 -8.35562 370.355 -12.5872 371.127C-20.281 372.284 -27.5901 374.599 -34.1298 378.071V377.685C-36.0533 371.899 -36.438 365.726 -36.0533 359.553C-39.5155 357.624 -44.1318 357.239 -47.9787 357.624C-48.748 357.624 -49.9021 358.01 -50.6715 357.624H-51.0562C-52.595 356.853 -53.3643 354.538 -54.9031 353.767C-55.6725 353.381 -56.4418 352.995 -57.2112 352.995C-62.2122 351.838 -68.3672 354.152 -73.3682 354.538C-73.7529 354.538 -74.5223 354.538 -74.907 354.538L-75.2917 354.152C-76.061 353.767 -76.061 352.609 -76.4457 351.838C-77.2151 348.751 -79.1386 346.051 -81.4467 343.736C-88.3711 344.122 -95.2955 344.508 -102.22 345.279C-102.22 344.893 -102.22 344.893 -102.22 344.508C-104.143 334.477 -107.221 324.061 -111.837 314.03C-112.222 314.03 -112.222 314.03 -112.607 314.03C-117.223 314.416 -122.224 315.188 -126.84 316.345C-127.609 316.731 -128.764 316.731 -129.533 317.117C-127.994 305.157 -127.225 292.812 -127.609 280.467C-127.994 266.579 -135.303 253.462 -138.381 239.959C-142.228 222.599 -145.69 204.467 -143.382 187.107C-143.382 186.721 -143.382 186.721 -143.382 186.335C-144.921 183.635 -146.075 181.706 -147.613 179.005C-147.613 179.005 -147.613 178.619 -147.998 178.619C-147.998 178.234 -147.998 178.234 -147.998 177.848C-147.998 177.462 -147.613 177.462 -147.229 177.462C-145.69 177.076 -144.151 176.305 -142.612 175.919C-142.612 172.447 -143.382 169.36 -143.766 165.888C-144.151 163.959 -144.151 162.03 -144.151 160.102C-144.151 157.401 -144.921 154.701 -145.69 152C-147.998 145.056 -152.614 138.112 -156.077 131.168C-156.846 129.624 -157.615 128.081 -158.385 126.538C-151.845 121.523 -144.921 116.122 -138.381 111.107C-137.996 110.721 -137.611 110.335 -137.227 109.563C-137.227 109.178 -136.842 108.792 -136.842 108.792C-136.842 108.406 -136.842 108.406 -136.842 108.02C-137.611 104.162 -138.766 100.305 -139.535 96.4467C-140.304 93.3605 -141.074 90.6599 -141.458 87.5737C-141.458 87.5737 -141.458 87.5736 -141.458 87.1879C-141.458 86.8021 -141.458 86.4163 -141.843 86.0305C-138.766 86.4163 -135.688 85.2589 -132.995 84.4874C-132.226 82.9442 -131.841 80.2437 -131.072 78.7006C-123.378 77.5432 -115.684 76 -107.99 73.6853C-98.7577 62.4975 -88.3711 52.467 -76.061 43.9797C-74.5223 37.4214 -73.3682 30.4772 -72.2141 23.9188C-72.2141 23.533 -72.2141 23.1473 -71.8295 22.7615C-69.1366 22.7615 -66.4438 23.1473 -63.3663 23.1473C-62.5969 23.1473 -62.2122 23.1473 -61.4428 23.1473C-59.1347 15.8173 -56.8265 8.10157 -54.9031 0.771618C-54.9031 0.385831 -54.5184 4.46141e-05 -54.5184 -0.385742C-50.2868 4.2437 -46.4399 7.71578 -42.593 12.3452C-41.4389 10.4163 -40.2849 8.48735 -39.1308 6.94421L-38.7461 6.55842C-34.1298 10.4163 -29.1289 13.5026 -23.3585 15.8173C-23.3585 15.8173 -23.3585 15.4315 -22.9738 15.4315C-22.2045 13.5026 -21.4351 12.3452 -20.6657 10.4163C-20.6657 10.0305 -20.281 10.0305 -20.281 9.64471C-14.126 12.3452 -9.50967 13.5026 -3.35464 16.2031C-1.4312 16.9747 0.492249 17.7462 2.03101 19.2894C2.4157 19.6752 2.8004 20.061 3.18509 20.4467C4.33916 20.4467 5.49323 20.4467 6.64729 20.4467C9.72481 20.4467 13.187 20.8325 16.2645 20.8325C17.4186 20.8325 18.5727 20.8325 19.3421 20.8325C20.4961 20.8325 22.0349 20.8325 23.1889 20.8325C23.9583 20.8325 25.1124 20.8325 25.8818 20.8325C27.4205 20.061 28.9593 18.9036 30.4981 17.7462C30.8828 17.7462 31.2674 17.7462 31.6521 17.7462H32.0368C38.1919 17.3604 44.3469 17.7462 50.502 18.5178C54.3488 19.2894 57.4264 20.061 60.5039 21.2183C63.9661 22.3757 68.5824 20.8325 72.0446 20.061C75.8915 19.2894 80.1231 18.132 83.97 19.2894C93.9719 16.9747 104.743 14.2742 114.745 11.5736C114.745 12.3452 114.36 13.1168 114.36 13.8884C113.591 16.9747 112.822 20.061 112.052 23.1473C111.668 24.3046 111.283 25.462 110.898 26.6193V27.0051C126.671 23.533 142.443 16.9747 155.907 8.48735L155.522 8.87314C154.368 10.8021 153.214 12.3452 152.445 14.2742C148.598 21.6041 144.751 29.3198 142.058 36.6498C142.058 37.0356 141.673 37.4214 141.673 37.8072C147.444 34.7209 152.829 31.2488 158.215 27.0051C158.215 27.0051 158.6 27.0051 158.6 26.6193C158.6 26.6193 158.6 26.6193 158.985 26.6193C158.6 32.7919 158.985 38.9645 160.139 45.5229C160.523 45.5229 160.523 45.1371 160.908 45.1371C165.14 42.8224 170.141 40.8934 174.372 38.5787C174.372 38.9645 174.372 39.7361 174.372 40.1219C175.141 53.2386 177.45 65.9696 180.912 78.7006C180.912 79.0863 181.297 79.4721 181.297 79.8579C185.913 79.4721 190.529 77.5432 195.145 76.3858H195.53V76.7716C195.53 82.9442 195.53 89.1168 195.145 95.2894C195.145 99.9188 193.991 104.548 194.761 109.178C195.145 113.421 197.454 117.665 198.223 121.909C200.531 131.168 201.685 140.426 203.224 149.685C203.224 150.457 203.609 150.843 203.609 151.614C208.61 161.645 215.149 167.432 221.304 174.761C221.304 175.147 220.92 175.147 220.92 175.533C218.227 178.619 215.149 181.706 211.302 184.02C211.302 184.02 211.302 184.02 211.302 184.406C217.842 198.68 227.459 212.569 238.231 223.756C227.459 229.543 217.073 236.102 206.686 242.66C209.379 245.36 210.533 248.833 211.687 252.305Z" fill="url(#paint0_linear_50_94)"/>
<path d="M-116.838 86.4164C-113.761 88.3454 -111.068 90.6601 -107.221 91.0459C-102.22 91.4316 -96.8343 90.2743 -91.8333 89.5027C-81.4467 87.9596 -71.0601 86.0306 -61.0581 82.9443C-63.3663 83.7159 -65.6744 86.0306 -67.9826 86.8022C-70.6754 87.9596 -73.3682 87.9596 -76.061 89.1169C-82.2161 91.4316 -87.9864 94.9037 -93.3721 98.3758C-106.452 106.477 -119.916 114.965 -132.995 123.066C-126.071 126.924 -117.608 126.152 -109.914 124.995C-105.682 124.224 -101.066 123.838 -96.8343 123.066C-104.143 126.152 -111.068 129.239 -118.377 132.711C-108.375 136.954 -97.219 138.498 -86.8324 136.569C-91.4486 139.269 -95.2955 142.741 -98.7577 146.599C-93.7568 151.614 -89.1405 156.63 -84.1395 161.645C-79.9079 161.645 -75.2917 162.416 -71.4448 163.574C-66.4438 165.117 -61.8275 167.817 -57.5959 170.904C-56.8265 166.66 -56.0572 162.031 -55.2878 157.787C-51.4409 160.873 -47.9787 164.345 -44.5165 167.817C-43.3624 164.731 -41.439 162.416 -39.1308 160.487C-38.7461 160.102 -38.3614 160.102 -37.9767 160.102C-37.592 160.102 -37.2074 160.873 -37.2074 161.259C-35.6686 163.96 -34.5145 167.046 -32.9758 169.746C-33.7452 168.203 -25.282 162.031 -23.7432 161.259C-19.8963 158.559 -15.6647 156.63 -11.4331 154.315C-3.35465 149.685 2.80039 143.127 10.1095 137.34C10.8789 136.569 12.033 135.797 12.4176 135.026C12.8023 133.868 12.8023 132.711 13.187 131.553C13.9564 129.239 16.2645 127.696 16.2645 125.381C16.2645 124.224 15.4952 122.68 15.1105 121.523C12.033 115.736 8.18606 109.949 4.33915 104.163C7.80136 106.092 11.2636 108.02 14.7258 109.564C15.8799 109.949 17.0339 110.721 18.188 110.335C19.3421 110.335 20.1114 109.564 20.8808 108.792C24.7277 105.706 28.1899 102.619 31.6521 99.1474C30.4981 96.8327 28.9593 94.5179 27.0359 92.2032C31.2674 95.2895 37.8072 92.9748 40.1153 88.3454C42.4235 83.7159 41.6541 78.3149 40.5 72.9139C30.4981 73.2997 20.1114 73.6855 10.1095 73.6855C17.4186 71.7565 25.1124 69.8276 32.4215 67.8987C30.8828 68.2844 27.8052 60.1829 27.0359 59.4113C25.4971 56.7108 22.8043 54.3961 20.4961 52.0814C19.3421 50.924 18.188 49.7667 16.6492 48.9951C14.3411 47.8377 11.6483 47.8377 9.34011 48.2235C2.4157 48.9951 -4.12403 50.924 -10.2791 53.6245C-4.89341 48.2235 1.64631 43.5941 8.57073 39.7362C6.64729 37.0357 5.87791 33.1778 2.80039 32.0205C0.107553 30.8631 -6.04748 31.2489 -9.12499 32.0205C-14.126 32.7921 -18.7422 33.9494 -23.3585 35.4926C-32.5911 38.1931 -41.4389 41.6652 -50.2868 44.3657C-64.5203 48.9951 -78.3692 54.7819 -89.5252 64.4266C-84.5242 62.1119 -78.7539 61.3403 -73.3682 62.1119C-87.2171 72.1423 -102.989 77.1575 -116.838 86.4164Z" fill="url(#paint1_linear_50_94)"/>
<path d="M78.1996 105.32C78.1996 112.65 77.4302 119.594 75.8915 126.538C75.8915 126.924 75.5068 127.696 75.8915 128.081C75.8915 128.467 76.2762 128.467 76.6608 128.467C79.7384 130.396 82.8159 132.325 86.2781 133.868C83.2006 135.797 79.3537 136.569 75.8915 136.183C73.5833 141.97 71.6599 148.142 68.967 153.543C68.1977 155.086 60.8886 167.817 61.6579 168.589C64.3508 171.29 67.0436 173.99 70.1211 176.305C67.4283 176.691 61.6579 175.919 59.7345 177.076C62.0426 181.32 65.1201 185.178 68.1977 189.036C63.5814 188.65 60.1192 189.036 55.8876 186.335C59.7345 188.65 47.0397 204.467 45.8857 206.782C48.5785 207.939 50.1172 209.482 52.0407 211.797C53.5794 214.112 55.8876 215.655 57.811 217.584C60.1192 219.513 62.4273 221.442 65.1201 222.985C66.2742 223.757 72.8139 226.071 73.1986 226.843C70.5058 221.442 68.1977 216.041 66.2742 210.64C70.8905 210.254 74.7374 214.112 78.5843 216.812C82.0465 219.513 86.2781 221.056 90.125 222.599C95.5106 224.142 100.896 224.528 106.282 225.3C103.589 221.056 103.589 216.041 102.82 211.026C102.05 204.853 100.896 198.68 98.9729 192.894C97.8188 189.036 96.6647 185.178 95.126 181.32C94.3566 178.619 92.0484 174.762 92.8178 172.061C93.5872 168.589 98.9729 168.203 101.666 165.503C97.8188 162.031 94.3566 158.173 91.6638 153.929C95.126 151.614 99.7422 152 102.82 149.685C104.743 148.528 105.513 146.213 106.667 144.284C110.898 135.797 113.591 127.696 115.515 118.437C116.669 114.193 116.284 109.564 117.823 105.706C118.207 104.163 119.361 102.619 120.131 101.076C124.362 93.3606 128.594 85.6449 132.441 77.5434C126.286 78.3149 120.9 84.4875 114.745 82.9444C120.9 75.2286 126.671 67.5129 132.826 59.4114C137.827 52.853 143.212 45.9088 150.521 41.6652C136.672 44.7515 122.824 47.452 108.59 48.2236C104.743 48.2236 100.127 48.2236 97.4341 45.1373C97.8188 44.7515 97.8188 44.3657 98.2035 43.5941C92.8178 45.1373 87.0475 44.3657 82.0465 41.6652C97.0494 38.1931 112.437 34.721 126.286 28.5484C112.822 30.0916 99.3576 30.8632 85.8934 30.4774C79.3537 30.4774 72.4293 29.7058 65.8895 29.32C62.812 28.9342 59.7345 28.5484 56.657 28.5484C55.5029 28.5484 47.8091 28.5484 47.0397 27.7769C48.5785 30.0916 50.1172 33.9494 52.4254 35.4926C53.5795 36.2642 54.7335 37.4215 55.5029 38.9647C60.5039 39.3505 65.5048 39.3505 70.5058 39.7362C66.6589 41.2794 63.1967 42.8225 59.3498 43.9799C58.9651 44.3657 58.1957 44.3657 58.1957 45.1373C58.1957 45.523 58.1957 45.9088 58.5804 46.2946C59.3498 47.452 61.2732 48.6093 62.4273 49.3809C66.6589 53.2388 68.5823 58.6398 71.2752 64.0408C71.2752 64.4266 71.6599 64.8124 72.0446 65.1982C72.4293 65.584 72.8139 65.584 73.5833 65.584C80.1231 66.3555 87.0475 66.7413 93.5872 67.5129C87.4322 69.056 81.2771 71.3708 74.7374 71.3708C75.1221 74.8428 75.5068 78.3149 76.2762 81.787C77.4302 80.6297 78.969 81.0154 80.5077 80.6296C83.2006 80.2439 85.124 79.4723 87.8169 79.0865C88.9709 79.0865 92.8178 79.8581 93.5872 79.0865C90.8944 81.0154 88.5862 82.9444 85.5087 84.1017C84.7393 84.4875 77.4302 87.188 77.0455 86.0307C77.4302 89.117 77.0455 91.8175 76.6608 94.9038C77.4302 98.3758 78.1996 101.848 78.1996 105.32Z" fill="url(#paint2_linear_50_94)"/>
<path d="M142.828 337.949C142.443 339.492 141.673 341.036 140.904 341.807C138.981 340.264 137.442 338.335 135.903 336.792C120.516 321.36 98.9729 312.487 77.8149 312.487C72.814 312.487 67.4283 312.873 62.4273 312.487C55.8876 311.716 49.7326 309.787 43.5775 308.244C30.1134 304.772 15.8799 303.614 2.41571 304.772C-2.20057 305.157 -9.50968 307.086 -12.9719 302.843C-16.8188 298.213 -12.5872 293.584 -7.97092 292.812C9.72481 290.883 28.1899 292.426 45.8857 297.056C50.8866 298.213 55.8876 300.142 60.8886 300.914C73.1987 302.843 86.2781 299.756 98.2035 304C104.359 306.315 109.36 310.173 115.13 313.645C122.054 317.503 129.748 320.589 135.903 325.604C138.596 327.919 140.135 330.619 141.673 333.706C141.673 334.091 142.058 336.02 142.828 337.949Z" fill="url(#paint3_linear_50_94)"/>
<path d="M57.4264 109.95C54.7335 120.366 47.8091 128.853 47.8091 139.655C48.1938 159.33 36.2684 176.305 23.1889 190.193C10.1095 204.082 -5.2781 216.427 -14.8953 233.401C-31.0523 262.335 -26.0514 301.3 -6.81687 329.848C2.41569 343.736 14.7258 355.31 25.1124 368.427C25.1124 368.812 24.7277 369.198 24.343 369.584C23.9583 369.97 23.189 369.97 22.8043 369.97C22.4196 369.97 22.0349 369.97 21.6502 369.97C17.8033 366.498 13.9564 363.026 10.4942 359.168C5.49321 353.767 0.492252 348.752 -4.50872 343.351C-9.50969 337.95 -14.5107 332.548 -18.3576 326.376C-23.3585 318.66 -26.436 309.787 -29.1289 300.528C-32.2064 289.726 -34.8992 278.538 -36.0533 266.965C-37.2074 258.092 -38.7461 249.219 -35.2839 241.117C-20.6657 206.782 17.0339 186.721 32.0368 152.386C38.1919 138.112 40.1153 122.295 45.8857 108.021C48.9632 100.305 53.1948 92.9749 52.8101 84.8734C52.8101 77.1577 48.9632 69.8277 45.1163 63.2693C42.8081 60.183 40.5 57.0967 38.1919 54.0104C37.0378 52.8531 36.2684 51.6957 34.7296 50.9242C33.1909 49.381 32.0368 47.8379 30.1134 46.2947C27.8052 44.3658 24.7277 43.2084 22.0349 41.6653C16.2645 38.1932 11.6483 33.178 8.95543 27.0054C9.72481 28.1627 12.0329 29.7059 13.187 30.0917C15.1105 30.8632 17.0339 31.6348 18.9574 32.7922C22.8043 34.7211 26.2665 37.0358 29.7287 39.7363C32.0368 41.2795 34.345 42.8226 36.2684 44.7516C38.1919 46.6805 39.3459 48.6094 40.8847 50.5384C44.3469 55.5536 47.8091 60.183 51.2713 65.1983C53.5795 68.2846 55.5029 71.3708 57.0417 74.4571C63.1967 85.645 60.5039 98.7617 57.4264 109.95Z" fill="url(#paint4_linear_50_94)"/>
<path d="M69.3517 126.924C65.1201 138.883 58.5804 150.071 52.4254 161.259C46.2703 172.832 39.3459 184.02 32.4215 194.822C27.4205 202.538 22.0349 210.254 17.0339 218.355C9.3401 230.7 2.80037 243.431 -2.20059 256.934C-5.6628 266.193 -7.97094 277.381 -3.35466 286.639C-2.20059 288.568 -1.43122 289.726 -0.277145 291.655C-5.6628 292.04 -11.4332 289.726 -14.5107 285.096C-16.0494 282.396 -16.8188 279.31 -17.2035 276.223C-17.9729 270.436 -18.3576 264.65 -18.3576 258.477C-18.3576 254.233 -18.3576 249.99 -17.5882 246.132C-16.4341 241.502 -14.126 237.259 -11.8178 233.401C-2.20059 217.969 8.57072 203.31 20.8808 189.807C32.4215 177.076 41.6541 161.645 47.0397 145.056C48.5785 139.655 49.7326 134.254 51.2713 129.238C54.3488 118.822 58.5804 109.178 60.1192 98.3755C61.6579 87.5735 59.7345 75.6141 52.0407 67.8983C41.2694 57.0963 33.5756 43.208 23.9583 30.8628C21.6502 27.7765 19.342 24.6902 18.9574 21.2181C20.1114 21.2181 21.6502 21.2181 22.8042 21.2181C23.5736 21.2181 24.7277 21.2181 25.4971 21.2181C27.0358 20.4466 28.5746 19.2892 30.1134 18.1318C30.4981 18.1318 30.8827 18.1318 31.2674 18.1318C33.1909 24.6902 37.0378 30.8628 41.6541 36.2638C46.2703 42.0506 51.656 47.0658 56.2723 52.8526C73.1986 73.2994 78.1996 102.619 69.3517 126.924Z" fill="url(#paint5_linear_50_94)"/>
<path d="M-62.2122 169.746C-60.6734 168.203 -59.1347 166.274 -57.2112 164.731C-54.5184 167.817 -51.4409 169.746 -48.3634 172.061C-47.2093 171.289 -46.8246 170.903 -46.0552 170.132C-43.7471 168.589 -41.8236 167.046 -39.1308 166.274C-35.2839 165.502 -31.0523 165.888 -27.2054 164.345C-25.6667 163.574 -24.1279 163.959 -22.2044 163.188C-23.7432 165.888 -24.8973 168.589 -26.0513 171.289C-24.8973 175.533 -24.8973 180.162 -25.6666 184.792C-28.7442 185.949 -31.8217 186.721 -34.8992 187.878C-35.6686 188.264 -36.8227 188.65 -37.5921 188.264C-42.593 187.492 -47.2093 185.949 -51.4409 183.634C-54.5184 182.477 -58.3653 181.32 -60.2888 179.005C-62.2122 176.69 -62.2122 172.832 -62.2122 169.746ZM-102.22 97.9898C-104.143 99.1471 -106.836 99.9187 -109.144 100.304C-114.53 101.848 -119.531 102.619 -124.532 104.934C-126.071 102.619 -126.455 99.1471 -128.379 97.604C-132.61 94.1319 -136.842 90.6598 -141.074 86.8019C-139.535 93.7461 -137.996 100.69 -136.457 107.249C-136.073 107.634 -136.457 108.02 -136.842 108.792C-132.61 111.878 -127.994 114.964 -122.993 113.807C-120.3 113.421 -117.992 111.492 -116.069 109.949C-108.375 104.548 -99.9118 99.9187 -91.064 96.4466C-94.5262 96.0608 -98.7577 96.0608 -102.22 97.9898ZM-85.6783 167.431C-86.8324 165.117 -87.6017 162.416 -89.1405 160.487C-90.2946 158.944 -92.218 157.787 -94.1415 157.015C-97.6037 155.472 -100.681 154.315 -104.143 153.543C-103.759 155.472 -103.374 157.787 -103.374 159.716C-109.914 156.629 -114.915 153.929 -121.454 150.457C-119.146 153.929 -116.069 156.244 -113.761 159.716C-112.607 161.259 -111.837 162.802 -111.068 164.731C-109.529 167.431 -108.375 170.518 -109.144 173.218C-110.298 173.218 -111.453 172.447 -112.607 171.675C-119.531 165.888 -126.455 161.259 -133.38 155.086C-132.61 157.787 -131.456 160.487 -130.302 162.802C-128.764 165.502 -127.225 168.203 -127.225 171.289C-130.302 167.046 -133.38 163.574 -135.688 158.944C-136.073 157.787 -136.457 156.629 -137.227 155.472C-137.996 154.7 -138.766 153.929 -139.15 153.157C-145.69 146.985 -150.306 138.497 -155.692 131.167C-151.076 140.812 -144.151 149.685 -143.766 160.101C-143.766 162.03 -143.382 163.959 -143.382 165.888C-142.612 167.046 -142.228 168.203 -141.458 168.975C-139.535 171.289 -137.611 173.218 -135.303 175.147C-133.38 177.076 -131.072 178.619 -129.148 180.548C-128.379 179.005 -127.609 177.462 -126.84 176.304C-121.454 182.863 -116.069 189.421 -110.683 196.365C-109.914 189.807 -110.298 183.249 -111.068 177.076C-107.221 178.619 -103.759 181.32 -101.066 184.792C-102.22 177.076 -104.528 169.746 -107.99 162.802C-105.297 164.345 -101.835 164.731 -99.1424 163.959C-99.1424 163.188 -99.1424 162.03 -99.5271 161.259C-94.5262 162.802 -90.2946 165.117 -85.6783 167.431ZM-133.38 185.178C-133.38 184.792 -133.38 184.792 -133.765 184.792C-134.149 184.406 -134.534 184.792 -134.919 185.178C-136.457 185.949 -138.766 185.178 -141.458 184.02C-143.766 182.863 -146.075 180.548 -147.998 179.005C-147.998 179.005 -147.998 179.391 -147.613 179.391C-146.075 182.091 -144.921 184.02 -143.382 186.721C-143.382 187.107 -143.382 187.106 -143.382 187.492C-142.612 187.878 -142.228 188.264 -141.458 188.65C-138.766 190.579 -136.457 192.893 -134.149 195.208C-132.226 197.137 -128.764 200.223 -127.994 202.924C-129.533 197.137 -131.456 190.964 -133.38 185.178ZM105.513 20.4466C100.896 23.1471 95.8954 25.4618 90.5097 26.6192C88.2016 27.005 85.5087 27.3908 83.5853 29.3197C90.8944 30.0913 98.2035 29.7055 105.513 28.1623C107.436 27.7766 108.975 27.3908 110.898 26.6192C112.822 21.9898 113.976 16.9745 115.13 11.5735C112.052 14.6598 109.36 17.7461 105.513 20.4466ZM149.367 15.4314C146.674 17.7461 145.136 19.2892 142.828 22.3755C139.365 27.7766 134.364 31.6344 128.209 34.7207C128.209 34.7207 127.825 34.7207 127.055 35.1065C119.361 38.5786 111.283 42.4365 103.589 46.6801C105.128 45.9085 108.975 46.2943 110.898 46.2943C113.591 46.2943 116.284 45.9085 118.977 45.9085C121.285 45.9085 124.362 45.9085 127.055 45.5227C128.979 44.7512 131.287 43.5938 133.21 42.4365C136.288 40.5075 139.365 38.9644 142.058 37.0354C145.52 27.3908 150.137 17.7461 155.522 9.25879C153.214 11.1877 151.675 13.5024 149.367 15.4314ZM160.908 44.7512C161.293 48.2233 161.677 52.0811 162.062 55.5532C163.985 72.9136 166.678 89.8882 169.756 107.249C172.449 121.523 175.526 135.411 178.988 149.685C174.757 137.726 170.91 125.766 166.678 113.807C166.294 118.051 165.14 122.294 163.985 126.152C161.677 123.452 159.369 120.365 157.061 117.279C157.061 124.609 156.292 131.553 155.522 138.883C154.368 133.482 152.829 128.467 152.06 123.066C151.675 119.98 151.291 117.279 150.521 114.193C150.137 113.035 148.213 107.249 148.983 106.477C146.674 109.949 144.751 113.807 143.597 117.665C143.212 113.807 143.597 109.563 143.982 105.705C144.366 102.619 145.52 99.9187 146.29 96.8324C148.213 84.1014 146.674 70.5989 150.137 57.8679C151.675 59.4111 153.214 60.5684 154.753 62.1116C154.753 50.1522 155.522 37.807 159.369 26.6192L160.908 44.7512ZM174.372 39.7359C173.987 42.4365 173.603 45.137 173.603 47.8375C172.833 53.6243 172.064 59.4111 170.91 65.1979C170.141 69.0557 169.371 73.2994 169.371 77.5431C169.371 80.2436 169.756 82.5583 170.141 85.2588C171.679 94.1319 173.218 103.005 175.911 111.492C176.296 108.792 176.68 105.705 177.065 103.005C177.45 99.5329 177.834 96.4466 178.604 92.9745C179.373 89.5024 180.142 86.0304 180.912 82.5583C181.297 81.0151 181.297 79.8578 181.681 78.3146C177.45 65.9694 175.142 52.8527 174.372 39.7359ZM128.979 64.0405C124.362 69.4415 119.361 75.6141 117.823 82.9441C122.439 79.472 127.055 75.9999 131.287 71.7563C133.98 68.67 136.288 66.3552 137.827 62.4974C138.596 60.1827 139.365 58.2537 140.135 55.939C140.519 54.7816 140.904 50.9238 141.673 49.7664C137.057 54.0101 133.21 59.0253 128.979 64.0405ZM128.209 97.604C127.825 99.1471 127.055 100.69 126.671 101.848C125.901 104.548 125.901 106.091 126.671 108.792C127.825 115.736 128.209 122.68 128.979 129.624C130.517 117.665 130.902 105.32 130.133 93.3603C130.133 94.5177 128.594 96.4466 128.209 97.604ZM74.7374 253.462C77.8149 253.848 81.6618 253.076 84.3547 254.619C86.2781 256.162 88.2016 257.32 90.125 258.863C90.5097 259.249 91.2791 259.634 91.6638 259.634C92.4332 260.02 93.5872 259.634 94.3566 259.249C97.4341 258.477 101.281 257.705 104.359 256.934C108.975 256.934 113.591 258.091 118.207 258.863C118.592 254.619 119.361 250.761 119.746 246.518C122.054 244.589 124.747 243.817 127.055 241.502C127.44 241.117 127.825 240.345 128.209 239.574C130.517 235.716 132.441 231.472 133.595 226.843C132.441 228.386 130.517 229.157 128.979 230.315C128.594 229.929 127.825 229.929 127.825 229.543C125.901 229.929 123.593 230.315 121.67 230.7C119.746 231.086 117.823 230.7 116.284 231.858C113.976 234.172 112.052 235.716 110.129 238.03C104.359 238.416 99.3576 237.645 93.5872 238.416C88.5863 239.188 84.3547 239.959 79.7384 239.959C80.5078 241.117 81.2772 241.888 82.0465 243.046C81.6619 244.975 81.6619 246.903 81.2772 249.218C77.0456 249.99 72.4293 251.147 68.1977 249.604C67.4283 249.218 66.6589 249.218 66.2743 249.604C68.1977 251.919 71.6599 253.462 74.7374 253.462ZM110.514 226.071C110.514 223.756 109.744 221.056 109.36 218.741C107.436 211.411 105.897 203.695 102.435 196.751C100.896 201.381 100.127 206.396 102.05 211.025C103.204 213.726 104.359 216.041 105.897 218.741C107.051 220.284 110.514 224.142 110.514 226.071ZM85.5087 224.142C78.1996 217.969 72.814 209.868 63.9661 205.624C64.3508 205.624 65.8896 211.797 66.2743 212.568C67.4283 214.497 68.9671 215.655 70.8905 216.812C75.5068 220.284 80.5078 222.213 85.5087 224.142ZM-99.5271 289.726C-99.1424 290.883 -98.3731 292.04 -97.219 292.812C-96.4496 293.584 -95.6802 293.969 -94.9109 294.355C-92.218 295.513 -88.7558 295.127 -86.063 293.969C-84.1395 293.198 -82.2161 293.198 -80.2926 293.584C-78.3692 293.584 -77.2151 293.969 -75.2917 293.969C-72.9835 292.04 -71.0601 290.112 -68.7519 288.183C-68.3672 287.797 -67.9826 287.797 -67.9826 287.411C-67.5979 287.025 -67.5979 286.639 -67.5979 286.254C-66.8285 283.167 -64.5203 280.853 -64.905 277.766C-65.2897 275.452 -66.4438 273.523 -67.2132 271.594C-68.3672 269.279 -69.5213 266.579 -71.0601 264.264C-71.0601 266.579 -71.0601 268.893 -71.0601 271.208C-71.0601 273.137 -71.0601 274.68 -72.5988 275.837C-73.7529 276.609 -75.2917 276.995 -76.8304 277.766C-79.5233 278.924 -81.4467 280.853 -84.1395 282.396C-85.2936 283.167 -86.8324 283.553 -87.9864 283.939C-89.9099 284.711 -91.4486 285.096 -93.3721 285.868C-94.1415 286.254 -95.2955 286.639 -96.0649 286.254C-96.4496 285.868 -97.219 285.482 -97.6037 285.096C-99.1424 283.553 -100.681 282.01 -102.22 280.467C-101.451 283.167 -100.681 286.254 -99.5271 289.726ZM-91.8333 270.822C-90.6793 267.35 -90.6793 263.492 -90.6793 260.02C-90.6793 258.091 -90.6793 256.548 -91.064 254.619C-91.4486 252.69 -92.6027 250.761 -93.7568 249.218C-94.5262 252.69 -93.7568 255.777 -93.3721 259.249C-92.9874 261.178 -92.9874 263.106 -92.6027 265.035C-92.6027 266.579 -91.4486 269.665 -91.8333 270.822ZM-82.6008 263.878C-81.062 260.792 -80.6773 257.32 -80.2926 254.233C-79.9079 251.147 -79.5233 248.061 -80.2926 244.589C-83.3702 250.761 -83.7548 257.32 -82.6008 263.878Z" fill="url(#paint6_linear_50_94)"/>
<path d="M17.0339 35.1067C13.5717 33.5635 11.6483 30.4772 8.95544 27.7767C6.6473 25.0762 3.18509 22.7615 -0.277122 23.5331C-1.43119 23.9189 -2.96995 24.6904 -4.12402 25.0762C-6.81685 26.2336 -9.89437 27.0052 -12.9719 27.391C-20.281 28.5483 -27.5901 30.0915 -34.8992 32.0204C-39.1308 33.1778 -42.9777 33.9493 -46.8246 35.8783C-49.5174 37.0356 -51.8256 38.193 -54.5184 39.3503C-60.6734 42.0508 -66.8285 44.7514 -72.9835 47.0661C-69.1366 43.9798 -66.0591 40.1219 -62.9816 36.264C-62.5969 35.8783 -62.5969 35.4925 -62.5969 35.1067C-62.5969 34.7209 -62.9816 34.3351 -62.9816 33.9493C-65.2897 30.4772 -68.3672 26.6194 -71.8295 23.9189C-71.8295 23.5331 -71.8295 23.1473 -71.4448 22.7615C-68.7519 22.7615 -66.0591 23.1473 -62.9816 23.1473C-60.2888 24.3047 -57.9806 25.8478 -55.2878 27.0052C-54.5184 27.391 -53.3643 27.7767 -52.595 27.0052C-51.8256 26.6194 -51.8256 25.462 -52.2103 24.6904C-52.595 20.8326 -52.595 17.3605 -52.9796 13.5026C-53.3643 9.25897 -53.3643 4.62953 -54.9031 0.385876C-54.9031 8.92282e-05 -54.5184 -0.385698 -54.5184 -0.771484C-50.2868 4.24374 -46.4399 7.71583 -42.593 12.3453C-41.8236 14.2742 -40.6696 16.2031 -39.9002 18.1321C-39.5155 19.2894 -38.3614 20.8326 -37.2074 20.4468C-37.2074 15.8173 -37.592 11.1879 -38.7461 6.55847L-38.3614 6.17268C-33.7451 10.0305 -28.7442 13.1168 -22.9738 15.4316C-22.9738 15.4316 -22.9738 15.0458 -22.5891 15.0458C-22.2044 16.2031 -21.8198 17.7463 -22.2045 18.9036C-21.0504 18.5179 -19.8963 18.9036 -18.7422 19.2894C-18.7422 16.2031 -19.1269 12.7311 -20.281 10.0305C-20.281 9.64476 -19.8963 9.64476 -19.8963 9.25897C-13.7413 11.9595 -9.12499 13.1168 -2.96996 15.8173C-1.0465 16.5889 0.876953 17.3605 2.41571 18.9036C2.8004 19.2894 3.18509 19.6752 3.56978 20.061C4.72385 20.061 5.87792 20.061 7.03199 20.061C8.95544 21.6041 10.4942 23.5331 11.6483 25.462C13.187 28.9341 13.9564 32.792 17.0339 35.1067Z" fill="url(#paint7_linear_50_94)"/>
<path d="M151.291 327.919H150.906C148.983 330.619 145.52 333.706 142.828 335.635C142.828 336.02 142.828 336.02 142.828 336.406C142.443 336.02 142.058 336.02 141.673 335.635C137.827 332.548 133.98 329.462 130.133 326.376C125.516 322.518 120.9 318.66 115.899 315.96C103.204 308.63 88.2016 307.472 73.5833 307.086C68.9671 307.086 64.3508 307.086 59.7345 306.315C55.1182 305.543 50.5019 303.614 45.8857 302.457C30.4981 298.213 13.9564 301.685 -1.8159 299.371C-3.35465 298.985 -5.2781 298.985 -6.81686 299.756C-9.125 301.3 -9.12499 304.772 -8.35561 307.472C-5.27809 320.203 2.80039 332.548 11.2636 342.579C18.9574 352.224 28.1899 360.711 37.4225 368.812C33.5756 368.427 29.7287 368.812 25.8818 368.427C23.5736 366.498 21.6502 364.183 19.7267 362.254C13.5717 355.696 7.80135 349.137 2.03101 342.579C-7.97093 330.619 -17.5882 317.888 -23.7432 304C-33.7451 282.01 -34.8992 255.777 -24.1279 234.559C-17.5882 221.056 -6.43217 213.34 4.33915 203.31C10.8789 197.137 16.2645 190.193 21.6502 183.249C27.0359 176.69 32.4215 170.132 36.2684 162.802C45.501 145.828 45.501 124.995 52.8101 106.863C54.3488 102.619 56.2723 98.3758 57.4264 94.1321C58.9651 86.8022 60.1192 81.0154 55.5029 74.457C52.8101 70.5991 49.7326 66.7412 47.0397 62.8834C43.9622 59.0255 42.0388 54.3961 38.5766 50.924C33.1909 45.9088 26.6512 42.0509 20.8808 37.4214C14.3411 32.4062 10.8789 24.6905 4.33915 20.061C11.2636 20.4468 20.4961 20.8326 27.0359 20.8326C27.4205 21.2184 28.1899 21.99 28.5746 22.3758C38.9612 35.1067 42.4235 48.2235 53.1948 60.5686C58.9651 67.127 64.7355 74.0712 65.8895 83.3301C66.6589 91.4316 65.5049 99.5331 64.3508 107.635C63.1967 115.736 61.2733 123.838 58.9651 131.553C54.3488 147.371 47.8091 162.416 39.3459 175.919C38.5766 177.076 37.8072 178.234 36.6531 179.777C29.344 191.736 20.1114 202.152 11.6483 213.34C1.64632 227.229 -4.12403 240.731 -7.58624 257.32C-8.35562 261.178 -9.125 265.036 -9.125 269.279C-8.7403 276.224 -8.74031 285.868 -1.04651 288.954C3.56977 290.883 8.95543 290.498 13.9564 290.112C18.188 289.726 22.4196 288.569 26.6512 288.569C31.6521 288.569 37.0378 289.726 42.0388 291.269C48.9632 293.198 55.8876 295.899 62.812 297.442C70.8905 298.985 78.969 299.371 86.6628 298.985C94.7413 298.599 101.666 298.599 108.975 301.685C116.284 305.158 123.593 307.858 129.748 313.645C133.21 316.731 135.518 320.203 139.75 321.746C143.212 324.061 147.059 325.99 151.291 327.919Z" fill="url(#paint8_linear_50_94)"/>
<path d="M2.80039 363.026C-5.2781 361.868 -12.9719 364.569 -20.281 367.269C-22.9738 368.427 -25.6667 369.584 -27.9748 371.127C-30.6676 373.056 -32.9758 375.371 -34.8992 378.071C-36.8227 372.284 -37.2074 366.112 -36.8227 359.939C-40.2849 358.01 -44.9012 357.625 -48.7481 358.01C-49.5174 358.01 -50.6715 358.396 -51.4409 358.01C-50.2868 355.696 -49.5174 352.995 -49.1327 350.295C-52.2103 350.68 -55.2878 351.838 -57.9806 352.995C-62.9816 351.838 -69.1366 354.152 -74.1376 354.538C-74.5223 354.538 -75.2917 354.538 -75.6764 354.538L-76.061 354.152C-74.5223 350.295 -73.3682 346.051 -72.5988 342.193C-75.6763 342.193 -79.1386 342.965 -82.2161 344.122C-89.1405 344.508 -96.0649 344.894 -102.989 345.665C-102.989 345.279 -102.989 345.279 -102.989 344.894C-101.451 342.579 -99.9118 340.264 -99.5271 337.564C-98.7577 334.477 -99.1424 331.391 -99.5271 328.305C-100.297 323.29 -101.835 318.66 -105.297 314.802C-105.682 314.031 -106.452 313.645 -107.221 313.259C-109.144 312.487 -111.068 313.259 -112.607 314.031C-117.223 314.416 -122.224 315.188 -126.84 316.345C-122.609 314.802 -118.377 312.873 -116.453 308.63C-114.915 305.543 -115.299 302.071 -115.299 298.985C-116.069 291.655 -117.223 284.325 -119.146 276.995C-116.069 284.325 -112.607 291.655 -108.76 298.599C-106.836 302.071 -104.913 305.543 -102.22 308.244C-99.5271 311.33 -96.4496 314.031 -92.9874 316.345C-87.2171 320.589 -81.4467 325.218 -75.6764 329.462C-72.2141 331.777 -69.1366 334.477 -65.2897 336.406C-62.2122 337.949 -59.1347 339.493 -56.4419 340.65C-48.7481 343.736 -41.439 346.823 -33.7452 349.909C-21.8198 354.924 -9.89438 359.168 2.80039 363.026Z" fill="url(#paint9_linear_50_94)"/>
<path d="M239 223.371C238.615 222.985 237.846 222.985 237.461 222.599C235.153 221.827 232.46 221.827 230.152 221.442C225.536 221.056 221.304 220.284 217.073 219.127C212.841 217.97 208.609 218.355 204.378 217.97C203.993 217.97 203.224 217.97 202.839 218.355C202.454 218.741 202.07 218.741 202.07 219.127C198.992 222.985 195.53 227.228 192.452 231.086C193.607 228.386 194.761 225.685 195.53 222.985C195.915 221.056 196.299 219.127 195.145 217.198C195.53 217.97 190.914 224.142 190.529 224.914C188.221 227.614 186.297 229.929 184.374 231.858C180.142 236.487 176.68 241.888 172.449 246.518C164.37 256.548 155.522 265.807 146.674 275.066C148.983 270.051 152.445 265.807 155.522 261.563C173.603 236.873 187.067 208.711 195.53 179.005C197.453 171.675 198.608 164.345 197.453 156.629C196.684 152.772 195.53 149.685 193.991 146.213C190.914 138.112 187.452 130.396 183.989 122.68C187.067 126.538 190.529 130.396 193.607 134.254C192.837 128.467 190.914 122.68 189.76 116.508C188.221 109.949 187.452 103.777 189.76 97.604C192.453 91.0456 193.607 83.3299 195.53 76.3857C195.53 82.5583 195.53 88.7309 195.145 94.9035C195.145 99.533 193.991 104.162 194.761 108.792C195.145 113.035 197.453 117.279 198.223 121.523C200.531 130.782 201.685 140.041 203.224 149.299C203.224 150.071 203.609 150.457 203.609 151.228C208.609 161.259 215.149 167.046 221.304 174.376C221.304 174.761 220.92 174.761 220.92 175.147C218.996 175.533 217.073 175.147 215.149 175.147C211.687 175.147 208.225 176.305 204.763 176.69C205.532 176.69 209.379 181.32 210.148 182.091C210.533 182.477 211.302 183.249 211.687 183.634C218.611 198.294 227.844 211.797 239 223.371Z" fill="url(#paint10_linear_50_94)"/>
<path d="M27.0358 230.701C21.6502 236.488 16.6492 241.889 12.4176 248.447C19.3421 251.147 26.2665 253.462 33.5756 255.391C32.0368 251.533 30.4981 248.061 28.9593 244.203C37.4225 245.746 45.8857 246.518 54.3488 246.904C50.5019 242.274 47.0397 236.873 44.3469 231.858C47.8091 232.244 51.2713 231.858 54.3488 230.701C52.0407 231.472 41.6541 212.955 40.5 214.498C35.8837 219.513 32.0368 225.3 27.0358 230.701Z" fill="url(#paint11_linear_50_94)"/>
<path d="M27.0358 29.3201C29.344 30.8633 30.4981 33.9496 31.6521 36.6501C32.0368 37.4216 32.0368 37.8074 32.0368 38.579C32.0368 39.3506 31.6521 40.1221 30.8827 40.1221C30.1134 40.1221 29.7287 39.7364 28.9593 39.3506C26.2665 37.8074 23.9583 36.2643 21.2655 34.3353C19.7267 33.5638 18.188 32.4064 17.0339 31.249C12.0329 24.6907 23.9583 26.6196 27.0358 29.3201ZM51.2713 116.508C49.3479 121.137 47.4244 126.153 48.5785 130.782C48.5785 131.168 48.5785 131.168 48.9632 131.554C49.3479 131.939 49.3479 131.939 49.7326 131.939C50.5019 131.939 51.2713 130.782 51.656 130.01C55.1182 124.224 57.811 118.051 59.3498 111.493C60.1192 108.792 60.5039 106.092 59.7345 103.777C58.1957 98.7617 56.2723 105.32 55.8876 106.477C54.7335 109.95 52.8101 113.422 51.2713 116.508ZM-21.8198 235.716C-26.4361 243.432 -29.5136 252.691 -27.5901 261.564C-27.2054 262.721 -26.8207 264.264 -25.6667 265.036C-24.5126 265.807 -22.9738 265.036 -21.8198 264.264C-14.8954 259.249 -11.8178 251.147 -8.35563 243.432C-4.12404 233.401 0.876925 223.757 6.64727 214.498C7.80135 212.955 8.18604 210.254 6.26259 209.868C5.8779 209.868 5.49321 209.868 4.72382 210.254C-1.04652 212.569 -4.12405 217.198 -8.74032 221.056C-13.7413 225.3 -18.3576 229.929 -21.8198 235.716ZM-22.2045 300.914C-21.8198 301.3 -21.4351 301.686 -20.6657 302.071C-15.28 304.386 -16.4341 287.797 -16.0494 285.483C-15.6647 282.01 -15.28 278.153 -17.5882 275.066C-18.3576 274.295 -19.127 273.137 -20.281 273.137C-36.8227 268.122 -27.5901 294.741 -22.2045 300.914ZM-16.8188 271.98C-16.0494 272.752 -16.0494 274.68 -14.8954 274.68C-12.2025 274.68 -11.4332 264.264 -11.4332 262.335C-11.4332 261.564 -11.8178 260.406 -12.5872 260.021C-12.9719 260.021 -13.3566 260.021 -13.7413 260.406C-16.0494 261.95 -18.3576 263.878 -19.5116 266.579C-19.8963 266.965 -19.8963 267.736 -19.8963 268.122C-20.281 270.051 -17.9729 270.823 -16.8188 271.98Z" fill="url(#paint12_linear_50_94)"/>
</g>
<defs>
<linearGradient id="paint0_linear_50_94" x1="39.923" y1="-0.385742" x2="39.923" y2="379.614" gradientUnits="userSpaceOnUse">
<stop stop-color="#5F7919" stop-opacity="0.6"/>
<stop offset="1" stop-color="#191919"/>
</linearGradient>
<linearGradient id="paint1_linear_50_94" x1="-45.6926" y1="31.29" x2="-45.6926" y2="170.904" gradientUnits="userSpaceOnUse">
<stop stop-color="#5F7919" stop-opacity="0.6"/>
<stop offset="1" stop-color="#191919"/>
</linearGradient>
<linearGradient id="paint2_linear_50_94" x1="98.2035" y1="27.7769" x2="98.2035" y2="226.843" gradientUnits="userSpaceOnUse">
<stop stop-color="#5F7919" stop-opacity="0.6"/>
<stop offset="1" stop-color="#191919"/>
</linearGradient>
<linearGradient id="paint3_linear_50_94" x1="64.1774" y1="292" x2="64.1774" y2="341.807" gradientUnits="userSpaceOnUse">
<stop stop-color="#5F7919" stop-opacity="0.6"/>
<stop offset="1" stop-color="#191919"/>
</linearGradient>
<linearGradient id="paint4_linear_50_94" x1="11.6685" y1="27.0054" x2="11.6685" y2="369.97" gradientUnits="userSpaceOnUse">
<stop stop-color="#5F7919" stop-opacity="0.6"/>
<stop offset="1" stop-color="#191919"/>
</linearGradient>
<linearGradient id="paint5_linear_50_94" x1="27.6493" y1="18.1318" x2="27.6493" y2="291.696" gradientUnits="userSpaceOnUse">
<stop stop-color="#5F7919" stop-opacity="0.6"/>
<stop offset="1" stop-color="#191919"/>
</linearGradient>
<linearGradient id="paint6_linear_50_94" x1="12.9947" y1="9.25879" x2="12.9947" y2="295.054" gradientUnits="userSpaceOnUse">
<stop stop-color="#5F7919" stop-opacity="0.6"/>
<stop offset="1" stop-color="#191919"/>
</linearGradient>
<linearGradient id="paint7_linear_50_94" x1="-27.9748" y1="-0.771484" x2="-27.9748" y2="47.0661" gradientUnits="userSpaceOnUse">
<stop stop-color="#5F7919" stop-opacity="0.6"/>
<stop offset="1" stop-color="#191919"/>
</linearGradient>
<linearGradient id="paint8_linear_50_94" x1="59.7773" y1="20.061" x2="59.7773" y2="368.812" gradientUnits="userSpaceOnUse">
<stop stop-color="#5F7919" stop-opacity="0.6"/>
<stop offset="1" stop-color="#191919"/>
</linearGradient>
<linearGradient id="paint9_linear_50_94" x1="-62.0199" y1="276.995" x2="-62.0199" y2="378.071" gradientUnits="userSpaceOnUse">
<stop stop-color="#5F7919" stop-opacity="0.6"/>
<stop offset="1" stop-color="#191919"/>
</linearGradient>
<linearGradient id="paint10_linear_50_94" x1="192.837" y1="76.3857" x2="192.837" y2="275.066" gradientUnits="userSpaceOnUse">
<stop stop-color="#5F7919" stop-opacity="0.6"/>
<stop offset="1" stop-color="#191919"/>
</linearGradient>
<linearGradient id="paint11_linear_50_94" x1="33.3832" y1="214.406" x2="33.3832" y2="255.391" gradientUnits="userSpaceOnUse">
<stop stop-color="#5F7919" stop-opacity="0.6"/>
<stop offset="1" stop-color="#191919"/>
</linearGradient>
<linearGradient id="paint12_linear_50_94" x1="15.2374" y1="26.8125" x2="15.2374" y2="302.292" gradientUnits="userSpaceOnUse">
<stop stop-color="#5F7919" stop-opacity="0.6"/>
<stop offset="1" stop-color="#191919"/>
</linearGradient>
<clipPath id="clip0_50_94">
<rect width="397" height="380" fill="white" transform="translate(-158)"/>
</clipPath>
</defs>
</svg>
