<svg width="124" height="124" viewBox="0 0 124 124" fill="none" xmlns="http://www.w3.org/2000/svg">
<g clip-path="url(#clip0_50_51)">
<path d="M122.089 61.5855C122.089 58.6246 121.85 55.7822 121.491 52.9398C122.208 52.2292 123.283 51.6371 124.119 51.0449C123.283 45.4785 121.372 39.9121 118.863 34.8195C117.908 34.8195 116.832 34.8195 115.877 34.8195C111.696 26.4107 105.603 19.0678 98.1965 13.5014C97.9576 12.554 97.8381 11.4881 97.8381 10.4222C91.3873 4.26361 82.4277 1.30277 73.4682 0.118434C72.3931 0 70.6011 0 70.6011 0C69.8844 0.473734 69.1676 0.947469 68.3314 1.53964C65.9422 1.30277 63.4335 1.0659 60.9249 1.0659C45.0366 1.0659 30.5819 7.10602 19.711 17.0544C17.9191 17.1729 16.1272 17.1729 14.3353 17.0544C11.4682 19.1862 9.079 22.0287 6.92871 24.9895C4.89788 27.9503 3.34489 31.0296 1.55299 34.2273C2.26975 36.3591 2.98651 38.4909 3.58381 40.7412C1.31407 47.1366 0 54.2426 0 61.5855C0 69.1652 1.43353 76.3897 3.9422 83.1404C2.98651 84.68 2.03083 86.1012 0.716763 87.2856C2.86705 91.786 5.37572 96.1681 8.24277 100.313C8.84008 101.142 9.43738 101.971 10.2736 102.445C11.946 101.853 13.6185 101.616 15.2909 101.616C21.5029 108.604 29.2678 114.052 37.9884 117.605C37.9884 118.552 38.1079 119.5 38.2274 120.447C44.6782 122.934 51.7264 124 58.6551 124C59.0135 123.171 59.2524 122.697 59.4913 122.105C59.9692 122.105 60.5665 122.105 61.1638 122.105C76.6936 122.105 90.9094 116.302 101.78 106.827C102.497 106.709 103.214 106.59 103.931 106.59C105.961 106.472 107.992 106.353 110.023 106.235C116.116 100.905 120.297 93.681 123.522 86.2197C121.969 84.0879 120.655 81.6008 119.46 79.1137C121.133 73.5473 122.089 67.6256 122.089 61.5855Z" fill="url(#paint0_linear_50_51)"/>
<path d="M71.3179 84.68C71.4373 84.68 71.6762 84.5616 71.6762 84.4431C71.6762 84.3247 71.5568 84.0878 71.5568 83.9694C70.9595 83.2588 69.287 82.4298 68.6897 83.7325C68.0924 85.1537 70.6011 84.9169 71.3179 84.68Z" fill="url(#paint1_linear_50_51)"/>
<path d="M76.0963 74.3765C76.6936 74.3765 77.4104 74.4949 77.8882 74.9686C78.7245 75.6792 78.9634 76.982 78.4855 78.0479C78.1272 79.1138 77.2909 79.9428 76.4547 80.6534C76.8131 80.1797 76.6936 79.3507 76.3353 78.8769C75.9769 78.4032 75.3796 78.0479 74.6628 78.0479C74.0655 77.9295 73.3488 78.0479 72.7514 78.1663C72.0347 78.2848 71.3179 78.4032 70.6012 78.6401C69.8844 78.8769 69.2871 79.3507 68.9287 79.9428C68.9287 78.6401 69.1676 77.811 70.0039 76.8636C70.9595 75.7977 72.2736 75.0871 73.5877 74.6133C74.4239 74.4949 75.2601 74.3765 76.0963 74.3765Z" fill="url(#paint2_linear_50_51)"/>
<path d="M90.7899 91.194C89.1175 90.9571 87.4451 91.194 85.7726 91.5493C84.6975 91.7862 83.7418 91.9046 82.6666 92.3783C81.7109 92.7336 80.8747 93.3258 80.158 94.1548C80.2774 93.0889 80.3969 92.2599 80.9942 91.3124C81.472 90.4834 82.1888 89.6544 83.025 89.0622C84.2196 88.2332 85.6531 87.641 87.0867 87.4041C88.5202 87.1673 90.0732 87.1673 91.3872 87.641C93.1792 88.2332 95.3294 88.7069 95.8073 90.8387C96.1657 92.2599 95.4489 93.918 94.0154 94.6286C94.2543 94.2733 94.3738 93.6811 94.2543 93.2074C93.8959 91.7862 91.9846 91.3124 90.7899 91.194Z" fill="url(#paint3_linear_50_51)"/>
<path d="M117.669 92.1415C117.191 91.9046 117.071 91.9046 116.474 91.9046C113.846 94.5101 111.218 96.9972 108.112 99.0106C107.514 99.3659 106.798 99.7212 106.081 99.8397C105.364 99.9581 104.528 99.6028 104.17 99.0106C103.811 98.4184 104.05 97.7079 104.17 96.9973C104.647 95.6945 105.245 94.3917 106.081 93.2074C100.586 99.7212 92.4624 104.222 83.9807 105.524C82.1888 105.761 80.158 105.88 78.605 104.932C76.9326 103.985 76.0963 101.616 77.1715 100.077C71.079 105.051 62 106.117 54.8324 102.682C52.6821 101.616 50.5318 100.195 49.4566 98.0632C47.5453 94.3917 49.0983 89.7728 51.9653 86.9304C54.8324 83.9696 59.1329 81.8377 62.9557 80.2981C60.6859 79.9428 58.4162 78.4032 58.0578 76.0345C57.8189 74.3764 58.5356 72.7183 59.6108 71.4156C60.5665 70.1128 62 68.4547 62.9557 67.0335C59.7303 69.2838 56.2659 71.6524 52.4432 72.2446C48.501 72.8368 43.9615 71.2971 42.4085 67.6257C40.2582 62.1778 45.395 54.4796 48.8593 50.4528C52.921 45.9523 57.9383 42.3993 62.8362 38.9648C58.894 37.662 53.8767 36.1224 51.0096 33.1615C50.5318 32.6878 45.9923 28.0689 46.948 27.1214C44.6782 29.3716 42.0501 29.8454 38.9441 28.8979C34.2852 33.7537 26.9981 35.2933 20.4277 34.109C19.5915 29.6085 21.6223 24.3974 24.8478 21.0813C25.5645 17.173 27.8343 13.62 30.7013 10.896C24.3699 14.0937 18.9942 18.5942 14.3353 23.6868C13.2601 23.45 12.4239 23.45 11.3487 23.8053C11.8266 24.279 12.4239 24.7527 12.5434 25.4633C11.946 26.0555 11.5877 26.7661 10.8709 27.4767C10.0347 27.2398 9.079 26.7661 8.12331 26.5292C6.21195 29.1348 4.42004 31.8587 2.74759 34.5827C3.46435 36.3592 4.18112 38.1357 4.89788 39.9122C1.07514 53.8874 0.836223 69.0469 4.65896 83.0221C4.30058 84.3248 3.46435 85.8645 2.62813 86.9304C4.5395 91.9046 7.28709 96.4051 10.632 100.55C12.3044 100.195 13.9769 99.9581 15.7688 99.9581C21.6223 107.656 29.6262 113.104 38.7052 116.183C38.8247 117.368 38.8247 118.789 38.8247 119.973C44.5588 121.987 51.2486 122.816 57.341 123.053C57.6994 122.224 58.1773 121.513 58.4162 120.566C73.3487 119.855 91.6262 113.46 100.705 105.998C103.214 105.406 106.32 104.932 108.948 105.051C112.651 101.735 116.355 97.471 118.505 93.4442C118.624 92.9705 118.266 92.3783 117.669 92.1415Z" fill="url(#paint4_linear_50_51)"/>
<path d="M31.4181 13.1461C30.9402 13.5014 30.4624 13.9751 30.4624 14.5673C30.4624 15.1594 30.9402 15.7516 31.657 15.9885C32.2543 16.2253 32.9711 16.1069 33.5684 15.9885C36.077 15.6332 39.0636 15.2779 40.6165 17.2912C41.4528 18.3572 41.5722 19.7784 41.3333 20.9627C41.0944 22.2655 40.3776 23.4498 39.7803 24.5157C42.289 24.3973 44.7977 24.1604 47.0674 23.3314C49.3372 22.3839 51.4874 20.6074 52.0847 18.2387C53.8767 20.0152 51.8458 23.2129 52.921 25.3447C54.3545 28.1871 58.4162 28.424 60.9248 29.6083C62.5973 30.4374 64.2697 31.0296 66.1811 31.2664C67.2562 31.3849 70.6011 31.8586 71.4373 31.0296C69.4065 33.1614 67.973 35.8853 67.6146 38.7277C67.3757 40.3858 67.6146 42.2807 68.9287 43.2282C70.2427 44.1757 71.9152 43.9388 73.4682 43.5835C77.6493 42.5176 81.5915 40.2674 84.6975 37.3065C82.4277 40.3858 80.158 43.4651 77.8882 46.5444C81.5915 46.3075 85.2948 45.4785 89.1175 45.36C92.2235 45.2416 95.5684 45.36 98.077 47.0181C101.422 49.2683 101.183 54.9531 102.497 58.3877C103.692 55.9006 105.125 53.5319 106.439 51.1633C106.917 54.7163 106.559 58.3877 105.245 61.8223C104.528 63.5988 103.692 65.2569 103.692 67.1518C103.692 69.402 105.125 71.5339 107.156 72.3629C105.603 74.7316 104.528 77.3371 103.931 80.0611C103.692 81.127 103.572 82.3113 104.289 83.1403C104.886 83.8509 105.961 83.9694 106.917 83.6141C107.753 83.2588 108.47 82.6666 109.187 81.956C116.832 74.1394 120.177 63.7172 119.46 53.0582C119.102 48.3209 118.027 43.5835 116.354 39.083C112.89 30.2005 106.917 22.2655 99.1522 16.8175C89.9537 10.4221 78.8439 7.34282 67.8535 4.85572C61.1637 3.55295 54.235 2.36861 47.9036 4.38198C41.6917 6.27692 36.316 8.76403 31.4181 13.1461Z" fill="url(#paint5_linear_50_51)"/>
<path d="M21.7419 33.5168C21.6224 33.3984 23.4143 30.3191 23.6532 29.9638C26.0424 25.7002 30.2236 22.5025 35.002 21.1997C35.7187 20.9628 36.7939 20.6075 37.5106 21.0813C38.2274 21.555 38.3469 22.6209 38.1079 23.3315C37.6301 25.5818 35.5993 27.2398 34.1657 28.7795C34.5241 28.4242 35.2409 28.1873 35.5993 27.9504C36.0771 27.5951 36.555 27.2398 37.1523 26.8845C38.1079 26.1739 38.9442 25.3449 39.7804 24.5159C41.3334 22.9762 43.1253 20.9628 43.6031 18.831C43.842 17.5283 43.4837 15.9886 42.4085 15.278C41.0945 14.2121 38.9442 14.3306 37.3912 14.6859C35.5993 15.0412 33.9268 15.9886 32.2544 16.9361C29.8652 18.4757 27.476 20.0154 25.5646 22.1472C24.0116 23.8053 22.6975 25.7002 21.7419 27.832C21.1446 29.3716 20.0694 32.214 21.7419 33.5168Z" fill="url(#paint6_linear_50_51)"/>
<path d="M48.262 25.7003C48.262 25.5819 48.3815 25.4634 48.3815 25.2266C47.3063 25.8187 46.2312 26.7662 45.1561 27.2399C44.6782 27.3584 42.6474 27.9505 42.289 27.7137C42.7668 28.069 43.2447 28.4243 43.6031 28.7796C41.9306 28.6611 40.0193 28.069 38.5857 27.0031C38.5857 27.0031 34.763 29.8455 34.4046 30.0823C32.8516 31.0298 31.2986 31.7404 29.5067 32.451C27.8343 33.0432 26.0424 33.5169 24.3699 33.8722C23.0559 34.1091 19.8304 34.5828 20.3083 32.2141C19.8304 34.1091 19.4721 36.004 19.5915 37.899C19.5915 38.4911 20.1888 41.8073 21.1445 41.452C21.3834 41.3335 21.5029 41.0967 21.5029 40.8598C21.8613 39.7939 21.9807 38.728 22.1002 37.5437C22.1002 38.9649 22.2196 40.5045 22.4586 41.9257C22.4586 42.281 22.578 42.7547 22.8169 42.9916C23.1753 43.4653 23.7726 43.5838 24.3699 43.7022C26.2813 43.8206 28.0732 43.8206 29.8651 43.3469C30.5819 43.11 31.5376 43.2285 32.1349 42.6363C32.4932 42.281 32.7322 41.9257 32.8516 41.452C33.5684 39.557 33.5684 37.4252 33.5684 35.4119C33.8073 36.8331 34.2852 38.2543 34.8825 39.557C35.1214 39.9123 35.3603 40.2676 35.7187 40.3861C36.1965 40.5045 36.6744 40.2676 37.1522 39.9123C38.3468 39.0833 39.422 38.1358 40.4971 37.1884C40.9749 36.8331 41.4528 36.3593 41.5722 35.7672C41.9306 34.4644 40.4971 33.3985 40.2582 32.0957C41.2139 32.6879 42.289 33.0432 43.3641 32.8063C44.3198 32.6879 45.0366 31.9773 45.6339 31.2667C46.2312 30.4376 46.5896 29.4902 47.0674 28.6611C47.4258 27.8321 47.9036 26.7662 48.262 25.7003Z" fill="url(#paint7_linear_50_51)"/>
<path d="M87.445 69.6389C92.3429 69.6389 96.1656 65.02 98.1965 61.1117C100.466 56.7297 103.453 49.5052 100.944 44.6494C99.2716 41.3333 95.21 39.6752 91.5067 40.149C82.0693 41.3333 76.9325 52.7029 78.366 61.2301C79.4412 57.6771 80.7552 53.532 84.578 51.9923C86.9672 51.0448 89.5953 51.2817 91.8651 52.2292C93.2986 52.8213 94.6127 53.6504 95.21 54.9532C96.2851 56.9665 95.5683 59.5721 94.2543 61.467C92.5818 64.3094 90.1926 67.744 87.445 69.6389Z" fill="url(#paint8_linear_50_51)"/>
<path d="M100.466 57.6771C99.2716 61.9407 96.4046 65.849 92.7013 68.3361C91.0289 69.402 89.1175 70.3495 87.2061 70.3495C83.5028 70.4679 80.158 67.9808 78.605 64.6646C77.052 61.3485 77.052 57.5586 77.8882 54.0056C77.8882 53.7687 76.9325 53.0581 76.6936 52.9397C76.2158 52.466 75.8574 51.8738 75.6185 51.1632C76.4547 51.1632 77.1714 51.2816 78.0077 51.2816C77.5298 50.3342 76.9325 49.3867 76.4547 48.3208C75.499 49.3867 74.6628 50.6895 74.1849 51.9922C73.8265 52.9397 73.1098 54.8346 73.3487 55.7821C73.4682 56.2559 73.946 56.4927 74.1849 56.848C74.5433 57.3218 74.6628 57.9139 75.1406 58.3877C74.4239 58.743 73.8266 58.6245 73.1098 58.3877C71.9152 61.1116 72.8709 64.7831 73.946 67.507C74.7822 67.1517 75.6185 66.678 76.3352 66.3227C75.9768 67.507 75.6185 68.8098 75.3795 69.9942C75.2601 70.3495 76.9325 71.8891 77.1714 72.2444C77.8882 72.955 78.605 73.6656 79.4412 74.2578C80.9942 75.4421 82.1888 75.5605 84.1002 75.679C84.9364 75.679 85.7726 75.679 86.7283 75.5605C87.5645 75.4421 88.2813 75.2052 88.998 74.8499C89.1175 73.784 89.237 72.7181 89.3564 71.7707C89.8343 72.5997 90.1926 73.4287 90.6705 74.2578C91.8651 73.5472 93.1791 72.8366 94.3738 72.126C94.6127 72.0075 94.9711 71.7707 95.0905 71.5338C95.21 71.2969 95.21 71.0601 95.21 70.7048C95.21 69.8757 95.0905 69.1651 95.0905 68.3361C95.5684 69.0467 96.1657 69.7573 96.6435 70.4679C96.6435 70.3495 97.3603 69.1651 97.3603 69.0467C97.5992 68.573 97.8381 67.9808 97.9576 67.507C98.1965 67.0333 98.1965 66.4411 98.4354 65.849C98.5549 65.3752 98.7938 65.0199 98.9133 64.5462C99.5106 62.4144 99.8689 60.0457 100.466 57.9139C100.466 57.9139 100.466 57.7955 100.466 57.6771Z" fill="url(#paint9_linear_50_51)"/>
<path d="M79.7997 2.25009C79.5607 2.60539 79.3218 3.07912 79.2024 3.31599C85.0559 5.68466 90.79 8.76394 95.8074 12.7907C88.9981 8.40863 80.9943 6.27683 73.1099 4.50032C69.1677 3.67129 65.2255 2.84225 61.1638 2.25009C63.9114 2.25009 66.7785 2.36852 69.5261 2.72382C70.2428 2.13165 70.8401 1.42105 71.5569 0.710449C74.4239 1.06575 77.291 1.30262 79.7997 2.25009Z" fill="url(#paint10_linear_50_51)"/>
<path d="M120.536 54.5981C119.938 47.8474 118.027 41.2151 114.682 35.2935C116.116 36.7147 117.31 38.2543 118.385 39.9124C118.863 39.6755 119.341 39.4386 119.819 39.4386C121.491 42.9916 122.567 46.6631 122.925 50.5714C122.208 51.0451 121.372 51.5189 120.775 52.111C120.775 53.0585 120.536 53.5322 120.536 54.5981Z" fill="url(#paint11_linear_50_51)"/>
<path d="M113.368 86.9304C117.191 79.1137 119.699 70.705 120.775 62.1777C121.252 70.9418 118.744 79.8243 113.368 86.9304Z" fill="url(#paint12_linear_50_51)"/>
<path d="M71.9152 79.469C70.8401 79.8243 69.7649 80.535 69.1676 81.4824C68.9287 81.8377 67.6147 84.2064 67.7341 84.5617C66.5395 82.3115 67.7341 80.4165 69.1676 78.7584C70.6012 77.1004 72.632 75.916 74.7823 75.6792C75.738 75.5607 76.9326 75.6792 77.5299 76.3898C78.1272 77.2188 77.8883 78.2847 77.6493 79.2322C76.8131 81.4824 75.0212 83.4958 73.1098 84.917C73.7071 84.088 74.185 83.1405 74.5434 82.3115C74.9017 81.7193 75.1407 81.0087 74.9017 80.2981C74.6628 79.8244 74.185 79.469 73.5877 79.3506C72.9904 79.2322 72.3931 79.3506 71.9152 79.469Z" fill="url(#paint13_linear_50_51)"/>
<path d="M66.8978 79.9429C66.7784 80.1798 66.6589 80.2982 66.6589 80.4167C66.0616 81.601 65.7032 82.5485 66.1811 83.9697C66.6589 85.2725 67.973 86.3384 69.4065 86.5752C71.079 86.8121 72.8709 86.1015 74.1849 85.0356C75.9768 83.6144 77.5298 81.601 78.7244 79.7061C78.2466 81.7194 77.6493 83.7328 76.6936 85.5093C76.3352 86.2199 76.0963 87.1674 75.2601 87.4043C74.5433 87.6411 73.946 87.4043 73.7071 86.8121C73.946 87.4043 74.1849 87.9964 74.4239 88.707C73.1098 89.4176 71.9152 90.1282 70.3622 90.4835C70.1233 89.7729 69.7649 89.0623 69.526 88.4702C69.0481 89.0623 68.6898 89.7729 68.4508 90.4835C67.7341 90.2467 66.7784 90.2467 66.0616 89.8914C65.8227 89.7729 64.3892 88.707 64.6281 88.3517C65.2254 87.6411 65.7032 86.9305 66.3005 86.2199C65.5838 86.5752 64.867 86.9305 64.1503 87.2858C63.7919 85.2724 63.7919 83.1406 64.1503 81.1273C64.3892 81.2457 64.6281 81.4826 64.7476 81.601C65.7032 79.9429 66.8978 78.2849 68.6898 77.3374C67.973 77.8111 67.3757 79.1139 66.8978 79.9429Z" fill="url(#paint14_linear_50_51)"/>
<path d="M91.8651 96.9972C92.7013 95.2207 92.5819 93.4441 90.5511 92.6151C89.7148 92.2598 88.7591 92.2598 87.9229 92.2598C84.4586 92.4967 81.1137 94.1547 78.9634 96.7603C79.7996 94.0363 81.2331 91.9045 83.7418 90.6017C86.2505 89.299 89.237 89.1805 91.9846 90.0096C93.5376 90.4833 95.3295 91.5492 94.8516 93.3257C94.6127 94.1548 94.1349 94.9838 93.5376 95.6944C93.0597 96.1681 91.8651 96.7603 91.6262 97.234C91.7457 97.234 91.7457 97.1156 91.8651 96.9972Z" fill="url(#paint15_linear_50_51)"/>
<path d="M95.0905 97.3524C96.1657 95.4575 96.6435 93.3257 96.5241 91.1938C96.4046 92.1413 96.1657 93.2072 95.8073 94.1547C95.4489 94.3916 95.0905 94.6284 94.7322 94.8653C94.2543 95.9312 93.4181 96.7602 92.4624 97.3524C91.5067 97.9446 90.4316 98.4183 89.3564 98.7736C87.4451 99.3658 85.5337 99.8395 83.5029 99.8395C82.0693 99.8395 79.6801 99.6026 78.7244 98.2999C77.8882 97.1155 78.4855 95.5759 79.0828 94.2731C79.0828 93.9178 78.9634 93.4441 78.9634 93.2072C79.0828 92.3782 79.6801 91.9044 80.2774 91.3123C78.4855 92.3782 77.1715 94.3916 76.8131 96.4049C77.052 96.5234 77.052 96.6418 77.2909 96.7602C76.9325 96.8787 76.4547 97.234 76.0963 97.3524C76.4547 99.6026 78.0077 101.734 80.2774 102.327C80.7553 101.971 81.1137 101.616 81.5915 101.142C81.5915 101.616 81.5915 101.971 81.5915 102.445C84.4586 102.8 87.5645 102.327 90.0732 100.905C90.1927 100.432 90.3121 99.9579 90.4316 99.4842C90.6705 99.8395 90.79 100.195 91.0289 100.55C91.1483 100.076 91.3873 99.7211 91.5067 99.3658C91.7456 99.6026 91.8651 99.8395 92.104 100.076C93.1792 99.6026 94.2543 98.892 94.9711 97.9446C94.8516 97.5893 94.7321 97.234 94.6127 96.8787C94.4932 97.1155 94.8516 97.234 95.0905 97.3524Z" fill="url(#paint16_linear_50_51)"/>
<path d="M64.5087 15.9887C63.792 16.1071 63.1946 16.344 62.9557 17.0546C62.8363 17.8836 63.553 18.4758 64.2698 18.8311C66.8979 20.1338 69.6455 21.0813 72.5126 21.4366C73.1099 21.555 74.0656 21.555 74.4239 20.9629C74.6629 20.4891 74.3045 19.7785 74.0656 19.4232C73.5877 18.5942 72.9904 18.1205 72.2736 17.6467C71.7958 17.2914 71.318 17.0546 70.8401 16.6993C70.6012 16.5808 69.5261 15.9887 69.2871 16.1071C69.5261 15.8702 70.0039 15.8702 70.3623 15.8702C70.7207 15.7518 71.1985 15.6334 71.1985 15.2781C71.1985 14.9228 71.079 14.6859 70.8401 14.449C69.8844 13.5016 68.5704 13.0278 67.3758 12.5541C66.0617 12.0804 64.6282 11.6066 63.1947 11.3697C61.7611 11.1329 60.3276 11.0144 58.8941 11.3697C58.4162 11.4882 57.9384 11.6066 57.6995 12.0804C57.4605 12.4357 57.58 12.9094 57.6995 13.2647C57.9384 13.62 58.1773 13.8569 58.5357 14.0937C59.6108 14.8043 60.9249 15.1596 62.3584 15.3965C63.6725 15.6334 64.9866 15.7518 66.3006 16.1071C65.9422 15.9887 65.106 15.8702 64.5087 15.9887Z" fill="url(#paint17_linear_50_51)"/>
<path d="M106.678 66.9148C106.678 67.507 106.917 68.336 107.514 68.336C107.992 68.4545 108.351 68.0992 108.59 67.7439C110.859 65.4936 112.532 62.4144 112.651 59.2167C112.651 58.7429 112.651 58.2692 112.412 57.7955C111.337 55.3083 109.306 58.9798 108.59 59.9273C107.395 62.1775 106.559 64.4277 106.678 66.9148Z" fill="url(#paint18_linear_50_51)"/>
<path d="M102.139 23.805C102.258 24.1603 102.378 24.634 102.139 24.9893C101.78 25.5815 100.705 25.3446 99.9884 25.1077C95.9268 23.5681 91.9846 21.4363 88.6397 18.8308C87.5645 18.0017 85.8921 15.9884 87.684 15.3962C89.9538 14.5672 93.896 15.7515 95.9268 16.9358C98.7938 18.4755 101.064 20.9626 102.139 23.805Z" fill="url(#paint19_linear_50_51)"/>
<path d="M53.3988 56.6115C52.921 57.6774 52.4432 58.8617 53.0405 59.9276C53.7572 61.2304 55.5491 61.2304 56.9827 60.8751C61.1638 59.9276 64.7476 56.8484 66.5395 53.0585C66.8979 52.2295 67.2563 51.282 67.2563 50.2161C67.2563 49.2686 66.7784 48.2027 66.0617 47.729C63.7919 46.1893 61.0443 48.7949 59.2524 49.9792C56.6243 51.6373 54.8324 54.1244 53.3988 56.6115Z" fill="url(#paint20_linear_50_51)"/>
<path d="M93.896 82.4296C94.3738 82.9033 95.0906 82.7849 95.8073 82.548C98.0771 81.719 100.108 80.0609 101.303 77.9291C101.78 76.9816 102.139 75.6789 101.422 74.9683C98.9133 72.5996 91.6262 80.2978 93.896 82.4296Z" fill="url(#paint21_linear_50_51)"/>
<path d="M115.638 88.9435C116.713 89.1804 117.669 89.5357 118.744 89.7726C119.699 88.4698 120.655 87.0486 121.611 85.7458C121.013 85.1537 118.505 82.4297 118.505 82.4297C118.505 82.4297 116.952 85.0352 116.593 85.8643C116.235 86.338 114.563 88.5882 115.638 88.9435Z" fill="url(#paint22_linear_50_51)"/>
<path d="M31.5376 16.9358C32.6127 16.1068 33.6879 15.2778 34.8825 14.5672C35.9576 13.8565 37.2717 13.5012 38.4663 13.2644C40.6166 12.6722 42.8863 12.5538 45.0366 12.7906C46.2312 12.9091 49.0983 13.7381 48.501 15.5146C48.3815 15.8699 48.1426 16.1068 47.9037 16.4621C47.6648 16.699 47.4258 17.0543 47.5453 17.4096C47.5453 17.7649 48.0231 18.1202 48.3815 17.8833C46.7091 20.0151 44.9172 21.6732 42.6474 23.0944C43.4836 21.7916 44.3199 20.4888 44.5588 18.9492C44.7977 17.4096 44.4393 15.6331 43.2447 14.804C42.1696 13.975 40.6166 13.975 39.3025 14.0934C36.6744 14.4487 34.1657 15.3962 31.896 16.9358H31.5376Z" fill="url(#paint23_linear_50_51)"/>
<path d="M23.892 31.2666C23.7726 31.5035 23.6531 31.9772 24.0115 32.0956C24.131 32.2141 24.4893 32.2141 24.6088 32.0956C27.2369 31.5035 29.7456 30.2007 31.7764 28.5426C31.8959 28.4242 32.1348 28.1873 32.0154 28.0689C32.0154 27.832 31.657 27.832 31.4181 27.832C29.6261 27.832 27.9537 28.1873 26.1618 28.6611C24.8477 29.0164 24.3699 29.9638 23.892 31.2666Z" fill="url(#paint24_linear_50_51)"/>
<path d="M101.9 53.7686C102.258 52.1106 102.497 50.334 102.497 48.676C102.497 46.8995 102.019 45.2414 101.064 43.7018C99.0328 40.6225 94.9711 39.4382 91.3873 39.9119C87.5646 40.3856 83.9808 42.5174 81.711 45.7151C81.3526 45.7151 80.9942 45.3598 80.6359 45.3598C82.4278 40.5041 86.7284 36.7142 91.7457 35.293C92.2235 35.1745 92.7014 35.0561 93.1792 35.1745C93.6571 35.4114 93.896 35.8851 94.2544 36.2404C94.8517 36.8326 95.8073 37.1879 96.6436 37.5432C99.0328 38.4907 101.303 40.0303 102.497 42.2806C103.333 43.9386 103.572 45.952 103.333 47.7285C103.094 49.505 102.497 51.9921 101.9 53.7686Z" fill="url(#paint25_linear_50_51)"/>
<path d="M81.711 66.086C82.3083 66.7966 83.1445 67.6257 84.1002 67.8625C85.0559 68.2178 86.2505 67.981 86.8478 67.0335C87.2062 66.4413 87.2062 65.8492 87.0867 65.1386C86.9673 64.5464 86.6089 63.9542 86.131 63.4805C85.4143 62.533 84.6975 61.704 83.8613 60.9934C82.7861 60.0459 80.2775 59.2169 79.7996 61.2303C79.4413 62.8883 80.7553 64.9017 81.711 66.086Z" fill="url(#paint26_linear_50_51)"/>
<path d="M80.9942 98.5367C81.5915 98.892 82.4278 99.0105 83.1445 98.892C85.2948 98.7736 87.4451 98.2999 89.4759 97.5893C89.5954 97.5893 89.5954 97.4708 89.7148 97.4708C89.8343 97.3524 89.7148 97.1155 89.5954 96.9971C89.4759 96.8787 89.237 96.8787 89.1175 96.8787C87.0867 96.5234 84.9364 96.1681 82.9056 95.8128C82.4278 95.6943 81.9499 95.6943 81.4721 95.6943C80.158 96.0496 79.7996 97.8261 80.9942 98.5367Z" fill="url(#paint27_linear_50_51)"/>
<path d="M48.0231 5.9218C47.7842 6.04023 47.4258 6.15866 47.4258 6.51397C47.4258 6.86927 47.7842 6.9877 48.1425 7.10613C49.5761 7.343 51.0096 7.343 52.4431 7.10613C53.1599 6.9877 53.8766 6.75083 54.5934 6.51397C54.7129 6.51397 56.3853 5.80336 56.2659 5.68493C55.1907 4.61903 53.7572 4.97433 52.4431 4.97433C50.8901 4.97433 49.4566 5.2112 48.0231 5.9218Z" fill="url(#paint28_linear_50_51)"/>
<path d="M8.84014 59.8092C8.72068 60.4013 8.36229 61.1119 8.00391 60.9935C7.64553 60.8751 7.40661 60.2829 7.40661 59.8092C6.80931 55.664 6.92877 51.1635 7.64553 47.0183C7.88445 45.834 8.36229 42.5179 9.79582 42.8732C10.3931 43.11 10.632 44.1759 10.5126 45.1234C10.2737 49.9792 9.91528 55.0718 8.84014 59.8092Z" fill="url(#paint29_linear_50_51)"/>
<path d="M14.5742 62.533C14.6937 60.4012 16.9634 55.7822 18.6359 59.6906C20.1889 63.2436 20.5472 67.2703 19.5916 71.0602C19.4721 71.4155 19.3526 71.8892 18.8748 72.1261C18.2775 72.363 17.6802 72.0077 17.3218 71.5339C14.9326 69.0468 14.3353 65.9675 14.5742 62.533Z" fill="url(#paint30_linear_50_51)"/>
<path d="M30.5819 96.8789C29.5068 97.3526 28.3122 97.1157 27.3565 96.5236C26.4008 95.9314 25.5646 95.1024 24.8478 94.2733C22.817 92.0231 20.9056 89.6544 19.2332 87.0489C18.2775 85.5092 17.4413 83.9696 16.9634 82.3115C16.6051 81.2456 15.7688 78.1663 17.3218 77.5742C17.7997 77.4557 18.2775 77.4557 18.7553 77.5742C21.1446 78.1663 23.5338 79.5875 25.4451 81.1272C28.3122 83.6143 30.4625 86.6936 31.7765 90.2466C32.2544 92.3784 32.9711 95.813 30.5819 96.8789Z" fill="url(#paint31_linear_50_51)"/>
<path d="M51.2485 110.972C51.1291 111.209 50.7707 111.327 50.5318 111.327C47.0674 112.038 43.1252 110.854 40.2582 108.84C37.3911 106.827 38.1079 102.919 42.1695 104.34C45.395 105.524 48.8593 106.945 51.0096 109.551C51.2485 109.906 51.6069 110.498 51.2485 110.972Z" fill="url(#paint32_linear_50_51)"/>
<path d="M10.7514 63.7171C11.3487 63.2433 11.8266 62.5327 11.8266 61.7037C11.8266 60.8747 11.4682 60.1641 10.8709 59.5719C11.3487 59.8088 11.946 60.0456 12.4239 60.4009C13.1406 58.1507 13.3796 55.782 13.2601 53.4134C13.2601 53.1765 13.2601 53.0581 13.1406 52.8212C13.0212 52.7028 12.9017 52.4659 12.6628 52.5843C13.2601 52.229 13.9769 51.9922 14.5742 51.6369C13.9769 51.4 13.499 51.1631 12.9017 51.0447C12.7823 49.8603 12.5433 48.7944 12.4239 47.6101C12.9017 47.3732 13.2601 47.0179 13.7379 46.7811C13.9769 44.6493 13.9769 42.5175 13.6185 40.5041C13.0212 40.8594 12.5433 41.3331 12.185 41.8069C12.6628 40.741 12.9017 39.5566 12.5433 38.4907C11.3487 39.5566 10.2736 40.741 9.43736 42.0437C9.9152 42.399 10.2736 42.6359 10.393 43.2281C10.7514 43.7018 10.7514 44.1755 10.7514 44.7677C10.7514 45.5967 10.7514 46.3073 10.7514 47.1364C10.7514 48.676 10.632 50.3341 10.5125 51.8737C10.2736 55.0714 9.79574 58.1507 9.07898 61.23C9.67628 61.9406 10.2736 62.7696 10.7514 63.5986V63.7171Z" fill="url(#paint33_linear_50_51)"/>
<path d="M18.3969 76.9819C19.8304 77.2188 21.0251 77.5741 22.3391 78.2847C25.4451 79.8243 28.0732 82.3114 29.9846 85.2723C31.2987 87.4041 32.1349 89.7727 32.6127 92.1414C32.7322 92.9704 32.7322 94.6285 33.3295 95.2207C33.9268 95.6944 35.2409 95.576 35.9576 95.576C35.9576 94.8654 36.0771 92.023 35.0019 91.7861C34.4046 91.6677 33.9268 91.5492 33.3295 91.4308C33.6879 90.9571 34.0462 90.7202 34.6435 90.6018C34.1657 88.7068 33.3295 86.9303 32.3738 85.2723C32.3738 84.7985 31.4181 83.7326 31.0597 83.2589C30.4624 82.3114 29.7457 81.4824 29.0289 80.6533C28.5511 80.7718 27.9538 81.0086 27.3565 81.1271C27.4759 80.7718 27.4759 80.5349 27.5954 80.1796C27.7148 79.8243 27.7148 79.469 27.5954 79.2321C27.4759 79.1137 27.3565 78.9953 27.1175 78.8768C26.7592 78.64 26.4008 78.4031 26.1619 78.1662C25.9229 78.0478 25.684 77.9294 25.4451 77.8109C25.2062 77.8109 25.0867 77.8109 24.8478 77.9294C24.7283 78.0478 24.6089 78.0478 24.3699 78.1662C24.3699 77.8109 24.3699 77.5741 24.3699 77.2188C23.1753 76.5082 21.9807 75.916 20.6667 75.5607C20.4277 75.5607 17.7996 75.087 17.9191 74.8501C17.6802 75.5607 17.4412 76.1529 17.3218 76.8635C17.7996 76.9819 18.158 76.9819 18.3969 76.9819Z" fill="url(#paint34_linear_50_51)"/>
<path d="M7.76488 57.3217C8.6011 55.5452 8.6011 53.5318 8.48164 51.6369C8.48164 50.6894 8.36218 49.6235 8.36218 48.6761C8.36218 47.9655 8.6011 46.7811 8.36218 46.189C7.64542 47.847 7.52595 49.9788 7.40649 51.7553C7.40649 52.7028 7.40649 53.6503 7.40649 54.5978C7.40649 55.0715 7.52596 55.5452 7.52596 56.019C7.64542 56.2558 7.88434 57.0849 7.76488 57.3217Z" fill="url(#paint35_linear_50_51)"/>
<path d="M28.1926 95.1023C28.9094 95.2207 29.6262 95.1022 29.9845 94.2732C30.2235 93.5626 29.6262 92.9704 29.1483 92.3783C25.8034 89.0621 22.3391 85.8644 18.7552 82.7852C18.9942 83.022 19.1136 84.0879 19.1136 84.3248C19.3526 84.917 19.472 85.5091 19.8304 86.1013C20.7861 87.8778 21.9807 89.299 23.2947 90.8386C24.2504 92.1414 25.445 93.3257 26.7591 94.3916C26.8786 94.7469 27.4759 94.9838 28.1926 95.1023Z" fill="url(#paint36_linear_50_51)"/>
<path d="M23.6531 50.6895C24.0115 49.9789 24.6088 49.1499 25.445 49.2683C26.0423 49.2683 26.8786 50.2158 27.1175 50.6895C27.1175 49.3867 27.4759 48.084 28.0732 47.018C28.3121 46.6627 28.551 46.3074 29.0289 46.189C29.3872 46.0706 29.8651 46.3074 30.104 46.6627C30.3429 47.018 30.4624 47.3733 30.5818 47.7286C31.0597 49.5052 31.0597 51.4001 30.7013 53.295C30.5818 53.6503 30.4624 54.0056 30.2235 54.2425C29.7456 54.5978 29.0289 54.4794 28.551 54.0056C28.0732 53.5319 27.9537 52.9397 27.7148 52.3476C28.0732 54.9531 27.7148 57.6771 26.5202 60.0457C26.2813 60.5195 25.8034 61.1116 25.2061 61.1116C24.8477 61.1116 24.6088 60.8748 24.2504 60.6379C21.6223 57.9139 22.1001 53.8872 23.6531 50.6895Z" fill="url(#paint37_linear_50_51)"/>
<path d="M37.1522 83.9697C37.3911 84.2065 37.6301 84.325 37.9885 84.325C38.4663 84.2065 38.5858 83.7328 38.5858 83.2591C38.7052 81.8379 38.2274 80.4167 37.6301 79.1139C37.2717 78.5217 36.7938 77.8111 36.0771 77.9296C35.7187 77.9296 35.3603 78.2849 35.2409 78.6402C34.5241 80.4167 35.9576 82.7853 37.1522 83.9697Z" fill="url(#paint38_linear_50_51)"/>
<path d="M52.921 106.353C51.7264 105.169 46.5896 102.919 47.5453 106.353C48.0231 108.367 49.5761 108.841 51.4875 108.841C53.1599 108.959 54.3546 107.775 52.921 106.353Z" fill="url(#paint39_linear_50_51)"/>
<path d="M72.632 114.407C74.4239 114.288 76.2158 114.052 78.0077 113.578C78.9634 113.341 79.7996 112.986 80.6358 112.63C80.9942 112.512 82.1888 111.328 82.4278 111.328C78.9634 110.854 75.3796 111.565 72.3931 113.341C72.0347 113.578 71.6763 113.815 71.7958 114.17C71.9152 114.407 72.2736 114.407 72.632 114.407Z" fill="url(#paint40_linear_50_51)"/>
</g>
<defs>
<linearGradient id="paint0_linear_50_51" x1="62.0597" y1="0" x2="62.0597" y2="124" gradientUnits="userSpaceOnUse">
<stop stop-color="#7A972B"/>
<stop offset="1" stop-color="#3D4C15"/>
</linearGradient>
<linearGradient id="paint1_linear_50_51" x1="70.1374" y1="83.0474" x2="70.1374" y2="84.8591" gradientUnits="userSpaceOnUse">
<stop stop-color="#7A972B"/>
<stop offset="1" stop-color="#3D4C15"/>
</linearGradient>
<linearGradient id="paint2_linear_50_51" x1="73.8289" y1="74.3765" x2="73.8289" y2="80.6534" gradientUnits="userSpaceOnUse">
<stop stop-color="#7A972B"/>
<stop offset="1" stop-color="#3D4C15"/>
</linearGradient>
<linearGradient id="paint3_linear_50_51" x1="88.0283" y1="87.2485" x2="88.0283" y2="94.6286" gradientUnits="userSpaceOnUse">
<stop stop-color="#7A972B"/>
<stop offset="1" stop-color="#3D4C15"/>
</linearGradient>
<linearGradient id="paint4_linear_50_51" x1="60.2181" y1="10.896" x2="60.2181" y2="123.053" gradientUnits="userSpaceOnUse">
<stop stop-color="#7A972B"/>
<stop offset="1" stop-color="#3D4C15"/>
</linearGradient>
<linearGradient id="paint5_linear_50_51" x1="75.0088" y1="3.30273" x2="75.0088" y2="83.8081" gradientUnits="userSpaceOnUse">
<stop stop-color="#7A972B"/>
<stop offset="1" stop-color="#3D4C15"/>
</linearGradient>
<linearGradient id="paint6_linear_50_51" x1="32.2606" y1="14.4336" x2="32.2606" y2="33.5168" gradientUnits="userSpaceOnUse">
<stop stop-color="#7A972B"/>
<stop offset="1" stop-color="#3D4C15"/>
</linearGradient>
<linearGradient id="paint7_linear_50_51" x1="33.9749" y1="25.2266" x2="33.9749" y2="43.768" gradientUnits="userSpaceOnUse">
<stop stop-color="#7A972B"/>
<stop offset="1" stop-color="#3D4C15"/>
</linearGradient>
<linearGradient id="paint8_linear_50_51" x1="90.0125" y1="40.0693" x2="90.0125" y2="69.6389" gradientUnits="userSpaceOnUse">
<stop stop-color="#7A972B"/>
<stop offset="1" stop-color="#3D4C15"/>
</linearGradient>
<linearGradient id="paint9_linear_50_51" x1="86.5114" y1="48.3208" x2="86.5114" y2="75.679" gradientUnits="userSpaceOnUse">
<stop stop-color="#7A972B"/>
<stop offset="1" stop-color="#3D4C15"/>
</linearGradient>
<linearGradient id="paint10_linear_50_51" x1="78.4856" y1="0.710449" x2="78.4856" y2="12.7907" gradientUnits="userSpaceOnUse">
<stop stop-color="#7A972B"/>
<stop offset="1" stop-color="#3D4C15"/>
</linearGradient>
<linearGradient id="paint11_linear_50_51" x1="118.804" y1="35.2935" x2="118.804" y2="54.5981" gradientUnits="userSpaceOnUse">
<stop stop-color="#7A972B"/>
<stop offset="1" stop-color="#3D4C15"/>
</linearGradient>
<linearGradient id="paint12_linear_50_51" x1="117.1" y1="62.1777" x2="117.1" y2="86.9304" gradientUnits="userSpaceOnUse">
<stop stop-color="#7A972B"/>
<stop offset="1" stop-color="#3D4C15"/>
</linearGradient>
<linearGradient id="paint13_linear_50_51" x1="72.5749" y1="75.6392" x2="72.5749" y2="84.917" gradientUnits="userSpaceOnUse">
<stop stop-color="#7A972B"/>
<stop offset="1" stop-color="#3D4C15"/>
</linearGradient>
<linearGradient id="paint14_linear_50_51" x1="71.303" y1="77.3374" x2="71.303" y2="90.4835" gradientUnits="userSpaceOnUse">
<stop stop-color="#7A972B"/>
<stop offset="1" stop-color="#3D4C15"/>
</linearGradient>
<linearGradient id="paint15_linear_50_51" x1="86.9468" y1="89.4839" x2="86.9468" y2="97.234" gradientUnits="userSpaceOnUse">
<stop stop-color="#7A972B"/>
<stop offset="1" stop-color="#3D4C15"/>
</linearGradient>
<linearGradient id="paint16_linear_50_51" x1="86.3191" y1="91.1938" x2="86.3191" y2="102.558" gradientUnits="userSpaceOnUse">
<stop stop-color="#7A972B"/>
<stop offset="1" stop-color="#3D4C15"/>
</linearGradient>
<linearGradient id="paint17_linear_50_51" x1="66.0321" y1="11.1455" x2="66.0321" y2="21.4985" gradientUnits="userSpaceOnUse">
<stop stop-color="#7A972B"/>
<stop offset="1" stop-color="#3D4C15"/>
</linearGradient>
<linearGradient id="paint18_linear_50_51" x1="109.659" y1="56.9458" x2="109.659" y2="68.3593" gradientUnits="userSpaceOnUse">
<stop stop-color="#7A972B"/>
<stop offset="1" stop-color="#3D4C15"/>
</linearGradient>
<linearGradient id="paint19_linear_50_51" x1="94.5858" y1="15.1191" x2="94.5858" y2="25.361" gradientUnits="userSpaceOnUse">
<stop stop-color="#7A972B"/>
<stop offset="1" stop-color="#3D4C15"/>
</linearGradient>
<linearGradient id="paint20_linear_50_51" x1="60.009" y1="47.2554" x2="60.009" y2="61.0771" gradientUnits="userSpaceOnUse">
<stop stop-color="#7A972B"/>
<stop offset="1" stop-color="#3D4C15"/>
</linearGradient>
<linearGradient id="paint21_linear_50_51" x1="97.6455" y1="74.5205" x2="97.6455" y2="82.7553" gradientUnits="userSpaceOnUse">
<stop stop-color="#7A972B"/>
<stop offset="1" stop-color="#3D4C15"/>
</linearGradient>
<linearGradient id="paint22_linear_50_51" x1="118.446" y1="82.4297" x2="118.446" y2="89.7726" gradientUnits="userSpaceOnUse">
<stop stop-color="#7A972B"/>
<stop offset="1" stop-color="#3D4C15"/>
</linearGradient>
<linearGradient id="paint23_linear_50_51" x1="40.0597" y1="12.6763" x2="40.0597" y2="23.0944" gradientUnits="userSpaceOnUse">
<stop stop-color="#7A972B"/>
<stop offset="1" stop-color="#3D4C15"/>
</linearGradient>
<linearGradient id="paint24_linear_50_51" x1="27.9102" y1="27.832" x2="27.9102" y2="32.1845" gradientUnits="userSpaceOnUse">
<stop stop-color="#7A972B"/>
<stop offset="1" stop-color="#3D4C15"/>
</linearGradient>
<linearGradient id="paint25_linear_50_51" x1="92.0285" y1="35.1255" x2="92.0285" y2="53.7686" gradientUnits="userSpaceOnUse">
<stop stop-color="#7A972B"/>
<stop offset="1" stop-color="#3D4C15"/>
</linearGradient>
<linearGradient id="paint26_linear_50_51" x1="83.4487" y1="59.9907" x2="83.4487" y2="68.0194" gradientUnits="userSpaceOnUse">
<stop stop-color="#7A972B"/>
<stop offset="1" stop-color="#3D4C15"/>
</linearGradient>
<linearGradient id="paint27_linear_50_51" x1="85.0155" y1="95.6943" x2="85.0155" y2="98.9365" gradientUnits="userSpaceOnUse">
<stop stop-color="#7A972B"/>
<stop offset="1" stop-color="#3D4C15"/>
</linearGradient>
<linearGradient id="paint28_linear_50_51" x1="51.8489" y1="4.91748" x2="51.8489" y2="7.28378" gradientUnits="userSpaceOnUse">
<stop stop-color="#7A972B"/>
<stop offset="1" stop-color="#3D4C15"/>
</linearGradient>
<linearGradient id="paint29_linear_50_51" x1="8.78331" y1="42.8467" x2="8.78331" y2="61.0066" gradientUnits="userSpaceOnUse">
<stop stop-color="#7A972B"/>
<stop offset="1" stop-color="#3D4C15"/>
</linearGradient>
<linearGradient id="paint30_linear_50_51" x1="17.3221" y1="58.1714" x2="17.3221" y2="72.2015" gradientUnits="userSpaceOnUse">
<stop stop-color="#7A972B"/>
<stop offset="1" stop-color="#3D4C15"/>
</linearGradient>
<linearGradient id="paint31_linear_50_51" x1="24.3387" y1="77.4854" x2="24.3387" y2="97.1309" gradientUnits="userSpaceOnUse">
<stop stop-color="#7A972B"/>
<stop offset="1" stop-color="#3D4C15"/>
</linearGradient>
<linearGradient id="paint32_linear_50_51" x1="44.9612" y1="104.036" x2="44.9612" y2="111.535" gradientUnits="userSpaceOnUse">
<stop stop-color="#7A972B"/>
<stop offset="1" stop-color="#3D4C15"/>
</linearGradient>
<linearGradient id="paint33_linear_50_51" x1="11.8266" y1="38.4907" x2="11.8266" y2="63.7171" gradientUnits="userSpaceOnUse">
<stop stop-color="#7A972B"/>
<stop offset="1" stop-color="#3D4C15"/>
</linearGradient>
<linearGradient id="paint34_linear_50_51" x1="26.6417" y1="74.8501" x2="26.6417" y2="95.5891" gradientUnits="userSpaceOnUse">
<stop stop-color="#7A972B"/>
<stop offset="1" stop-color="#3D4C15"/>
</linearGradient>
<linearGradient id="paint35_linear_50_51" x1="7.97234" y1="46.189" x2="7.97234" y2="57.3217" gradientUnits="userSpaceOnUse">
<stop stop-color="#7A972B"/>
<stop offset="1" stop-color="#3D4C15"/>
</linearGradient>
<linearGradient id="paint36_linear_50_51" x1="24.3971" y1="82.7852" x2="24.3971" y2="95.1412" gradientUnits="userSpaceOnUse">
<stop stop-color="#7A972B"/>
<stop offset="1" stop-color="#3D4C15"/>
</linearGradient>
<linearGradient id="paint37_linear_50_51" x1="26.6702" y1="46.1582" x2="26.6702" y2="61.1116" gradientUnits="userSpaceOnUse">
<stop stop-color="#7A972B"/>
<stop offset="1" stop-color="#3D4C15"/>
</linearGradient>
<linearGradient id="paint38_linear_50_51" x1="36.8264" y1="77.9165" x2="36.8264" y2="84.325" gradientUnits="userSpaceOnUse">
<stop stop-color="#7A972B"/>
<stop offset="1" stop-color="#3D4C15"/>
</linearGradient>
<linearGradient id="paint39_linear_50_51" x1="50.4941" y1="104.528" x2="50.4941" y2="108.849" gradientUnits="userSpaceOnUse">
<stop stop-color="#7A972B"/>
<stop offset="1" stop-color="#3D4C15"/>
</linearGradient>
<linearGradient id="paint40_linear_50_51" x1="77.1" y1="111.185" x2="77.1" y2="114.407" gradientUnits="userSpaceOnUse">
<stop stop-color="#7A972B"/>
<stop offset="1" stop-color="#3D4C15"/>
</linearGradient>
<clipPath id="clip0_50_51">
<rect width="124" height="124" fill="white"/>
</clipPath>
</defs>
</svg>
