<svg width="86" height="83" viewBox="0 0 86 83" fill="none" xmlns="http://www.w3.org/2000/svg">
<g clip-path="url(#clip0_52_259)">
<path d="M78.0306 49.8C78.0306 60.3764 73.1797 69.7621 65.5568 75.8557C65.4875 75.9258 65.3489 75.9958 65.2796 76.0659C65.2796 76.0659 65.2103 76.0659 65.2103 76.1359C65.141 76.206 65.0024 76.276 64.9331 76.346C60.2208 79.9882 54.469 82.2996 48.2321 82.86C48.0935 82.86 48.0242 82.86 47.8856 82.86C47.8163 82.86 47.8163 82.86 47.747 82.86C47.6084 82.86 47.5391 82.86 47.4005 82.86C46.6382 82.93 45.8759 82.93 45.1829 82.93C39.5697 82.93 34.303 81.5292 29.66 79.0076L29.4521 77.4667L27.3038 76.4861L27.7889 77.957C21.2055 73.8245 16.216 67.3806 13.8598 59.746C13.7905 59.5359 13.7212 59.3958 13.7212 59.1857V59.1157C13.6519 58.9055 13.5826 58.7654 13.5826 58.5553C12.8203 55.7536 12.4045 52.8119 12.4045 49.73C12.4045 46.9984 12.751 44.4068 13.3054 41.8853C13.3054 41.7452 13.3747 41.6051 13.3747 41.465C15.9388 30.9587 23.631 22.4135 33.5407 18.6313C33.9565 19.0515 34.303 19.4017 34.6495 19.822C34.7881 19.9621 34.9267 20.1722 35.0653 20.3123C36.6592 19.6819 38.253 19.1216 39.8469 18.7013C40.2627 18.5612 40.7478 18.4912 41.1636 18.3511L41.2329 16.6701C42.4803 16.53 43.7277 16.46 45.0443 16.46C52.5286 16.46 59.3892 18.9815 64.8638 23.184C65.0024 23.2541 65.141 23.3941 65.2796 23.4642C70.3385 27.4566 74.1499 32.8498 76.2289 39.0836L75.7438 39.714L76.4368 42.2355L76.9912 41.6051C77.6842 44.3368 78.0306 46.9984 78.0306 49.8Z" fill="url(#paint0_linear_52_259)"/>
<path d="M14.6915 52.4616C14.8993 51.0608 15.1765 49.66 15.6616 48.2591C15.8002 51.5511 16.9783 54.703 18.4336 57.5747C20.7205 61.9874 24.0468 66.1899 28.6205 68.081C35.2039 70.8127 42.5496 69.0616 48.7865 66.26C55.0234 63.4583 61.3989 59.5359 66.1113 54.5629C71.5859 48.8895 73.3184 40.2043 70.3385 32.7798C73.6649 38.9435 76.5754 45.2473 76.021 52.2515C75.4666 58.7654 71.8631 64.8591 66.9429 69.1317C62.0226 73.4043 55.855 76.0659 49.5488 77.6068C43.5198 79.1477 36.9364 79.7781 31.046 77.6768C20.7898 74.1747 13.3055 63.3182 14.6915 52.4616Z" fill="url(#paint1_linear_52_259)"/>
<path d="M52.6672 33.9707C50.2418 39.2238 45.3908 43.0762 40.6092 46.0179C36.382 48.6095 31.8082 50.9209 26.888 51.131C24.1854 51.2711 21.2748 50.6407 19.4037 48.6795C17.6713 46.8584 17.1169 44.2669 17.1169 41.8154C17.0476 34.8112 20.9976 28.6475 26.4029 24.4449C28.967 22.4838 31.8082 20.8728 34.7881 19.8922C34.9267 20.0323 35.0653 20.2424 35.2039 20.3825C36.7978 19.7521 38.3916 19.1918 39.9855 18.7715C45.7373 18.4913 52.39 21.293 53.6374 27.4568C54.0532 29.6281 53.5681 31.9395 52.6672 33.9707Z" fill="url(#paint2_linear_52_259)"/>
<path d="M50.6576 43.0058L50.7962 43.4261C48.2321 44.1965 45.8759 45.5274 43.797 47.2084C41.718 48.8894 39.9855 50.9906 38.6688 53.302C38.0451 54.4927 37.4908 55.6835 37.075 56.9442C36.6592 58.205 36.3127 59.5358 36.1048 60.8666C35.689 63.5282 35.7583 66.3299 36.3127 68.9214L36.382 69.1316L36.0355 69.2016C34.7188 69.6919 33.3328 69.832 31.9468 69.7619C30.5609 69.6919 29.2442 69.2717 27.9968 68.6413L28.2047 68.2911C29.3828 68.9214 30.6995 69.2016 32.0161 69.2717C33.2635 69.3417 34.5109 69.2016 35.689 68.7814C35.0653 66.1898 34.996 63.3881 35.4118 60.7265C35.6197 59.3257 35.8969 57.9949 36.382 56.6641C36.8671 55.3333 37.4215 54.0725 38.1144 52.8818C38.253 52.6016 38.1837 52.6016 38.3916 52.3214C37.2136 51.8311 36.1048 51.3409 34.996 50.7805L33.9565 50.4303L33.0556 49.94C32.7784 49.7299 32.4319 49.5898 32.1547 49.3797C31.8775 49.1695 31.6003 49.0295 31.2538 48.8193C30.1451 47.9788 29.0363 47.1383 28.0661 46.1577C27.0266 45.2472 26.0564 44.1965 25.1555 43.216L25.4327 42.9358C26.3336 43.9164 27.3731 44.897 28.4126 45.7375C29.4521 46.578 30.5609 47.4185 31.6696 48.189C31.9468 48.3991 32.224 48.6092 32.5012 48.7493C32.7784 48.9594 33.0556 49.0995 33.3328 49.3096L34.1644 49.87L35.0653 50.3603C36.1741 50.9906 37.2829 51.551 38.4609 52.0413C39.7083 50.1501 41.5794 48.1189 43.3812 46.7181C45.5987 45.1071 48.0242 43.7763 50.6576 43.0058ZM73.3876 58.8354C73.249 56.7341 72.7639 54.6328 71.9323 52.7417L71.7937 52.3915L71.5165 52.6016C70.0613 53.7923 68.5367 54.843 66.8042 55.6835L67.0121 56.0337C68.606 55.2632 70.1306 54.3527 71.5858 53.232C72.2788 55.0531 72.6253 56.9442 72.7639 58.8354C72.8332 59.816 72.7639 60.8666 72.6253 61.8472C72.4867 62.8278 72.2788 63.8084 71.9323 64.789C71.3086 66.7501 70.3385 68.5012 69.0911 70.1122C67.8437 71.7231 66.3191 73.0539 64.5866 74.1046L64.3787 74.2446L64.5173 74.4548C64.7252 74.805 64.9331 75.2252 65.0717 75.6455C65.141 75.7856 65.141 75.9257 65.2103 76.0657C65.2103 76.0657 65.2796 76.0657 65.2796 75.9957C65.3489 75.9257 65.4875 75.8556 65.5568 75.7856C65.5568 75.7155 65.4875 75.5755 65.4875 75.5054C65.3489 75.1552 65.2103 74.805 65.0024 74.4548C66.7349 73.4041 68.2595 72.0733 69.5762 70.5324C70.8928 68.9214 71.9323 67.0303 72.6946 65.0691C73.0411 64.0885 73.249 63.0379 73.3876 61.9873C73.4569 60.9366 73.4569 59.886 73.3876 58.8354ZM67.1507 38.4531L63.8937 39.994L62.2305 40.7645C61.8147 40.9746 61.3296 41.1847 60.9138 41.3949C60.6366 40.8345 60.2901 40.2742 59.9436 39.7138C59.5278 39.0835 59.1813 38.4531 58.7655 37.7527C57.9339 36.4919 57.0331 35.2311 56.2015 34.0404L55.855 34.2506C56.6866 35.5113 57.5181 36.7721 58.2804 38.0328C58.6962 38.6632 59.0427 39.3636 59.3892 39.994C59.7357 40.6244 60.0822 41.3248 60.498 41.9552L60.7059 42.2354L60.9831 42.0953C61.5375 41.8151 62.0226 41.5349 62.577 41.2548L64.1708 40.4143L67.3586 38.8033L67.1507 38.4531ZM65.141 23.5341C65.0024 23.6041 64.7945 23.7442 64.6559 23.8143C64.1016 24.1645 63.5472 24.5847 63.0621 25.005C61.7454 24.2345 60.3594 23.5341 58.9041 23.0438L57.7953 22.6236C57.3796 22.4835 57.0331 22.3434 56.6173 22.2733C56.2015 22.2033 55.855 22.0632 55.4392 21.9932L54.2611 21.713C52.6672 21.4328 51.0733 21.3628 49.4795 21.3628C47.8856 21.3628 46.2917 21.5729 44.6978 21.8531L44.7671 22.2733C46.2917 21.9932 47.8856 21.9231 49.4102 21.9231C51.0041 21.9231 52.5286 22.1333 54.0532 22.4134L55.2313 22.6936C55.5778 22.7636 55.9936 22.9037 56.3401 22.9738C56.6866 23.1138 57.1024 23.1839 57.4489 23.2539L58.5576 23.6041C60.0129 24.0944 61.4682 24.7248 62.8542 25.4953L62.9928 25.5653L63.1314 25.4252C63.8244 24.7949 64.5866 24.1645 65.4182 23.7442C65.3489 23.6742 65.2796 23.6041 65.141 23.5341ZM31.1153 25.5653C31.8082 25.075 32.5012 24.5847 33.1942 24.1645C33.4021 24.0244 33.5407 23.9544 33.7486 23.8143C33.9565 23.6742 34.0951 23.6041 34.303 23.4641L34.8574 23.1839L35.4118 22.9037C36.1741 22.5535 36.9364 22.2033 37.6987 21.9231L37.5601 21.5029C36.7285 21.713 35.8969 22.0632 35.1346 22.4134L34.5109 22.6936L33.9565 22.9037C33.61 23.1138 33.1942 23.2539 32.7784 23.5341C32.0161 24.0244 31.3231 24.5147 30.6995 25.075C30.0065 25.6354 29.3828 26.2657 28.8284 26.8961L29.1056 27.1763C29.7986 26.5459 30.4223 26.0556 31.1153 25.5653ZM25.8485 34.3906C25.9871 34.5307 26.1257 34.6708 26.2643 34.8809C26.4029 35.021 26.5415 35.1611 26.6801 35.3012C26.9573 35.5814 27.2345 35.8615 27.581 36.0717L27.8582 35.7915C27.581 35.5113 27.3731 35.2311 27.0959 34.951C26.9573 34.8109 26.888 34.6708 26.7494 34.4607C26.6801 34.3906 26.6108 34.3206 26.6108 34.2506C26.5415 34.1805 26.5415 34.1105 26.4722 34.0404C26.2643 33.7603 25.9871 33.41 25.7792 33.1299C25.5713 32.7797 25.3634 32.4995 25.2248 32.1493L24.8783 32.2193C25.0169 32.5695 25.1555 32.9898 25.2941 33.34C25.4327 33.6902 25.6406 34.0404 25.8485 34.3906ZM15.3844 58.9054C15.1765 58.9054 14.9686 58.9754 14.6914 58.9754H14.3449C14.2756 58.9754 14.2063 58.9754 14.2063 58.9754C14.137 58.9754 14.0677 58.9754 14.0677 58.9754C13.9291 59.0455 13.7212 59.0455 13.5826 59.1155C13.6519 59.3257 13.7212 59.5358 13.7905 59.7459C13.9291 59.7459 14.0677 59.7459 14.2756 59.7459C14.4142 59.7459 14.4835 59.6759 14.6221 59.6058L14.9686 59.4657C15.1765 59.3957 15.3844 59.3257 15.6616 59.2556L15.3844 58.9054ZM46.7768 80.6185C46.2917 79.4978 45.9452 78.3071 45.5987 77.1164L45.5294 76.8362L45.2522 76.9063C43.8663 77.1164 42.411 77.2565 40.9557 77.2565C39.5004 77.3265 38.1144 77.2565 36.6592 77.1164C35.2039 76.9763 33.8179 76.6961 32.4319 76.3459C31.0459 75.9957 29.66 75.5054 28.3433 74.9451L28.2047 75.2953C29.5214 75.9257 30.9074 76.416 32.2933 76.8362C33.6793 77.2565 35.1346 77.5366 36.5899 77.7468C38.0451 77.9569 39.5004 78.0269 40.9557 78.0269C42.3417 77.9569 43.7277 77.8168 45.0443 77.5366C45.3908 78.6573 45.8066 79.778 46.2224 80.8286C46.5689 81.529 46.9154 82.2995 47.2619 82.9299C47.4005 82.9299 47.4698 82.9299 47.6084 82.9299C47.6777 82.9299 47.6777 82.9299 47.747 82.9299C47.4698 82.1594 47.1233 81.389 46.7768 80.6185ZM22.1064 32.7096C20.6511 34.1105 19.3344 35.7214 18.2949 37.4025L17.8791 38.0328C17.7406 38.243 17.602 38.4531 17.5327 38.7333C17.3941 38.9434 17.3248 39.2236 17.1862 39.4337L16.909 40.1341C16.5625 40.9746 16.2853 41.8852 16.0774 42.7957C15.1765 42.5155 14.2756 42.2354 13.3747 41.9552C13.3054 42.0953 13.3054 42.2354 13.3054 42.3755C14.2756 42.7257 15.2458 43.0759 16.216 43.4961L16.4932 43.5662L16.5625 43.286C16.8397 42.3054 17.1862 41.3949 17.602 40.4843L17.8791 39.7839C18.0177 39.5738 18.087 39.3636 18.2256 39.1535C18.3642 38.9434 18.4335 38.7333 18.5721 38.4531C18.7107 38.243 18.78 38.0328 18.9186 37.8227C19.8888 36.0717 21.0669 34.4607 22.4529 33.0598L22.1064 32.7096Z" fill="url(#paint3_linear_52_259)"/>
<path d="M43.0347 46.5783C41.233 47.9791 39.6391 49.6601 38.3917 51.5513C37.2136 51.061 36.1048 50.5007 34.9961 49.8703L34.0952 49.38L33.2636 48.8196C32.9864 48.6095 32.7092 48.4694 32.432 48.2593C32.1548 48.0492 31.8776 47.839 31.6004 47.699C30.4916 46.9285 29.3828 46.088 28.3434 45.2475C27.3039 44.407 26.3337 43.4264 25.3635 42.4458L25.0863 42.726C25.9872 43.7766 26.9574 44.7572 27.9969 45.6677C29.0363 46.5783 30.0758 47.4888 31.1846 48.3293C31.4618 48.5395 31.739 48.6796 32.0855 48.8897C32.3627 49.0298 32.7092 49.2399 32.9864 49.45L33.8873 49.9403L34.7882 50.4306C35.8969 50.9909 37.0057 51.5513 38.1838 51.9715C37.9759 52.2517 37.8373 52.5319 37.6987 52.812C37.0057 54.0028 36.4513 55.2635 35.9662 56.5943C35.4811 57.9251 35.204 59.2559 34.9961 60.6568C34.6496 63.3184 34.7189 66.05 35.3425 68.6416C34.1645 69.0618 32.9171 69.2019 31.6697 69.1319C30.353 69.0618 29.0363 68.7116 27.8583 68.1513L27.6504 68.5015C28.8977 69.1319 30.2144 69.4821 31.6004 69.6222C32.9864 69.6922 34.3724 69.5521 35.689 69.0618L35.8969 68.9918L35.8276 68.6416C35.2733 66.05 35.204 63.3184 35.5504 60.6568C35.7583 59.326 36.1048 58.0652 36.5206 56.7344C36.9364 55.4736 37.4908 54.2129 38.1145 53.0922C39.4312 50.7808 41.1637 48.6796 43.2426 46.9985C45.3216 45.3175 47.6778 43.9867 50.2418 43.2163L50.1032 42.796C47.6085 43.6365 45.183 44.8973 43.0347 46.5783Z" fill="url(#paint4_linear_52_259)"/>
<path d="M72.9025 61.8472C72.7639 62.8979 72.556 63.9485 72.2096 64.9291C71.5166 66.8903 70.4771 68.7814 69.0911 70.3924C67.7744 71.9333 66.2498 73.2641 64.5174 74.3148C64.7253 74.665 64.8639 75.0152 65.0025 75.3654C65.0718 75.5755 65.1411 75.8557 65.2104 76.0658C65.0718 76.1359 65.0025 76.2759 64.8639 76.346C64.7946 76.0658 64.7253 75.7856 64.5867 75.5055C64.4481 75.0852 64.2402 74.665 64.0323 74.3148L63.8937 74.1046L64.1016 73.9645C65.834 72.9139 67.3586 71.5831 68.606 69.9721C69.8534 68.3612 70.8236 66.6101 71.4473 64.6489C71.7245 63.6683 72.0017 62.6878 72.1403 61.7072C72.2789 60.7266 72.2789 59.6759 72.2789 58.6953C72.1403 56.8042 71.7938 54.9131 71.1008 53.092C69.7148 54.2126 68.1209 55.1232 66.527 55.8937L66.3191 55.5435C67.9823 54.7029 69.5762 53.6523 71.0315 52.4616L71.3087 52.2515L71.4473 52.6017C72.2789 54.5629 72.7639 56.5941 72.9025 58.6953C73.0411 59.6759 73.0411 60.7966 72.9025 61.8472Z" fill="url(#paint5_linear_52_259)"/>
<path d="M66.7349 38.2432L63.4779 39.7842L61.8147 40.5546C61.3989 40.7647 60.9138 40.9749 60.498 41.185C60.2208 40.6247 59.8743 40.0643 59.5278 39.504C59.1121 38.8736 58.7656 38.2432 58.3498 37.5428C57.5182 36.282 56.6173 35.0213 55.7857 33.8306L55.4392 34.0407C56.2708 35.3015 57.1024 36.5622 57.8647 37.823C58.2805 38.4534 58.627 39.1538 58.9735 39.7842C59.3199 40.4145 59.6664 41.115 60.0822 41.7453L60.2901 42.0255L60.5673 41.8854C61.1217 41.6053 61.6068 41.3251 62.1612 41.0449L63.7551 40.2044L66.9428 38.5934L66.7349 38.2432Z" fill="url(#paint6_linear_52_259)"/>
<path d="M65.3489 23.5343C64.5173 23.9545 63.7551 24.5849 63.0621 25.2153L62.9235 25.3554L62.7849 25.2853C61.3989 24.5149 60.0129 23.8845 58.4883 23.3942L57.3795 23.044C57.0331 22.9739 56.6173 22.8338 56.2708 22.7638C55.9243 22.6938 55.5085 22.5537 55.162 22.4836L53.9839 22.2035C52.4593 21.9233 50.8654 21.7832 49.3409 21.7132C47.747 21.7132 46.2224 21.7832 44.6978 22.0634L44.6285 21.6431C46.2224 21.363 47.8163 21.1528 49.4102 21.1528C51.004 21.1528 52.5979 21.2229 54.1918 21.503L55.3699 21.7132C55.7857 21.7832 56.1322 21.9233 56.548 21.9933C56.9638 22.1334 57.3102 22.2035 57.726 22.3435L58.8348 22.7638C60.2901 23.3241 61.6761 23.9545 62.9928 24.725C63.4779 24.3047 64.0322 23.8845 64.5866 23.5343C64.7252 23.4642 64.9331 23.3241 65.0717 23.2541C65.0717 23.3942 65.2103 23.4642 65.3489 23.5343Z" fill="url(#paint7_linear_52_259)"/>
<path d="M30.6995 25.3554C31.3925 24.8651 32.0855 24.3748 32.7785 23.9546C32.9864 23.8145 33.125 23.7444 33.3329 23.6044C33.5408 23.4643 33.6794 23.3942 33.8873 23.2542L34.4416 22.974L34.996 22.6938C35.7583 22.3436 36.5206 21.9934 37.2829 21.7132L37.1443 21.293C36.3127 21.5031 35.4811 21.8533 34.7188 22.2035L34.1644 22.4136L33.6101 22.6938C33.2636 22.9039 32.8478 23.044 32.432 23.3242C31.6697 23.8145 30.9767 24.3048 30.353 24.8651C29.66 25.4255 29.0363 26.0558 28.4819 26.6862L28.7591 26.9664C29.3828 26.406 30.0065 25.8457 30.6995 25.3554Z" fill="url(#paint8_linear_52_259)"/>
<path d="M25.8486 33.8307C25.9872 33.9708 26.1258 34.1109 26.2644 34.321C26.403 34.4611 26.5416 34.6012 26.6802 34.7413C26.9574 35.0214 27.2346 35.3016 27.5811 35.5117L27.8583 35.2315C27.5811 34.9514 27.3732 34.6712 27.096 34.391C26.9574 34.251 26.8881 34.1109 26.7495 33.9007C26.6802 33.8307 26.6109 33.7607 26.6109 33.6906C26.5416 33.6206 26.5416 33.5505 26.4723 33.4805C26.2644 33.2003 25.9872 32.8501 25.7793 32.5699C25.5714 32.2197 25.3635 31.9396 25.2249 31.5894L24.8784 31.7294C25.017 32.0797 25.1556 32.4999 25.2942 32.8501C25.4328 33.1303 25.6407 33.4805 25.8486 33.8307Z" fill="url(#paint9_linear_52_259)"/>
<path d="M15.3844 58.7653C15.1765 58.8353 14.9686 58.9053 14.6914 58.9754L14.3449 59.1155C14.2063 59.1155 14.137 59.1855 13.9984 59.2555C13.8598 59.2555 13.7212 59.2555 13.5133 59.2555C13.444 59.0454 13.3747 58.8353 13.3054 58.6252C13.5133 58.5551 13.6519 58.5551 13.7905 58.4851C13.8598 58.4851 13.9291 58.4851 13.9291 58.4851C13.9984 58.4851 14.0677 58.4851 14.0677 58.4851H14.4142C14.6221 58.4851 14.83 58.415 15.1072 58.415L15.3844 58.7653Z" fill="url(#paint10_linear_52_259)"/>
<path d="M48.1628 82.8599C48.0242 82.8599 47.8163 82.8599 47.6777 82.93C47.1926 82.0895 46.7768 81.249 46.4303 80.4084C45.9452 79.3578 45.5987 78.2371 45.2522 77.1165C43.8663 77.3966 42.5496 77.5367 41.1636 77.6068C39.7083 77.6768 38.253 77.5367 36.7978 77.3266C35.3425 77.1165 33.8872 76.8363 32.5012 76.416C31.1153 75.9958 29.7293 75.5055 28.4126 74.8751L28.5512 74.5249C29.8679 75.0852 31.2539 75.5755 32.6398 75.9257C34.0258 76.276 35.4811 76.5561 36.8671 76.6962C38.3223 76.8363 39.7083 76.9063 41.1636 76.8363C42.6189 76.8363 44.0049 76.6962 45.4601 76.4861L45.7373 76.416L45.8066 76.6962C46.1531 77.8869 46.4996 79.0776 46.9847 80.1983C47.2619 81.1089 47.6777 82.0194 48.1628 82.8599Z" fill="url(#paint11_linear_52_259)"/>
<path d="M22.245 32.5699C20.859 33.9708 19.6809 35.5818 18.7107 37.3328C18.5722 37.5429 18.5029 37.7531 18.3643 37.9632C18.295 38.1733 18.1564 38.3834 18.0178 38.6636C17.8792 38.8737 17.8099 39.0839 17.6713 39.294L17.3941 39.9944C16.9783 40.905 16.6318 41.8155 16.3546 42.7961L16.2853 43.0763L16.0081 43.0062C15.0379 42.656 14.0677 42.3058 13.0975 41.8855C13.0975 41.7455 13.1668 41.6054 13.1668 41.4653C14.0677 41.7455 14.9686 42.0256 15.8695 42.3058C16.0774 41.3953 16.3546 40.5547 16.7011 39.6442L16.9783 38.9438C17.1169 38.7337 17.1862 38.4535 17.3248 38.2434C17.4634 38.0332 17.5327 37.8231 17.6713 37.5429L18.0871 36.9126C19.1265 35.1615 20.4432 33.5505 21.8985 32.2197L22.245 32.5699Z" fill="url(#paint12_linear_52_259)"/>
<path d="M29.4521 78.0269L29.5907 79.1476C29.5907 78.7274 29.5214 78.3772 29.4521 78.0269ZM75.8131 39.8539C74.8429 41.0447 73.7341 42.1653 72.3481 43.216C69.4376 38.0328 65.834 33.4101 61.6761 29.2776C59.112 29.6978 56.6172 30.1881 54.1918 30.8885C52.9444 31.2388 51.7663 31.589 50.5882 31.9392C50.311 32.0092 50.0339 32.1493 49.7567 32.2193C48.2321 32.7096 46.7075 33.34 45.2522 33.9004C44.2127 32.6396 43.5198 31.3788 42.5496 29.978C43.5891 29.3476 44.6285 28.7873 45.668 28.297C46.7768 27.7366 47.8856 27.1763 48.9944 26.686C46.8461 23.1839 44.282 19.7518 41.3715 16.8101L41.3022 18.421C39.2925 18.8413 37.2135 19.4717 35.2039 20.3122C35.1346 20.2421 35.0653 20.1721 34.996 20.032C36.7285 21.9231 38.1837 24.0244 39.5004 26.2658C29.66 30.8885 21.9678 40.6244 19.7502 51.3409C19.8195 50.7805 19.4037 50.2202 18.8493 49.7999C18.5028 49.5898 18.087 49.3797 17.7405 49.3797C16.7704 49.2396 15.8002 49.87 15.2458 50.7105C14.6914 51.551 14.5528 52.6016 14.4835 53.5822C14.2063 57.0143 15.2458 60.8666 16.9783 63.7383C17.6019 64.789 18.78 65.6995 19.9581 65.4894C20.5818 65.3493 21.0669 64.9991 21.4134 64.5088C21.6213 64.2286 21.8292 63.8784 21.8985 63.5282C22.245 62.6177 22.245 61.6371 22.1757 60.6565C23.3538 61.2168 24.2546 61.8472 25.502 62.4075C25.1555 67.1704 25.8485 71.9333 27.2345 76.486L29.3828 77.4666L29.4521 77.9569C28.6898 72.4936 28.2047 67.1004 27.9968 61.567C25.3634 60.0961 22.938 58.135 20.859 55.9636C21.8985 46.7881 27.3731 38.0328 34.9267 32.7797C34.996 32.9198 35.1346 33.0599 35.2039 33.1999C36.7285 35.3012 38.6688 37.1923 40.4706 39.0835C41.8566 38.3831 43.6583 37.7527 45.0443 37.1223C48.6479 40.2042 51.1426 44.6869 51.9742 49.4497C49.2716 50.5004 46.7768 52.1814 44.9057 54.3527C44.2127 55.1231 43.6583 55.9636 43.1733 56.8742C41.2329 60.3063 40.7478 64.5788 42.0645 68.3611C42.411 69.2717 42.8268 70.1122 43.3119 70.8826C44.975 73.4042 47.5391 75.2953 50.4496 75.9257C53.9839 76.6961 57.726 75.5054 60.9138 73.7544C61.6068 73.3341 62.3691 72.9139 62.9928 72.4236C63.8936 71.7932 64.6559 71.0928 65.4182 70.3223C65.9726 69.762 66.4577 69.1316 66.8735 68.5012C67.4279 67.6607 67.913 66.7501 68.1902 65.7696C69.4376 62.1274 68.606 57.9949 66.5963 54.7029C66.2498 54.1426 65.9726 53.6523 65.5568 53.162C63.8243 50.8506 61.4682 49.0995 58.7655 48.3991C58.0032 48.189 57.2409 48.1189 56.4787 48.1189C54.8848 44.0565 52.7365 40.2042 50.1032 36.702C51.3505 36.1417 52.7365 35.5113 54.0532 34.951C56.548 33.9704 59.112 33.1299 61.6068 32.6396C65.5568 36.7721 69.1604 41.4649 71.5165 46.7181C73.3183 45.5274 74.9815 43.9864 76.5061 42.3054L75.8131 39.8539ZM27.2345 25.075C25.6406 25.4252 24.2546 26.4759 23.1459 27.5966C22.1064 28.6472 20.6511 30.3282 20.5818 31.8691C20.5818 32.0092 20.5818 32.1493 20.5818 32.2894C20.7204 33.27 21.6213 33.8303 22.6608 33.6902C23.2152 33.5501 23.7695 33.27 24.2546 32.9898C26.195 31.7991 27.9968 30.3282 29.1056 28.297C30.0065 26.616 29.4521 24.5847 27.2345 25.075Z" fill="url(#paint13_linear_52_259)"/>
<path d="M59.3892 48.6792C58.6269 50.4302 57.5874 52.0412 56.2014 53.442L53.9839 51.1306C52.9444 52.1813 51.697 53.0218 50.311 53.5821L51.5584 56.5939C49.8259 57.2943 47.9549 57.7146 46.0145 57.7146H45.9452V54.4226C45.5987 54.4226 45.2522 54.4226 44.9057 54.3526C46.7768 52.1112 49.2715 50.4302 51.9742 49.4496C51.0733 44.7568 48.5786 40.2741 45.0443 37.1222C43.6583 37.8226 41.8566 38.453 40.4706 39.0834C38.6688 37.1922 36.7284 35.3011 35.2039 33.1998C35.4118 32.9897 35.5504 32.7796 35.7582 32.5694L38.0451 34.8808C39.0846 33.8302 40.332 32.9897 41.718 32.4294L40.4706 29.4175C42.1338 28.7171 43.8662 28.3669 45.5987 28.2969C44.5592 28.8572 43.5197 29.4175 42.4802 29.9779C43.3811 31.3087 44.1434 32.6395 45.1829 33.9003C46.7075 33.2699 48.1628 32.7095 49.6873 32.2192C49.8952 32.2893 50.1031 32.3593 50.311 32.4994L50.5189 31.9391C51.697 31.5188 52.9444 31.1686 54.1225 30.8884C54.8848 31.3787 55.5777 32.0091 56.2014 32.6395L53.9146 34.9509C53.9146 35.0209 53.9839 35.0209 54.0532 35.091C52.6672 35.6513 51.3505 36.2116 50.1031 36.842C52.7365 40.3441 54.8155 44.1264 56.4786 48.2589C57.2409 48.2589 58.0032 48.3289 58.7655 48.5391L59.3892 48.6792Z" fill="url(#paint14_linear_52_259)"/>
<path d="M54.1918 30.8887C54.3997 30.9587 54.6076 31.0988 54.8155 31.1688C55.0234 31.3089 55.162 31.449 55.3699 31.5891C55.7164 31.8693 56.0629 32.2195 56.4094 32.4996L56.4786 32.5697L56.4094 32.6397L55.2313 33.8304L54.6769 34.3908C54.469 34.5309 54.2611 34.741 53.9839 34.8811C54.1225 34.671 54.3304 34.4608 54.469 34.1807L55.0234 33.6203L56.2015 32.4296V32.6397C55.855 32.2895 55.5778 32.0093 55.162 31.7292C55.0234 31.5891 54.8155 31.449 54.6076 31.3089L54.1918 30.8887Z" fill="url(#paint15_linear_52_259)"/>
<path d="M35.689 32.5696V32.4996L35.7583 32.5696L36.382 33.1299C36.5899 33.3401 36.7978 33.4801 37.0057 33.6903L38.1838 34.881H37.9759C39.0154 33.8304 40.3321 32.9899 41.6487 32.3595L41.5794 32.4996L40.3321 29.4877L40.2628 29.3477L40.4014 29.2776C41.233 28.9274 42.0645 28.6472 42.9654 28.5072C43.3812 28.3671 43.8663 28.3671 44.2821 28.3671C44.6979 28.3671 45.183 28.297 45.5988 28.3671C45.183 28.4371 44.6979 28.4371 44.2821 28.5772C43.8663 28.6472 43.4505 28.7873 42.9654 28.8574C42.1338 29.0675 41.3023 29.2776 40.4707 29.6278L40.54 29.4877L41.7873 32.4996L41.8566 32.6396L41.718 32.7097C40.4014 33.27 39.154 34.1105 38.1145 35.1612L38.0452 35.2312L37.9066 35.0211L36.7285 33.8304C36.5206 33.6202 36.382 33.4101 36.1741 33.2L35.6197 32.5696H35.689Z" fill="url(#paint16_linear_52_259)"/>
<path d="M59.3892 48.6792C59.0427 49.5897 58.627 50.4303 58.1419 51.2708C57.8647 51.691 57.5875 52.0412 57.3103 52.4615C57.0331 52.8117 56.6866 53.1619 56.3401 53.5121L56.2708 53.5822L56.1322 53.5121L53.8453 51.2007H54.0532C53.0137 52.2514 51.6971 53.0919 50.3111 53.7222L50.3804 53.5822L51.6278 56.594L51.6971 56.7341H51.5585C49.7567 57.5045 47.8856 57.8547 45.9452 57.8547H45.8066V57.7146V56.8741C45.8066 56.594 45.8066 56.3138 45.8066 56.0336L45.8759 54.4227L45.9452 54.4927L44.9058 54.4227H45.9452H46.0145V54.4927L46.0838 56.1037C46.0838 56.3838 46.0838 56.664 46.0838 56.9442V57.7847L45.9452 57.6446C47.8163 57.6446 49.6874 57.2944 51.4892 56.5239L51.4199 56.664L50.1725 53.6522L50.1032 53.5121L50.2418 53.4421C51.6278 52.8817 52.8058 52.0412 53.8453 50.9906L53.9146 50.9205L53.9839 50.9906L56.2708 53.302H56.0629C56.4094 52.9518 56.6866 52.6016 57.0331 52.2514C57.3103 51.9011 57.5875 51.4809 57.8647 51.1307C58.5577 50.4303 58.9734 49.5897 59.3892 48.6792Z" fill="url(#paint17_linear_52_259)"/>
<path d="M68.121 65.7695C67.7745 66.7501 67.3587 67.6607 66.8043 68.5012C66.2499 68.9214 65.6955 69.2716 65.0718 69.4817L65.4183 70.2522C64.656 71.0227 63.8937 71.7231 62.9928 72.3535C62.6463 72.3535 62.3691 72.4235 62.0227 72.4235V70.0421C60.9139 70.0421 59.8744 69.832 58.9042 69.4117L58.0033 71.583C56.7559 71.0227 55.5779 70.2522 54.6077 69.2716L56.2708 67.5906C55.5085 66.8201 54.9542 65.9096 54.5384 64.929L52.3901 65.8396C51.8357 64.5788 51.6278 63.248 51.6278 61.8471H53.984C53.984 60.7265 54.1919 59.6758 54.6077 58.6953L52.4594 57.7847C53.0138 56.5239 53.7761 55.3332 54.7463 54.3526L56.4094 56.0336C57.1717 55.2632 58.0726 54.7028 59.0428 54.2826L58.1419 52.1113C59.3893 51.621 60.706 51.3408 62.0919 51.3408H62.1612V53.7223C63.27 53.7223 64.3095 53.9324 65.2797 54.3526L65.7648 53.1619C66.1113 53.6522 66.4578 54.1425 66.8043 54.7028C68.5368 57.9948 69.3683 62.1273 68.121 65.7695Z" fill="url(#paint18_linear_52_259)"/>
<path d="M61.884 70.112C60.8445 70.112 59.7358 69.9719 58.7656 69.5516H58.8349L58.0033 71.7229L57.934 71.793L57.8647 71.7229C57.5182 71.5828 57.241 71.4428 56.8945 71.3027C56.6173 71.1626 56.2708 70.9525 55.9936 70.7423C55.4392 70.3221 54.8848 69.9018 54.3997 69.4115V69.3415L54.469 69.2715L56.1322 67.5904V67.8006C55.3699 67.0301 54.7462 66.1196 54.3304 65.0689L54.469 65.139L52.3208 66.0495L52.1822 66.1196L52.1129 65.9795C51.5585 64.7187 51.3506 63.3179 51.3506 61.917V61.7769H51.4892H53.8453L53.7068 61.917C53.7068 60.7963 53.9146 59.7457 54.3304 58.6951L54.3997 58.8352L52.2515 57.9246L52.1129 57.8546L52.1822 57.7145C52.7366 56.4537 53.4989 55.263 54.469 54.2824L54.5383 54.2124L54.6076 54.2824L56.2708 55.9634L56.1322 56.0335C56.8945 55.263 57.7954 54.6326 58.8349 54.2124L58.7656 54.3525L57.8647 52.1812L57.7954 52.0411L57.934 51.971C58.5577 51.6909 59.2507 51.4807 59.9437 51.3407C60.2902 51.2706 60.6366 51.2006 60.9831 51.2006C61.3296 51.2006 61.6761 51.1305 62.0226 51.2006H62.1612V51.3407L62.0919 53.7221L62.0226 53.652C63.0621 53.652 64.1709 53.9322 65.1411 54.3525C64.1709 53.9322 63.0621 53.7921 62.0226 53.7921H61.9533V53.7221L61.884 51.3407L62.0226 51.4807C61.3296 51.4807 60.7059 51.5508 60.013 51.6909C59.32 51.8309 58.6963 52.0411 58.0726 52.2512L58.1419 52.1111L59.0428 54.2824L59.1121 54.4225H58.9042C57.934 54.8428 57.0331 55.4031 56.3401 56.1736L56.2708 56.2436L56.1322 56.1736L54.469 54.4926H54.6769C53.7068 55.4731 52.9445 56.5938 52.4594 57.8546L52.3901 57.7145L54.5383 58.625L54.6769 58.6951L54.6076 58.8352C54.1918 59.8158 53.9839 60.8664 53.9839 61.917V62.0571H53.8453H51.4892L51.6278 61.917C51.6278 63.2478 51.905 64.6487 52.3901 65.9094L52.2515 65.8394L54.3997 64.9288L54.5383 64.8588L54.6076 64.9989C55.0234 65.9795 55.5778 66.89 56.3401 67.5904L56.4094 67.6605L56.3401 67.7305L54.6769 69.4115V69.2014C55.162 69.6917 55.6471 70.112 56.2015 70.5322C56.4787 70.7423 56.7559 70.8824 57.0331 71.0926C57.3103 71.2326 57.6568 71.4428 57.934 71.5128L57.7954 71.5828L58.7656 69.4115V69.3415H58.8349C59.8051 69.8318 60.8445 70.0419 61.884 70.112Z" fill="url(#paint19_linear_52_259)"/>
<path d="M41.3023 16.8101C44.0742 19.6818 46.569 22.9738 48.9251 26.686L48.0936 27.1063C45.9453 23.6742 43.6584 20.7324 41.233 18.421L41.3023 16.8101ZM19.6117 51.4109L20.0275 51.3409C23.0073 40.2042 29.66 32.5696 39.3619 27.0362V26.2658C29.66 30.7485 22.0372 39.7139 19.6117 51.4109ZM15.4538 58.3451C13.5827 49.94 16.9783 49.4497 18.7108 49.94C18.3643 49.7299 17.9485 49.5198 17.602 49.5198C16.6318 49.3797 15.6617 50.0101 15.1073 50.8506C14.5529 51.6911 14.4143 52.7417 14.345 53.7223C14.2064 57.0143 15.2459 60.8666 16.9783 63.7383C17.602 64.789 18.7801 65.6995 19.9582 65.4894C20.5819 65.3493 21.067 64.9991 21.4135 64.5088C21.2056 64.6489 17.4634 67.1704 15.4538 58.3451ZM25.5021 62.4776C25.1556 67.9409 26.0565 73.0539 27.7197 77.9569L28.482 77.0463C27.096 72.1434 26.4723 67.1004 26.8881 62.0573L23.4924 60.1662L22.3144 60.7265L25.5021 62.4776ZM42.4803 30.048V31.3088L44.9751 34.8109C50.3804 32.8497 55.855 31.2387 61.2604 30.1881C65.4183 34.2506 69.0218 38.7333 72.071 43.5662L72.3482 43.286C69.5762 38.313 66.042 33.6902 61.6762 29.3476C56.3401 30.1181 50.8655 31.729 45.1137 33.9704L42.4803 30.048ZM41.233 67.5906C41.233 67.4506 41.1637 67.3805 41.1637 67.3805C41.1637 67.4506 41.1637 67.5206 41.233 67.5906ZM66.5271 54.7029C64.3788 50.9906 60.706 48.1189 56.4787 48.189C54.8849 44.1265 52.7366 40.2742 50.1032 36.7721V38.1729C52.3901 41.3248 54.2612 44.967 55.7857 49.0295C55.7857 49.0295 64.656 47.9088 67.1508 60.0261C69.6455 72.1434 53.1524 77.7468 47.262 74.1046C45.4602 72.9839 44.1435 71.8632 43.2426 70.9527C44.9058 73.4742 47.4699 75.3653 50.3804 75.9957C53.9147 76.7662 57.6568 75.5755 60.8446 73.8244C64.0323 72.0033 66.9429 69.3417 68.121 65.8396C69.3683 62.1274 68.5368 57.9949 66.5271 54.7029ZM41.4409 61.7771C42.6189 56.6641 46.3611 52.6717 51.5585 50.2202L51.9743 49.4497C45.5988 52.1113 42.4803 56.4539 41.4409 61.7771ZM77.0605 41.8151L76.3675 41.9552C74.9123 43.5662 73.2491 45.0371 71.3087 46.3679L71.5166 46.7881C73.7342 45.2472 75.5359 43.6362 77.0605 41.8151ZM20.9977 32.8497C20.9977 32.7096 20.9977 32.5696 20.9977 32.4295C21.067 30.8885 22.5222 29.2776 23.5617 28.1569C24.6705 26.9662 26.0565 25.9856 27.6504 25.6354C28.4127 25.4953 28.967 25.6354 29.3135 25.9155C29.0363 25.2151 28.3434 24.7949 27.2346 25.005C25.6407 25.3552 24.2547 26.4058 23.1459 27.5265C22.1065 28.5771 20.6512 30.2582 20.5819 31.7991C20.5819 31.9392 20.5819 32.0793 20.5819 32.2193C20.6512 32.6396 20.8591 32.9898 21.067 33.1999C21.067 33.1299 21.067 32.9898 20.9977 32.8497Z" fill="url(#paint20_linear_52_259)"/>
<path d="M29.5214 39.0836C29.1056 39.714 28.6898 40.5545 29.0363 41.1849C29.3135 41.7452 30.0758 41.9553 30.6995 42.0254C32.1548 42.1655 33.6793 42.0954 35.1346 41.7452C35.8969 41.5351 36.7285 41.1849 37.0057 40.4845C37.2829 39.784 37.075 39.0136 36.7978 38.3132C36.5206 37.4726 36.1741 36.6321 35.5504 36.0018C33.5407 33.6904 30.6995 37.4026 29.5214 39.0836Z" fill="url(#paint21_linear_52_259)"/>
<path d="M31.4617 27.5969C31.2538 27.9471 31.1152 28.3673 31.3924 28.6475C31.6003 28.8576 31.9468 28.8576 32.2933 28.7175C33.4714 28.4374 34.5802 28.0171 35.6196 27.4568C35.9661 27.2467 36.3126 27.0365 36.5898 26.7564C36.867 26.4762 37.0056 25.9859 36.9363 25.6357C36.7977 25.0753 36.2433 24.7251 35.6889 24.6551C33.8179 24.445 32.3626 26.126 31.4617 27.5969Z" fill="url(#paint22_linear_52_259)"/>
<path d="M65.3489 64.999C65.0024 65.4893 64.5173 65.8395 63.9629 65.9096C63.4085 65.9096 62.8542 65.6294 62.4384 65.2091C61.6068 64.4387 61.2603 63.1079 61.6068 62.0572C61.9533 60.9366 62.9928 59.8859 64.1708 59.6758C63.3392 59.6758 62.5077 59.7459 61.7454 60.0961C60.9831 60.3762 60.2901 60.9366 59.8743 61.637C59.2506 62.7577 59.3892 64.2286 60.0129 65.3492C60.6366 66.4699 61.6761 67.3104 62.8542 67.8707C61.9533 68.0108 61.0524 67.8007 60.2901 67.3104C57.9339 66.0496 56.4094 63.5982 57.1023 60.8665C57.5181 59.3256 58.6962 57.9948 60.2208 57.3644C61.7454 56.734 63.4778 56.8741 64.8638 57.7146C66.2498 58.5551 66.6656 61.0767 66.4577 62.5475C66.2498 63.248 65.9033 64.2286 65.3489 64.999Z" fill="url(#paint23_linear_52_259)"/>
<path d="M14.6221 13.6583C14.2756 13.5182 13.9291 13.5182 13.5827 13.5882C13.5827 13.8684 13.652 14.2186 13.7213 14.4988C13.7213 14.6389 12.8897 15.0591 12.8204 15.1292C12.4739 15.3393 12.1274 15.4794 11.7809 15.6195C11.1572 15.8296 10.5335 16.0397 9.84051 16.1098C8.24663 16.2498 6.51416 15.6895 5.40538 14.4988C5.19748 14.2887 4.29659 13.5882 4.29659 13.3081C4.36589 13.0279 4.57379 12.7477 4.64309 12.4676C4.36589 12.4676 3.9501 12.3975 3.6729 12.3975C2.28692 10.7165 1.73253 8.47517 2.00973 6.3739C2.35622 4.27264 3.46501 2.3815 5.19748 1.26082C5.19748 1.26082 5.26678 1.26082 5.26678 1.19078C5.33608 1.33086 5.54397 1.40091 5.75187 1.47095C5.82117 1.47095 5.82117 1.54099 5.89047 1.54099C6.02907 1.19078 6.30626 0.840569 6.44486 0.490358C6.44486 0.490358 6.44486 0.490358 6.44486 0.420316C9.77121 -0.42019 13.2362 -0.490232 15.8002 3.43213C18.1564 7.21441 16.7011 10.8566 14.6221 13.6583Z" fill="url(#paint24_linear_52_259)"/>
<path d="M3.04919 9.31573C4.15798 11.2069 6.51414 12.1875 8.73171 11.9073C10.88 11.6271 12.8203 10.1562 13.9984 8.33513C14.8993 6.93429 15.3844 5.18324 14.8993 3.57227C16.0774 5.39336 16.2853 7.70475 15.7309 9.80602C15.523 10.7166 15.1072 11.5571 14.4835 12.3275C13.8598 13.028 13.0975 13.5883 12.266 13.9385C10.4642 14.709 8.31591 14.8491 6.51414 14.0786C4.71237 13.168 3.25709 11.3469 3.04919 9.31573Z" fill="url(#paint25_linear_52_259)"/>
<path d="M5.05888 2.10129C5.89046 1.40087 6.92995 0.840535 8.03873 0.630409C9.07821 0.420282 10.187 0.420282 10.9493 1.26079C11.2958 1.68104 11.5037 2.17134 11.573 2.73167C11.573 3.29201 11.2958 3.64222 11.0186 4.06248C10.3256 5.04307 9.28611 5.81353 8.17733 6.30383C7.06854 6.86416 5.89046 7.14433 4.71238 7.35446C4.29659 7.4245 3.88079 7.4245 3.5343 7.28442C3.04921 7.00425 2.91061 6.51395 2.84131 6.02366C2.84131 5.18315 3.1185 4.41269 3.6036 3.78231C4.01939 3.15193 4.50448 2.59159 5.05888 2.10129Z" fill="url(#paint26_linear_52_259)"/>
<path d="M13.6519 14.499L13.5133 13.5884L9.21678 7.91499L9.28608 7.84494C9.07818 7.84494 8.87029 7.7749 8.73169 7.7749C6.99922 8.96562 5.47464 10.6466 4.50445 12.4677C4.43515 12.7479 4.22726 13.0281 4.15796 13.3082C5.40534 11.4871 6.92992 9.80613 8.66239 8.33524C9.97907 10.4365 11.6422 12.5378 13.6519 14.499Z" fill="url(#paint27_linear_52_259)"/>
<path d="M8.93962 7.70459C7.13785 8.89531 5.68257 10.5063 4.57379 12.3974C4.22729 12.3274 3.9501 12.3274 3.5343 12.4675C4.85098 10.4362 6.44486 9.10543 8.38523 7.70459C8.66243 7.77463 8.80102 7.77463 8.93962 7.70459Z" fill="url(#paint28_linear_52_259)"/>
<path d="M8.93962 7.70457C8.73172 7.77461 8.59312 7.70457 8.45452 7.70457C6.79135 5.88347 5.61327 3.64212 5.12817 1.19065C5.12817 1.19065 5.19747 1.19065 5.19747 1.12061C5.33607 1.33073 5.54397 1.40077 5.75186 1.47082C6.44485 3.78221 7.48434 5.88347 8.93962 7.70457Z" fill="url(#paint29_linear_52_259)"/>
<path d="M9.35545 7.77462C9.21685 7.84466 9.07825 7.77462 9.00896 7.70458C7.55368 5.88348 6.51419 3.78222 5.8905 1.54087C6.0291 1.19066 6.3063 0.840445 6.44489 0.490234C6.99929 3.0818 8.03877 5.46323 9.35545 7.77462Z" fill="url(#paint30_linear_52_259)"/>
<path d="M9.35541 7.77463C10.6721 9.94594 12.4739 11.9071 14.6221 13.5881L13.5826 13.5181C11.7809 11.9772 10.2563 10.016 9.00891 7.70459L9.35541 7.77463Z" fill="url(#paint31_linear_52_259)"/>
<path d="M4.50447 2.66175C4.64307 2.59171 4.78167 2.59171 4.85096 2.66175C4.92026 2.73179 4.92026 2.80183 4.92026 2.87188C4.98956 3.15204 4.92026 3.50226 4.78167 3.71238C4.78167 3.85247 4.64307 3.92251 4.57377 3.99255C4.43517 3.99255 4.29657 3.85247 4.22727 3.71238C4.08868 3.36217 4.15797 2.87188 4.50447 2.66175ZM5.54395 7.42462C5.54395 7.5647 5.61325 7.77483 5.75185 7.84487C5.89045 7.98496 6.16764 8.055 6.37554 7.91491C6.58344 7.84487 6.72204 7.63475 6.79133 7.42462C6.86063 7.21449 6.79133 7.00437 6.72204 6.79424C6.44484 6.51407 6.02905 6.44403 5.75185 6.65415C5.47466 6.79424 5.47466 7.14445 5.54395 7.42462ZM3.67288 10.0162C3.81148 10.2263 4.08868 10.3664 4.29657 10.2963C4.50447 10.2263 4.71237 10.0862 4.78167 9.8761C4.85096 9.59593 4.71237 9.24572 4.57377 9.03559C4.36587 8.82546 4.01938 8.96555 3.81148 9.10563C3.53428 9.31576 3.46499 9.73601 3.67288 10.0162ZM8.45451 10.7166C8.66241 10.7866 9.0089 10.7166 9.1475 10.5065C9.2861 10.2963 9.2861 10.0162 9.1475 9.8761C9.0089 9.66597 8.73171 9.59593 8.52381 9.59593C7.83082 9.66597 7.90012 10.5765 8.45451 10.7166ZM8.24661 3.64234C8.52381 3.78242 8.8703 3.71238 9.0782 3.50226C9.2861 3.29213 9.3554 2.87188 9.2168 2.59171C9.1475 2.45162 9.0782 2.31154 8.8703 2.2415C8.73171 2.17145 8.59311 2.17145 8.38521 2.2415C8.24661 2.31154 8.10802 2.31154 8.03872 2.45162C7.83082 2.73179 7.90012 3.43221 8.24661 3.64234ZM11.0879 9.03559C11.2265 9.17567 11.3651 9.24572 11.5037 9.24572C11.6423 9.24572 11.8502 9.17567 11.9888 9.03559C12.266 8.75542 12.3353 8.33517 12.1967 7.98496C12.0581 7.63475 11.6423 7.42462 11.2958 7.42462C11.1572 7.42462 11.0186 7.49466 10.9493 7.5647C10.5335 7.91491 10.8107 8.75542 11.0879 9.03559ZM14.5528 12.6077C14.7607 12.5377 14.8993 12.3276 14.8993 12.1174C14.8993 11.9073 14.83 11.7672 14.6914 11.6272C14.5528 11.4871 14.4142 11.417 14.2063 11.417C13.7905 11.347 13.3747 11.6972 13.5133 12.1174C13.7212 12.5377 14.137 12.8179 14.5528 12.6077ZM10.8107 14.3588C10.9493 14.4989 11.1572 14.5689 11.3651 14.639C11.6423 14.709 11.9888 14.5689 12.0581 14.3588C12.1274 14.2187 12.1274 14.0086 12.0581 13.8685C11.9888 13.7284 11.8502 13.5883 11.7116 13.4482C11.573 13.3082 11.3651 13.2381 11.2265 13.2381C11.0186 13.2381 10.88 13.2381 10.6721 13.3082C10.3949 13.5883 10.5335 14.1487 10.8107 14.3588Z" fill="url(#paint32_linear_52_259)"/>
<path d="M84.4062 80.3385C84.129 80.2684 83.9211 80.2684 83.7132 80.3385C83.7132 80.5486 83.7825 80.7587 83.7825 80.9689C83.7825 81.0389 83.2281 81.3191 83.1588 81.3891C82.9509 81.5292 82.6737 81.6693 82.4658 81.7393C82.05 81.8794 81.6342 82.0195 81.1491 82.0195C80.0403 82.0895 78.9315 81.7393 78.1693 80.9689C78.0307 80.8288 77.407 80.3385 77.4763 80.1284C77.4763 79.9182 77.6842 79.7781 77.6842 79.568C77.4763 79.568 77.1991 79.498 77.0605 79.568C76.1596 78.4473 75.7438 76.9064 75.9517 75.5056C76.1596 74.1047 76.9219 72.844 78.0999 72.0735C78.0999 72.0735 78.1 72.0735 78.1693 72.0735C78.3079 72.1436 78.3771 72.2136 78.5157 72.2836C78.5157 72.2836 78.585 72.2836 78.585 72.3537C78.6543 72.1436 78.8622 71.8634 78.9315 71.6533C81.1491 71.0929 83.5053 71.0929 85.2377 73.6845C86.7623 75.9959 85.7921 78.4473 84.4062 80.3385Z" fill="url(#paint33_linear_52_259)"/>
<path d="M76.5753 77.3968C77.3376 78.6575 78.9315 79.2879 80.3868 79.1478C81.842 78.9377 83.1587 77.9571 83.921 76.7664C84.5447 75.7858 84.8912 74.5951 84.5447 73.5444C85.307 74.7352 85.5149 76.3461 85.0991 77.747C84.9605 78.3773 84.6833 78.9377 84.2675 79.428C83.8517 79.9183 83.2973 80.2685 82.7429 80.4786C81.4955 81.0389 80.1096 81.109 78.8622 80.5487C77.6841 79.9883 76.7139 78.7276 76.5753 77.3968Z" fill="url(#paint34_linear_52_259)"/>
<path d="M77.9614 72.5638C78.5158 72.0735 79.2088 71.7233 79.9711 71.5832C80.664 71.4431 81.4263 71.4431 81.9114 72.0035C82.1886 72.2836 82.3272 72.6338 82.3272 72.984C82.3272 73.4043 82.1193 73.6144 81.9114 73.8946C81.4263 74.525 80.7333 75.0853 80.0403 75.4355C79.2781 75.7857 78.5158 75.9959 77.6842 76.1359C77.407 76.206 77.1298 76.206 76.9219 76.0659C76.6447 75.9258 76.5061 75.5756 76.5061 75.2254C76.5061 74.6651 76.714 74.1748 76.9912 73.6845C77.2684 73.2642 77.5456 72.914 77.9614 72.5638Z" fill="url(#paint35_linear_52_259)"/>
<path d="M83.7132 80.8987L83.6438 80.2683L80.7333 76.416L80.8026 76.3459C80.664 76.3459 80.5254 76.3459 80.3868 76.2759C79.278 77.1164 78.1692 78.2371 77.5455 79.4278C77.5455 79.6379 77.3376 79.778 77.3376 79.9881C78.1692 78.7274 79.2087 77.6067 80.3868 76.6261C81.2877 78.167 82.3965 79.5679 83.7132 80.8987Z" fill="url(#paint36_linear_52_259)"/>
<path d="M80.5948 76.3462C79.3474 77.1867 78.4465 78.2373 77.6842 79.4981C77.407 79.428 77.2684 79.428 76.9912 79.4981C77.8921 78.1673 78.9316 77.2567 80.2483 76.3462C80.3869 76.3462 80.4562 76.3462 80.5948 76.3462Z" fill="url(#paint37_linear_52_259)"/>
<path d="M80.5947 76.346C80.4561 76.346 80.3868 76.346 80.2482 76.346C79.1394 75.1553 78.3078 73.6144 78.0306 72.0034C78.0306 72.0034 78.0306 72.0034 78.0999 72.0034C78.2385 72.0735 78.3078 72.1435 78.4464 72.2135C78.8622 73.6844 79.5552 75.0853 80.5947 76.346Z" fill="url(#paint38_linear_52_259)"/>
<path d="M80.8026 76.3461C80.7333 76.3461 80.664 76.3461 80.5254 76.3461C79.5552 75.1554 78.8622 73.6845 78.4464 72.2136C78.5157 72.0035 78.7236 71.7233 78.7929 71.5132C79.278 73.1942 79.971 74.8052 80.8026 76.3461Z" fill="url(#paint39_linear_52_259)"/>
<path d="M80.8026 76.3462C81.7035 77.8171 82.8816 79.0778 84.3368 80.2686H83.6438C82.4658 79.288 81.4263 77.9572 80.5254 76.3462H80.8026Z" fill="url(#paint40_linear_52_259)"/>
<path d="M77.5455 72.9138C77.6148 72.8438 77.7534 72.8438 77.8227 72.9138C77.892 72.9839 77.892 72.9839 77.892 73.0539C77.892 73.2641 77.892 73.4742 77.8227 73.6143C77.7534 73.6843 77.7534 73.7543 77.6148 73.7543C77.4762 73.7543 77.4069 73.6843 77.4069 73.5442C77.2683 73.4041 77.3376 73.124 77.5455 72.9138ZM78.2385 76.1358C78.2385 76.2759 78.3078 76.3459 78.3771 76.4159C78.5157 76.486 78.6543 76.556 78.7929 76.486C78.9315 76.4159 79.0008 76.2759 79.0701 76.1358C79.0701 75.9957 79.0701 75.8556 79.0008 75.7155C78.8622 75.5054 78.585 75.4354 78.3771 75.5754C78.2385 75.7155 78.2385 75.9957 78.2385 76.1358ZM76.9912 77.8868C77.0605 77.8868 77.0605 77.8868 76.9912 77.8868C77.1298 78.0269 77.2683 78.097 77.4069 78.097C77.5455 78.097 77.6841 77.9569 77.7534 77.8168C77.8227 77.6767 77.6841 77.3965 77.6148 77.2565C77.4762 77.1164 77.2684 77.2565 77.1298 77.3265C76.9219 77.3965 76.9219 77.6767 76.9912 77.8868ZM80.2482 78.3771C80.3868 78.4472 80.5947 78.3771 80.664 78.237C80.7333 78.097 80.7333 77.8868 80.664 77.8168C80.5947 77.6767 80.3868 77.6067 80.2482 77.6767C79.8324 77.6767 79.8324 78.237 80.2482 78.3771ZM80.1096 73.6143C80.3175 73.6843 80.5254 73.6843 80.664 73.4742C80.8026 73.3341 80.8026 73.0539 80.7333 72.8438C80.664 72.7738 80.5947 72.6337 80.5254 72.6337C80.4561 72.5636 80.3175 72.6337 80.2482 72.6337C80.1789 72.6337 80.0403 72.7037 79.971 72.7738C79.7631 72.9839 79.8324 73.4742 80.1096 73.6143ZM81.9807 77.1864C82.05 77.2565 82.1193 77.3265 82.2579 77.3265C82.3965 77.3265 82.4658 77.2565 82.5351 77.1864C82.743 76.9763 82.743 76.6961 82.6737 76.486C82.6044 76.2759 82.3272 76.1358 82.05 76.1358C81.9807 76.1358 81.9114 76.1358 81.8421 76.2058C81.6342 76.486 81.8421 77.0463 81.9807 77.1864ZM84.3368 79.6379C84.4754 79.5678 84.5447 79.4278 84.5447 79.2877C84.5447 79.1476 84.4754 79.0776 84.4061 78.9375C84.3368 78.8674 84.1982 78.7974 84.0596 78.7974C83.7825 78.7273 83.5053 79.0075 83.5746 79.2877C83.7824 79.5678 84.0596 79.778 84.3368 79.6379ZM81.7728 80.8286C81.8421 80.8987 81.9807 80.9687 82.1193 80.9687C82.3272 80.9687 82.5351 80.9687 82.6044 80.7586C82.6737 80.6885 82.6737 80.5484 82.6044 80.4084C82.5351 80.3383 82.4658 80.1982 82.3965 80.1282C82.3272 80.0581 82.1886 79.9881 82.05 79.9881C81.9114 79.9881 81.7728 79.9881 81.7035 80.0581C81.4956 80.2683 81.6342 80.6185 81.7728 80.8286Z" fill="url(#paint41_linear_52_259)"/>
<path d="M4.98952 64.719C4.85093 64.649 4.71233 64.719 4.57373 64.719C4.57373 64.8591 4.64303 64.9292 4.64303 65.0692C4.64303 65.1393 4.36583 65.2794 4.29654 65.3494C4.15794 65.4195 4.01934 65.4895 3.95004 65.5595C3.74214 65.6996 3.46495 65.7697 3.25705 65.7697C2.63336 65.8397 2.00967 65.6996 1.52458 65.3494C1.45528 65.2794 1.10878 65.0692 1.10878 64.9292C1.10878 64.7891 1.17808 64.719 1.17808 64.5789C1.03948 64.5789 0.900886 64.5789 0.831588 64.5789C0.277196 64.0186 0 63.1781 0 62.3376C0.069299 61.5671 0.415794 60.7967 1.03948 60.3064C1.10878 60.3764 1.17808 60.3764 1.24738 60.3764C1.24738 60.3764 1.24738 60.3764 1.31668 60.3764C1.38598 60.2363 1.45528 60.0962 1.45528 59.9562C2.70266 59.5359 3.95004 59.3958 5.05882 60.7967C6.09831 62.1975 5.68251 63.5984 4.98952 64.719Z" fill="url(#paint42_linear_52_259)"/>
<path d="M0.485107 63.458C0.9702 64.1585 1.87109 64.4386 2.70267 64.2285C3.53426 64.0184 4.15795 63.458 4.57375 62.6876C4.85094 62.1973 4.98954 61.4969 4.78164 60.9365C5.26674 61.5669 5.40533 62.4775 5.26674 63.2479C5.19744 63.5981 5.05884 63.9483 4.85094 64.2285C4.64304 64.5087 4.36585 64.7188 4.08865 64.9289C3.46496 65.2791 2.63338 65.4192 1.94039 65.1391C1.2474 64.8589 0.623705 64.2285 0.485107 63.458Z" fill="url(#paint43_linear_52_259)"/>
<path d="M1.03943 60.7267C1.31662 60.4465 1.66312 60.1664 2.07891 60.0963C2.4254 60.0263 2.8412 59.9563 3.18769 60.2364C3.32629 60.3065 3.46489 60.5166 3.46489 60.7267C3.46489 60.9368 3.39559 61.0769 3.25699 61.217C3.04909 61.6373 2.7026 61.9174 2.28681 62.1276C1.87101 62.3377 1.45522 62.5478 1.03943 62.6179C0.900827 62.6879 0.762229 62.6879 0.623631 62.6179C0.485033 62.5478 0.346436 62.3377 0.346436 62.1976C0.277137 61.9174 0.415734 61.5672 0.554332 61.3571C0.69293 61.147 0.831528 60.8668 1.03943 60.7267Z" fill="url(#paint44_linear_52_259)"/>
<path d="M4.64297 65.0694L4.57368 64.7192L2.7719 62.688C2.7026 62.688 2.6333 62.688 2.56401 62.688C1.94032 63.1783 1.45522 63.8787 1.10873 64.5791C1.10873 64.7192 1.03943 64.7893 1.03943 64.9293C1.45522 64.2289 2.00961 63.5285 2.56401 62.8981C3.1184 63.6686 3.81139 64.369 4.64297 65.0694Z" fill="url(#paint45_linear_52_259)"/>
<path d="M2.70265 62.688C2.07896 63.1783 1.59387 63.8087 1.24737 64.5791C1.10878 64.5791 0.970178 64.5791 0.900879 64.6492C1.31667 63.8787 1.87106 63.3184 2.56405 62.688C2.56405 62.688 2.63335 62.688 2.70265 62.688Z" fill="url(#paint46_linear_52_259)"/>
<path d="M2.7026 62.6879C2.6333 62.6879 2.56401 62.6879 2.49471 62.6879C1.80172 62.0575 1.31662 61.287 1.03943 60.3765C1.10873 60.4465 1.17803 60.4465 1.24733 60.4465C1.59382 61.287 2.07891 62.0575 2.7026 62.6879Z" fill="url(#paint47_linear_52_259)"/>
<path d="M2.84123 62.688C2.77193 62.688 2.77193 62.688 2.70263 62.688C2.07894 62.0576 1.66315 61.2871 1.31665 60.4466C1.38595 60.3065 1.45525 60.1665 1.45525 60.0264C1.80174 61.007 2.28684 61.8475 2.84123 62.688Z" fill="url(#paint48_linear_52_259)"/>
<path d="M2.8412 62.688C3.39559 63.4585 4.15788 64.0888 4.98946 64.7192H4.57367C3.88068 64.2289 3.25699 63.5285 2.6333 62.688H2.8412Z" fill="url(#paint49_linear_52_259)"/>
<path d="M0.831615 60.9366C0.900914 60.9366 0.900914 60.8666 0.970213 60.9366L1.03951 61.0067C1.03951 61.1468 1.03951 61.2168 1.03951 61.3569C1.03951 61.4269 0.970213 61.4269 0.970213 61.4269C0.900914 61.4269 0.831615 61.3569 0.831615 61.3569C0.693017 61.2168 0.693017 61.0067 0.831615 60.9366ZM1.38601 62.6877C1.38601 62.7577 1.45531 62.8278 1.45531 62.8278C1.5246 62.8978 1.5939 62.8978 1.6632 62.8278C1.7325 62.7577 1.8018 62.6877 1.8018 62.6177C1.8018 62.5476 1.8018 62.4776 1.7325 62.4075C1.6632 62.2674 1.5246 62.2674 1.38601 62.3375C1.31671 62.4075 1.31671 62.5476 1.38601 62.6877ZM0.762316 63.6683C0.831615 63.7383 0.900914 63.8084 1.03951 63.7383C1.10881 63.7383 1.17811 63.6683 1.24741 63.5282C1.24741 63.4582 1.17811 63.3181 1.10881 63.248C1.03951 63.178 0.900914 63.248 0.831615 63.3181C0.693017 63.4582 0.693017 63.5982 0.762316 63.6683ZM2.56409 63.8084C2.63339 63.8084 2.77199 63.8084 2.77199 63.6683C2.84128 63.5982 2.77199 63.4582 2.77199 63.3881C2.70269 63.3181 2.63339 63.3181 2.56409 63.3181C2.28689 63.4582 2.35619 63.7383 2.56409 63.8084ZM2.28689 61.1468C2.42549 61.2168 2.56409 61.1468 2.63339 61.0767C2.70269 61.0067 2.70269 60.8666 2.63339 60.7265C2.63339 60.6565 2.56409 60.6565 2.49479 60.5864C2.42549 60.5864 2.35619 60.5864 2.35619 60.5864C2.28689 60.5864 2.28689 60.6565 2.21759 60.6565C2.079 60.8666 2.1483 61.0767 2.28689 61.1468ZM3.53427 63.1079C3.60357 63.178 3.60357 63.178 3.67287 63.178C3.74217 63.178 3.81147 63.1079 3.81147 63.1079C3.88077 62.9679 3.88077 62.8278 3.88077 62.6877C3.81147 62.5476 3.67287 62.4776 3.53427 62.4776C3.46498 62.4776 3.46498 62.4776 3.39568 62.5476C3.25708 62.6877 3.39568 62.9679 3.53427 63.1079ZM4.92025 64.2987C4.98955 64.2286 5.05885 64.1586 5.05885 64.0885C5.05885 64.0185 4.98955 63.9484 4.98955 63.8784C4.92025 63.8084 4.85096 63.8084 4.78166 63.8084C4.64306 63.8084 4.50446 63.9485 4.57376 64.0885C4.57376 64.2987 4.78166 64.4387 4.92025 64.2987ZM3.53427 65.0691C3.60357 65.1392 3.67287 65.1392 3.74217 65.1392C3.88077 65.1392 3.95007 65.0691 4.01937 64.9991C4.01937 64.929 4.01937 64.859 4.01937 64.789C4.01937 64.7189 3.95007 64.7189 3.88077 64.6489C3.81147 64.5788 3.74217 64.5788 3.67287 64.5788C3.60357 64.5788 3.53427 64.5788 3.46498 64.6489C3.39568 64.789 3.46498 64.9991 3.53427 65.0691Z" fill="url(#paint50_linear_52_259)"/>
</g>
<defs>
<linearGradient id="paint0_linear_52_259" x1="26.5178" y1="17.912" x2="66.3474" y2="71.8562" gradientUnits="userSpaceOnUse">
<stop stop-color="#A1BE53"/>
<stop offset="1" stop-color="#35450A"/>
</linearGradient>
<linearGradient id="paint1_linear_52_259" x1="27.7655" y1="33.7899" x2="52.1913" y2="78.4005" gradientUnits="userSpaceOnUse">
<stop stop-color="#A1BE53"/>
<stop offset="1" stop-color="#35450A"/>
</linearGradient>
<linearGradient id="paint2_linear_52_259" x1="25.0025" y1="19.4602" x2="43.4956" y2="48.1762" gradientUnits="userSpaceOnUse">
<stop stop-color="#A1BE53"/>
<stop offset="1" stop-color="#35450A"/>
</linearGradient>
<linearGradient id="paint3_linear_52_259" x1="26.2376" y1="22.7078" x2="63.2445" y2="72.2919" gradientUnits="userSpaceOnUse">
<stop stop-color="#A1BE53"/>
<stop offset="1" stop-color="#35450A"/>
</linearGradient>
<linearGradient id="paint4_linear_52_259" x1="30.4961" y1="43.0398" x2="47.0735" y2="64.0764" gradientUnits="userSpaceOnUse">
<stop stop-color="#A1BE53"/>
<stop offset="1" stop-color="#35450A"/>
</linearGradient>
<linearGradient id="paint5_linear_52_259" x1="65.8534" y1="52.7778" x2="78.2046" y2="59.1859" gradientUnits="userSpaceOnUse">
<stop stop-color="#A1BE53"/>
<stop offset="1" stop-color="#35450A"/>
</linearGradient>
<linearGradient id="paint6_linear_52_259" x1="57.9131" y1="34.0096" x2="62.1162" y2="42.1032" gradientUnits="userSpaceOnUse">
<stop stop-color="#A1BE53"/>
<stop offset="1" stop-color="#35450A"/>
</linearGradient>
<linearGradient id="paint7_linear_52_259" x1="49.0846" y1="21.2446" x2="49.8471" y2="26.4018" gradientUnits="userSpaceOnUse">
<stop stop-color="#A1BE53"/>
<stop offset="1" stop-color="#35450A"/>
</linearGradient>
<linearGradient id="paint8_linear_52_259" x1="30.3746" y1="21.4169" x2="33.1131" y2="27.2444" gradientUnits="userSpaceOnUse">
<stop stop-color="#A1BE53"/>
<stop offset="1" stop-color="#35450A"/>
</linearGradient>
<linearGradient id="paint9_linear_52_259" x1="25.5193" y1="31.675" x2="27.9764" y2="34.2358" gradientUnits="userSpaceOnUse">
<stop stop-color="#A1BE53"/>
<stop offset="1" stop-color="#35450A"/>
</linearGradient>
<linearGradient id="paint10_linear_52_259" x1="13.7525" y1="58.4334" x2="14.0383" y2="59.4031" gradientUnits="userSpaceOnUse">
<stop stop-color="#A1BE53"/>
<stop offset="1" stop-color="#35450A"/>
</linearGradient>
<linearGradient id="paint11_linear_52_259" x1="32.66" y1="74.7085" x2="35.6427" y2="84.323" gradientUnits="userSpaceOnUse">
<stop stop-color="#A1BE53"/>
<stop offset="1" stop-color="#35450A"/>
</linearGradient>
<linearGradient id="paint12_linear_52_259" x1="15.0647" y1="32.4569" x2="21.8009" y2="40.2428" gradientUnits="userSpaceOnUse">
<stop stop-color="#A1BE53"/>
<stop offset="1" stop-color="#35450A"/>
</linearGradient>
<linearGradient id="paint13_linear_52_259" x1="27.7868" y1="18.1718" x2="65.0465" y2="69.0625" gradientUnits="userSpaceOnUse">
<stop stop-color="#A1BE53"/>
<stop offset="1" stop-color="#35450A"/>
</linearGradient>
<linearGradient id="paint14_linear_52_259" x1="40.405" y1="28.9395" x2="58.7171" y2="49.5918" gradientUnits="userSpaceOnUse">
<stop stop-color="#A1BE53"/>
<stop offset="1" stop-color="#35450A"/>
</linearGradient>
<linearGradient id="paint15_linear_52_259" x1="54.5204" y1="30.9759" x2="56.9942" y2="33.0964" gradientUnits="userSpaceOnUse">
<stop stop-color="#A1BE53"/>
<stop offset="1" stop-color="#35450A"/>
</linearGradient>
<linearGradient id="paint16_linear_52_259" x1="37.385" y1="28.4866" x2="40.7597" y2="35.5121" gradientUnits="userSpaceOnUse">
<stop stop-color="#A1BE53"/>
<stop offset="1" stop-color="#35450A"/>
</linearGradient>
<linearGradient id="paint17_linear_52_259" x1="48.0205" y1="48.8796" x2="52.4001" y2="58.363" gradientUnits="userSpaceOnUse">
<stop stop-color="#A1BE53"/>
<stop offset="1" stop-color="#35450A"/>
</linearGradient>
<linearGradient id="paint18_linear_52_259" x1="55.3034" y1="51.8014" x2="68.4478" y2="66.419" gradientUnits="userSpaceOnUse">
<stop stop-color="#A1BE53"/>
<stop offset="1" stop-color="#35450A"/>
</linearGradient>
<linearGradient id="paint19_linear_52_259" x1="54.3163" y1="51.62" x2="67.1991" y2="63.4371" gradientUnits="userSpaceOnUse">
<stop stop-color="#A1BE53"/>
<stop offset="1" stop-color="#35450A"/>
</linearGradient>
<linearGradient id="paint20_linear_52_259" x1="27.8226" y1="18.1458" x2="64.0276" y2="69.0957" gradientUnits="userSpaceOnUse">
<stop stop-color="#A1BE53"/>
<stop offset="1" stop-color="#35450A"/>
</linearGradient>
<linearGradient id="paint21_linear_52_259" x1="30.677" y1="35.4138" x2="34.469" y2="41.6828" gradientUnits="userSpaceOnUse">
<stop stop-color="#A1BE53"/>
<stop offset="1" stop-color="#35450A"/>
</linearGradient>
<linearGradient id="paint22_linear_52_259" x1="32.4666" y1="24.7285" x2="34.6407" y2="28.8093" gradientUnits="userSpaceOnUse">
<stop stop-color="#A1BE53"/>
<stop offset="1" stop-color="#35450A"/>
</linearGradient>
<linearGradient id="paint23_linear_52_259" x1="58.9931" y1="57.2117" x2="65.74" y2="65.3107" gradientUnits="userSpaceOnUse">
<stop stop-color="#A1BE53"/>
<stop offset="1" stop-color="#35450A"/>
</linearGradient>
<linearGradient id="paint24_linear_52_259" x1="5.18162" y1="0.308922" x2="15.0254" y2="12.891" gradientUnits="userSpaceOnUse">
<stop stop-color="#A1BE53"/>
<stop offset="1" stop-color="#35450A"/>
</linearGradient>
<linearGradient id="paint25_linear_52_259" x1="5.83949" y1="3.81298" x2="12.0236" y2="13.802" gradientUnits="userSpaceOnUse">
<stop stop-color="#A1BE53"/>
<stop offset="1" stop-color="#35450A"/>
</linearGradient>
<linearGradient id="paint26_linear_52_259" x1="4.7191" y1="0.664117" x2="8.45077" y2="7.15451" gradientUnits="userSpaceOnUse">
<stop stop-color="#A1BE53"/>
<stop offset="1" stop-color="#35450A"/>
</linearGradient>
<linearGradient id="paint27_linear_52_259" x1="6.19968" y1="7.92179" x2="9.6368" y2="14.5791" gradientUnits="userSpaceOnUse">
<stop stop-color="#A1BE53"/>
<stop offset="1" stop-color="#35450A"/>
</linearGradient>
<linearGradient id="paint28_linear_52_259" x1="4.69674" y1="7.80864" x2="7.41258" y2="12.0367" gradientUnits="userSpaceOnUse">
<stop stop-color="#A1BE53"/>
<stop offset="1" stop-color="#35450A"/>
</linearGradient>
<linearGradient id="paint29_linear_52_259" x1="5.94784" y1="1.26511" x2="9.98329" y2="4.45469" gradientUnits="userSpaceOnUse">
<stop stop-color="#A1BE53"/>
<stop offset="1" stop-color="#35450A"/>
</linearGradient>
<linearGradient id="paint30_linear_52_259" x1="6.63566" y1="0.649999" x2="10.826" y2="3.37344" gradientUnits="userSpaceOnUse">
<stop stop-color="#A1BE53"/>
<stop offset="1" stop-color="#35450A"/>
</linearGradient>
<linearGradient id="paint31_linear_52_259" x1="10.2161" y1="7.83312" x2="13.7754" y2="12.4914" gradientUnits="userSpaceOnUse">
<stop stop-color="#A1BE53"/>
<stop offset="1" stop-color="#35450A"/>
</linearGradient>
<linearGradient id="paint32_linear_52_259" x1="5.9923" y1="2.46134" x2="13.6212" y2="11.9857" gradientUnits="userSpaceOnUse">
<stop stop-color="#A1BE53"/>
<stop offset="1" stop-color="#35450A"/>
</linearGradient>
<linearGradient id="paint33_linear_52_259" x1="78.0737" y1="71.5872" x2="84.543" y2="79.9945" gradientUnits="userSpaceOnUse">
<stop stop-color="#A1BE53"/>
<stop offset="1" stop-color="#35450A"/>
</linearGradient>
<linearGradient id="paint34_linear_52_259" x1="78.4537" y1="73.7059" x2="82.5951" y2="80.4195" gradientUnits="userSpaceOnUse">
<stop stop-color="#A1BE53"/>
<stop offset="1" stop-color="#35450A"/>
</linearGradient>
<linearGradient id="paint35_linear_52_259" x1="77.758" y1="71.6075" x2="80.3153" y2="75.9742" gradientUnits="userSpaceOnUse">
<stop stop-color="#A1BE53"/>
<stop offset="1" stop-color="#35450A"/>
</linearGradient>
<linearGradient id="paint36_linear_52_259" x1="78.7087" y1="76.3769" x2="81.1037" y2="80.9079" gradientUnits="userSpaceOnUse">
<stop stop-color="#A1BE53"/>
<stop offset="1" stop-color="#35450A"/>
</linearGradient>
<linearGradient id="paint37_linear_52_259" x1="77.7662" y1="76.415" x2="79.5579" y2="79.2251" gradientUnits="userSpaceOnUse">
<stop stop-color="#A1BE53"/>
<stop offset="1" stop-color="#35450A"/>
</linearGradient>
<linearGradient id="paint38_linear_52_259" x1="78.5821" y1="72.0983" x2="81.2455" y2="74.2555" gradientUnits="userSpaceOnUse">
<stop stop-color="#A1BE53"/>
<stop offset="1" stop-color="#35450A"/>
</linearGradient>
<linearGradient id="paint39_linear_52_259" x1="78.9531" y1="71.6188" x2="81.7536" y2="73.4917" gradientUnits="userSpaceOnUse">
<stop stop-color="#A1BE53"/>
<stop offset="1" stop-color="#35450A"/>
</linearGradient>
<linearGradient id="paint40_linear_52_259" x1="81.3451" y1="76.4319" x2="83.7061" y2="79.5792" gradientUnits="userSpaceOnUse">
<stop stop-color="#A1BE53"/>
<stop offset="1" stop-color="#35450A"/>
</linearGradient>
<linearGradient id="paint41_linear_52_259" x1="78.5831" y1="72.7853" x2="83.7048" y2="79.1636" gradientUnits="userSpaceOnUse">
<stop stop-color="#A1BE53"/>
<stop offset="1" stop-color="#35450A"/>
</linearGradient>
<linearGradient id="paint42_linear_52_259" x1="1.22285" y1="59.8007" x2="4.94996" y2="64.551" gradientUnits="userSpaceOnUse">
<stop stop-color="#A1BE53"/>
<stop offset="1" stop-color="#35450A"/>
</linearGradient>
<linearGradient id="paint43_linear_52_259" x1="1.52438" y1="61.0316" x2="4.02768" y2="64.8452" gradientUnits="userSpaceOnUse">
<stop stop-color="#A1BE53"/>
<stop offset="1" stop-color="#35450A"/>
</linearGradient>
<linearGradient id="paint44_linear_52_259" x1="1.00261" y1="60.0913" x2="2.47554" y2="62.4951" gradientUnits="userSpaceOnUse">
<stop stop-color="#A1BE53"/>
<stop offset="1" stop-color="#35450A"/>
</linearGradient>
<linearGradient id="paint45_linear_52_259" x1="1.81439" y1="62.74" x2="2.98204" y2="65.1638" gradientUnits="userSpaceOnUse">
<stop stop-color="#A1BE53"/>
<stop offset="1" stop-color="#35450A"/>
</linearGradient>
<linearGradient id="paint46_linear_52_259" x1="1.28836" y1="62.7308" x2="2.48582" y2="64.24" gradientUnits="userSpaceOnUse">
<stop stop-color="#A1BE53"/>
<stop offset="1" stop-color="#35450A"/>
</linearGradient>
<linearGradient id="paint47_linear_52_259" x1="1.3971" y1="60.427" x2="2.84621" y2="61.8573" gradientUnits="userSpaceOnUse">
<stop stop-color="#A1BE53"/>
<stop offset="1" stop-color="#35450A"/>
</linearGradient>
<linearGradient id="paint48_linear_52_259" x1="1.64452" y1="60.0845" x2="3.26597" y2="61.3586" gradientUnits="userSpaceOnUse">
<stop stop-color="#A1BE53"/>
<stop offset="1" stop-color="#35450A"/>
</linearGradient>
<linearGradient id="paint49_linear_52_259" x1="3.14001" y1="62.7324" x2="4.28753" y2="64.5583" gradientUnits="userSpaceOnUse">
<stop stop-color="#A1BE53"/>
<stop offset="1" stop-color="#35450A"/>
</linearGradient>
<linearGradient id="paint50_linear_52_259" x1="1.65058" y1="60.6859" x2="4.40505" y2="64.2896" gradientUnits="userSpaceOnUse">
<stop stop-color="#A1BE53"/>
<stop offset="1" stop-color="#35450A"/>
</linearGradient>
<clipPath id="clip0_52_259">
<rect width="86" height="83" fill="white"/>
</clipPath>
</defs>
</svg>
