<svg width="53" height="63" viewBox="0 0 53 63" fill="none" xmlns="http://www.w3.org/2000/svg">
<g clip-path="url(#clip0_52_324)">
<path d="M6.89661 36.5364L5.90463 38.4369L6.99109 42.9029L7.60517 47.464L10.1087 51.645L10.9118 53.783L13.8405 55.4934L16.4385 56.2061L16.9109 56.4912L14.1239 53.3554L12.3761 50.9799L10.7228 46.9414L7.6524 35.3486L7.18003 35.9188L6.89661 36.5364Z" fill="url(#paint0_linear_52_324)"/>
<path d="M29.7594 60.8618C41.8904 60.8618 51.7246 50.9705 51.7246 38.769C51.7246 26.5675 41.8904 16.6763 29.7594 16.6763C17.6283 16.6763 7.79411 26.5675 7.79411 38.769C7.79411 50.9705 17.6283 60.8618 29.7594 60.8618Z" fill="url(#paint1_linear_52_324)"/>
<path d="M24.705 44.2805C26.4528 47.3688 29.2398 50.2194 33.066 51.2647C36.2781 52.1199 39.9153 51.5022 42.7023 49.8869C45.4893 48.224 47.426 45.6584 48.2763 42.8077C49.1266 40.0045 48.9376 36.9638 48.0401 34.2081C47.1898 31.6425 45.7255 29.1719 43.5998 27.2715C41.4269 25.371 38.5927 23.9932 35.475 23.7081C32.7353 23.4231 29.9483 24.0407 27.6337 25.3235C25.0357 26.7964 22.2014 29.647 21.9652 32.4027C21.5401 36.4412 22.6266 40.6697 24.705 44.2805Z" fill="url(#paint2_linear_52_324)"/>
<path d="M21.4929 19.6697L21.3984 19.7172L23.1462 22.4729L24.9412 25.1335L25.3191 25.4186L26.6417 26.3213L31.1292 33.7805L30.9403 33.733L31.1292 36.3462V36.4412L33.066 43.0452L36.7977 49.8869L36.8922 50.0769L36.7032 49.9344L29.1453 45.0882L22.6266 40.2896L22.2014 42.6176L16.9581 36.0611L14.0766 33.9706L12.7068 32.9729L12.5178 34.4932L12.6123 35.2059L15.7299 41.81L15.2576 41.9525L14.8797 44.2805L14.4545 44.6606L14.7852 47.1787V47.2738L13.6515 46.5611H13.2264L13.3209 46.8462L15.352 52.5L14.738 51.9299L12.9902 50.3145L9.73084 45.4208L9.6836 45.3258L9.58913 45.2783L6.94385 37.7715L6.51872 33.733L6.61319 32.8778L6.18806 31.5475L5.76292 29.5045L5.99911 28.7443L5.95187 28.4593L5.71569 24.7059L5.95187 23.8032L5.33779 20.81L4.72371 16.4864L4.77095 14.7285L3.92068 12.8756L0.0472371 4.08597L0 4.03846L1.18093 5.08371L3.44831 7.07919L5.38503 9.16968L8.31373 12.448L11.4786 15.1086L11.5731 15.2036L9.25847 9.59729L7.84135 5.55882L7.79412 5.36878L9.16399 6.55656L11.4314 7.9819L17.8556 10.1674L17.9501 10.2149L17.4777 7.79185L17.6194 7.64932V7.26923L14.3601 0L21.2567 5.32127L24.3271 8.21946L26.2166 9.69231L26.7834 10.1674V10.1199H26.8307L27.3975 9.16968L29.7121 12.1154L32.9242 14.1109L35.9474 16.3439L40.0098 18.767L40.2932 19.3371C39.8681 19.0995 39.443 18.862 38.9234 18.6719C38.4982 18.4819 37.9314 18.2443 37.3645 18.0068C36.7504 17.7692 35.9947 17.5317 35.1444 17.3416L34.5775 17.4367L37.1756 22.5204L39.3012 28.2217L39.5847 29.4095V29.5045L35.664 25.9887L34.0107 24.6109L33.1604 25.8462L32.6881 25.5611L26.4528 22.0452L21.6818 19.5747L21.4929 19.6697Z" fill="url(#paint3_linear_52_324)"/>
<path d="M36.7977 49.8393L36.7505 49.9344L29.1453 45.0882L22.6266 40.2896L22.2014 42.6176L16.9581 36.0611L14.0767 33.9706L12.3289 31.6425L9.49466 26.6538L8.31373 26.1312L7.84136 27.0339L6.56596 26.0837L7.03833 23.6131L6.18806 19.4321L5.05437 14.7285L3.92068 12.8755L0.0472412 4.08594L6.84938 15.5837L6.94385 16.6764L10.1087 20.0972L10.6283 21.8552L11.9982 23.328L12.1399 24.4208L13.7932 27.8891L15.0686 30.0746L18.9893 33.0678L19.2727 34.0181L21.7763 35.681L23.4296 36.7737L23.2406 36.6787L26.5472 41.4298L30.09 43.9479L32.3102 45.8009L33.7745 47.3687L36.7977 49.8393Z" fill="url(#paint4_linear_52_324)"/>
<path d="M12.4706 47.9388L14.738 51.9297L12.9902 50.2668L9.73084 45.3732L8.73886 41.8098L8.50268 39.9569L8.36097 39.5768L7.22727 36.156L7.36899 33.9229L6.47148 30.6922L6.70767 29.5994L6.47148 26.8438L9.30571 33.5904L8.54991 33.9704L10.0143 40.2895L11.3369 42.57L12.1872 44.2329L12.6123 45.1831L14.7852 47.1786L14.8324 47.2736L13.6515 46.5609H13.2264L13.3209 46.846L12.1399 46.1333L12.4706 47.9388Z" fill="url(#paint5_linear_52_324)"/>
<path d="M25.6497 37.6289L21.3512 32.0225L17.9973 28.9818L15.1159 24.6108L13.4153 19.5746L12.3289 16.4863L11.5259 15.1085L11.4786 15.0135V15.061L11.5731 15.156L9.25847 9.5972L7.8886 5.51123L8.26649 6.08137L9.6836 8.07684L12.1872 11.3076L15.1159 20.7624L17.6194 26.0836L23.3351 32.5927L25.6497 37.6289Z" fill="url(#paint6_linear_52_324)"/>
<path d="M32.0267 41.7149L29.4759 39.3394L24.0437 31.0249L24.1854 31.2149L26.6417 34.0181L32.0267 41.7149Z" fill="url(#paint7_linear_52_324)"/>
<path d="M32.6408 25.5136L26.4055 22.0452L21.6346 19.5747L21.4929 19.6697L18.5642 16.2014L18.4225 12.543L16.2968 10.0724L17.9973 10.31L17.9029 10.1199L17.9973 10.1674L17.525 7.74434L17.6194 7.60181V7.22172L14.3601 0H14.4073L18.9893 7.60181L19.8396 10.595L21.5401 14.1109L25.0829 17.6267L26.689 20.1923L31.3182 23.2805L32.6408 25.3235V25.5136Z" fill="url(#paint8_linear_52_324)"/>
<path d="M39.5847 29.5522L35.664 26.0364L33.2077 22.8531L29.2398 20.0975L28.0116 19.2898L26.3583 14.8237L26.5 14.8712L28.5784 18.102L29.2398 16.8667L34.1996 20.4301L31.9795 19.6224L34.7193 22.8056L37.0811 25.7513L37.3645 26.8441L39.5374 29.4572L39.5847 29.5522Z" fill="url(#paint9_linear_52_324)"/>
<path d="M22.5321 10.5951L25.7442 13.3507L19.9813 5.93896L20.1702 6.41408L22.5321 10.5951Z" fill="url(#paint10_linear_52_324)"/>
<path d="M26.4528 27.2715L23.7603 25.7987L19.6034 21.6652L21.0677 22.3779H21.2567L19.5089 20.1923L14.6907 12.8756L14.5018 12.2104L20.9733 18.4819L21.5401 19.6222L21.4929 19.6697L21.4456 19.7172L23.1934 22.4729L24.9884 25.1335L25.3663 25.4186L26.4528 27.2715Z" fill="url(#paint11_linear_52_324)"/>
<path d="M31.1292 60.7195L28.5784 61.8598H28.1061L27.0668 63.0001L25.508 61.5747L23.5241 59.3417L21.5873 58.0114L20.5954 57.2037L18.9893 51.2648L18.139 48.4616L17.7139 47.1788L17.6194 46.9888L21.7291 51.9775L22.2014 51.2648L22.3431 51.3123L24.2799 53.8304L28.0116 59.1042L28.5312 59.9594L29.6177 60.577L29.8066 60.672L31.1292 60.7195Z" fill="url(#paint12_linear_52_324)"/>
<path d="M31.1292 60.7193L28.5784 61.8596H28.1061L27.0668 62.9999L25.508 61.5746L23.5241 59.3415L21.5873 58.0112L20.5954 57.2035L18.9893 51.2646L18.139 48.4614L19.2255 50.5044L20.8316 53.7352L23.6185 56.3483L24.6578 57.8212L27.1613 60.2917L29.5232 60.5768H29.6176L29.8066 60.6718L31.1292 60.7193Z" fill="url(#paint13_linear_52_324)"/>
<path d="M44.9697 56.681L44.0722 61.1946L43.9777 61.7172L41.2852 60.7195H39.7264L37.7897 59.2941L38.0731 59.1516L40.2932 56.2059L40.4822 55.0656H40.9073L40.6711 52.1674L39.1595 47.7964L39.3012 47.9864L42.9857 52.2149L44.9697 56.681Z" fill="url(#paint14_linear_52_324)"/>
<path d="M44.0722 61.1946L43.9777 61.7172L41.2852 60.7195H39.7264L37.7897 59.2941L38.0731 59.1516L40.2932 56.2059L40.4822 55.0656H40.9073L40.6711 52.1674L39.1595 47.7964L39.3012 47.9864L42.2299 53.4977L42.4661 55.6833L42.0882 56.9661L42.1827 57.7263L42.9385 59.4367L43.4581 59.9118L44.025 61.052L44.0722 61.1946Z" fill="url(#paint15_linear_52_324)"/>
<path d="M53 51.9772L49.6934 52.8799L46.7175 52.7848L46.9064 52.4998L47.0009 51.6921L46.5285 50.1717L45.2059 48.0812L44.7807 47.9387L43.5053 48.0337L41.4742 46.3708L39.0178 42.1898L39.9153 42.1423L39.443 38.3414L37.7897 35.8233L35.2389 34.9681L34.5303 33.1627L33.8217 31.9274L33.3021 30.9296L33.2549 30.7871L36.1364 32.7826L38.1676 33.8753L39.3012 35.7283L40.5766 37.0111L41.5214 37.0586L42.7023 36.9636L44.639 38.5315L50.0241 44.4704L50.6854 46.0857L51.205 48.6514L52.9055 51.8821L53 51.9772Z" fill="url(#paint16_linear_52_324)"/>
<path d="M53 51.9772L49.6934 52.8799L46.7175 52.7849L46.9064 52.4998L47.0009 51.6921L46.5285 50.1718L45.2059 48.0813L44.7808 47.9387L43.5053 48.0338L41.4742 46.3709L39.0178 42.1899L39.9153 42.1424L39.443 38.3415L37.7897 35.8234L35.2389 34.9681L34.5303 33.1627L33.8217 31.9274L33.3021 30.9297L33.4911 31.0247L35.4278 33.9704L35.8057 34.1605L37.4118 34.6356L39.6319 37.3912L40.3405 39.1967L40.4822 40.9071L40.9545 42.9976L41.852 43.1876H42.4189L43.836 43.3301L41.0963 41.3822L41.0018 40.1944L43.9777 42.7125L47.0481 46.941L49.1266 50.6944L49.2683 49.174L50.5909 51.2645L51.6774 51.5971L52.9055 51.8822L53 51.9772Z" fill="url(#paint17_linear_52_324)"/>
<path d="M44.4029 41.0971C45.1587 42.3799 45.9144 43.7578 46.7175 44.9931C46.8119 45.0881 46.8592 45.1831 46.9537 45.1831C47.4733 45.3732 47.8512 45.8008 48.3235 46.0383C47.4733 43.8528 45.6783 42.2374 44.1667 40.4795C44.2611 40.717 44.3084 40.9071 44.4029 41.0971Z" fill="url(#paint18_linear_52_324)"/>
<path d="M49.9768 32.6879L49.4572 32.1652L45.1586 27.8892L42.0882 21.9503L41.7103 20.1924L45.4421 21.0001L46.5285 20.525L46.7647 20.4299L48.607 25.1336L49.9768 32.6879Z" fill="url(#paint19_linear_52_324)"/>
<path d="M49.4572 32.1652L45.1586 27.8892L42.0882 21.9503L41.7103 20.1924L45.4421 21.0001L46.5285 20.525L45.3004 23.8983L45.4421 25.6087L45.8672 26.8915L47.0009 28.887L49.4572 32.1652Z" fill="url(#paint20_linear_52_324)"/>
<path d="M9.73084 14.3009C10.8173 16.3914 11.7148 18.6245 12.4234 20.8575C11.9982 20.6674 11.5731 20.4299 11.1952 20.2398C10.959 20.1448 10.7228 20.0023 10.5339 19.8122C10.3449 19.6222 10.2505 19.3846 10.3449 19.0996C10.1087 18.862 9.82532 18.577 9.58913 18.3394C9.06952 17.8168 8.50268 17.2466 7.98307 16.724C7.93583 16.6765 7.8886 16.629 7.84136 16.534C7.69965 16.3439 7.74688 16.1064 7.74688 15.8213C6.99109 14.491 6.18806 13.2082 5.38503 11.8779C4.34581 10.2625 3.3066 8.64709 2.31462 6.98419C4.48753 9.78736 9.73084 14.3009 9.73084 14.3009ZM18.7059 31.7376C17.9029 30.5498 17.0998 29.3145 16.2968 28.1267C15.9189 27.5566 15.541 26.9865 15.2576 26.4163C14.8324 25.6086 14.5018 24.7534 14.1711 23.8507C14.0294 23.4706 13.8877 23.043 13.6043 22.7104C13.1319 22.1878 12.4234 21.9978 11.7148 21.8552C11.8093 22.3303 12.0455 22.8055 12.4706 23.0905C12.5651 23.1855 12.6595 23.2331 12.754 23.3281C12.8013 23.4231 12.8485 23.5656 12.8957 23.6607C13.1319 24.6584 13.557 25.5611 13.9349 26.5113C14.2656 27.2715 14.5963 27.9842 14.8797 28.7444C14.9742 28.9344 15.0686 29.172 15.2103 29.3145C15.3993 29.5046 15.6355 29.5996 15.8717 29.7421C16.344 29.9797 16.7692 30.3122 17.1471 30.6923C17.5722 31.1199 18.1863 31.4525 18.7059 31.7376ZM22.107 34.2082C22.0125 34.0656 21.9652 33.9231 21.8235 33.8281C21.6818 33.6855 21.4929 33.5905 21.3039 33.4955C20.5954 33.1154 20.0285 32.6403 19.2255 32.4978C19.4144 32.8779 19.6506 33.2579 19.8868 33.638C19.934 33.7331 19.9813 33.7806 20.0758 33.8756C20.123 33.9231 20.1702 33.9706 20.2647 33.9706C20.8788 34.2557 21.4929 34.5408 22.0597 34.8258C22.2959 34.9208 22.5321 35.0634 22.8155 35.1584C22.7683 35.1109 22.6738 35.1109 22.6266 35.0634C22.4376 34.7783 22.2487 34.4932 22.107 34.2082ZM33.2549 45.5159C33.0187 45.1358 32.7825 44.8507 32.5936 44.4706C32.1685 43.5679 31.6961 42.6652 30.9875 41.9525C30.279 41.2398 29.4287 40.6697 28.7201 39.957C28.3422 39.4344 28.0588 38.9593 27.7282 38.4842C27.0668 37.4389 26.4055 36.3937 25.697 35.3484C25.9804 36.5362 26.4055 37.6765 26.9251 38.7217C26.3111 38.6742 25.7914 38.4367 25.1774 38.3417C25.5553 38.9593 25.9804 39.577 26.3583 40.2421C26.4528 40.4322 26.5945 40.5747 26.7362 40.7172C26.8779 40.8598 27.1141 41.0023 27.303 41.0973C29.0508 42.1426 30.5624 43.5679 32.074 44.9457C32.7353 45.5634 33.3966 46.181 34.0579 46.7987C33.7273 46.5136 33.5383 45.896 33.2549 45.5159ZM12.4706 10.31C13.4153 11.0227 14.7852 11.1652 15.6355 11.9729C15.6355 11.5928 15.6827 11.2127 15.6827 10.8801C15.6827 10.7851 15.6827 10.6901 15.6355 10.595C15.5882 10.5 15.541 10.4525 15.4465 10.405C14.738 9.88238 13.8877 9.5498 13.0374 9.31224C11.8565 8.93215 10.8645 8.12446 9.73084 7.60184C10.0615 8.02944 10.3922 8.45704 10.7228 8.83713C11.2424 9.35976 11.9037 9.88238 12.4706 10.31ZM14.8797 18.862C14.9742 19.1471 15.0214 19.4322 15.2103 19.6697C15.3048 19.8122 15.4465 19.9073 15.5882 20.0023C15.9661 20.2874 16.344 20.5724 16.7219 20.8575C16.8636 21 17.0526 21.095 17.2415 21.1901C17.4305 21.2851 17.6667 21.2851 17.9029 21.2851C18.4697 21.3326 19.0365 21.3326 19.6034 21.3801C19.4144 21.3801 18.8948 20.6199 18.8004 20.4774C18.5169 20.1448 18.2808 19.8598 17.9973 19.5272C17.4305 18.862 16.9109 18.1493 16.3913 17.4842C15.8244 16.6765 15.2576 15.9638 14.8324 15.0611C14.5963 14.6335 14.4545 14.2059 14.2184 13.7783C14.0767 13.4932 13.9349 13.2557 13.8877 12.9231C13.8405 12.8281 13.8405 12.2104 13.746 12.1629C13.5098 11.9729 13.1791 11.8303 12.8957 11.7353C12.9902 12.543 13.0374 13.2557 13.3681 13.9684C13.6515 14.586 13.9822 15.2987 14.1711 15.9638C14.4073 16.9141 14.5963 17.9118 14.8797 18.862ZM18.6114 26.3213C20.2647 26.5113 21.8708 26.7489 23.5241 26.9389C23.0045 25.9412 22.1542 25.1335 21.3039 24.3258C20.6426 23.7082 20.0285 23.138 19.3672 22.5204C19.1783 22.3303 18.9893 22.1878 18.7531 22.0928C18.5169 21.9978 17.0526 21.7602 16.8164 21.9503C16.4385 22.2353 17.1471 23.1855 17.2888 23.5656C17.4777 24.0408 17.7139 24.5159 17.9501 24.991C18.0446 25.181 18.4697 26.3213 18.6114 26.3213ZM22.107 30.0272C22.2487 30.1222 22.3904 30.1222 22.5321 30.1697C22.9572 30.2172 23.3351 30.3122 23.7603 30.3598C23.9492 30.4073 24.0909 30.4073 24.2326 30.5023C24.3743 30.5973 24.516 30.7398 24.6105 30.8824C26.4528 33.2104 28.2478 35.586 29.9955 37.9616C29.9955 37.0589 29.9955 36.1561 29.9955 35.3009C28.9563 34.3982 27.9644 33.4955 27.0196 32.4978C27.7282 32.5453 28.484 32.7353 29.1453 33.0204C28.295 31.6426 27.4447 30.3122 26.6417 28.9344C26.5945 28.8394 26.5 28.7444 26.4528 28.6493C26.3111 28.5068 26.0749 28.5068 25.8859 28.5068C25.1774 28.4593 24.4688 28.4118 23.7603 28.3168C23.0517 28.2217 22.3431 27.9842 21.6818 27.7941C21.3039 27.6991 20.9733 27.5091 20.5954 27.3665C20.5009 27.319 19.6979 27.129 19.6506 27.129C19.8396 27.6516 20.1702 28.1267 20.5954 28.5068C21.115 28.8869 21.5401 29.6946 22.107 30.0272ZM8.31373 29.5046C8.69163 30.5023 9.11676 31.5 9.58913 32.4978C9.63637 32.5928 9.73084 32.7353 9.82532 32.8303C9.91979 32.8779 10.0143 32.9254 10.1087 32.9254C10.3922 33.0204 10.7228 33.0679 11.0062 33.1629C10.6756 31.8326 10.2032 30.5023 9.63637 29.267C9.21123 28.3643 8.54991 28.0792 7.69965 27.6516C7.79412 28.3643 8.07754 28.8869 8.31373 29.5046ZM11.5259 41.8575C11.9982 42.7127 12.5651 43.5204 13.1319 44.3281C13.1791 43.8055 13.3681 43.3303 13.6988 42.9027C12.943 41.715 12.1399 40.4797 11.3841 39.2919C11.2424 39.0543 11.0535 38.7217 11.2424 38.4842C11.5731 38.7217 11.951 38.9118 12.3761 38.9593C12.1872 38.2466 11.951 37.5815 11.762 36.8688C11.7148 36.7738 11.6676 36.6312 11.5731 36.5362C11.4786 36.4412 11.3369 36.4412 11.2424 36.3937C11.0535 36.2987 11.0062 36.0136 10.959 35.776C10.9118 35.396 10.8645 34.8733 10.6283 34.5883C10.2977 34.1607 9.73084 34.3507 9.25847 34.3032C9.35295 35.0634 9.49466 35.8236 9.68361 36.5837C10.1087 38.3892 10.6283 40.1946 11.5259 41.8575ZM17.525 4.56111C17.7611 5.03623 17.9973 5.46383 18.2808 5.89143C18.6586 6.41405 19.1783 6.88917 19.5089 7.50681C19.9813 8.31451 20.0285 9.26473 20.2647 10.1674C20.5954 11.3077 21.1622 12.3055 21.7291 13.3507C21.918 13.6833 22.107 14.0634 22.3904 14.3484C22.6266 14.6335 22.9572 14.8236 23.2406 15.0136C23.8547 15.4887 24.4216 16.0589 24.8939 16.724C25.0357 16.9616 25.1774 17.1991 25.3663 17.3417C25.5553 17.5317 25.8387 17.6742 26.0276 17.8643C26.5472 18.3869 26.5472 19.3371 27.0668 19.8598C26.5472 18.1018 26.0276 16.2964 25.508 14.5385C25.4608 14.396 25.4135 14.2534 25.3191 14.1109C25.2246 13.9684 25.0829 13.8733 24.9412 13.7308C24.4688 13.3982 23.9964 13.0181 23.4768 12.7806C23.1462 12.638 22.7683 12.4955 22.4849 12.3055C21.918 11.9254 21.6818 11.2127 21.3984 10.595C20.7843 9.1222 20.0758 7.64935 19.2255 6.31903C18.3752 4.89369 17.4777 3.27831 16.2023 2.18555C16.6275 3.08826 17.0998 3.75342 17.525 4.56111ZM27.9171 15.7738C28.9091 15.6312 29.9011 16.1064 30.7041 16.6765C31.5071 17.2466 32.2157 17.9593 33.066 18.5294C32.877 17.8168 32.877 17.0566 33.0187 16.3439C33.5383 16.629 34.1524 16.819 34.7665 16.8665C33.3966 15.3462 31.6016 14.396 29.8538 13.3982C29.5232 13.2082 29.2398 13.0181 28.9563 12.7806C28.4367 12.3055 28.1061 11.6878 28.0588 10.9751C28.0588 11.0702 26.8307 11.0227 26.689 10.9751C26.1221 10.7851 25.7442 10.2625 25.1774 10.1199C25.508 11.1177 26.0749 11.8303 26.5 12.7806C26.689 13.0181 27.8226 15.8213 27.9171 15.7738ZM37.0339 24.1833C36.5143 23.6607 36.5143 22.4254 36.2781 21.7602C36.1364 21.3801 36.0419 21.0475 35.6168 20.9525C35.2389 20.905 34.4358 21.3326 34.1052 21.1426C34.7665 21.4751 35.1444 22.3303 35.664 22.853C36.0891 23.3281 36.5615 23.7082 37.0339 24.1833ZM46.2923 25.0385C46.5285 25.4186 47.3788 25.7512 47.7567 25.8937C47.4733 26.1788 47.1898 26.3688 46.8119 26.5113C47.0954 27.0815 47.3788 27.6991 47.5677 28.3168C47.6622 28.2217 47.8512 28.1742 47.9929 28.2693C47.9456 29.362 48.7487 29.9797 48.9849 30.9299C48.607 29.267 48.8431 27.5091 48.3235 25.9412C48.2291 25.6561 48.1346 25.3711 47.9929 25.086C47.5205 23.9457 47.0481 22.853 46.5758 21.7127C46.5758 22.3779 46.3868 23.138 46.2923 23.8032C46.2923 24.1358 46.1506 24.7059 46.2923 25.0385C46.2923 24.991 46.2923 24.991 46.2923 25.0385ZM35.9474 33.9231C36.2781 34.0181 36.7977 33.9231 37.0811 33.9706C37.2228 33.9706 37.3173 33.9706 37.459 33.9706C37.2228 33.9706 36.6087 33.543 36.3726 33.4005C35.9474 33.1629 35.5223 32.8779 35.0972 32.6403C35.2861 32.9729 35.5223 33.6855 35.8057 33.8756C35.8057 33.8756 35.8529 33.9231 35.9474 33.9231ZM40.8601 39.0068C40.9073 39.1493 40.9546 39.2919 41.049 39.4344C41.1907 39.6245 41.3797 39.7195 41.6159 39.862C42.3244 40.2421 42.9385 40.7647 43.5054 41.3349C43.6471 40.8122 43.7888 40.2421 43.9305 39.7195C44.9697 40.7172 46.0089 41.7625 47.0481 42.7602C47.426 43.1403 47.8512 43.5679 48.0873 44.0905C48.2763 44.4706 48.3708 44.8982 48.4652 45.3733C48.607 46.0385 48.6542 46.7036 48.6542 47.4163C48.5597 47.4163 48.418 47.3688 48.3235 47.3688C48.1346 47.5588 48.1818 47.9389 48.3235 48.224C48.4652 48.5091 48.607 48.7941 48.5597 49.0792C48.7014 48.8417 48.9376 48.6041 49.1738 48.6991C49.2683 48.7466 49.3155 48.7941 49.3628 48.8892C49.7406 49.4118 50.1185 49.9344 50.4964 50.457C50.6381 50.6471 50.8271 50.8846 51.016 51.0272C51.2522 51.1697 51.5357 51.2172 51.7718 51.0272C50.402 48.6041 50.3547 45.4684 48.607 43.3303C47.5677 42.0475 46.0089 41.2398 44.828 40.0521C44.2139 39.4344 43.6943 38.6742 42.9857 38.1516C42.8913 38.0566 42.7496 38.0091 42.6551 37.9616C42.5134 37.9141 42.3244 37.9141 42.1827 37.9141C41.7103 37.9141 41.1435 38.1041 40.7184 37.819C40.5767 37.7715 40.4822 37.629 40.3877 37.534C39.7736 36.9163 39.3957 36.0611 38.5927 35.6335C39.0178 35.8711 39.5374 36.7263 39.8209 37.1064C40.1988 37.6765 40.5767 38.3417 40.8601 39.0068ZM42.8913 55.8733C42.8913 56.2534 42.844 56.586 42.844 56.9661C42.8913 57.8213 43.3636 58.5815 43.7888 59.2941C43.7888 58.7715 43.836 58.2489 44.025 57.7738C44.1194 57.4887 44.2139 57.2036 44.2611 56.9186C44.3084 56.4435 44.1194 55.9684 43.9305 55.4932C43.5998 54.6856 43.2219 53.8303 42.8913 53.0227C42.7023 52.5951 42.5134 52.1199 42.1827 51.7874C41.8521 51.4073 41.3797 51.1222 41.049 50.6946C41.1435 51.0747 41.5214 51.3598 41.7576 51.6923C42.041 52.1199 42.2772 52.5475 42.4661 53.0227C42.7496 53.8779 42.9385 54.8756 42.8913 55.8733ZM21.0677 52.7376C21.2567 53.0227 21.4456 53.3552 21.7763 53.4503C21.8708 53.4978 22.0125 53.4978 22.107 53.5453C22.2014 53.5928 22.2959 53.6878 22.3431 53.7353C22.8155 54.2579 23.3351 54.7806 23.8075 55.3032C24.2799 55.8258 24.7995 56.3484 25.2246 56.9186C25.9332 57.8213 26.5472 58.9141 27.5865 59.3417C25.9804 56.7285 24.3743 54.0679 22.2959 51.7874C22.107 52.0724 21.8708 52.31 21.5401 52.5C21.3039 52.5 20.3592 50.8371 20.1702 50.5996C19.6979 49.9344 19.2255 49.2693 18.7531 48.6516C19.32 50.077 20.3119 51.4073 21.0677 52.7376Z" fill="url(#paint21_linear_52_324)"/>
<path d="M46.8592 37.6767C47.2371 37.9617 47.615 38.1993 48.0401 38.2943C48.4652 38.3893 48.9849 38.2943 49.2683 37.9142C49.5517 37.5816 49.5517 37.1065 49.5045 36.6314C49.2683 34.2083 48.1346 31.8328 46.3868 30.1699C46.1979 29.9798 46.0089 29.7898 45.7255 29.6948C45.3004 29.5522 44.8752 29.6472 44.4501 29.7423C43.9777 29.8848 43.4109 30.0273 43.1747 30.4549C42.7023 31.3101 43.7415 33.5907 44.1667 34.3984C44.7335 35.7287 45.7255 36.8215 46.8592 37.6767Z" fill="url(#paint22_linear_52_324)"/>
<path d="M41.0018 34.4932C41.3324 34.5883 41.7103 34.5408 41.9465 34.3032C42.23 34.0181 42.1827 33.543 42.1355 33.1154C42.041 32.5928 41.8048 32.0702 41.5686 31.5951C41.3797 31.215 41.0963 30.8824 40.7656 30.6448C39.6319 29.8846 38.451 30.9774 38.7816 32.2127C38.9706 32.9729 40.246 34.2557 41.0018 34.4932Z" fill="url(#paint23_linear_52_324)"/>
<path d="M30.5152 55.826C30.8931 55.9685 31.2709 56.016 31.6961 55.9685C32.5936 55.826 33.1604 54.8757 33.1604 53.9255C33.1604 53.0228 32.7353 52.1676 32.2157 51.4074C31.8378 50.7898 31.3654 50.1721 30.8458 49.697C29.9955 48.9368 28.9091 48.4617 27.7754 48.4142C25.8387 48.3192 24.8467 50.4572 25.7914 52.0251C26.7834 53.8305 28.5312 55.2083 30.5152 55.826Z" fill="url(#paint24_linear_52_324)"/>
</g>
<defs>
<linearGradient id="paint0_linear_52_324" x1="9.14176" y1="35.2689" x2="18.2807" y2="54.1043" gradientUnits="userSpaceOnUse">
<stop offset="0.213542" stop-color="#7B9B24"/>
<stop offset="1" stop-color="#191919"/>
</linearGradient>
<linearGradient id="paint1_linear_52_324" x1="20.7148" y1="16.5097" x2="32.3204" y2="62.1921" gradientUnits="userSpaceOnUse">
<stop offset="0.213542" stop-color="#7B9B24"/>
<stop offset="1" stop-color="#191919"/>
</linearGradient>
<linearGradient id="paint2_linear_52_324" x1="29.8003" y1="23.534" x2="37.3716" y2="52.3743" gradientUnits="userSpaceOnUse">
<stop offset="0.213542" stop-color="#7B9B24"/>
<stop offset="1" stop-color="#191919"/>
</linearGradient>
<linearGradient id="paint3_linear_52_324" x1="11.851" y1="-0.197964" x2="29.0088" y2="51.9371" gradientUnits="userSpaceOnUse">
<stop offset="0.213542" stop-color="#7B9B24"/>
<stop offset="1" stop-color="#191919"/>
</linearGradient>
<linearGradient id="paint4_linear_52_324" x1="10.8562" y1="3.91305" x2="25.3208" y2="49.8161" gradientUnits="userSpaceOnUse">
<stop offset="0.213542" stop-color="#7B9B24"/>
<stop offset="1" stop-color="#191919"/>
</linearGradient>
<linearGradient id="paint5_linear_52_324" x1="8.93059" y1="26.7492" x2="22.2213" y2="44.2867" gradientUnits="userSpaceOnUse">
<stop offset="0.213542" stop-color="#7B9B24"/>
<stop offset="1" stop-color="#191919"/>
</linearGradient>
<linearGradient id="paint6_linear_52_324" x1="13.1125" y1="5.39012" x2="26.4711" y2="34.6374" gradientUnits="userSpaceOnUse">
<stop offset="0.213542" stop-color="#7B9B24"/>
<stop offset="1" stop-color="#191919"/>
</linearGradient>
<linearGradient id="paint7_linear_52_324" x1="26.3916" y1="30.9846" x2="29.9626" y2="41.5423" gradientUnits="userSpaceOnUse">
<stop offset="0.213542" stop-color="#7B9B24"/>
<stop offset="1" stop-color="#191919"/>
</linearGradient>
<linearGradient id="paint8_linear_52_324" x1="19.7368" y1="-0.0962053" x2="28.5415" y2="24.8804" gradientUnits="userSpaceOnUse">
<stop offset="0.213542" stop-color="#7B9B24"/>
<stop offset="1" stop-color="#191919"/>
</linearGradient>
<linearGradient id="paint9_linear_52_324" x1="30.2484" y1="14.7682" x2="34.4736" y2="29.7901" gradientUnits="userSpaceOnUse">
<stop offset="0.213542" stop-color="#7B9B24"/>
<stop offset="1" stop-color="#191919"/>
</linearGradient>
<linearGradient id="paint10_linear_52_324" x1="21.6763" y1="5.91102" x2="24.0732" y2="13.2898" gradientUnits="userSpaceOnUse">
<stop offset="0.213542" stop-color="#7B9B24"/>
<stop offset="1" stop-color="#191919"/>
</linearGradient>
<linearGradient id="paint11_linear_52_324" x1="18.0168" y1="12.1537" x2="22.8078" y2="27.2049" gradientUnits="userSpaceOnUse">
<stop offset="0.213542" stop-color="#7B9B24"/>
<stop offset="1" stop-color="#191919"/>
</linearGradient>
<linearGradient id="paint12_linear_52_324" x1="21.5929" y1="46.9284" x2="26.4343" y2="63.1013" gradientUnits="userSpaceOnUse">
<stop offset="0.213542" stop-color="#7B9B24"/>
<stop offset="1" stop-color="#191919"/>
</linearGradient>
<linearGradient id="paint13_linear_52_324" x1="21.9597" y1="48.4066" x2="26.1483" y2="63.2237" gradientUnits="userSpaceOnUse">
<stop offset="0.213542" stop-color="#7B9B24"/>
<stop offset="1" stop-color="#191919"/>
</linearGradient>
<linearGradient id="paint14_linear_52_324" x1="39.9014" y1="47.7439" x2="45.9532" y2="60.1016" gradientUnits="userSpaceOnUse">
<stop offset="0.213542" stop-color="#7B9B24"/>
<stop offset="1" stop-color="#191919"/>
</linearGradient>
<linearGradient id="paint15_linear_52_324" x1="39.6375" y1="47.7439" x2="46.1671" y2="59.4108" gradientUnits="userSpaceOnUse">
<stop offset="0.213542" stop-color="#7B9B24"/>
<stop offset="1" stop-color="#191919"/>
</linearGradient>
<linearGradient id="paint16_linear_52_324" x1="39.0623" y1="30.7038" x2="45.4259" y2="53.2208" gradientUnits="userSpaceOnUse">
<stop offset="0.213542" stop-color="#7B9B24"/>
<stop offset="1" stop-color="#191919"/>
</linearGradient>
<linearGradient id="paint17_linear_52_324" x1="39.0956" y1="30.8469" x2="45.3963" y2="53.2321" gradientUnits="userSpaceOnUse">
<stop offset="0.213542" stop-color="#7B9B24"/>
<stop offset="1" stop-color="#191919"/>
</linearGradient>
<linearGradient id="paint18_linear_52_324" x1="45.3893" y1="40.4585" x2="47.2442" y2="45.9501" gradientUnits="userSpaceOnUse">
<stop offset="0.213542" stop-color="#7B9B24"/>
<stop offset="1" stop-color="#191919"/>
</linearGradient>
<linearGradient id="paint19_linear_52_324" x1="44.1417" y1="20.1453" x2="48.7244" y2="32.1482" gradientUnits="userSpaceOnUse">
<stop offset="0.213542" stop-color="#7B9B24"/>
<stop offset="1" stop-color="#191919"/>
</linearGradient>
<linearGradient id="paint20_linear_52_324" x1="43.9888" y1="20.1472" x2="48.4526" y2="31.5821" gradientUnits="userSpaceOnUse">
<stop offset="0.213542" stop-color="#7B9B24"/>
<stop offset="1" stop-color="#191919"/>
</linearGradient>
<linearGradient id="paint21_linear_52_324" x1="16.8609" y1="1.97003" x2="33.7816" y2="59.9372" gradientUnits="userSpaceOnUse">
<stop offset="0.213542" stop-color="#7B9B24"/>
<stop offset="1" stop-color="#191919"/>
</linearGradient>
<linearGradient id="paint22_linear_52_324" x1="44.9582" y1="29.5892" x2="47.8765" y2="38.1803" gradientUnits="userSpaceOnUse">
<stop offset="0.213542" stop-color="#7B9B24"/>
<stop offset="1" stop-color="#191919"/>
</linearGradient>
<linearGradient id="paint23_linear_52_324" x1="39.7387" y1="30.3779" x2="41.0079" y2="34.5549" gradientUnits="userSpaceOnUse">
<stop offset="0.213542" stop-color="#7B9B24"/>
<stop offset="1" stop-color="#191919"/>
</linearGradient>
<linearGradient id="paint24_linear_52_324" x1="27.7036" y1="48.3826" x2="29.648" y2="56.2386" gradientUnits="userSpaceOnUse">
<stop offset="0.213542" stop-color="#7B9B24"/>
<stop offset="1" stop-color="#191919"/>
</linearGradient>
<clipPath id="clip0_52_324">
<rect width="53" height="63" fill="white"/>
</clipPath>
</defs>
</svg>
