<svg width="230" height="230" viewBox="0 0 230 230" fill="none" xmlns="http://www.w3.org/2000/svg">
<path opacity="0.996" d="M20.1068 139.701L95.1515 96.5292C98.1083 94.8221 102.454 94.9901 105.12 96.5292L179.992 139.701C180.817 140.169 181.503 140.848 181.98 141.667C182.457 142.487 182.709 143.419 182.709 144.367C182.709 145.315 182.457 146.247 181.98 147.066C181.503 147.886 180.817 148.565 179.992 149.033L102.766 193.403C101.942 193.885 101.004 194.14 100.049 194.14C99.0942 194.14 98.1564 193.885 97.3323 193.403L20.1068 149.033C16.3194 147.069 16.3194 141.829 20.1068 139.701Z" fill="url(#paint0_radial_44_2798)" stroke="#1F8885" stroke-opacity="0.49" stroke-width="0.442725"/>
<mask id="mask0_44_2798" style="mask-type:luminance" maskUnits="userSpaceOnUse" x="17" y="95" width="166" height="100">
<path d="M20.1068 139.701L95.1515 96.5292C98.1083 94.8221 102.454 94.9901 105.12 96.5292L179.992 139.701C180.817 140.169 181.503 140.848 181.98 141.667C182.457 142.487 182.709 143.419 182.709 144.367C182.709 145.315 182.457 146.247 181.98 147.066C181.503 147.886 180.817 148.565 179.992 149.033L102.766 193.403C101.942 193.885 101.004 194.14 100.049 194.14C99.0942 194.14 98.1564 193.885 97.3323 193.403L20.1068 149.033C16.3194 147.069 16.3194 141.829 20.1068 139.701Z" fill="white"/>
</mask>
<g mask="url(#mask0_44_2798)">
<path d="M20.1068 148.331L95.1515 105.159C98.1083 103.452 102.454 103.62 105.12 105.159L179.992 148.331C180.817 148.799 181.503 149.478 181.98 150.297C182.457 151.117 182.709 152.048 182.709 152.997C182.709 153.945 182.457 154.877 181.98 155.696C181.503 156.516 180.817 157.194 179.992 157.663L102.766 202.033C101.942 202.515 101.004 202.769 100.049 202.769C99.0942 202.769 98.1564 202.515 97.3323 202.033L20.1068 157.663C16.3194 155.698 16.3194 150.459 20.1068 148.331Z" fill="url(#paint1_linear_44_2798)"/>
</g>
<path opacity="0.996" d="M31.9384 140.378L95.8191 103.629C98.3366 102.175 102.035 102.318 104.304 103.629L168.038 140.378C168.74 140.776 169.324 141.354 169.73 142.052C170.137 142.749 170.351 143.542 170.351 144.35C170.351 145.157 170.137 145.95 169.73 146.648C169.324 147.346 168.74 147.923 168.038 148.322L102.301 186.09C101.599 186.501 100.801 186.718 99.9881 186.718C99.1752 186.718 98.3769 186.501 97.6753 186.09L31.9384 148.322C28.7146 146.649 28.7146 142.19 31.9384 140.378Z" fill="url(#paint2_radial_44_2798)" stroke="#1F8885" stroke-opacity="0.49" stroke-width="0.442725"/>
<mask id="mask1_44_2798" style="mask-type:luminance" maskUnits="userSpaceOnUse" x="29" y="102" width="142" height="85">
<path d="M31.9384 140.378L95.8191 103.629C98.3366 102.175 102.035 102.318 104.304 103.629L168.038 140.378C168.74 140.776 169.324 141.354 169.73 142.052C170.137 142.749 170.351 143.542 170.351 144.35C170.351 145.157 170.137 145.95 169.73 146.648C169.324 147.346 168.74 147.923 168.038 148.322L102.301 186.09C101.599 186.501 100.801 186.718 99.9881 186.718C99.1752 186.718 98.3769 186.501 97.6753 186.09L31.9384 148.322C28.7146 146.649 28.7146 142.19 31.9384 140.378Z" fill="white"/>
</mask>
<g mask="url(#mask1_44_2798)">
<path d="M31.9384 133.571L95.8191 96.8217C98.3366 95.3686 102.035 95.5116 104.304 96.8217L168.038 133.571C168.74 133.969 169.324 134.547 169.73 135.245C170.137 135.943 170.351 136.736 170.351 137.543C170.351 138.35 170.137 139.143 169.73 139.841C169.324 140.539 168.74 141.116 168.038 141.515L102.301 179.284C101.599 179.694 100.801 179.911 99.9881 179.911C99.1752 179.911 98.3769 179.694 97.6753 179.284L31.9384 141.515C28.7146 139.843 28.7146 135.383 31.9384 133.571Z" fill="#325B2B"/>
</g>
<path opacity="0.769" d="M118.204 38.0021L181.204 73.317C184.635 75.6059 184.423 75.9678 184.618 79.2613L184.787 131.232C184.787 133.675 182.758 136.378 180.362 135.138L116.421 98.8317C113.951 97.3717 113.642 96.2067 113.642 93.763V41.3249C113.938 35.7512 118.204 38.0021 118.204 38.0021Z" fill="url(#paint3_linear_44_2798)"/>
<path opacity="0.459" d="M121.848 36.3101L184.848 71.6249C188.279 73.9139 188.067 74.2758 188.262 77.5693L188.431 129.54C188.431 131.983 186.402 134.686 184.006 133.446L120.065 97.1397C117.595 95.6797 117.286 94.5147 117.286 92.071V39.6329C117.582 34.0592 121.848 36.3101 121.848 36.3101Z" fill="url(#paint4_linear_44_2798)"/>
<path d="M52.0364 137.342L97.1977 111.361C98.9767 110.334 101.592 110.435 103.196 111.361L148.254 137.342C148.75 137.623 149.163 138.032 149.45 138.525C149.737 139.018 149.889 139.579 149.889 140.15C149.889 140.721 149.737 141.281 149.45 141.774C149.163 142.268 148.75 142.676 148.254 142.958L101.78 169.659C101.284 169.949 100.72 170.103 100.145 170.103C99.5704 170.103 99.0061 169.949 98.5101 169.659L52.0364 142.958C49.7573 141.775 49.7573 138.622 52.0364 137.342Z" fill="url(#paint5_linear_44_2798)"/>
<path d="M59.9636 137.238L97.4798 115.656C98.9579 114.802 101.13 114.886 102.463 115.656L139.893 137.238C140.305 137.472 140.648 137.811 140.887 138.221C141.126 138.631 141.252 139.097 141.252 139.571C141.252 140.045 141.126 140.511 140.887 140.921C140.648 141.331 140.305 141.67 139.893 141.904L101.286 164.085C100.874 164.326 100.406 164.453 99.9281 164.453C99.4507 164.453 98.9819 164.326 98.5699 164.085L59.9636 141.903C58.0703 140.921 58.0703 138.302 59.9636 137.238Z" fill="url(#paint6_linear_44_2798)"/>
<path d="M59.9636 110.313L97.4798 88.7307C98.9579 87.8772 101.13 87.9613 102.463 88.7307L139.893 110.313C140.305 110.547 140.648 110.886 140.887 111.296C141.126 111.706 141.252 112.172 141.252 112.646C141.252 113.12 141.126 113.586 140.887 113.996C140.648 114.406 140.305 114.745 139.893 114.979L101.286 137.159C100.874 137.401 100.406 137.528 99.9281 137.528C99.4507 137.528 98.9819 137.401 98.5699 137.159L59.9636 114.978C58.0703 113.996 58.0703 111.377 59.9636 110.313Z" fill="url(#paint7_linear_44_2798)"/>
<path d="M63.1579 110.011L97.6724 90.1553C99.0319 89.3702 101.031 89.4475 102.257 90.1553L136.693 110.011C137.072 110.226 137.388 110.538 137.608 110.915C137.827 111.292 137.943 111.72 137.943 112.157C137.943 112.593 137.827 113.021 137.608 113.398C137.388 113.775 137.072 114.087 136.693 114.303L101.175 134.71C100.796 134.932 100.365 135.049 99.9258 135.049C99.4866 135.049 99.0553 134.932 98.6762 134.71L63.1579 114.303C61.4159 113.4 61.4159 110.99 63.1579 110.011Z" fill="url(#paint8_linear_44_2798)"/>
<path d="M64.3864 109.329L97.7475 90.1366C99.062 89.3776 100.994 89.4525 102.178 90.1366L135.463 109.329C135.83 109.537 136.135 109.839 136.347 110.203C136.559 110.567 136.671 110.981 136.671 111.403C136.671 111.825 136.559 112.239 136.347 112.603C136.135 112.968 135.83 113.269 135.463 113.477L101.133 133.202C100.766 133.416 100.349 133.529 99.9248 133.529C99.5003 133.529 99.0834 133.416 98.7171 133.202L64.3864 113.478C62.7025 112.604 62.7025 110.275 64.3864 109.329Z" fill="url(#paint9_linear_44_2798)"/>
<path d="M59.9632 86.3221L97.4796 64.7396C98.9578 63.8861 101.13 63.9702 102.463 64.7396L139.893 86.3221C140.305 86.5561 140.648 86.8953 140.887 87.3051C141.126 87.715 141.252 88.1808 141.252 88.655C141.252 89.1293 141.126 89.5951 140.887 90.0049C140.648 90.4148 140.305 90.754 139.893 90.988L101.617 113.169C101.286 113.534 99.2404 113.66 98.4172 113.169L59.9632 91.2555C58.07 90.2728 58.07 87.386 59.9632 86.3221Z" fill="url(#paint10_linear_44_2798)"/>
<path d="M58.5432 112.48C58.3789 110.645 58.5432 139.868 58.5432 139.868C58.5432 139.868 58.4065 141.097 60.3172 142.161C62.2279 143.225 95.8963 162.558 97.0154 163.133C98.1346 163.708 99.4047 165.434 102.655 163.294C105.905 161.154 139.641 142.161 139.641 142.161C139.641 142.161 141.387 141.23 141.523 139.868C141.659 138.506 141.288 112.48 141.288 112.48C140.961 113.474 140.301 114.325 139.419 114.888C137.964 115.789 102.367 136.078 102.367 136.078C102.367 136.078 100.348 138.018 97.2269 136.078C94.1061 134.139 60.3172 114.888 60.3172 114.888C59.829 114.688 59.4052 114.358 59.0923 113.933C58.7794 113.508 58.5895 113.005 58.5432 112.48Z" fill="url(#paint11_linear_44_2798)"/>
<path d="M58.5432 112.48C58.3789 110.645 58.5432 139.868 58.5432 139.868C58.5432 139.868 58.4065 141.097 60.3172 142.161C62.2279 143.225 95.8963 162.558 97.0154 163.133C98.1346 163.708 99.4047 165.434 102.655 163.294C105.905 161.154 139.641 142.161 139.641 142.161C139.641 142.161 141.387 141.23 141.523 139.868C141.659 138.506 141.288 112.48 141.288 112.48C140.961 113.474 140.301 114.325 139.419 114.888C137.964 115.789 102.367 136.078 102.367 136.078C102.367 136.078 100.348 138.018 97.2269 136.078C94.1061 134.139 60.3172 114.888 60.3172 114.888C59.829 114.688 59.4052 114.358 59.0923 113.933C58.7794 113.508 58.5895 113.005 58.5432 112.48Z" fill="url(#paint12_linear_44_2798)"/>
<path d="M58.5432 88.8338C58.3789 86.9991 58.5432 106.039 58.5432 106.039C58.5432 106.039 58.4065 107.268 60.3172 108.332C62.2279 109.395 95.8964 128.729 97.0159 129.304C98.1354 129.879 99.4052 131.605 102.655 129.465C105.905 127.325 139.642 108.332 139.642 108.332C139.642 108.332 141.387 107.401 141.523 106.039C141.659 104.677 141.288 88.8336 141.288 88.8336C140.962 89.828 140.301 90.679 139.419 91.2424C137.965 92.1429 102.367 112.433 102.367 112.433C102.367 112.433 100.348 114.372 97.2274 112.433C94.1066 110.493 60.3177 91.2424 60.3177 91.2424C59.8294 91.0423 59.4056 90.7118 59.0927 90.287C58.7797 89.8622 58.5896 89.3594 58.5432 88.8338Z" fill="url(#paint13_linear_44_2798)"/>
<g filter="url(#filter0_d_44_2798)">
<g opacity="0.322">
<path d="M100.007 99.5842C109.552 99.5842 117.29 94.4734 117.29 88.169C117.29 81.8645 109.552 76.7538 100.007 76.7538C90.4613 76.7538 82.7232 81.8645 82.7232 88.169C82.7232 94.4734 90.4613 99.5842 100.007 99.5842Z" stroke="#3F3C58" stroke-width="4.42725"/>
</g>
</g>
<g filter="url(#filter1_d_44_2798)">
<g opacity="0.322">
<path d="M100.18 96.0289C107.476 96.0289 113.391 92.278 113.391 87.6509C113.391 83.0239 107.476 79.2729 100.18 79.2729C92.8841 79.2729 86.9695 83.0239 86.9695 87.6509C86.9695 92.278 92.8841 96.0289 100.18 96.0289Z" stroke="#3F3C58" stroke-width="1.32817"/>
</g>
</g>
<path opacity="0.697" d="M183.65 75.0588C183.139 74.506 186.792 73.0637 186.792 73.0637C186.792 73.0637 188.184 73.6655 188.242 75.8231C188.299 77.9807 188.394 128.836 188.394 128.836C188.394 128.836 188.794 131.278 187.032 133.029C185.271 134.78 181.868 135.558 181.868 135.558C181.868 135.558 183.098 135.178 183.838 134.17C184.578 133.162 184.832 131.524 184.832 131.524L184.596 77.654C184.596 77.654 184.16 75.6115 183.65 75.0588Z" fill="url(#paint14_linear_44_2798)"/>
<g filter="url(#filter2_d_44_2798)">
<path opacity="0.085" d="M93.5537 109.845C93.6041 109.896 98.168 113.082 100.221 112.967C101.055 112.921 141.034 90.7975 141.078 88.7912C141.122 86.7848 138.039 85.4895 138.039 85.4895L102.796 65.3264C102.796 65.3264 100.228 63.3942 97.0859 65.3264C87.2792 70.9658 65.0607 83.6107 61.2552 85.7859C56.3644 88.5817 60.5776 91.0033 60.5776 91.0033C60.5776 91.0033 93.4822 109.773 93.5537 109.845Z" stroke="#1ABFB4" stroke-width="1.7709" stroke-linecap="round"/>
</g>
<path opacity="0.848" d="M116.126 37.5527C115.395 37.7312 119.244 36.0202 119.244 36.0202C119.244 36.0202 120.185 35.5266 122.099 36.522C124.014 37.5175 170.121 63.3228 170.121 63.3228L166.875 65.3609L119.244 38.544C119.244 38.544 116.857 37.3743 116.126 37.5527Z" fill="url(#paint15_linear_44_2798)"/>
<path d="M96.4414 68.5509L99.7933 66.6469C99.9228 66.6249 100.055 66.6249 100.185 66.6469L103.486 68.5509C103.523 68.5715 103.553 68.6014 103.574 68.6375C103.595 68.6737 103.606 68.7147 103.606 68.7565C103.606 68.7983 103.595 68.8393 103.574 68.8754C103.553 68.9115 103.523 68.9414 103.486 68.9621L100.083 70.9171C100.047 70.9383 100.006 70.9495 99.9637 70.9495C99.9216 70.9495 99.8803 70.9383 99.844 70.9171L96.4414 68.9621C96.4037 68.9426 96.3721 68.9131 96.35 68.8768C96.3279 68.8406 96.3162 68.7989 96.3162 68.7565C96.3162 68.714 96.3279 68.6724 96.35 68.6361C96.3721 68.5999 96.4037 68.5704 96.4414 68.5509Z" fill="url(#paint16_linear_44_2798)"/>
<path d="M96.4414 68.5509L99.7479 66.6486C99.8157 66.6134 99.891 66.595 99.9675 66.595C100.044 66.595 100.119 66.6134 100.187 66.6486L103.486 68.5509C103.523 68.5716 103.553 68.6015 103.574 68.6376C103.595 68.6737 103.606 68.7147 103.606 68.7565C103.606 68.7983 103.595 68.8393 103.574 68.8755C103.553 68.9116 103.523 68.9415 103.486 68.9621L100.084 70.9171C100.047 70.9384 100.006 70.9496 99.9638 70.9496C99.9217 70.9496 99.8804 70.9384 99.844 70.9171L96.4414 68.9621C96.4037 68.9426 96.3721 68.9131 96.35 68.8769C96.328 68.8406 96.3163 68.799 96.3163 68.7565C96.3163 68.7141 96.328 68.6724 96.35 68.6362C96.3721 68.5999 96.4037 68.5704 96.4414 68.5509Z" fill="url(#paint17_linear_44_2798)"/>
<path opacity="0.399" d="M103.602 68.789C103.607 68.9065 103.452 68.9816 103.452 68.9816C103.452 68.9816 102.884 69.3078 102.215 69.6938C101.378 70.1747 100.379 70.7493 100.213 70.8455C100.139 70.8963 100.051 70.9235 99.9613 70.9235C99.8714 70.9235 99.7837 70.8963 99.7095 70.8455L96.3936 68.9283C96.3936 68.9283 96.3209 68.8984 96.3184 68.7678" stroke="white" stroke-width="0.442725" stroke-linecap="round" stroke-linejoin="round"/>
<path d="M97.3514 68.6088L99.8689 67.2056C99.8958 67.1898 99.9264 67.1815 99.9576 67.1815C99.9887 67.1815 100.019 67.1898 100.046 67.2056L102.564 68.6088C102.591 68.6241 102.613 68.6462 102.629 68.673C102.644 68.6997 102.652 68.7301 102.652 68.761C102.652 68.7919 102.644 68.8223 102.629 68.849C102.613 68.8758 102.591 68.8979 102.564 68.9131L100.046 70.3599C100.019 70.3756 99.9887 70.3839 99.9576 70.3839C99.9264 70.3839 99.8958 70.3756 99.8689 70.3599L97.3514 68.9131C97.3235 68.8987 97.3001 68.8769 97.2838 68.85C97.2675 68.8232 97.2589 68.7924 97.2589 68.761C97.2589 68.7296 97.2675 68.6988 97.2838 68.672C97.3001 68.6451 97.3235 68.6233 97.3514 68.6088Z" fill="url(#paint18_linear_44_2798)"/>
<path d="M98.505 68.6128L99.8917 67.824C99.9453 67.8149 100 67.8149 100.054 67.824L101.419 68.6128C101.434 68.6214 101.447 68.6337 101.456 68.6487C101.464 68.6636 101.469 68.6806 101.469 68.6979C101.469 68.7152 101.464 68.7322 101.456 68.7472C101.447 68.7621 101.434 68.7745 101.419 68.783L100.012 69.591C99.9967 69.5998 99.9796 69.6044 99.9622 69.6044C99.9448 69.6044 99.9277 69.5998 99.9127 69.591L98.505 68.7823C98.4896 68.7742 98.4766 68.7621 98.4676 68.7471C98.4585 68.7322 98.4537 68.7151 98.4537 68.6976C98.4537 68.6801 98.4585 68.663 98.4676 68.648C98.4766 68.6331 98.4896 68.6209 98.505 68.6128Z" fill="url(#paint19_linear_44_2798)"/>
<path d="M98.505 68.6122L99.8729 67.8252C99.901 67.8106 99.9322 67.803 99.9638 67.803C99.9954 67.803 100.027 67.8106 100.055 67.8252L101.419 68.6122C101.434 68.6207 101.447 68.6331 101.456 68.648C101.464 68.663 101.469 68.68 101.469 68.6973C101.469 68.7146 101.464 68.7316 101.456 68.7465C101.447 68.7615 101.434 68.7738 101.419 68.7824L100.012 69.591C99.9967 69.5998 99.9796 69.6044 99.9622 69.6044C99.9448 69.6044 99.9277 69.5998 99.9127 69.591L98.505 68.7822C98.4894 68.7742 98.4763 68.762 98.4672 68.747C98.4581 68.732 98.4532 68.7148 98.4532 68.6972C98.4532 68.6796 98.4581 68.6624 98.4672 68.6474C98.4763 68.6324 98.4894 68.6202 98.505 68.6122Z" fill="url(#paint20_linear_44_2798)"/>
<path opacity="0.399" d="M101.467 68.711C101.469 68.7597 101.405 68.7906 101.405 68.7906C101.405 68.7906 101.171 68.9249 100.892 69.0852C100.546 69.2842 100.133 69.5216 100.065 69.5618C100.034 69.583 99.9977 69.5943 99.9603 69.5943C99.923 69.5943 99.8865 69.583 99.8558 69.5618L98.4842 68.7688C98.4842 68.7688 98.4544 68.7564 98.4537 68.7017" stroke="white" stroke-width="0.442725" stroke-linecap="round" stroke-linejoin="round"/>
<path d="M98.8811 68.6362L99.9233 68.0556C99.9345 68.0491 99.9471 68.0457 99.96 68.0457C99.9729 68.0457 99.9856 68.0491 99.9967 68.0556L101.038 68.6362C101.05 68.6425 101.059 68.6516 101.065 68.6627C101.072 68.6737 101.075 68.6863 101.075 68.6991C101.075 68.7119 101.072 68.7245 101.065 68.7355C101.059 68.7466 101.05 68.7557 101.038 68.762L99.9967 69.3606C99.9856 69.3671 99.9729 69.3705 99.96 69.3705C99.9471 69.3705 99.9345 69.3671 99.9233 69.3606L98.8811 68.762C98.8695 68.7561 98.8598 68.7471 98.8531 68.736C98.8463 68.7249 98.8427 68.7121 98.8427 68.6991C98.8427 68.6861 98.8463 68.6734 98.8531 68.6623C98.8598 68.6512 98.8695 68.6421 98.8811 68.6362Z" fill="url(#paint21_linear_44_2798)"/>
<path d="M100.007 91.6205C103.725 91.6205 106.739 89.5341 106.739 86.9604C106.739 84.3868 103.725 82.3004 100.007 82.3004C96.2897 82.3004 93.276 84.3868 93.276 86.9604C93.276 89.5341 96.2897 91.6205 100.007 91.6205Z" fill="url(#paint22_linear_44_2798)"/>
<path d="M100.007 91.5365C103.679 91.5365 106.655 89.4877 106.655 86.9604C106.655 84.4331 103.679 82.3843 100.007 82.3843C96.3361 82.3843 93.36 84.4331 93.36 86.9604C93.36 89.4877 96.3361 91.5365 100.007 91.5365Z" stroke="#3F3C58" stroke-width="0.442725"/>
<path d="M93.3912 88.2407C93.0637 88.3226 93.6387 37.0438 93.6387 37.0438C93.6387 37.0438 106.605 44.7949 106.605 48.4973V87.8079C106.605 87.8079 99.6853 81.8934 93.3912 88.2407Z" fill="url(#paint23_linear_44_2798)"/>
<g opacity="0.206">
<path d="M99.7998 71.2453C99.6841 71.3273 99.5962 71.4427 99.548 71.5761C99.4998 71.7095 99.4936 71.8545 99.5302 71.9915C99.5668 72.1285 99.6444 72.2511 99.7527 72.3427C99.861 72.4343 99.9947 72.4906 100.136 72.504C100.277 72.5174 100.419 72.4872 100.543 72.4176C100.666 72.348 100.765 72.2422 100.827 72.1145C100.889 71.9868 100.91 71.8432 100.888 71.7031C100.865 71.5631 100.801 71.4332 100.703 71.3309C100.697 71.3207 100.689 71.3119 100.679 71.3048C100.594 71.2448 100.523 71.1662 100.473 71.075C100.422 70.9839 100.393 70.8824 100.387 70.7783C100.387 70.581 100.434 70.4779 100.679 70.2413L100.674 70.2339C100.777 70.1387 100.848 70.0148 100.879 69.8784C100.91 69.742 100.899 69.5994 100.847 69.4694C100.796 69.3393 100.706 69.2279 100.59 69.1496C100.474 69.0713 100.338 69.0298 100.198 69.0305C100.058 69.0313 99.9214 69.0742 99.8064 69.1538C99.6914 69.2333 99.603 69.3457 99.5529 69.4763C99.5028 69.6069 99.4934 69.7496 99.5257 69.8856C99.558 70.0217 99.6307 70.1448 99.7342 70.2389L99.7317 70.2426C99.9762 70.4776 100.024 70.5816 100.024 70.7797C100.019 70.8683 99.9974 70.9552 99.959 71.0352C99.9205 71.1152 99.8664 71.1866 99.7998 71.2453Z" fill="white"/>
<path d="M102.618 74.5976C102.618 74.4818 102.59 74.3679 102.534 74.2662C102.479 74.1644 102.4 74.078 102.303 74.0148C102.206 73.9517 102.094 73.9137 101.979 73.9044C101.864 73.895 101.748 73.9146 101.642 73.9614C101.536 74.0082 101.444 74.0807 101.373 74.1722C101.302 74.2638 101.255 74.3716 101.237 74.4858C101.218 74.6001 101.228 74.7171 101.266 74.8264C101.305 74.9357 101.369 75.0337 101.455 75.1116L101.452 75.1142C101.697 75.3491 101.744 75.4532 101.744 75.6513C101.741 75.7402 101.719 75.8275 101.681 75.9078C101.642 75.988 101.588 76.0596 101.521 76.1182C101.405 76.2002 101.317 76.3156 101.269 76.449C101.221 76.5824 101.214 76.7273 101.251 76.8644C101.288 77.0014 101.365 77.124 101.473 77.2156C101.582 77.3072 101.715 77.3635 101.857 77.3769C101.998 77.3904 102.14 77.3602 102.263 77.2906C102.387 77.221 102.486 77.1153 102.548 76.9876C102.61 76.8599 102.631 76.7163 102.609 76.5762C102.586 76.4362 102.522 76.3063 102.424 76.2039C102.417 76.1938 102.409 76.185 102.4 76.1779C102.315 76.1179 102.244 76.0393 102.194 75.9481C102.143 75.8569 102.114 75.7555 102.108 75.6514C102.108 75.454 102.155 75.3508 102.4 75.1143L102.395 75.1068C102.466 75.0421 102.522 74.9634 102.56 74.8757C102.599 74.7881 102.619 74.6933 102.618 74.5976Z" fill="white"/>
<path d="M98.0775 76.1164C97.9618 76.1984 97.8739 76.3138 97.8257 76.4472C97.7775 76.5806 97.7712 76.7256 97.8078 76.8626C97.8444 76.9997 97.922 77.1222 98.0303 77.2139C98.1385 77.3055 98.2722 77.3618 98.4134 77.3752C98.5546 77.3886 98.6966 77.3585 98.8201 77.2889C98.9437 77.2193 99.0431 77.1135 99.1048 76.9858C99.1665 76.8581 99.1876 76.7146 99.1654 76.5745C99.1432 76.4344 99.0786 76.3045 98.9803 76.2022C98.9742 76.1921 98.9662 76.1832 98.9567 76.1762C98.8715 76.1161 98.801 76.0375 98.7504 75.9464C98.6999 75.8552 98.6706 75.7538 98.6648 75.6497C98.6648 75.4523 98.712 75.3493 98.9567 75.1126L98.9516 75.1052C99.0541 75.01 99.1255 74.8861 99.1563 74.7497C99.1872 74.6133 99.1762 74.4708 99.1247 74.3407C99.0732 74.2107 98.9837 74.0992 98.8678 74.0209C98.7519 73.9426 98.6151 73.9011 98.4752 73.9019C98.3354 73.9026 98.199 73.9456 98.084 74.0251C97.9689 74.1047 97.8806 74.2171 97.8305 74.3477C97.7804 74.4782 97.7709 74.6209 97.8033 74.757C97.8356 74.893 97.9083 75.0162 98.0118 75.1102L98.0092 75.1139C98.2538 75.3489 98.3011 75.453 98.3011 75.651C98.2975 75.7397 98.2758 75.8268 98.2374 75.9068C98.1989 75.9868 98.1445 76.0582 98.0775 76.1164Z" fill="white"/>
<path d="M104.41 75.7388C104.41 75.6231 104.381 75.5092 104.326 75.4074C104.271 75.3056 104.191 75.2193 104.095 75.1561C103.998 75.0929 103.886 75.0549 103.771 75.0456C103.656 75.0363 103.54 75.0559 103.434 75.1027C103.328 75.1494 103.236 75.2219 103.165 75.3135C103.094 75.405 103.047 75.5128 103.029 75.6271C103.01 75.7413 103.02 75.8584 103.058 75.9677C103.096 76.0769 103.161 76.175 103.247 76.2529L103.244 76.2566C103.489 76.4916 103.536 76.5956 103.536 76.7937C103.533 76.8826 103.511 76.9699 103.473 77.0502C103.434 77.1305 103.38 77.2021 103.313 77.2606C103.197 77.3426 103.109 77.458 103.061 77.5914C103.012 77.7248 103.006 77.8697 103.043 78.0068C103.079 78.1438 103.157 78.2664 103.265 78.3581C103.373 78.4497 103.507 78.506 103.648 78.5194C103.79 78.5328 103.932 78.5027 104.055 78.4331C104.179 78.3635 104.278 78.2577 104.34 78.13C104.401 78.0023 104.423 77.8588 104.4 77.7187C104.378 77.5786 104.314 77.4487 104.215 77.3464C104.209 77.3362 104.201 77.3274 104.192 77.3203C104.106 77.2603 104.036 77.1817 103.985 77.0905C103.935 76.9993 103.906 76.8979 103.9 76.7938C103.9 76.5965 103.947 76.4932 104.192 76.2567L104.187 76.2494C104.257 76.1844 104.313 76.1054 104.352 76.0175C104.39 75.9297 104.41 75.8347 104.41 75.7388Z" fill="white"/>
<path d="M105.984 76.3435C105.899 76.2834 105.828 76.2049 105.778 76.1137C105.727 76.0225 105.698 75.9211 105.692 75.817C105.692 75.6197 105.739 75.5166 105.984 75.28L105.979 75.2726C106.081 75.1774 106.153 75.0535 106.184 74.9171C106.214 74.7807 106.203 74.6381 106.152 74.5081C106.1 74.378 106.011 74.2666 105.895 74.1883C105.779 74.11 105.642 74.0685 105.502 74.0692C105.363 74.07 105.226 74.1129 105.111 74.1925C104.996 74.272 104.908 74.3844 104.858 74.515C104.808 74.6456 104.798 74.7882 104.83 74.9243C104.863 75.0604 104.935 75.1835 105.039 75.2776L105.036 75.2813C105.281 75.5163 105.328 75.6203 105.328 75.8184C105.325 75.9073 105.303 75.9946 105.265 76.0749C105.226 76.1552 105.172 76.2268 105.105 76.2853C104.989 76.3673 104.901 76.4828 104.853 76.6162C104.805 76.7496 104.799 76.8945 104.835 77.0315C104.872 77.1686 104.949 77.2911 105.058 77.3827C105.166 77.4744 105.3 77.5306 105.441 77.544C105.582 77.5574 105.724 77.5273 105.848 77.4576C105.971 77.388 106.07 77.2822 106.132 77.1545C106.194 77.0268 106.215 76.8833 106.193 76.7432C106.17 76.6031 106.106 76.4732 106.008 76.3709C106.003 76.3595 105.994 76.3499 105.984 76.3435Z" fill="white"/>
<path d="M95.5296 74.7379C95.5296 74.6222 95.5008 74.5083 95.4456 74.4065C95.3905 74.3048 95.3108 74.2184 95.2139 74.1552C95.1169 74.092 95.0057 74.0541 94.8903 74.0447C94.775 74.0354 94.6591 74.055 94.5532 74.1018C94.4474 74.1486 94.3549 74.221 94.2841 74.3126C94.2133 74.4042 94.1665 74.512 94.1479 74.6262C94.1294 74.7404 94.1396 74.8575 94.1777 74.9668C94.2158 75.0761 94.2806 75.1741 94.3662 75.252L94.3637 75.2557C94.6082 75.4907 94.6555 75.5948 94.6555 75.7928C94.652 75.8817 94.6303 75.969 94.5919 76.0493C94.5534 76.1296 94.499 76.2012 94.432 76.2597C94.3166 76.342 94.2292 76.4576 94.1815 76.591C94.1337 76.7244 94.1279 76.8692 94.1648 77.006C94.2018 77.1428 94.2796 77.2651 94.388 77.3563C94.4964 77.4476 94.6301 77.5035 94.7712 77.5166C94.9122 77.5297 95.054 77.4994 95.1773 77.4296C95.3006 77.3598 95.3997 77.254 95.4611 77.1264C95.5226 76.9987 95.5435 76.8553 95.5212 76.7154C95.4988 76.5755 95.4342 76.4458 95.3359 76.3437C95.3298 76.3335 95.3218 76.3247 95.3123 76.3176C95.2271 76.2576 95.1566 76.179 95.106 76.0878C95.0555 75.9966 95.0262 75.8952 95.0204 75.7911C95.0204 75.5938 95.0676 75.4907 95.3123 75.254L95.3072 75.2467C95.3774 75.1818 95.4334 75.1031 95.4716 75.0156C95.5099 74.928 95.5297 74.8335 95.5296 74.7379Z" fill="white"/>
<path d="M99.7999 77.2572C99.6841 77.3392 99.5962 77.4547 99.548 77.588C99.4998 77.7214 99.4935 77.8664 99.5301 78.0034C99.5667 78.1405 99.6443 78.263 99.7526 78.3547C99.8608 78.4463 99.9945 78.5026 100.136 78.516C100.277 78.5294 100.419 78.4993 100.542 78.4297C100.666 78.3601 100.765 78.2544 100.827 78.1266C100.889 77.9989 100.91 77.8554 100.888 77.7153C100.865 77.5752 100.801 77.4453 100.703 77.343C100.697 77.3329 100.689 77.324 100.679 77.317C100.594 77.2569 100.523 77.1784 100.473 77.0872C100.422 76.996 100.393 76.8946 100.387 76.7905C100.385 76.7076 100.401 76.6251 100.434 76.5493C100.468 76.4734 100.518 76.4061 100.581 76.3523C100.678 76.2891 100.757 76.2027 100.812 76.101C100.868 75.9993 100.896 75.8855 100.896 75.7699V75.7363C100.896 75.6134 100.864 75.4926 100.802 75.3865C100.74 75.2803 100.651 75.1925 100.544 75.1321C100.446 75.0228 100.391 74.8824 100.387 74.736C100.387 74.5386 100.435 74.4356 100.679 74.1989L100.674 74.1915C100.777 74.0963 100.848 73.9724 100.879 73.836C100.91 73.6996 100.899 73.5571 100.847 73.427C100.796 73.297 100.706 73.1855 100.59 73.1072C100.475 73.0289 100.338 72.9874 100.198 72.9882C100.058 72.9889 99.9217 73.0319 99.8066 73.1114C99.6916 73.191 99.6032 73.3034 99.5532 73.434C99.5031 73.5645 99.4936 73.7072 99.5259 73.8433C99.5583 73.9793 99.6309 74.1025 99.7344 74.1966L99.7319 74.2002C99.9764 74.4352 100.024 74.5393 100.024 74.7373C100.02 74.8804 99.9664 75.0178 99.8727 75.126C99.7619 75.1856 99.6692 75.2741 99.6048 75.3821C99.5403 75.4902 99.5063 75.6137 99.5065 75.7395V75.7717C99.5065 75.8912 99.5373 76.0086 99.5958 76.1127C99.6543 76.2169 99.7385 76.3043 99.8405 76.3665C99.9007 76.4194 99.9484 76.4852 99.98 76.5589C100.012 76.6326 100.026 76.7124 100.023 76.7925C100.019 76.881 99.9969 76.9677 99.9586 77.0475C99.9203 77.1273 99.8663 77.1987 99.7999 77.2572Z" fill="white"/>
<path d="M101.914 73.2155C102.302 73.2155 102.617 72.9009 102.617 72.5128C102.617 72.1247 102.302 71.8101 101.914 71.8101C101.526 71.8101 101.212 72.1247 101.212 72.5128C101.212 72.9009 101.526 73.2155 101.914 73.2155Z" fill="white"/>
<path d="M98.4872 73.2155C98.8753 73.2155 99.19 72.9009 99.19 72.5128C99.19 72.1247 98.8753 71.8101 98.4872 71.8101C98.0991 71.8101 97.7845 72.1247 97.7845 72.5128C97.7845 72.9009 98.0991 73.2155 98.4872 73.2155Z" fill="white"/>
<path d="M97.0618 77.2589C96.9951 77.2002 96.9411 77.1285 96.9029 77.0482C96.8647 76.968 96.8432 76.8808 96.8396 76.792C96.8396 76.5945 96.8867 76.4914 97.1314 76.2549L97.1266 76.2475C97.229 76.1524 97.3004 76.0285 97.3313 75.892C97.3621 75.7556 97.3511 75.6131 97.2996 75.4831C97.2482 75.353 97.1586 75.2415 97.0427 75.1632C96.9268 75.0849 96.79 75.0435 96.6502 75.0442C96.5103 75.0449 96.3739 75.0879 96.2589 75.1674C96.1439 75.247 96.0555 75.3594 96.0054 75.49C95.9553 75.6206 95.9459 75.7632 95.9782 75.8993C96.0105 76.0354 96.0832 76.1585 96.1867 76.2526L96.1842 76.2563C96.4289 76.4912 96.476 76.5953 96.476 76.7934C96.4725 76.8823 96.4508 76.9696 96.4124 77.0499C96.3739 77.1301 96.3195 77.2017 96.2525 77.2603C96.1616 77.3245 96.0875 77.4095 96.0363 77.5082C95.9851 77.607 95.9583 77.7165 95.9583 77.8277V77.8376C95.9585 77.9584 95.99 78.0771 96.0495 78.1822C96.109 78.2873 96.1946 78.3753 96.298 78.4377C96.4015 78.5001 96.5192 78.5348 96.6399 78.5384C96.7607 78.542 96.8803 78.5144 96.9873 78.4583C97.0943 78.4023 97.185 78.3195 97.2507 78.2182C97.3164 78.1168 97.3548 78.0003 97.3624 77.8797C97.3699 77.7592 97.3462 77.6387 97.2936 77.53C97.241 77.4212 97.1613 77.3279 97.0621 77.2589H97.0618Z" fill="white"/>
<path d="M98.4872 79.4698C98.8753 79.4698 99.19 79.1552 99.19 78.7671C99.19 78.379 98.8753 78.0643 98.4872 78.0643C98.0991 78.0643 97.7845 78.379 97.7845 78.7671C97.7845 79.1552 98.0991 79.4698 98.4872 79.4698Z" fill="white"/>
<path d="M101.923 79.4698C102.311 79.4698 102.626 79.1552 102.626 78.7671C102.626 78.379 102.311 78.0643 101.923 78.0643C101.535 78.0643 101.22 78.379 101.22 78.7671C101.22 79.1552 101.535 79.4698 101.923 79.4698Z" fill="white"/>
</g>
<g opacity="0.206">
<path d="M99.7998 71.5904C99.6841 71.6724 99.5962 71.7878 99.548 71.9212C99.4998 72.0546 99.4936 72.1996 99.5302 72.3366C99.5668 72.4736 99.6444 72.5962 99.7527 72.6878C99.861 72.7794 99.9947 72.8357 100.136 72.8491C100.277 72.8625 100.419 72.8323 100.543 72.7627C100.666 72.6931 100.765 72.5873 100.827 72.4596C100.889 72.3318 100.91 72.1883 100.888 72.0482C100.865 71.9082 100.801 71.7782 100.703 71.676C100.697 71.6658 100.689 71.657 100.679 71.6499C100.594 71.5899 100.523 71.5113 100.473 71.4201C100.422 71.3289 100.393 71.2275 100.387 71.1234C100.387 70.9261 100.434 70.823 100.679 70.5864L100.674 70.579C100.777 70.4838 100.848 70.3599 100.879 70.2235C100.91 70.0871 100.899 69.9445 100.847 69.8145C100.796 69.6844 100.706 69.573 100.59 69.4947C100.474 69.4164 100.338 69.3749 100.198 69.3756C100.058 69.3764 99.9214 69.4193 99.8064 69.4989C99.6914 69.5784 99.603 69.6908 99.5529 69.8214C99.5028 69.952 99.4934 70.0946 99.5257 70.2307C99.558 70.3668 99.6307 70.4899 99.7342 70.584L99.7317 70.5877C99.9762 70.8227 100.024 70.9267 100.024 71.1248C100.019 71.2134 99.9974 71.3003 99.959 71.3803C99.9205 71.4603 99.8664 71.5317 99.7998 71.5904Z" fill="white"/>
<path d="M102.618 74.9427C102.618 74.8269 102.59 74.713 102.534 74.6113C102.479 74.5095 102.4 74.4231 102.303 74.3599C102.206 74.2968 102.094 74.2588 101.979 74.2495C101.864 74.2401 101.748 74.2597 101.642 74.3065C101.536 74.3533 101.444 74.4258 101.373 74.5173C101.302 74.6089 101.255 74.7167 101.237 74.8309C101.218 74.9452 101.228 75.0622 101.266 75.1715C101.305 75.2808 101.369 75.3788 101.455 75.4567L101.452 75.4593C101.697 75.6942 101.744 75.7983 101.744 75.9963C101.741 76.0853 101.719 76.1726 101.681 76.2528C101.642 76.3331 101.588 76.4047 101.521 76.4633C101.405 76.5452 101.317 76.6607 101.269 76.7941C101.221 76.9275 101.214 77.0724 101.251 77.2094C101.288 77.3465 101.365 77.4691 101.473 77.5607C101.582 77.6523 101.715 77.7086 101.857 77.722C101.998 77.7355 102.14 77.7053 102.263 77.6357C102.387 77.5661 102.486 77.4604 102.548 77.3327C102.61 77.205 102.631 77.0614 102.609 76.9213C102.586 76.7813 102.522 76.6513 102.424 76.549C102.417 76.5389 102.409 76.53 102.4 76.523C102.315 76.4629 102.244 76.3844 102.194 76.2932C102.143 76.202 102.114 76.1006 102.108 75.9965C102.108 75.7991 102.155 75.6959 102.4 75.4594L102.395 75.4519C102.466 75.3872 102.522 75.3085 102.56 75.2208C102.599 75.1332 102.619 75.0384 102.618 74.9427Z" fill="white"/>
<path d="M98.0775 76.4615C97.9618 76.5435 97.8739 76.6589 97.8257 76.7923C97.7775 76.9257 97.7712 77.0707 97.8078 77.2077C97.8444 77.3448 97.922 77.4673 98.0303 77.559C98.1385 77.6506 98.2722 77.7069 98.4134 77.7203C98.5546 77.7337 98.6966 77.7036 98.8201 77.634C98.9437 77.5644 99.0431 77.4586 99.1048 77.3309C99.1665 77.2032 99.1876 77.0597 99.1654 76.9196C99.1432 76.7795 99.0786 76.6496 98.9803 76.5473C98.9742 76.5372 98.9662 76.5283 98.9567 76.5213C98.8715 76.4612 98.801 76.3826 98.7504 76.2915C98.6999 76.2003 98.6706 76.0989 98.6648 75.9948C98.6648 75.7974 98.712 75.6943 98.9567 75.4577L98.9516 75.4503C99.0541 75.3551 99.1255 75.2312 99.1563 75.0948C99.1872 74.9584 99.1762 74.8158 99.1247 74.6858C99.0732 74.5558 98.9837 74.4443 98.8678 74.366C98.7519 74.2877 98.6151 74.2462 98.4752 74.247C98.3354 74.2477 98.199 74.2907 98.084 74.3702C97.9689 74.4497 97.8806 74.5622 97.8305 74.6927C97.7804 74.8233 97.7709 74.966 97.8033 75.1021C97.8356 75.2381 97.9083 75.3613 98.0118 75.4553L98.0092 75.459C98.2538 75.694 98.3011 75.7981 98.3011 75.9961C98.2975 76.0848 98.2758 76.1719 98.2374 76.2519C98.1989 76.3319 98.1445 76.4033 98.0775 76.4615Z" fill="white"/>
<path d="M104.41 76.0839C104.41 75.9682 104.381 75.8542 104.326 75.7525C104.271 75.6507 104.191 75.5644 104.095 75.5012C103.998 75.438 103.886 75.4 103.771 75.3907C103.656 75.3814 103.54 75.401 103.434 75.4477C103.328 75.4945 103.236 75.567 103.165 75.6586C103.094 75.7501 103.047 75.8579 103.029 75.9722C103.01 76.0864 103.02 76.2035 103.058 76.3127C103.096 76.422 103.161 76.5201 103.247 76.598L103.244 76.6017C103.489 76.8366 103.536 76.9407 103.536 77.1388C103.533 77.2277 103.511 77.315 103.473 77.3953C103.434 77.4755 103.38 77.5471 103.313 77.6057C103.197 77.6876 103.109 77.8031 103.061 77.9365C103.012 78.0699 103.006 78.2148 103.043 78.3519C103.079 78.4889 103.157 78.6115 103.265 78.7031C103.373 78.7948 103.507 78.8511 103.648 78.8645C103.79 78.8779 103.932 78.8478 104.055 78.7782C104.179 78.7086 104.278 78.6028 104.34 78.4751C104.401 78.3474 104.423 78.2038 104.4 78.0638C104.378 77.9237 104.314 77.7937 104.215 77.6914C104.209 77.6813 104.201 77.6724 104.192 77.6654C104.106 77.6053 104.036 77.5268 103.985 77.4356C103.935 77.3444 103.906 77.243 103.9 77.1389C103.9 76.9415 103.947 76.8383 104.192 76.6018L104.187 76.5945C104.257 76.5294 104.313 76.4505 104.352 76.3626C104.39 76.2747 104.41 76.1798 104.41 76.0839Z" fill="white"/>
<path d="M105.984 76.6886C105.899 76.6285 105.828 76.55 105.778 76.4588C105.727 76.3676 105.698 76.2662 105.692 76.1621C105.692 75.9648 105.739 75.8617 105.984 75.625L105.979 75.6177C106.081 75.5225 106.153 75.3986 106.184 75.2622C106.214 75.1258 106.203 74.9832 106.152 74.8532C106.1 74.7231 106.011 74.6117 105.895 74.5334C105.779 74.4551 105.642 74.4136 105.502 74.4143C105.363 74.4151 105.226 74.458 105.111 74.5376C104.996 74.6171 104.908 74.7295 104.858 74.8601C104.808 74.9907 104.798 75.1333 104.83 75.2694C104.863 75.4055 104.935 75.5286 105.039 75.6227L105.036 75.6264C105.281 75.8614 105.328 75.9654 105.328 76.1635C105.325 76.2524 105.303 76.3397 105.265 76.42C105.226 76.5003 105.172 76.5719 105.105 76.6304C104.989 76.7124 104.901 76.8278 104.853 76.9612C104.805 77.0946 104.799 77.2396 104.835 77.3766C104.872 77.5137 104.949 77.6362 105.058 77.7278C105.166 77.8194 105.3 77.8757 105.441 77.8891C105.582 77.9025 105.724 77.8724 105.848 77.8027C105.971 77.7331 106.07 77.6273 106.132 77.4996C106.194 77.3719 106.215 77.2283 106.193 77.0883C106.17 76.9482 106.106 76.8183 106.008 76.716C106.003 76.7046 105.994 76.695 105.984 76.6886Z" fill="white"/>
<path d="M95.5296 75.083C95.5296 74.9673 95.5008 74.8534 95.4456 74.7516C95.3905 74.6499 95.3108 74.5635 95.2139 74.5003C95.1169 74.4371 95.0057 74.3992 94.8903 74.3898C94.775 74.3805 94.6591 74.4001 94.5532 74.4469C94.4474 74.4937 94.3549 74.5661 94.2841 74.6577C94.2133 74.7493 94.1665 74.8571 94.1479 74.9713C94.1294 75.0855 94.1396 75.2026 94.1777 75.3119C94.2158 75.4212 94.2806 75.5192 94.3662 75.5971L94.3637 75.6008C94.6082 75.8358 94.6555 75.9398 94.6555 76.1379C94.652 76.2268 94.6303 76.3141 94.5919 76.3944C94.5534 76.4747 94.499 76.5463 94.432 76.6048C94.3166 76.6871 94.2292 76.8027 94.1815 76.9361C94.1337 77.0695 94.1279 77.2143 94.1648 77.3511C94.2018 77.4879 94.2796 77.6102 94.388 77.7014C94.4964 77.7927 94.6301 77.8486 94.7712 77.8617C94.9122 77.8748 95.054 77.8444 95.1773 77.7747C95.3006 77.7049 95.3997 77.5991 95.4611 77.4715C95.5226 77.3438 95.5435 77.2004 95.5212 77.0605C95.4988 76.9206 95.4342 76.7909 95.3359 76.6887C95.3298 76.6786 95.3218 76.6698 95.3123 76.6627C95.2271 76.6027 95.1566 76.5241 95.106 76.4329C95.0555 76.3417 95.0262 76.2403 95.0204 76.1362C95.0204 75.9388 95.0676 75.8358 95.3123 75.5991L95.3072 75.5918C95.3774 75.5269 95.4334 75.4482 95.4716 75.3607C95.5099 75.2731 95.5297 75.1786 95.5296 75.083Z" fill="white"/>
<path d="M99.7999 77.6023C99.6841 77.6843 99.5962 77.7998 99.548 77.9331C99.4998 78.0665 99.4935 78.2115 99.5301 78.3485C99.5667 78.4856 99.6443 78.6081 99.7526 78.6998C99.8608 78.7914 99.9945 78.8477 100.136 78.8611C100.277 78.8745 100.419 78.8444 100.542 78.7748C100.666 78.7052 100.765 78.5994 100.827 78.4717C100.889 78.344 100.91 78.2005 100.888 78.0604C100.865 77.9203 100.801 77.7904 100.703 77.6881C100.697 77.678 100.689 77.6691 100.679 77.6621C100.594 77.602 100.523 77.5235 100.473 77.4323C100.422 77.3411 100.393 77.2397 100.387 77.1356C100.385 77.0527 100.401 76.9702 100.434 76.8944C100.468 76.8185 100.518 76.7512 100.581 76.6974C100.678 76.6342 100.757 76.5478 100.812 76.4461C100.868 76.3444 100.896 76.2306 100.896 76.115V76.0814C100.896 75.9585 100.864 75.8377 100.802 75.7316C100.74 75.6254 100.651 75.5376 100.544 75.4772C100.446 75.3679 100.391 75.2275 100.387 75.0811C100.387 74.8837 100.435 74.7806 100.679 74.544L100.674 74.5366C100.777 74.4414 100.848 74.3175 100.879 74.1811C100.91 74.0447 100.899 73.9021 100.847 73.7721C100.796 73.6421 100.706 73.5306 100.59 73.4523C100.475 73.374 100.338 73.3325 100.198 73.3333C100.058 73.334 99.9217 73.377 99.8066 73.4565C99.6916 73.536 99.6032 73.6485 99.5532 73.779C99.5031 73.9096 99.4936 74.0523 99.5259 74.1884C99.5583 74.3244 99.6309 74.4476 99.7344 74.5416L99.7319 74.5453C99.9764 74.7803 100.024 74.8844 100.024 75.0824C100.02 75.2255 99.9664 75.3629 99.8727 75.4711C99.7619 75.5307 99.6692 75.6192 99.6048 75.7272C99.5403 75.8352 99.5063 75.9588 99.5065 76.0846V76.1168C99.5065 76.2363 99.5373 76.3537 99.5958 76.4578C99.6543 76.562 99.7385 76.6494 99.8405 76.7116C99.9007 76.7645 99.9484 76.8303 99.98 76.9039C100.012 76.9776 100.026 77.0575 100.023 77.1376C100.019 77.2261 99.9969 77.3128 99.9586 77.3926C99.9203 77.4724 99.8663 77.5438 99.7999 77.6023Z" fill="white"/>
<path d="M101.914 73.5606C102.302 73.5606 102.617 73.246 102.617 72.8579C102.617 72.4698 102.302 72.1552 101.914 72.1552C101.526 72.1552 101.212 72.4698 101.212 72.8579C101.212 73.246 101.526 73.5606 101.914 73.5606Z" fill="white"/>
<path d="M98.4872 73.5606C98.8753 73.5606 99.19 73.246 99.19 72.8579C99.19 72.4698 98.8753 72.1552 98.4872 72.1552C98.0991 72.1552 97.7845 72.4698 97.7845 72.8579C97.7845 73.246 98.0991 73.5606 98.4872 73.5606Z" fill="white"/>
<path d="M97.0618 77.604C96.9951 77.5452 96.9411 77.4736 96.9029 77.3933C96.8647 77.3131 96.8432 77.2259 96.8396 77.1371C96.8396 76.9396 96.8867 76.8365 97.1314 76.6L97.1266 76.5926C97.229 76.4975 97.3004 76.3735 97.3313 76.2371C97.3621 76.1007 97.3511 75.9582 97.2996 75.8281C97.2482 75.6981 97.1586 75.5866 97.0427 75.5083C96.9268 75.43 96.79 75.3885 96.6502 75.3893C96.5103 75.39 96.3739 75.433 96.2589 75.5125C96.1439 75.5921 96.0555 75.7045 96.0054 75.8351C95.9553 75.9657 95.9459 76.1083 95.9782 76.2444C96.0105 76.3805 96.0832 76.5036 96.1867 76.5977L96.1842 76.6014C96.4289 76.8363 96.476 76.9404 96.476 77.1385C96.4725 77.2274 96.4508 77.3147 96.4124 77.395C96.3739 77.4752 96.3195 77.5468 96.2525 77.6054C96.1616 77.6695 96.0875 77.7546 96.0363 77.8533C95.9851 77.952 95.9583 78.0616 95.9583 78.1728V78.1827C95.9585 78.3035 95.99 78.4222 96.0495 78.5273C96.109 78.6324 96.1946 78.7204 96.298 78.7828C96.4015 78.8452 96.5192 78.8798 96.6399 78.8835C96.7607 78.8871 96.8803 78.8595 96.9873 78.8034C97.0943 78.7473 97.185 78.6646 97.2507 78.5633C97.3164 78.4619 97.3548 78.3454 97.3624 78.2248C97.3699 78.1042 97.3462 77.9838 97.2936 77.8751C97.241 77.7663 97.1613 77.673 97.0621 77.604H97.0618Z" fill="white"/>
<path d="M98.4872 79.8149C98.8753 79.8149 99.19 79.5003 99.19 79.1122C99.19 78.7241 98.8753 78.4094 98.4872 78.4094C98.0991 78.4094 97.7845 78.7241 97.7845 79.1122C97.7845 79.5003 98.0991 79.8149 98.4872 79.8149Z" fill="white"/>
<path d="M101.923 79.8149C102.311 79.8149 102.626 79.5003 102.626 79.1122C102.626 78.7241 102.311 78.4094 101.923 78.4094C101.535 78.4094 101.22 78.7241 101.22 79.1122C101.22 79.5003 101.535 79.8149 101.923 79.8149Z" fill="white"/>
</g>
<path opacity="0.488" d="M38.3132 170.215L73.5558 149.738L81.3983 154.253L47.1954 175.299L38.3132 170.215Z" fill="url(#paint24_linear_44_2798)"/>
<path d="M73.4999 145.923L81.5303 150.488V154.285L73.4999 149.72V145.923Z" fill="#D2CC23"/>
<path d="M73.4999 140.745L81.5303 145.311V149.107L73.4999 144.543V140.745Z" fill="#D2CC23"/>
<path d="M73.4999 135.395L81.5303 139.96V143.756L73.4999 139.192V135.395Z" fill="#D2CC23"/>
<path d="M73.4999 130.044L81.5303 134.61V138.406L73.4999 133.841V130.044Z" fill="#D2CC23"/>
<path opacity="0.772" d="M73.4999 145.923L81.5303 150.488V154.285L73.4999 149.72V145.923Z" fill="url(#paint25_linear_44_2798)"/>
<path opacity="0.772" d="M73.4999 140.745L81.5303 145.311V149.107L73.4999 144.543V140.745Z" fill="url(#paint26_linear_44_2798)"/>
<path opacity="0.772" d="M73.4999 135.395L81.5303 139.96V143.756L73.4999 139.192V135.395Z" fill="url(#paint27_linear_44_2798)"/>
<path opacity="0.772" d="M73.4999 130.044L81.5303 134.61V138.406L73.4999 133.841V130.044Z" fill="url(#paint28_linear_44_2798)"/>
<path opacity="0.488" d="M38.3132 170.215L73.5558 149.738L81.3983 154.253L47.1954 175.299L38.3132 170.215Z" fill="url(#paint29_linear_44_2798)"/>
<g filter="url(#filter3_d_44_2798)">
<path opacity="0.086" d="M92.9987 109.156C93.0477 109.206 97.7793 112.546 99.8323 112.431C100.666 112.385 101.374 112.289 102.796 111.52C106.271 109.64 109.694 107.599 111.364 106.716C112.335 107.058 112.277 107.021 112.277 107.021V118.648C112.277 118.648 131.466 107.479 123.565 111.802C115.662 116.125 131.739 107.712 131.739 107.712L132.062 95.5223L131.147 95.1866L138.608 90.7627C138.608 90.7627 140.979 89.6803 141.033 88.2582C141.086 86.8361 137.917 85.2371 137.917 85.2371L102.796 64.8087C102.796 64.8087 100.228 62.8765 97.0859 64.8087C87.2792 70.4481 65.0607 83.093 61.2552 85.2682C56.3644 88.064 60.5776 90.4856 60.5776 90.4856C60.5776 90.4856 92.9262 109.084 92.9987 109.156Z" stroke="#48FFF1" stroke-width="0.442725" stroke-linecap="round"/>
</g>
<path d="M78.6754 93.7069L87.4701 98.8488L80.9929 102.59L72.1982 97.4482L78.6754 93.7069Z" fill="url(#paint30_linear_44_2798)"/>
<path d="M82.2061 102.59H80.9924V117.951L82.2061 117.156V102.59Z" fill="url(#paint31_linear_44_2798)"/>
<path d="M87.4696 100.324V98.8489L80.9924 102.59V104.065L87.4696 100.324Z" fill="url(#paint32_linear_44_2798)"/>
<path d="M72.1982 97.448L80.9924 102.59V117.951L72.1982 112.809V97.448Z" fill="url(#paint33_linear_44_2798)"/>
<path d="M128.113 97.448L119.319 102.59V117.951L128.113 112.809L128.113 97.448Z" fill="url(#paint34_linear_44_2798)"/>
<path d="M121.636 93.7069L112.841 98.8488L119.319 102.59L128.113 97.448L121.636 93.7069Z" fill="url(#paint35_linear_44_2798)"/>
<path d="M118.105 102.59H119.319V117.951L118.105 117.156V102.59Z" fill="url(#paint36_linear_44_2798)"/>
<path d="M112.841 100.324V98.8488L119.319 102.59V104.065L112.841 100.324Z" fill="url(#paint37_linear_44_2798)"/>
<path d="M118.373 71.0968L127.167 76.2387L120.69 79.9798L111.895 74.8381L118.373 71.0968Z" fill="url(#paint38_linear_44_2798)"/>
<path d="M111.978 76.3335V74.858L120.786 79.8688V81.3443L111.978 76.3335Z" fill="url(#paint39_linear_44_2798)"/>
<path d="M120.781 81.3387V79.8632L127.166 76.2322V79.6965L125.588 78.8181L120.781 81.3387Z" fill="url(#paint40_linear_44_2798)"/>
<path d="M81.0753 71.0968L72.2811 76.2387L78.7583 79.9798L87.553 74.8379L81.0753 71.0968Z" fill="url(#paint41_linear_44_2798)"/>
<path d="M87.4695 76.3335V74.858L78.6617 79.8688V81.3443L87.4695 76.3335Z" fill="url(#paint42_linear_44_2798)"/>
<path d="M78.6671 81.3387V79.8632L72.2819 76.2322V80.148L74.2493 78.906L78.6671 81.3387Z" fill="url(#paint43_linear_44_2798)"/>
<path opacity="0.21" d="M78.4313 76.6213L82.9622 74.1734L84.7576 75.2954L80.2266 77.7434L78.4313 76.6213Z" fill="url(#paint44_linear_44_2798)"/>
<path opacity="0.21" d="M116.403 98.0232L120.934 95.5752L122.729 96.6973L118.198 99.1453L116.403 98.0232Z" fill="url(#paint45_linear_44_2798)"/>
<path opacity="0.21" d="M84.6862 98.1923L79.7961 95.4932L78.0409 96.6771L82.931 99.3762L84.6862 98.1923Z" fill="url(#paint46_linear_44_2798)"/>
<path opacity="0.21" d="M121.449 76.9628L116.559 74.2637L114.804 75.4476L119.694 78.1467L121.449 76.9628Z" fill="url(#paint47_linear_44_2798)"/>
<path d="M96.4414 108.248L99.7933 106.344C99.9228 106.322 100.055 106.322 100.185 106.344L103.486 108.248C103.523 108.269 103.553 108.299 103.574 108.335C103.595 108.371 103.606 108.412 103.606 108.454C103.606 108.495 103.595 108.536 103.574 108.573C103.553 108.609 103.523 108.639 103.486 108.659L100.083 110.614C100.047 110.635 100.006 110.647 99.9637 110.647C99.9216 110.647 99.8803 110.635 99.844 110.614L96.4414 108.659C96.4037 108.64 96.3721 108.61 96.35 108.574C96.3279 108.538 96.3162 108.496 96.3162 108.454C96.3162 108.411 96.3279 108.37 96.35 108.333C96.3721 108.297 96.4037 108.268 96.4414 108.248Z" fill="url(#paint48_linear_44_2798)"/>
<path d="M96.4414 108.248L99.7479 106.346C99.8157 106.311 99.891 106.292 99.9675 106.292C100.044 106.292 100.119 106.311 100.187 106.346L103.486 108.248C103.523 108.269 103.553 108.299 103.574 108.335C103.595 108.371 103.606 108.412 103.606 108.454C103.606 108.495 103.595 108.536 103.574 108.573C103.553 108.609 103.523 108.639 103.486 108.659L100.084 110.614C100.047 110.636 100.006 110.647 99.9638 110.647C99.9217 110.647 99.8804 110.636 99.844 110.614L96.4414 108.659C96.4037 108.64 96.3721 108.61 96.35 108.574C96.328 108.538 96.3163 108.496 96.3163 108.454C96.3163 108.411 96.328 108.37 96.35 108.333C96.3721 108.297 96.4037 108.268 96.4414 108.248Z" fill="url(#paint49_linear_44_2798)"/>
<path opacity="0.399" d="M103.602 108.486C103.607 108.604 103.452 108.679 103.452 108.679C103.452 108.679 102.884 109.005 102.215 109.391C101.378 109.872 100.379 110.446 100.213 110.543C100.139 110.593 100.051 110.621 99.9613 110.621C99.8714 110.621 99.7837 110.593 99.7095 110.543L96.3936 108.625C96.3936 108.625 96.3209 108.596 96.3184 108.465" stroke="white" stroke-width="0.442725" stroke-linecap="round" stroke-linejoin="round"/>
<path d="M97.3514 108.306L99.8689 106.903C99.8958 106.887 99.9264 106.879 99.9576 106.879C99.9887 106.879 100.019 106.887 100.046 106.903L102.564 108.306C102.591 108.321 102.613 108.343 102.629 108.37C102.644 108.397 102.652 108.427 102.652 108.458C102.652 108.489 102.644 108.519 102.629 108.546C102.613 108.573 102.591 108.595 102.564 108.61L100.046 110.057C100.019 110.073 99.9887 110.081 99.9576 110.081C99.9264 110.081 99.8958 110.073 99.8689 110.057L97.3514 108.61C97.3235 108.596 97.3001 108.574 97.2838 108.547C97.2675 108.52 97.2589 108.49 97.2589 108.458C97.2589 108.427 97.2675 108.396 97.2838 108.369C97.3001 108.342 97.3235 108.32 97.3514 108.306Z" fill="url(#paint50_linear_44_2798)"/>
<path d="M61.5771 88.0544L64.929 86.1505C65.0585 86.1284 65.1908 86.1284 65.3204 86.1505L68.6219 88.0544C68.6582 88.0751 68.6885 88.105 68.7095 88.1411C68.7305 88.1772 68.7416 88.2182 68.7416 88.26C68.7416 88.3018 68.7305 88.3428 68.7095 88.379C68.6885 88.4151 68.6582 88.445 68.6219 88.4656L65.2192 90.4206C65.1828 90.4419 65.1415 90.4531 65.0994 90.4531C65.0573 90.4531 65.016 90.4419 64.9797 90.4206L61.5771 88.4656C61.5394 88.4461 61.5077 88.4166 61.4857 88.3804C61.4636 88.3441 61.4519 88.3025 61.4519 88.26C61.4519 88.2176 61.4636 88.1759 61.4857 88.1397C61.5077 88.1034 61.5394 88.0739 61.5771 88.0544Z" fill="url(#paint51_linear_44_2798)"/>
<path d="M61.5771 88.0545L64.8835 86.1522C64.9513 86.1169 65.0266 86.0985 65.1031 86.0985C65.1796 86.0985 65.2549 86.1169 65.3227 86.1522L68.6219 88.0545C68.6582 88.0751 68.6885 88.105 68.7095 88.1411C68.7305 88.1772 68.7416 88.2183 68.7416 88.2601C68.7416 88.3018 68.7305 88.3429 68.7095 88.379C68.6885 88.4151 68.6582 88.445 68.6219 88.4657L65.2192 90.4206C65.1828 90.4419 65.1415 90.4531 65.0994 90.4531C65.0573 90.4531 65.016 90.4419 64.9797 90.4206L61.5771 88.4657C61.5394 88.4462 61.5077 88.4167 61.4857 88.3804C61.4636 88.3442 61.4519 88.3025 61.4519 88.2601C61.4519 88.2176 61.4636 88.176 61.4857 88.1397C61.5077 88.1034 61.5394 88.074 61.5771 88.0545Z" fill="url(#paint52_linear_44_2798)"/>
<path opacity="0.399" d="M68.7376 88.2925C68.7432 88.41 68.5882 88.4852 68.5882 88.4852C68.5882 88.4852 68.02 88.8113 67.3503 89.1973C66.5142 89.6782 65.5149 90.2528 65.3487 90.349C65.2746 90.3999 65.1869 90.4271 65.097 90.4271C65.0071 90.4271 64.9193 90.3999 64.8452 90.349L61.5293 88.4318C61.5293 88.4318 61.4566 88.4019 61.454 88.2714" stroke="white" stroke-width="0.442725" stroke-linecap="round" stroke-linejoin="round"/>
<path d="M62.487 88.1124L65.0046 86.7091C65.0315 86.6934 65.0621 86.6851 65.0932 86.6851C65.1244 86.6851 65.155 86.6934 65.1819 86.7091L67.6994 88.1124C67.7263 88.1276 67.7487 88.1498 67.7643 88.1765C67.7799 88.2032 67.7881 88.2336 67.7881 88.2645C67.7881 88.2955 67.7799 88.3259 67.7643 88.3526C67.7487 88.3793 67.7263 88.4014 67.6994 88.4167L65.1819 89.8634C65.155 89.8792 65.1244 89.8875 65.0932 89.8875C65.0621 89.8875 65.0315 89.8792 65.0046 89.8634L62.487 88.4167C62.4592 88.4022 62.4358 88.3804 62.4195 88.3536C62.4032 88.3267 62.3945 88.2959 62.3945 88.2645C62.3945 88.2331 62.4032 88.2023 62.4195 88.1755C62.4358 88.1487 62.4592 88.1268 62.487 88.1124Z" fill="url(#paint53_linear_44_2798)"/>
<path d="M131.133 88.0544L134.485 86.1505C134.615 86.1284 134.747 86.1284 134.877 86.1505L138.178 88.0544C138.215 88.0751 138.245 88.105 138.266 88.1411C138.287 88.1772 138.298 88.2182 138.298 88.26C138.298 88.3018 138.287 88.3428 138.266 88.379C138.245 88.4151 138.215 88.445 138.178 88.4656L134.775 90.4206C134.739 90.4419 134.698 90.4531 134.656 90.4531C134.614 90.4531 134.572 90.4419 134.536 90.4206L131.133 88.4656C131.096 88.4461 131.064 88.4166 131.042 88.3804C131.02 88.3441 131.008 88.3025 131.008 88.26C131.008 88.2176 131.02 88.1759 131.042 88.1397C131.064 88.1034 131.096 88.0739 131.133 88.0544Z" fill="url(#paint54_linear_44_2798)"/>
<path d="M131.133 88.0545L134.44 86.1522C134.508 86.1169 134.583 86.0985 134.659 86.0985C134.736 86.0985 134.811 86.1169 134.879 86.1522L138.178 88.0545C138.215 88.0751 138.245 88.105 138.266 88.1411C138.287 88.1772 138.298 88.2183 138.298 88.2601C138.298 88.3018 138.287 88.3429 138.266 88.379C138.245 88.4151 138.215 88.445 138.178 88.4657L134.775 90.4206C134.739 90.4419 134.698 90.4531 134.656 90.4531C134.614 90.4531 134.572 90.4419 134.536 90.4206L131.133 88.4657C131.096 88.4462 131.064 88.4167 131.042 88.3804C131.02 88.3442 131.008 88.3025 131.008 88.2601C131.008 88.2176 131.02 88.176 131.042 88.1397C131.064 88.1034 131.096 88.074 131.133 88.0545Z" fill="url(#paint55_linear_44_2798)"/>
<path opacity="0.399" d="M138.294 88.2925C138.299 88.41 138.144 88.4852 138.144 88.4852C138.144 88.4852 137.576 88.8113 136.907 89.1973C136.07 89.6782 135.071 90.2528 134.905 90.349C134.831 90.3999 134.743 90.4271 134.653 90.4271C134.563 90.4271 134.476 90.3999 134.402 90.349L131.086 88.4318C131.086 88.4318 131.013 88.4019 131.01 88.2714" stroke="white" stroke-width="0.442725" stroke-linecap="round" stroke-linejoin="round"/>
<path d="M132.043 88.1124L134.561 86.7091C134.588 86.6934 134.618 86.6851 134.65 86.6851C134.681 86.6851 134.711 86.6934 134.738 86.7091L137.256 88.1124C137.283 88.1276 137.305 88.1498 137.321 88.1765C137.336 88.2032 137.344 88.2336 137.344 88.2645C137.344 88.2955 137.336 88.3259 137.321 88.3526C137.305 88.3793 137.283 88.4014 137.256 88.4167L134.738 89.8634C134.711 89.8792 134.681 89.8875 134.65 89.8875C134.618 89.8875 134.588 89.8792 134.561 89.8634L132.043 88.4167C132.015 88.4022 131.992 88.3804 131.976 88.3536C131.959 88.3267 131.951 88.2959 131.951 88.2645C131.951 88.2331 131.959 88.2023 131.976 88.1755C131.992 88.1487 132.015 88.1268 132.043 88.1124Z" fill="url(#paint56_linear_44_2798)"/>
<path d="M98.505 108.31L99.8917 107.521C99.9453 107.512 100 107.512 100.054 107.521L101.419 108.31C101.434 108.319 101.447 108.331 101.456 108.346C101.464 108.361 101.469 108.378 101.469 108.395C101.469 108.413 101.464 108.43 101.456 108.445C101.447 108.459 101.434 108.472 101.419 108.48L100.012 109.288C99.9967 109.297 99.9796 109.302 99.9622 109.302C99.9448 109.302 99.9277 109.297 99.9127 109.288L98.505 108.48C98.4896 108.472 98.4766 108.459 98.4676 108.445C98.4585 108.43 98.4537 108.412 98.4537 108.395C98.4537 108.378 98.4585 108.36 98.4676 108.345C98.4766 108.33 98.4896 108.318 98.505 108.31Z" fill="url(#paint57_linear_44_2798)"/>
<path d="M98.505 108.31L99.8729 107.523C99.901 107.508 99.9322 107.5 99.9638 107.5C99.9954 107.5 100.027 107.508 100.055 107.523L101.419 108.31C101.434 108.318 101.447 108.33 101.456 108.345C101.464 108.36 101.469 108.377 101.469 108.395C101.469 108.412 101.464 108.429 101.456 108.444C101.447 108.459 101.434 108.471 101.419 108.48L100.012 109.288C99.9967 109.297 99.9796 109.302 99.9622 109.302C99.9448 109.302 99.9277 109.297 99.9127 109.288L98.505 108.48C98.4894 108.472 98.4763 108.459 98.4672 108.444C98.4581 108.429 98.4532 108.412 98.4532 108.395C98.4532 108.377 98.4581 108.36 98.4672 108.345C98.4763 108.33 98.4894 108.318 98.505 108.31Z" fill="url(#paint58_linear_44_2798)"/>
<path opacity="0.399" d="M101.467 108.408C101.469 108.457 101.405 108.488 101.405 108.488C101.405 108.488 101.171 108.622 100.892 108.783C100.546 108.982 100.133 109.219 100.065 109.259C100.034 109.28 99.9977 109.292 99.9603 109.292C99.923 109.292 99.8865 109.28 99.8558 109.259L98.4842 108.466C98.4842 108.466 98.4544 108.454 98.4537 108.399" stroke="white" stroke-width="0.442725" stroke-linecap="round" stroke-linejoin="round"/>
<path d="M98.8811 108.334L99.9233 107.753C99.9345 107.746 99.9471 107.743 99.96 107.743C99.9729 107.743 99.9856 107.746 99.9967 107.753L101.038 108.334C101.05 108.34 101.059 108.349 101.065 108.36C101.072 108.371 101.075 108.384 101.075 108.396C101.075 108.409 101.072 108.422 101.065 108.433C101.059 108.444 101.05 108.453 101.038 108.459L99.9967 109.058C99.9856 109.064 99.9729 109.068 99.96 109.068C99.9471 109.068 99.9345 109.064 99.9233 109.058L98.8811 108.459C98.8695 108.453 98.8598 108.444 98.8531 108.433C98.8463 108.422 98.8427 108.409 98.8427 108.396C98.8427 108.383 98.8463 108.371 98.8531 108.36C98.8598 108.349 98.8695 108.34 98.8811 108.334Z" fill="url(#paint59_linear_44_2798)"/>
<path d="M133.197 88.1164L134.584 87.3275C134.637 87.3184 134.692 87.3184 134.746 87.3275L136.111 88.1164C136.126 88.1249 136.139 88.1373 136.148 88.1522C136.156 88.1672 136.161 88.1842 136.161 88.2015C136.161 88.2188 136.156 88.2357 136.148 88.2507C136.139 88.2656 136.126 88.278 136.111 88.2866L134.704 89.0945C134.689 89.1033 134.672 89.108 134.654 89.108C134.637 89.108 134.62 89.1033 134.605 89.0945L133.197 88.2859C133.182 88.2778 133.169 88.2656 133.16 88.2507C133.15 88.2357 133.146 88.2186 133.146 88.2011C133.146 88.1837 133.15 88.1665 133.16 88.1516C133.169 88.1366 133.182 88.1245 133.197 88.1164Z" fill="url(#paint60_linear_44_2798)"/>
<path d="M133.197 88.1157L134.565 87.3287C134.593 87.3141 134.624 87.3065 134.656 87.3065C134.687 87.3065 134.719 87.3141 134.747 87.3287L136.111 88.1157C136.126 88.1243 136.139 88.1366 136.148 88.1516C136.156 88.1665 136.161 88.1835 136.161 88.2008C136.161 88.2181 136.156 88.2351 136.148 88.2501C136.139 88.265 136.126 88.2774 136.111 88.2859L134.704 89.0946C134.689 89.1033 134.672 89.108 134.654 89.108C134.637 89.108 134.62 89.1033 134.605 89.0946L133.197 88.2857C133.181 88.2777 133.168 88.2655 133.159 88.2505C133.15 88.2355 133.145 88.2183 133.145 88.2007C133.145 88.1832 133.15 88.166 133.159 88.151C133.168 88.136 133.181 88.1238 133.197 88.1157Z" fill="url(#paint61_linear_44_2798)"/>
<path opacity="0.399" d="M136.159 88.2146C136.161 88.2633 136.097 88.2942 136.097 88.2942C136.097 88.2942 135.863 88.4284 135.584 88.5887C135.238 88.7878 134.825 89.0251 134.757 89.0654C134.726 89.0865 134.69 89.0978 134.652 89.0978C134.615 89.0978 134.579 89.0865 134.548 89.0654L133.176 88.2724C133.176 88.2724 133.146 88.2599 133.146 88.2052" stroke="white" stroke-width="0.442725" stroke-linecap="round" stroke-linejoin="round"/>
<path d="M133.573 88.1397L134.615 87.5592C134.626 87.5526 134.639 87.5492 134.652 87.5492C134.665 87.5492 134.678 87.5526 134.689 87.5592L135.73 88.1397C135.742 88.146 135.751 88.1552 135.757 88.1662C135.764 88.1773 135.767 88.1898 135.767 88.2026C135.767 88.2154 135.764 88.228 135.757 88.2391C135.751 88.2501 135.742 88.2593 135.73 88.2656L134.689 88.8641C134.678 88.8706 134.665 88.8741 134.652 88.8741C134.639 88.8741 134.626 88.8706 134.615 88.8641L133.573 88.2656C133.561 88.2596 133.552 88.2506 133.545 88.2395C133.538 88.2284 133.535 88.2156 133.535 88.2026C133.535 88.1896 133.538 88.1769 133.545 88.1658C133.552 88.1547 133.561 88.1457 133.573 88.1397Z" fill="url(#paint62_linear_44_2798)"/>
<path d="M63.6405 88.1164L65.0272 87.3275C65.0808 87.3184 65.1355 87.3184 65.1891 87.3275L66.5548 88.1164C66.5699 88.1249 66.5824 88.1373 66.5911 88.1522C66.5998 88.1672 66.6044 88.1842 66.6044 88.2015C66.6044 88.2188 66.5998 88.2357 66.5911 88.2507C66.5824 88.2656 66.5699 88.278 66.5548 88.2866L65.1472 89.0945C65.1321 89.1033 65.115 89.108 65.0976 89.108C65.0802 89.108 65.0632 89.1033 65.0481 89.0945L63.6405 88.2859C63.625 88.2778 63.612 88.2656 63.603 88.2507C63.594 88.2357 63.5892 88.2186 63.5892 88.2011C63.5892 88.1837 63.594 88.1665 63.603 88.1516C63.612 88.1366 63.625 88.1245 63.6405 88.1164Z" fill="url(#paint63_linear_44_2798)"/>
<path d="M63.6405 88.1157L65.0084 87.3287C65.0364 87.3141 65.0676 87.3065 65.0992 87.3065C65.1309 87.3065 65.162 87.3141 65.1901 87.3287L66.5548 88.1157C66.5699 88.1243 66.5824 88.1366 66.5911 88.1516C66.5998 88.1665 66.6044 88.1835 66.6044 88.2008C66.6044 88.2181 66.5998 88.2351 66.5911 88.2501C66.5824 88.265 66.5699 88.2774 66.5548 88.2859L65.1472 89.0946C65.1321 89.1033 65.115 89.108 65.0976 89.108C65.0802 89.108 65.0631 89.1033 65.0481 89.0946L63.6405 88.2857C63.6249 88.2777 63.6118 88.2655 63.6026 88.2505C63.5935 88.2355 63.5887 88.2183 63.5887 88.2007C63.5887 88.1832 63.5935 88.166 63.6026 88.151C63.6118 88.136 63.6249 88.1238 63.6405 88.1157Z" fill="url(#paint64_linear_44_2798)"/>
<path opacity="0.399" d="M66.6021 88.2146C66.6041 88.2633 66.5403 88.2942 66.5403 88.2942C66.5403 88.2942 66.306 88.4284 66.0274 88.5887C65.6818 88.7878 65.2687 89.0251 65.2004 89.0654C65.1696 89.0865 65.1331 89.0978 65.0958 89.0978C65.0584 89.0978 65.022 89.0865 64.9912 89.0654L63.6197 88.2724C63.6197 88.2724 63.5898 88.2599 63.5892 88.2052" stroke="white" stroke-width="0.442725" stroke-linecap="round" stroke-linejoin="round"/>
<path d="M64.0165 88.1397L65.0588 87.5592C65.0699 87.5526 65.0825 87.5492 65.0954 87.5492C65.1083 87.5492 65.121 87.5526 65.1321 87.5592L66.1739 88.1397C66.185 88.146 66.1943 88.1552 66.2007 88.1662C66.2072 88.1773 66.2106 88.1898 66.2106 88.2026C66.2106 88.2154 66.2072 88.228 66.2007 88.2391C66.1943 88.2501 66.185 88.2593 66.1739 88.2656L65.1321 88.8641C65.121 88.8706 65.1083 88.8741 65.0954 88.8741C65.0825 88.8741 65.0699 88.8706 65.0588 88.8641L64.0165 88.2656C64.0049 88.2596 63.9953 88.2506 63.9885 88.2395C63.9817 88.2284 63.9781 88.2156 63.9781 88.2026C63.9781 88.1896 63.9817 88.1769 63.9885 88.1658C63.9953 88.1547 64.0049 88.1457 64.0165 88.1397Z" fill="url(#paint65_linear_44_2798)"/>
<path d="M115.464 145.613L131.817 136.168C132.491 135.781 132.592 135.686 132.584 136.984V144.929C132.582 145.916 132.536 145.947 131.817 146.37L115.324 155.884C115.106 156.037 114.815 156.203 114.792 155.524V146.728C114.792 146.25 114.712 146.036 115.464 145.613Z" fill="url(#paint66_linear_44_2798)"/>
<path d="M115.353 145.731L127.541 138.692C128.043 138.404 128.118 138.333 128.113 139.301V145.221C128.111 145.957 128.077 145.98 127.541 146.296L115.249 153.386C115.087 153.5 114.87 153.624 114.852 153.118V146.562C114.852 146.206 114.793 146.046 115.353 145.731Z" fill="url(#paint67_linear_44_2798)"/>
<path d="M115.464 132.496L131.817 123.051C132.491 122.663 132.592 122.568 132.584 123.867V131.812C132.582 132.799 132.536 132.83 131.817 133.252L115.324 142.767C115.106 142.92 114.815 143.086 114.792 142.407V133.61C114.792 133.132 114.712 132.919 115.464 132.496Z" fill="url(#paint68_linear_44_2798)"/>
<path d="M115.353 132.614L127.541 125.575C128.043 125.286 128.118 125.215 128.113 126.183V132.104C128.111 132.84 128.077 132.863 127.541 133.178L115.249 140.269C115.087 140.383 114.87 140.506 114.852 140V133.444C114.852 133.088 114.793 132.929 115.353 132.614Z" fill="url(#paint69_linear_44_2798)"/>
<path d="M115.185 132.618L123.306 127.928C123.64 127.736 123.69 127.688 123.687 128.333V132.278C123.686 132.768 123.663 132.783 123.306 132.993L115.115 137.718C115.007 137.794 114.863 137.876 114.851 137.539V133.171C114.852 132.934 114.812 132.828 115.185 132.618Z" fill="url(#paint70_linear_44_2798)"/>
<path d="M115.185 145.735L123.306 141.045C123.64 140.853 123.69 140.806 123.687 141.45V145.395C123.686 145.885 123.663 145.9 123.306 146.11L115.115 150.835C115.007 150.911 114.863 150.993 114.851 150.656V146.288C114.852 146.051 114.812 145.945 115.185 145.735Z" fill="url(#paint71_linear_44_2798)"/>
<path d="M115.523 132.532L131.82 123.119C132.491 122.733 132.592 122.638 132.584 123.932V131.85C132.582 132.834 132.536 132.864 131.82 133.285L115.383 142.768C115.167 142.921 114.877 143.086 114.853 142.41V133.642C114.853 133.166 114.774 132.953 115.523 132.532Z" stroke="#312FB7" stroke-width="0.442725"/>
<path d="M115.523 139.263L131.82 129.85C132.491 129.464 132.592 129.37 132.584 130.664V138.581C132.582 139.565 132.536 139.596 131.82 140.017L115.383 149.5C115.167 149.652 114.877 149.817 114.853 149.141V140.374C114.853 139.897 114.774 139.684 115.523 139.263Z" stroke="#2F3E4F" stroke-width="0.442725"/>
<path d="M115.523 135.466L131.82 126.053C132.491 125.667 132.592 125.573 132.584 126.867V134.784C132.582 135.768 132.536 135.798 131.82 136.22L115.383 145.702C115.167 145.855 114.877 146.02 114.853 145.344V136.576C114.853 136.1 114.774 135.887 115.523 135.466Z" stroke="#2F3E4F" stroke-width="0.442725"/>
<path d="M115.523 142.715L131.82 133.302C132.491 132.916 132.592 132.821 132.584 134.115V142.033C132.582 143.017 132.536 143.047 131.82 143.468L115.383 152.951C115.167 153.104 114.877 153.269 114.853 152.593V143.825C114.853 143.349 114.774 143.136 115.523 142.715Z" stroke="#2F3E4F" stroke-width="0.442725"/>
<path d="M115.523 145.649L131.82 136.236C132.491 135.85 132.592 135.756 132.584 137.05V144.967C132.582 145.951 132.536 145.982 131.82 146.403L115.383 155.886C115.167 156.038 114.877 156.203 114.853 155.527V146.759C114.853 146.283 114.774 146.07 115.523 145.649Z" stroke="#21828F" stroke-width="0.885449"/>
<path d="M115.523 132.532L131.82 123.119C132.491 122.733 132.592 122.638 132.584 123.932V131.85C132.582 132.834 132.536 132.864 131.82 133.285L115.383 142.768C115.167 142.921 114.877 143.086 114.853 142.41V133.642C114.853 133.166 114.774 132.953 115.523 132.532Z" stroke="#21828F" stroke-width="0.885449"/>
<path opacity="0.69" d="M56.1304 150.92C55.9995 150.976 55.8783 151.054 55.7716 151.148C55.7468 151.152 55.7239 151.163 55.7063 151.181L40.0475 142.112C39.8481 141.995 39.6829 141.829 39.5684 141.628C39.4539 141.428 39.3941 141.201 39.3951 140.97C39.4022 140.741 39.4653 140.517 39.5791 140.318C39.6928 140.119 39.8537 139.951 40.0475 139.829L43.4736 137.871C43.6446 137.969 43.8323 138.036 44.0274 138.066L40.2759 140.252C40.1495 140.325 40.0441 140.43 39.9699 140.555C39.8956 140.681 39.8549 140.824 39.8518 140.97C39.8545 141.12 39.8946 141.268 39.9687 141.399C40.0428 141.53 40.1484 141.64 40.2759 141.72L56.1304 150.92Z" fill="#DDFF39"/>
<path opacity="0.69" d="M59.3927 151.703C59.3927 152.29 58.5119 152.747 57.4354 152.747C56.3588 152.747 55.478 152.29 55.478 151.703C55.4804 151.606 55.5052 151.512 55.5505 151.427C55.5958 151.342 55.6604 151.268 55.739 151.213L55.8043 151.147C55.9191 151.064 56.0389 150.988 56.1631 150.919C56.1957 150.919 56.2284 150.886 56.261 150.886C56.6457 150.736 57.0551 150.659 57.4681 150.659C58.5119 150.659 59.3927 151.116 59.3927 151.703Z" fill="#DDFF39"/>
<path opacity="0.69" d="M46.8657 137.153C46.8657 137.74 45.9849 138.197 44.8757 138.197C44.59 138.199 44.3052 138.166 44.0274 138.099C43.8317 138.034 43.636 137.969 43.4735 137.903C43.1147 137.708 42.9197 137.447 42.9197 137.186C42.9197 136.598 43.8005 136.142 44.877 136.142C45.9849 136.109 46.8657 136.598 46.8657 137.153Z" fill="#DDFF39"/>
<path opacity="0.643" d="M42.9836 132.945V136.925C42.9836 138.019 44.9084 138.066 44.9084 138.066C44.9084 138.066 46.8332 138.116 46.8332 136.925V131.574" fill="url(#paint72_linear_44_2798)"/>
<path opacity="0.643" d="M55.4781 147.527V151.507C55.4781 152.676 57.4354 152.616 57.4354 152.616C57.4354 152.616 59.3602 152.654 59.3602 151.507V146.157" fill="url(#paint73_linear_44_2798)"/>
<g opacity="0.266">
<path opacity="0.69" d="M56.1304 146.22C55.9995 146.277 55.8783 146.354 55.7716 146.449C55.7468 146.452 55.7239 146.464 55.7063 146.481L40.0475 137.412C39.8481 137.296 39.6829 137.129 39.5684 136.929C39.4539 136.728 39.3941 136.501 39.3951 136.27C39.4022 136.041 39.4653 135.817 39.5791 135.618C39.6928 135.419 39.8537 135.251 40.0475 135.129L43.4736 133.171C43.6446 133.27 43.8323 133.336 44.0274 133.367L40.2759 135.553C40.1495 135.626 40.0441 135.73 39.9699 135.856C39.8956 135.982 39.8549 136.124 39.8518 136.27C39.8545 136.421 39.8946 136.568 39.9687 136.699C40.0428 136.83 40.1484 136.941 40.2759 137.021L56.1304 146.22Z" fill="#DDFF39"/>
<path opacity="0.69" d="M59.3927 147.003C59.3927 147.591 58.5119 148.047 57.4354 148.047C56.3588 148.047 55.478 147.59 55.478 147.003C55.4804 146.907 55.5052 146.812 55.5505 146.727C55.5958 146.642 55.6604 146.569 55.739 146.513L55.8043 146.448C55.9191 146.364 56.0389 146.288 56.1631 146.219C56.1957 146.219 56.2284 146.187 56.261 146.187C56.6457 146.036 57.0551 145.959 57.4681 145.959C58.5119 145.959 59.3927 146.416 59.3927 147.003Z" fill="#DDFF39"/>
<path opacity="0.69" d="M46.8657 132.453C46.8657 133.041 45.9849 133.497 44.8757 133.497C44.59 133.499 44.3052 133.466 44.0274 133.4C43.8317 133.334 43.636 133.269 43.4735 133.204C43.1147 133.008 42.9197 132.747 42.9197 132.486C42.9197 131.899 43.8005 131.442 44.877 131.442C45.9849 131.409 46.8657 131.899 46.8657 132.453Z" fill="#DDFF39"/>
<path opacity="0.643" d="M42.9836 128.245V132.225C42.9836 133.32 44.9084 133.366 44.9084 133.366C44.9084 133.366 46.8332 133.417 46.8332 132.225V126.875" fill="url(#paint74_linear_44_2798)"/>
<path opacity="0.643" d="M55.4781 142.995V146.975C55.4781 148.144 57.4354 148.084 57.4354 148.084C57.4354 148.084 59.3602 148.123 59.3602 146.975V141.625" fill="url(#paint75_linear_44_2798)"/>
</g>
<path opacity="0.69" d="M110.964 170.164C110.964 170.164 110.653 170.487 111.622 170.55C111.658 170.55 145.11 151.074 162.013 142.005C162.435 141.777 162.718 141.459 162.718 140.969C162.707 140.735 162.636 140.507 162.513 140.307C162.39 140.108 162.217 139.943 162.013 139.828L158.315 137.871C158.129 137.97 157.926 138.036 157.717 138.066L161.766 140.252C161.9 140.32 162.012 140.423 162.093 140.549C162.173 140.675 162.219 140.82 162.224 140.97C162.224 141.263 162.048 141.417 161.766 141.58L110.964 170.164Z" fill="#DDFF39"/>
<path opacity="0.69" d="M141.13 152.038C141.13 152.626 142.081 153.082 143.243 153.082C144.405 153.082 145.356 152.626 145.356 152.038C145.352 151.94 145.325 151.844 145.276 151.759C145.227 151.673 145.157 151.601 145.074 151.548L145.004 151.483C144.879 151.399 144.75 151.323 144.616 151.255C144.581 151.255 144.546 151.222 144.511 151.222C144.093 151.071 143.652 150.994 143.208 150.995C142.081 150.995 141.13 151.451 141.13 152.038Z" fill="#DDFF39"/>
<path opacity="0.69" d="M154.653 137.153C154.653 137.74 155.604 138.197 156.801 138.197C157.109 138.199 157.416 138.166 157.717 138.099C157.928 138.034 158.139 137.969 158.315 137.903C158.703 137.708 158.914 137.447 158.914 137.186C158.914 136.598 157.963 136.142 156.801 136.142C155.604 136.109 154.653 136.598 154.653 137.153Z" fill="#DDFF39"/>
<path opacity="0.69" d="M107.898 171.172C107.898 171.759 108.849 172.216 110.011 172.216C111.173 172.216 112.124 171.759 112.124 171.172C112.12 171.074 112.093 170.978 112.044 170.892C111.995 170.807 111.925 170.735 111.842 170.682L111.772 170.617C111.647 170.533 111.518 170.457 111.384 170.388C111.349 170.388 111.314 170.356 111.279 170.356C110.861 170.205 110.42 170.128 109.976 170.128C108.849 170.128 107.898 170.585 107.898 171.172Z" fill="#DDFF39"/>
<path opacity="0.231" d="M107.898 165.633C107.898 166.221 108.849 166.677 110.011 166.677C111.173 166.677 112.124 166.221 112.124 165.633C112.12 165.535 112.093 165.439 112.044 165.354C111.995 165.268 111.925 165.196 111.842 165.143L111.772 165.078C111.647 164.994 111.518 164.918 111.384 164.85C111.349 164.85 111.314 164.817 111.279 164.817C110.861 164.666 110.42 164.589 109.976 164.589C108.849 164.589 107.898 165.046 107.898 165.633Z" fill="#DDFF39"/>
<path opacity="0.643" d="M158.843 132.945V136.925C158.843 138.019 156.766 138.066 156.766 138.066C156.766 138.066 154.688 138.117 154.688 136.925V131.574" fill="url(#paint76_linear_44_2798)"/>
<path opacity="0.643" d="M145.356 148.03V152.01C145.356 153.18 143.243 153.12 143.243 153.12C143.243 153.12 141.165 153.158 141.165 152.01V146.66" fill="url(#paint77_linear_44_2798)"/>
<g opacity="0.266">
<path opacity="0.69" d="M111.105 164.747C111.152 164.902 111.417 164.964 111.799 165.13C112.181 165.295 162.013 137.412 162.013 137.412C162.223 137.304 162.399 137.14 162.524 136.939C162.648 136.738 162.715 136.507 162.718 136.271C162.707 136.036 162.636 135.809 162.513 135.609C162.39 135.409 162.217 135.244 162.013 135.129L158.315 133.171C158.129 133.271 157.926 133.337 157.717 133.367L161.766 135.553C161.9 135.621 162.012 135.723 162.093 135.849C162.173 135.975 162.219 136.121 162.224 136.27C162.219 136.424 162.174 136.574 162.094 136.706C162.014 136.837 161.901 136.946 161.766 137.021L111.105 164.747Z" fill="#DDFF39"/>
<path opacity="0.69" d="M141.13 147.675C141.13 148.262 142.081 148.719 143.243 148.719C144.405 148.719 145.356 148.262 145.356 147.675C145.352 147.576 145.325 147.48 145.276 147.395C145.227 147.309 145.157 147.237 145.074 147.184L145.004 147.119C144.879 147.035 144.75 146.959 144.616 146.891C144.581 146.891 144.546 146.858 144.511 146.858C144.093 146.707 143.652 146.63 143.208 146.631C142.081 146.631 141.13 147.087 141.13 147.675Z" fill="#DDFF39"/>
<path opacity="0.69" d="M154.653 132.453C154.653 133.041 155.604 133.497 156.801 133.497C157.109 133.499 157.416 133.466 157.717 133.4C157.928 133.334 158.139 133.269 158.315 133.204C158.703 133.008 158.914 132.747 158.914 132.486C158.914 131.899 157.963 131.442 156.801 131.442C155.604 131.409 154.653 131.899 154.653 132.453Z" fill="#DDFF39"/>
<path opacity="0.643" d="M158.843 128.245V132.225C158.843 133.32 156.766 133.366 156.766 133.366C156.766 133.366 154.688 133.418 154.688 132.225V126.875" fill="url(#paint78_linear_44_2798)"/>
<path opacity="0.643" d="M145.356 143.499V147.479C145.356 148.648 143.243 148.588 143.243 148.588C143.243 148.588 141.165 148.626 141.165 147.479V142.129" fill="url(#paint79_linear_44_2798)"/>
</g>
<path opacity="0.643" d="M112.124 167.164V171.144C112.124 172.313 110.011 172.253 110.011 172.253C110.011 172.253 107.933 172.291 107.933 171.144V165.794" fill="url(#paint80_linear_44_2798)"/>
<path opacity="0.209" d="M112.124 161.625V165.605C112.124 166.774 110.011 166.714 110.011 166.714C110.011 166.714 107.933 166.752 107.933 165.605V160.255" fill="url(#paint81_linear_44_2798)"/>
<path opacity="0.69" d="M56.1305 146.22C55.9995 146.277 55.8784 146.354 55.7716 146.449C55.7469 146.452 55.724 146.464 55.7064 146.481L47.8772 141.947L40.0475 137.412C39.8482 137.296 39.683 137.129 39.5685 136.929C39.454 136.728 39.3942 136.501 39.3952 136.27C39.4022 136.041 39.4654 135.817 39.5791 135.618C39.6929 135.419 39.8537 135.251 40.0475 135.129L43.4736 133.171C43.6446 133.27 43.8324 133.336 44.0275 133.367L40.276 135.553C40.1496 135.626 40.0442 135.73 39.9699 135.856C39.8956 135.982 39.855 136.124 39.8518 136.27C39.8545 136.421 39.8947 136.568 39.9688 136.699C40.0428 136.83 40.1484 136.941 40.276 137.021L56.1305 146.22Z" fill="#DDFF39"/>
<path opacity="0.69" d="M78.862 163.787C78.862 164.375 77.9812 164.831 76.9047 164.831C75.8282 164.831 74.9474 164.374 74.9474 163.787C74.9498 163.691 74.9746 163.596 75.0199 163.511C75.0652 163.426 75.1297 163.353 75.2084 163.297L75.2737 163.232C75.3885 163.148 75.5083 163.072 75.6325 163.003C75.6651 163.003 75.6978 162.971 75.7304 162.971C76.115 162.82 76.5244 162.743 76.9374 162.743C77.9812 162.743 78.862 163.2 78.862 163.787Z" fill="#DDFF39"/>
<path opacity="0.69" d="M78.4921 164.254C78.5137 164.439 78.3768 164.25 78.3424 164.42C78.3646 164.455 78.1228 164.555 78.1228 164.555L87.9904 170.112L98.3524 176.018C99.062 176.427 99.8038 176.859 101.262 176.017C101.733 175.723 103.447 174.877 103.447 174.877L108.981 172.129C108.809 172.035 108.358 171.86 108.358 171.86L101.377 175.347C100.585 175.76 100.378 175.932 99.6544 175.916C98.9307 175.9 98.2269 175.355 97.7405 175.07L78.4921 164.254Z" fill="#DDFF39"/>
<path opacity="0.643" d="M74.9474 159.611V163.591C74.9474 164.76 76.9047 164.7 76.9047 164.7C76.9047 164.7 78.8295 164.738 78.8295 163.591V158.241" fill="url(#paint82_linear_44_2798)"/>
<path opacity="0.239" d="M78.817 158.913C78.8387 159.097 78.7811 158.955 78.7468 159.125C78.769 159.161 78.5252 159.334 78.5252 159.334L98.3523 170.311C99.0619 170.721 99.8037 171.152 101.261 170.31C101.733 170.016 103.447 169.17 103.447 169.17L108.981 166.422C108.808 166.329 108.358 166.154 108.358 166.154L101.377 169.64C100.585 170.053 100.378 170.225 99.6543 170.209C98.9306 170.193 98.2268 169.648 97.7404 169.364L78.817 158.913Z" fill="#DDFF39"/>
<path opacity="0.146" d="M78.862 158.752C78.862 159.339 77.9812 159.796 76.9047 159.796C75.8282 159.796 74.9474 159.339 74.9474 158.752C74.9498 158.655 74.9746 158.561 75.0199 158.476C75.0652 158.391 75.1297 158.317 75.2084 158.262L75.2737 158.196C75.3885 158.113 75.5083 158.037 75.6325 157.968C75.6651 157.968 75.6978 157.935 75.7304 157.935C76.115 157.785 76.5244 157.708 76.9374 157.708C77.9812 157.708 78.862 158.164 78.862 158.752Z" fill="#DDFF39"/>
<path opacity="0.172" d="M74.9474 154.744V158.724C74.9474 159.893 76.9047 159.833 76.9047 159.833C76.9047 159.833 78.8295 159.871 78.8295 158.724V153.374" fill="url(#paint83_linear_44_2798)"/>
<g filter="url(#filter4_f_44_2798)">
<path d="M126.069 65.5586C136.46 65.5586 144.882 58.9131 144.882 50.7154C144.882 42.5176 136.46 35.8721 126.069 35.8721C115.679 35.8721 107.256 42.5176 107.256 50.7154C107.256 58.9131 115.679 65.5586 126.069 65.5586Z" fill="#C1DF26" fill-opacity="0.6"/>
</g>
<defs>
<filter id="filter0_d_44_2798" x="80.5096" y="74.0974" width="38.9942" height="27.7003" filterUnits="userSpaceOnUse" color-interpolation-filters="sRGB">
<feFlood flood-opacity="0" result="BackgroundImageFix"/>
<feColorMatrix in="SourceAlpha" type="matrix" values="0 0 0 0 0 0 0 0 0 0 0 0 0 0 0 0 0 0 127 0" result="hardAlpha"/>
<feOffset dy="-0.442725"/>
<feColorMatrix type="matrix" values="0 0 0 0 0 0 0 0 0 0 0 0 0 0 0 0 0 0 0.957 0"/>
<feBlend mode="normal" in2="BackgroundImageFix" result="effect1_dropShadow_44_2798"/>
<feBlend mode="normal" in="SourceGraphic" in2="effect1_dropShadow_44_2798" result="shape"/>
</filter>
<filter id="filter1_d_44_2798" x="86.3054" y="78.1662" width="27.7496" height="18.5268" filterUnits="userSpaceOnUse" color-interpolation-filters="sRGB">
<feFlood flood-opacity="0" result="BackgroundImageFix"/>
<feColorMatrix in="SourceAlpha" type="matrix" values="0 0 0 0 0 0 0 0 0 0 0 0 0 0 0 0 0 0 127 0" result="hardAlpha"/>
<feOffset dy="-0.442725"/>
<feColorMatrix type="matrix" values="0 0 0 0 0 0 0 0 0 0 0 0 0 0 0 0 0 0 0.957 0"/>
<feBlend mode="normal" in2="BackgroundImageFix" result="effect1_dropShadow_44_2798"/>
<feBlend mode="normal" in="SourceGraphic" in2="effect1_dropShadow_44_2798" result="shape"/>
</filter>
<filter id="filter2_d_44_2798" x="58.0052" y="63.5824" width="83.959" height="51.1586" filterUnits="userSpaceOnUse" color-interpolation-filters="sRGB">
<feFlood flood-opacity="0" result="BackgroundImageFix"/>
<feColorMatrix in="SourceAlpha" type="matrix" values="0 0 0 0 0 0 0 0 0 0 0 0 0 0 0 0 0 0 127 0" result="hardAlpha"/>
<feOffset dy="0.885449"/>
<feColorMatrix type="matrix" values="0 0 0 0 0 0 0 0 0 0 0 0 0 0 0 0 0 0 0.749 0"/>
<feBlend mode="normal" in2="BackgroundImageFix" result="effect1_dropShadow_44_2798"/>
<feBlend mode="normal" in="SourceGraphic" in2="effect1_dropShadow_44_2798" result="shape"/>
</filter>
<filter id="filter3_d_44_2798" x="58.6694" y="63.7286" width="82.5854" height="56.1896" filterUnits="userSpaceOnUse" color-interpolation-filters="sRGB">
<feFlood flood-opacity="0" result="BackgroundImageFix"/>
<feColorMatrix in="SourceAlpha" type="matrix" values="0 0 0 0 0 0 0 0 0 0 0 0 0 0 0 0 0 0 127 0" result="hardAlpha"/>
<feOffset dy="0.885449"/>
<feColorMatrix type="matrix" values="0 0 0 0 0 0 0 0 0 0 0 0 0 0 0 0 0 0 0.749 0"/>
<feBlend mode="normal" in2="BackgroundImageFix" result="effect1_dropShadow_44_2798"/>
<feBlend mode="normal" in="SourceGraphic" in2="effect1_dropShadow_44_2798" result="shape"/>
</filter>
<filter id="filter4_f_44_2798" x="81.5784" y="10.194" width="88.982" height="81.0426" filterUnits="userSpaceOnUse" color-interpolation-filters="sRGB">
<feFlood flood-opacity="0" result="BackgroundImageFix"/>
<feBlend mode="normal" in="SourceGraphic" in2="BackgroundImageFix" result="shape"/>
<feGaussianBlur stdDeviation="12.839" result="effect1_foregroundBlur_44_2798"/>
</filter>
<radialGradient id="paint0_radial_44_2798" cx="0" cy="0" r="1" gradientUnits="userSpaceOnUse" gradientTransform="translate(25.0561 50.6391) rotate(-87.2437) scale(207.578 84.4301)">
<stop stop-color="#D8F200"/>
<stop offset="0.274" stop-color="#364E3D"/>
<stop offset="0.946" stop-color="#25362A"/>
<stop offset="1" stop-color="#222222"/>
</radialGradient>
<linearGradient id="paint1_linear_44_2798" x1="98.664" y1="255.346" x2="99.1363" y2="64.2097" gradientUnits="userSpaceOnUse">
<stop stop-color="#A0FFD6"/>
<stop offset="0.244" stop-color="#364E3D"/>
<stop offset="0.731" stop-color="#25362A"/>
<stop offset="1" stop-color="#222222"/>
</linearGradient>
<radialGradient id="paint2_radial_44_2798" cx="0" cy="0" r="1" gradientUnits="userSpaceOnUse" gradientTransform="translate(-61.9365 87.7643) rotate(170.929) scale(104.711 117.006)">
<stop stop-color="#D8F200"/>
<stop offset="0.274" stop-color="#364E3D"/>
<stop offset="0.946" stop-color="#25362A"/>
<stop offset="1" stop-color="#222222"/>
</radialGradient>
<linearGradient id="paint3_linear_44_2798" x1="149.215" y1="37.5527" x2="149.215" y2="135.449" gradientUnits="userSpaceOnUse">
<stop stop-color="#7DE30B"/>
<stop offset="1" stop-color="#F6CD2A"/>
</linearGradient>
<linearGradient id="paint4_linear_44_2798" x1="152.859" y1="35.8607" x2="152.859" y2="133.757" gradientUnits="userSpaceOnUse">
<stop stop-color="#7DE30B"/>
<stop offset="1" stop-color="#F6CD2A"/>
</linearGradient>
<linearGradient id="paint5_linear_44_2798" x1="100.108" y1="68.5205" x2="100.108" y2="170.103" gradientUnits="userSpaceOnUse">
<stop stop-color="#A0FFD6"/>
<stop offset="0.244" stop-color="#364E3D"/>
<stop offset="0.731" stop-color="#25362A"/>
<stop offset="1" stop-color="#222222"/>
</linearGradient>
<linearGradient id="paint6_linear_44_2798" x1="101.138" y1="197.703" x2="101.138" y2="108.525" gradientUnits="userSpaceOnUse">
<stop stop-color="#A0FFD6"/>
<stop offset="0.244" stop-color="#364E3D"/>
<stop offset="0.731" stop-color="#25362A"/>
<stop offset="1" stop-color="#222222"/>
</linearGradient>
<linearGradient id="paint7_linear_44_2798" x1="101.138" y1="170.778" x2="101.138" y2="81.6001" gradientUnits="userSpaceOnUse">
<stop stop-color="#A0FFD6"/>
<stop offset="0.244" stop-color="#364E3D"/>
<stop offset="0.731" stop-color="#25362A"/>
<stop offset="1" stop-color="#222222"/>
</linearGradient>
<linearGradient id="paint8_linear_44_2798" x1="103.702" y1="152.276" x2="104.571" y2="62.6257" gradientUnits="userSpaceOnUse">
<stop stop-color="#7DE30B"/>
<stop offset="1" stop-color="#F6CD2A"/>
</linearGradient>
<linearGradient id="paint9_linear_44_2798" x1="103.869" y1="175.311" x2="104.604" y2="63.5334" gradientUnits="userSpaceOnUse">
<stop stop-color="#A0FFD6"/>
<stop offset="0.244" stop-color="#364E3D"/>
<stop offset="0.731" stop-color="#25362A"/>
<stop offset="1" stop-color="#222222"/>
</linearGradient>
<linearGradient id="paint10_linear_44_2798" x1="101.138" y1="146.711" x2="101.138" y2="57.615" gradientUnits="userSpaceOnUse">
<stop stop-color="#A0FFD6"/>
<stop offset="0.244" stop-color="#364E3D"/>
<stop offset="0.731" stop-color="#25362A"/>
<stop offset="1" stop-color="#222222"/>
</linearGradient>
<linearGradient id="paint11_linear_44_2798" x1="203.2" y1="132.809" x2="-68.7285" y2="132.277" gradientUnits="userSpaceOnUse">
<stop stop-color="#A0FFD6"/>
<stop offset="0.244" stop-color="#364E3D"/>
<stop offset="0.397" stop-color="#25362A"/>
<stop offset="1" stop-color="#222222"/>
</linearGradient>
<linearGradient id="paint12_linear_44_2798" x1="169.718" y1="131.822" x2="45.1177" y2="138.059" gradientUnits="userSpaceOnUse">
<stop stop-color="#FFFF6A"/>
<stop offset="0.263" stop-color="#364E3D"/>
<stop offset="0.559" stop-color="#25362A"/>
<stop offset="1" stop-color="#222222"/>
</linearGradient>
<linearGradient id="paint13_linear_44_2798" x1="170.051" y1="99.7439" x2="55.9162" y2="101.56" gradientUnits="userSpaceOnUse">
<stop stop-color="#FFFF6A"/>
<stop offset="0.289" stop-color="#364E3D"/>
<stop offset="0.654" stop-color="#25362A"/>
<stop offset="1" stop-color="#222222"/>
</linearGradient>
<linearGradient id="paint14_linear_44_2798" x1="186.274" y1="72.5478" x2="150.683" y2="133.192" gradientUnits="userSpaceOnUse">
<stop stop-color="#A0FFD6" stop-opacity="0"/>
<stop offset="0.384" stop-color="#12ED53"/>
<stop offset="0.837" stop-color="#178638" stop-opacity="0"/>
<stop offset="1"/>
</linearGradient>
<linearGradient id="paint15_linear_44_2798" x1="112.68" y1="30.3293" x2="139.597" y2="91.566" gradientUnits="userSpaceOnUse">
<stop stop-color="#A0FFD6"/>
<stop offset="0.286" stop-color="#12ED53"/>
<stop offset="0.837" stop-color="#178638" stop-opacity="0"/>
<stop offset="1"/>
</linearGradient>
<linearGradient id="paint16_linear_44_2798" x1="99.961" y1="71.2216" x2="99.961" y2="66.1466" gradientUnits="userSpaceOnUse">
<stop stop-color="#7DE30B" stop-opacity="0.282"/>
<stop offset="1" stop-color="#F6CD2A"/>
</linearGradient>
<linearGradient id="paint17_linear_44_2798" x1="99.9611" y1="66.1552" x2="99.9611" y2="70.9496" gradientUnits="userSpaceOnUse">
<stop stop-color="#7DE30B"/>
<stop offset="1" stop-color="#F8FF00"/>
</linearGradient>
<linearGradient id="paint18_linear_44_2798" x1="99.9556" y1="70.195" x2="99.9556" y2="66.8485" gradientUnits="userSpaceOnUse">
<stop stop-color="#3DFF00"/>
<stop offset="1" stop-color="#F6CD2A"/>
</linearGradient>
<linearGradient id="paint19_linear_44_2798" x1="99.9613" y1="69.717" x2="99.9613" y2="67.617" gradientUnits="userSpaceOnUse">
<stop stop-color="#7DE30B" stop-opacity="0.282"/>
<stop offset="1" stop-color="#F6CD2A"/>
</linearGradient>
<linearGradient id="paint20_linear_44_2798" x1="99.9611" y1="67.621" x2="99.9611" y2="69.6044" gradientUnits="userSpaceOnUse">
<stop stop-color="#7DE30B"/>
<stop offset="1" stop-color="#F8FF00"/>
</linearGradient>
<linearGradient id="paint21_linear_44_2798" x1="99.9589" y1="69.2923" x2="99.9589" y2="67.9079" gradientUnits="userSpaceOnUse">
<stop stop-color="#3DFF00"/>
<stop offset="1" stop-color="#F6CD2A"/>
</linearGradient>
<linearGradient id="paint22_linear_44_2798" x1="100.007" y1="82.3004" x2="100.007" y2="91.6205" gradientUnits="userSpaceOnUse">
<stop stop-color="#7DE30B"/>
<stop offset="1" stop-color="#F6CD2A"/>
</linearGradient>
<linearGradient id="paint23_linear_44_2798" x1="100.241" y1="59.3657" x2="79.9376" y2="82.5928" gradientUnits="userSpaceOnUse">
<stop stop-color="#7DE30B" stop-opacity="0"/>
<stop offset="0.438" stop-color="#99BC34" stop-opacity="0.4"/>
<stop offset="0.729" stop-color="#A6F228" stop-opacity="0.376"/>
<stop offset="1" stop-color="#B1F62A" stop-opacity="0.404"/>
</linearGradient>
<linearGradient id="paint24_linear_44_2798" x1="62.9579" y1="145.649" x2="57.5071" y2="172.472" gradientUnits="userSpaceOnUse">
<stop stop-color="#7DE30B"/>
<stop offset="0.298" stop-color="#E8DB23"/>
<stop offset="1" stop-color="#F6CD2A" stop-opacity="0"/>
</linearGradient>
<linearGradient id="paint25_linear_44_2798" x1="77.5151" y1="145.923" x2="77.5151" y2="154.285" gradientUnits="userSpaceOnUse">
<stop stop-color="#CCD824"/>
<stop offset="1" stop-color="#8DFF43"/>
</linearGradient>
<linearGradient id="paint26_linear_44_2798" x1="77.5151" y1="140.745" x2="77.5151" y2="149.107" gradientUnits="userSpaceOnUse">
<stop stop-color="#CCD824"/>
<stop offset="1" stop-color="#8DFF43"/>
</linearGradient>
<linearGradient id="paint27_linear_44_2798" x1="77.5151" y1="135.395" x2="77.5151" y2="143.756" gradientUnits="userSpaceOnUse">
<stop stop-color="#CCD824"/>
<stop offset="1" stop-color="#8DFF43"/>
</linearGradient>
<linearGradient id="paint28_linear_44_2798" x1="77.5151" y1="130.044" x2="77.5151" y2="138.406" gradientUnits="userSpaceOnUse">
<stop stop-color="#CCD824"/>
<stop offset="1" stop-color="#8DFF43"/>
</linearGradient>
<linearGradient id="paint29_linear_44_2798" x1="62.9579" y1="145.649" x2="57.5071" y2="172.472" gradientUnits="userSpaceOnUse">
<stop stop-color="#7DE30B"/>
<stop offset="0.298" stop-color="#E8DB23"/>
<stop offset="1" stop-color="#F6CD2A" stop-opacity="0"/>
</linearGradient>
<linearGradient id="paint30_linear_44_2798" x1="54.9714" y1="76.7404" x2="79.3479" y2="138.243" gradientUnits="userSpaceOnUse">
<stop stop-color="#A0FFD6"/>
<stop offset="0.331" stop-color="#364E3D"/>
<stop offset="0.451" stop-color="#3C5947"/>
<stop offset="1" stop-color="#222222"/>
</linearGradient>
<linearGradient id="paint31_linear_44_2798" x1="86.1892" y1="89.2413" x2="80.487" y2="89.464" gradientUnits="userSpaceOnUse">
<stop stop-color="#A0FFD6"/>
<stop offset="0.244" stop-color="#364E3D"/>
<stop offset="0.355" stop-color="#25362A"/>
<stop offset="1" stop-color="#222222"/>
</linearGradient>
<linearGradient id="paint32_linear_44_2798" x1="108.728" y1="94.3157" x2="86.5854" y2="107.902" gradientUnits="userSpaceOnUse">
<stop stop-color="#A0FFD6"/>
<stop offset="0.244" stop-color="#364E3D"/>
<stop offset="0.355" stop-color="#25362A"/>
<stop offset="1" stop-color="#222222"/>
</linearGradient>
<linearGradient id="paint33_linear_44_2798" x1="72.1982" y1="91.2971" x2="93.4693" y2="119.17" gradientUnits="userSpaceOnUse">
<stop stop-color="#A0FFD6"/>
<stop offset="0.151" stop-color="#364E3D"/>
<stop offset="0.731" stop-color="#25362A"/>
<stop offset="1" stop-color="#222222"/>
</linearGradient>
<linearGradient id="paint34_linear_44_2798" x1="119.319" y1="91.2971" x2="140.589" y2="119.171" gradientUnits="userSpaceOnUse">
<stop stop-color="#A0FFD6"/>
<stop offset="0.151" stop-color="#364E3D"/>
<stop offset="0.731" stop-color="#25362A"/>
<stop offset="1" stop-color="#222222"/>
</linearGradient>
<linearGradient id="paint35_linear_44_2798" x1="95.6146" y1="76.7404" x2="119.991" y2="138.243" gradientUnits="userSpaceOnUse">
<stop stop-color="#A0FFD6"/>
<stop offset="0.331" stop-color="#364E3D"/>
<stop offset="0.451" stop-color="#3C5947"/>
<stop offset="1" stop-color="#222222"/>
</linearGradient>
<linearGradient id="paint36_linear_44_2798" x1="123.302" y1="89.2413" x2="117.6" y2="89.464" gradientUnits="userSpaceOnUse">
<stop stop-color="#A0FFD6"/>
<stop offset="0.244" stop-color="#364E3D"/>
<stop offset="0.355" stop-color="#25362A"/>
<stop offset="1" stop-color="#222222"/>
</linearGradient>
<linearGradient id="paint37_linear_44_2798" x1="140.577" y1="94.3155" x2="118.434" y2="107.902" gradientUnits="userSpaceOnUse">
<stop stop-color="#A0FFD6"/>
<stop offset="0.244" stop-color="#364E3D"/>
<stop offset="0.355" stop-color="#25362A"/>
<stop offset="1" stop-color="#222222"/>
</linearGradient>
<linearGradient id="paint38_linear_44_2798" x1="94.6687" y1="54.1302" x2="119.045" y2="115.633" gradientUnits="userSpaceOnUse">
<stop stop-color="#A0FFD6"/>
<stop offset="0.331" stop-color="#364E3D"/>
<stop offset="0.451" stop-color="#3C5947"/>
<stop offset="1" stop-color="#222222"/>
</linearGradient>
<linearGradient id="paint39_linear_44_2798" x1="149.693" y1="69.2215" x2="121.116" y2="88.3985" gradientUnits="userSpaceOnUse">
<stop stop-color="#A0FFD6"/>
<stop offset="0.244" stop-color="#364E3D"/>
<stop offset="0.355" stop-color="#25362A"/>
<stop offset="1" stop-color="#222222"/>
</linearGradient>
<linearGradient id="paint40_linear_44_2798" x1="148.122" y1="71.7946" x2="126.379" y2="85.2309" gradientUnits="userSpaceOnUse">
<stop stop-color="#A0FFD6"/>
<stop offset="0.244" stop-color="#364E3D"/>
<stop offset="0.355" stop-color="#25362A"/>
<stop offset="1" stop-color="#222222"/>
</linearGradient>
<linearGradient id="paint41_linear_44_2798" x1="55.0543" y1="54.1302" x2="79.4308" y2="115.633" gradientUnits="userSpaceOnUse">
<stop stop-color="#A0FFD6"/>
<stop offset="0.331" stop-color="#364E3D"/>
<stop offset="0.451" stop-color="#3C5947"/>
<stop offset="1" stop-color="#222222"/>
</linearGradient>
<linearGradient id="paint42_linear_44_2798" x1="116.377" y1="69.2215" x2="87.7994" y2="88.3985" gradientUnits="userSpaceOnUse">
<stop stop-color="#A0FFD6"/>
<stop offset="0.244" stop-color="#364E3D"/>
<stop offset="0.355" stop-color="#25362A"/>
<stop offset="1" stop-color="#222222"/>
</linearGradient>
<linearGradient id="paint43_linear_44_2798" x1="99.6235" y1="71.7946" x2="77.8796" y2="85.2309" gradientUnits="userSpaceOnUse">
<stop stop-color="#A0FFD6"/>
<stop offset="0.244" stop-color="#364E3D"/>
<stop offset="0.355" stop-color="#25362A"/>
<stop offset="1" stop-color="#222222"/>
</linearGradient>
<linearGradient id="paint44_linear_44_2798" x1="79.6178" y1="74.723" x2="83.5711" y2="77.1938" gradientUnits="userSpaceOnUse">
<stop stop-color="#CCD824"/>
<stop offset="1" stop-color="#8DFF43"/>
</linearGradient>
<linearGradient id="paint45_linear_44_2798" x1="117.589" y1="96.1248" x2="121.542" y2="98.5956" gradientUnits="userSpaceOnUse">
<stop stop-color="#CCD824"/>
<stop offset="1" stop-color="#8DFF43"/>
</linearGradient>
<linearGradient id="paint46_linear_44_2798" x1="83.296" y1="96.1313" x2="79.4311" y2="98.7382" gradientUnits="userSpaceOnUse">
<stop stop-color="#CCD824"/>
<stop offset="1" stop-color="#8DFF43"/>
</linearGradient>
<linearGradient id="paint47_linear_44_2798" x1="120.059" y1="74.9018" x2="116.194" y2="77.5087" gradientUnits="userSpaceOnUse">
<stop stop-color="#CCD824"/>
<stop offset="1" stop-color="#8DFF43"/>
</linearGradient>
<linearGradient id="paint48_linear_44_2798" x1="99.961" y1="110.919" x2="99.961" y2="105.844" gradientUnits="userSpaceOnUse">
<stop stop-color="#7DE30B" stop-opacity="0.282"/>
<stop offset="1" stop-color="#F6CD2A"/>
</linearGradient>
<linearGradient id="paint49_linear_44_2798" x1="99.9611" y1="105.852" x2="99.9611" y2="110.647" gradientUnits="userSpaceOnUse">
<stop stop-color="#7DE30B"/>
<stop offset="1" stop-color="#F8FF00"/>
</linearGradient>
<linearGradient id="paint50_linear_44_2798" x1="99.9556" y1="109.892" x2="99.9556" y2="106.546" gradientUnits="userSpaceOnUse">
<stop stop-color="#3DFF00"/>
<stop offset="1" stop-color="#F6CD2A"/>
</linearGradient>
<linearGradient id="paint51_linear_44_2798" x1="65.0967" y1="90.7252" x2="65.0967" y2="85.6502" gradientUnits="userSpaceOnUse">
<stop stop-color="#7DE30B" stop-opacity="0.282"/>
<stop offset="1" stop-color="#F6CD2A"/>
</linearGradient>
<linearGradient id="paint52_linear_44_2798" x1="65.0967" y1="85.6587" x2="65.0967" y2="90.4531" gradientUnits="userSpaceOnUse">
<stop stop-color="#7DE30B"/>
<stop offset="1" stop-color="#F8FF00"/>
</linearGradient>
<linearGradient id="paint53_linear_44_2798" x1="65.0913" y1="89.6985" x2="65.0913" y2="86.352" gradientUnits="userSpaceOnUse">
<stop stop-color="#3DFF00"/>
<stop offset="1" stop-color="#F6CD2A"/>
</linearGradient>
<linearGradient id="paint54_linear_44_2798" x1="134.653" y1="90.7252" x2="134.653" y2="85.6502" gradientUnits="userSpaceOnUse">
<stop stop-color="#7DE30B" stop-opacity="0.282"/>
<stop offset="1" stop-color="#F6CD2A"/>
</linearGradient>
<linearGradient id="paint55_linear_44_2798" x1="134.653" y1="85.6587" x2="134.653" y2="90.4531" gradientUnits="userSpaceOnUse">
<stop stop-color="#7DE30B"/>
<stop offset="1" stop-color="#F8FF00"/>
</linearGradient>
<linearGradient id="paint56_linear_44_2798" x1="134.648" y1="89.6985" x2="134.648" y2="86.352" gradientUnits="userSpaceOnUse">
<stop stop-color="#3DFF00"/>
<stop offset="1" stop-color="#F6CD2A"/>
</linearGradient>
<linearGradient id="paint57_linear_44_2798" x1="99.9613" y1="109.414" x2="99.9613" y2="107.314" gradientUnits="userSpaceOnUse">
<stop stop-color="#7DE30B" stop-opacity="0.282"/>
<stop offset="1" stop-color="#F6CD2A"/>
</linearGradient>
<linearGradient id="paint58_linear_44_2798" x1="99.9611" y1="107.318" x2="99.9611" y2="109.302" gradientUnits="userSpaceOnUse">
<stop stop-color="#7DE30B"/>
<stop offset="1" stop-color="#F8FF00"/>
</linearGradient>
<linearGradient id="paint59_linear_44_2798" x1="99.9589" y1="108.99" x2="99.9589" y2="107.605" gradientUnits="userSpaceOnUse">
<stop stop-color="#3DFF00"/>
<stop offset="1" stop-color="#F6CD2A"/>
</linearGradient>
<linearGradient id="paint60_linear_44_2798" x1="134.653" y1="89.2206" x2="134.653" y2="87.1205" gradientUnits="userSpaceOnUse">
<stop stop-color="#7DE30B" stop-opacity="0.282"/>
<stop offset="1" stop-color="#F6CD2A"/>
</linearGradient>
<linearGradient id="paint61_linear_44_2798" x1="134.653" y1="87.1246" x2="134.653" y2="89.108" gradientUnits="userSpaceOnUse">
<stop stop-color="#7DE30B"/>
<stop offset="1" stop-color="#F8FF00"/>
</linearGradient>
<linearGradient id="paint62_linear_44_2798" x1="134.651" y1="88.7959" x2="134.651" y2="87.4114" gradientUnits="userSpaceOnUse">
<stop stop-color="#3DFF00"/>
<stop offset="1" stop-color="#F6CD2A"/>
</linearGradient>
<linearGradient id="paint63_linear_44_2798" x1="65.0968" y1="89.2206" x2="65.0968" y2="87.1205" gradientUnits="userSpaceOnUse">
<stop stop-color="#7DE30B" stop-opacity="0.282"/>
<stop offset="1" stop-color="#F6CD2A"/>
</linearGradient>
<linearGradient id="paint64_linear_44_2798" x1="65.0965" y1="87.1246" x2="65.0965" y2="89.108" gradientUnits="userSpaceOnUse">
<stop stop-color="#7DE30B"/>
<stop offset="1" stop-color="#F8FF00"/>
</linearGradient>
<linearGradient id="paint65_linear_44_2798" x1="65.0944" y1="88.7959" x2="65.0944" y2="87.4114" gradientUnits="userSpaceOnUse">
<stop stop-color="#3DFF00"/>
<stop offset="1" stop-color="#F6CD2A"/>
</linearGradient>
<linearGradient id="paint66_linear_44_2798" x1="123.954" y1="169.553" x2="123.954" y2="133.259" gradientUnits="userSpaceOnUse">
<stop stop-color="#A0FFD6"/>
<stop offset="0.244" stop-color="#364E3D"/>
<stop offset="0.731" stop-color="#25362A"/>
<stop offset="1" stop-color="#222222"/>
</linearGradient>
<linearGradient id="paint67_linear_44_2798" x1="93.1002" y1="168.233" x2="125.083" y2="140.439" gradientUnits="userSpaceOnUse">
<stop stop-color="#A0FFD6"/>
<stop offset="0.244" stop-color="#364E3D"/>
<stop offset="0.731" stop-color="#25362A"/>
<stop offset="1" stop-color="#222222"/>
</linearGradient>
<linearGradient id="paint68_linear_44_2798" x1="123.954" y1="156.435" x2="123.954" y2="120.142" gradientUnits="userSpaceOnUse">
<stop stop-color="#A0FFD6"/>
<stop offset="0.244" stop-color="#364E3D"/>
<stop offset="0.731" stop-color="#25362A"/>
<stop offset="1" stop-color="#222222"/>
</linearGradient>
<linearGradient id="paint69_linear_44_2798" x1="93.1002" y1="155.115" x2="125.083" y2="127.322" gradientUnits="userSpaceOnUse">
<stop stop-color="#A0FFD6"/>
<stop offset="0.244" stop-color="#364E3D"/>
<stop offset="0.731" stop-color="#25362A"/>
<stop offset="1" stop-color="#222222"/>
</linearGradient>
<linearGradient id="paint70_linear_44_2798" x1="79.1228" y1="161.667" x2="122.952" y2="131.674" gradientUnits="userSpaceOnUse">
<stop stop-color="#A0FFD6"/>
<stop offset="0.244" stop-color="#364E3D"/>
<stop offset="0.731" stop-color="#25362A"/>
<stop offset="1" stop-color="#222222"/>
</linearGradient>
<linearGradient id="paint71_linear_44_2798" x1="79.1228" y1="174.784" x2="122.952" y2="144.791" gradientUnits="userSpaceOnUse">
<stop stop-color="#A0FFD6"/>
<stop offset="0.244" stop-color="#364E3D"/>
<stop offset="0.731" stop-color="#25362A"/>
<stop offset="1" stop-color="#222222"/>
</linearGradient>
<linearGradient id="paint72_linear_44_2798" x1="44.9084" y1="133.983" x2="44.9084" y2="137.144" gradientUnits="userSpaceOnUse">
<stop stop-color="#7DE30B" stop-opacity="0"/>
<stop offset="1" stop-color="#F6CD2A"/>
</linearGradient>
<linearGradient id="paint73_linear_44_2798" x1="57.4191" y1="147.81" x2="57.4191" y2="151.086" gradientUnits="userSpaceOnUse">
<stop stop-color="#7DE30B" stop-opacity="0"/>
<stop offset="1" stop-color="#F6CD2A"/>
</linearGradient>
<linearGradient id="paint74_linear_44_2798" x1="44.9084" y1="129.283" x2="44.9084" y2="132.445" gradientUnits="userSpaceOnUse">
<stop stop-color="#7DE30B" stop-opacity="0"/>
<stop offset="1" stop-color="#F6CD2A"/>
</linearGradient>
<linearGradient id="paint75_linear_44_2798" x1="57.4191" y1="143.279" x2="57.4191" y2="146.554" gradientUnits="userSpaceOnUse">
<stop stop-color="#7DE30B" stop-opacity="0"/>
<stop offset="1" stop-color="#F6CD2A"/>
</linearGradient>
<linearGradient id="paint76_linear_44_2798" x1="156.766" y1="133.983" x2="156.766" y2="137.144" gradientUnits="userSpaceOnUse">
<stop stop-color="#7DE30B" stop-opacity="0"/>
<stop offset="1" stop-color="#F6CD2A"/>
</linearGradient>
<linearGradient id="paint77_linear_44_2798" x1="143.261" y1="148.314" x2="143.261" y2="151.589" gradientUnits="userSpaceOnUse">
<stop stop-color="#7DE30B" stop-opacity="0"/>
<stop offset="1" stop-color="#F6CD2A"/>
</linearGradient>
<linearGradient id="paint78_linear_44_2798" x1="156.766" y1="129.283" x2="156.766" y2="132.445" gradientUnits="userSpaceOnUse">
<stop stop-color="#7DE30B" stop-opacity="0"/>
<stop offset="1" stop-color="#F6CD2A"/>
</linearGradient>
<linearGradient id="paint79_linear_44_2798" x1="143.261" y1="143.782" x2="143.261" y2="147.057" gradientUnits="userSpaceOnUse">
<stop stop-color="#7DE30B" stop-opacity="0"/>
<stop offset="1" stop-color="#F6CD2A"/>
</linearGradient>
<linearGradient id="paint80_linear_44_2798" x1="110.029" y1="167.447" x2="110.029" y2="170.723" gradientUnits="userSpaceOnUse">
<stop stop-color="#7DE30B" stop-opacity="0"/>
<stop offset="1" stop-color="#F6CD2A"/>
</linearGradient>
<linearGradient id="paint81_linear_44_2798" x1="110.029" y1="161.909" x2="110.029" y2="165.184" gradientUnits="userSpaceOnUse">
<stop stop-color="#7DE30B" stop-opacity="0"/>
<stop offset="1" stop-color="#F6CD2A"/>
</linearGradient>
<linearGradient id="paint82_linear_44_2798" x1="76.8884" y1="159.895" x2="76.8884" y2="163.17" gradientUnits="userSpaceOnUse">
<stop stop-color="#7DE30B" stop-opacity="0"/>
<stop offset="1" stop-color="#F6CD2A"/>
</linearGradient>
<linearGradient id="paint83_linear_44_2798" x1="76.8884" y1="155.027" x2="76.8884" y2="158.303" gradientUnits="userSpaceOnUse">
<stop stop-color="#7DE30B" stop-opacity="0"/>
<stop offset="1" stop-color="#F6CD2A"/>
</linearGradient>
</defs>
</svg>
