<svg width="231" height="230" viewBox="0 0 231 230" fill="none" xmlns="http://www.w3.org/2000/svg">
<path d="M115.324 76.6165C129.928 76.6165 141.767 64.7773 141.767 50.1729C141.767 35.5685 129.928 23.7292 115.324 23.7292C100.719 23.7292 88.8802 35.5685 88.8802 50.1729C88.8802 64.7773 100.719 76.6165 115.324 76.6165Z" fill="url(#paint0_radial_44_6686)"/>
<path opacity="0.747" d="M130.225 53.5322C134.792 53.5322 138.494 49.83 138.494 45.2632C138.494 40.6963 134.792 36.9941 130.225 36.9941C125.658 36.9941 121.956 40.6963 121.956 45.2632C121.956 49.83 125.658 53.5322 130.225 53.5322Z" fill="url(#paint1_linear_44_6686)"/>
<mask id="mask0_44_6686" style="mask-type:luminance" maskUnits="userSpaceOnUse" x="88" y="23" width="54" height="54">
<path d="M115.324 76.6165C129.928 76.6165 141.767 64.7773 141.767 50.1729C141.767 35.5685 129.928 23.7292 115.324 23.7292C100.719 23.7292 88.8802 35.5685 88.8802 50.1729C88.8802 64.7773 100.719 76.6165 115.324 76.6165Z" fill="white"/>
</mask>
<g mask="url(#mask0_44_6686)">
<path d="M123.076 75.2384C131.591 75.2384 138.494 68.3354 138.494 59.8201C138.494 51.3049 131.591 44.4019 123.076 44.4019C114.561 44.4019 107.658 51.3049 107.658 59.8201C107.658 68.3354 114.561 75.2384 123.076 75.2384Z" fill="url(#paint2_linear_44_6686)"/>
</g>
<path opacity="0.396" d="M132.809 60.4231C135.949 60.4231 138.494 57.8779 138.494 54.7382C138.494 51.5985 135.949 49.0532 132.809 49.0532C129.67 49.0532 127.124 51.5985 127.124 54.7382C127.124 57.8779 129.67 60.4231 132.809 60.4231Z" fill="url(#paint3_linear_44_6686)"/>
<path opacity="0.747" d="M121.095 66.6248C123.949 66.6248 126.263 64.311 126.263 61.4567C126.263 58.6024 123.949 56.2886 121.095 56.2886C118.241 56.2886 115.927 58.6024 115.927 61.4567C115.927 64.311 118.241 66.6248 121.095 66.6248Z" fill="url(#paint4_linear_44_6686)"/>
<path opacity="0.747" d="M124.024 67.1417C126.117 67.1417 127.814 65.4449 127.814 63.3517C127.814 61.2586 126.117 59.5618 124.024 59.5618C121.93 59.5618 120.234 61.2586 120.234 63.3517C120.234 65.4449 121.93 67.1417 124.024 67.1417Z" fill="url(#paint5_linear_44_6686)"/>
<path opacity="0.412" d="M109.553 54.2212C116.688 54.2212 122.473 48.7836 122.473 42.076C122.473 35.3685 116.688 29.9309 109.553 29.9309C102.417 29.9309 96.6324 35.3685 96.6324 42.076C96.6324 48.7836 102.417 54.2212 109.553 54.2212Z" fill="url(#paint6_linear_44_6686)"/>
<path opacity="0.453" d="M100.681 56.4608C102.631 56.4608 104.212 54.8797 104.212 52.9293C104.212 50.9788 102.631 49.3977 100.681 49.3977C98.7304 49.3977 97.1492 50.9788 97.1492 52.9293C97.1492 54.8797 98.7304 56.4608 100.681 56.4608Z" fill="url(#paint7_linear_44_6686)"/>
<path opacity="0.453" d="M107.055 62.4904C109.005 62.4904 110.586 60.9092 110.586 58.9588C110.586 57.0084 109.005 55.4272 107.055 55.4272C105.104 55.4272 103.523 57.0084 103.523 58.9588C103.523 60.9092 105.104 62.4904 107.055 62.4904Z" fill="url(#paint8_linear_44_6686)"/>
<path opacity="0.453" d="M99.561 62.1457C100.703 62.1457 101.628 61.2202 101.628 60.0785C101.628 58.9368 100.703 58.0112 99.561 58.0112C98.4193 58.0112 97.4938 58.9368 97.4938 60.0785C97.4938 61.2202 98.4193 62.1457 99.561 62.1457Z" fill="url(#paint9_linear_44_6686)"/>
<path d="M99.2575 29.1729C97.3198 30.6692 97.566 30.8344 98.2746 30.779C98.9831 30.7235 100.53 30.1865 100.666 29.9243C100.802 29.6621 101.074 30.779 101.074 30.779L101.775 31.3421C101.775 31.3421 102.529 33.8824 101.517 34.3617C100.504 34.841 100.898 35.6313 100.898 35.6313C100.898 35.6313 101.838 35.6522 101.775 36.3427C101.712 37.0331 101.516 38.2032 101.516 38.2032C101.516 38.2032 101.005 37.5356 101.073 37.2729C101.142 37.0102 100.411 39.0669 100.04 39.3803C99.6682 39.6937 98.694 43.4259 98.694 43.4259L99.3089 45.6827L100.04 46.4601L100.429 49.1188L100.898 49.6366L100.429 50.0863C100.429 50.0863 102.2 53.4283 102.323 53.5641C102.445 53.6998 103.4 54.5741 103.345 54.3393C103.289 54.1045 101.517 49.6363 101.517 49.6363L101.322 48.1875L100.898 47.5391H101.775V49.1185L103.345 51.5552L103.626 51.3728V52.4064L105.087 54.3395L105.441 54.9424L105.087 55.1331V56.2143L106.314 57.3935L110.597 59.5352H111.265L112.295 59.7233L112.758 60.5409L114.078 61.2644L115.327 62.0519L115.743 63.1903L116.538 63.4333L118.509 63.9259L118.707 64.51H119.517L119.186 63.9259L119.867 63.4333L120.389 63.6786V64.101L121.071 64.3191V64.9187L120.613 65.4749V66.3919L120.14 66.6364L119.867 67.251L118.706 67.5203L118.113 68.8371H118.706L118.113 69.6683V70.6158L118.706 71.0047L120.39 72.8996L121.54 73.2809H123.005C123.005 73.2809 122.795 74.9557 121.857 75.1459C120.919 75.3361 120.14 76.1537 120.14 76.1537C120.14 76.1537 125.97 75.7211 132.776 70.0866C137.346 65.846 138.782 62.3611 138.782 62.3611C138.782 62.3611 136.079 63.2195 135.445 63.1901C134.81 63.1606 135.445 61.5535 135.445 61.5535H133.569L132.893 62.3615L131.662 61.5535H131.027V60.0547L127.789 61.2646L126.959 61.5537L125.431 60.5412L125.674 61.2648L124.921 61.5539V62.9127L124.228 62.3615L124.553 60.9419L123.005 61.7609L121.541 63.4335L120.141 62.5976L118.929 63.1903L117.459 62.3613L117.691 59.5352L115.743 59.1619L113.801 59.5352L114.414 58.6757V58.0555L115.054 57.8349L115.327 56.6899L115.743 56.2152L113.553 55.8467L113.142 56.6899L113.553 57.3944L111.598 58.0557V57.3944H110.597L110.064 56.2152V53.5665L110.597 53.8191V52.409L111.918 51.558L113.553 51.3756H114.078L114.414 50.7636H116.051L116.538 51.1581L117.032 50.7636L117.691 51.5578V52.4088L118.113 53.1804L118.707 53.8189H119.186L118.927 49.9142L119.866 49.1217L120.389 48.6928L121.07 47.8374L121.856 47.5423L122.087 46.4631L123.004 44.5388V43.7386H123.603L124.012 43.1172H124.734V42.648L124.552 42.2893L126.035 40.5924L126.226 41.4507L128.393 40.0001L126.441 39.3822L126.226 38.4175H124.92L125.429 37.4936H127.486L128.727 36.3437L126.441 34.8117L125.429 34.3627L124.012 32.5933L123.603 33.4518L123.004 33.6831L122.087 32.5933L119.185 31.9006V33.6833L119.866 34.3627L119.185 35.6324L119.516 37.2748L118.508 37.926V36.8002L118.111 35.3517L114.076 34.1474L114.719 32.9499H115.325L115.509 31.9006L116.536 30.9876L117.03 32.3911L118.506 32.1975L117.457 31.3439L117.862 30.1414L118.927 29.125L118.705 29.9257L118.927 30.7804L121.539 31.6353L123.395 31.901L122.305 30.7812L123.395 30.3921L119.866 28.5384L117.689 27.2681L118.927 26.7816L117.457 26.2078L116.049 26.7816L112.756 26.2078L111.916 26.5098L109.042 27.2678L108.56 27.7753L108.818 28.2931H109.764V28.8788L110.595 29.4999L109.764 29.2988L106.943 28.2931L105.777 28.0187L105.084 27.2678L105.439 26.7813H104.139L103.342 27.5491L103.284 26.6453C101.871 27.3686 100.523 28.2144 99.2575 29.1729Z" fill="url(#paint10_linear_44_6686)"/>
<path d="M116.192 55.932L118.287 54.9749L123.238 56.3263L121.125 57.1746L120.761 56.3263L118.556 55.932L116.652 56.3263L116.192 55.932Z" fill="url(#paint11_linear_44_6686)"/>
<path d="M123.578 56.7263L125.951 56.3088L126.847 56.9979L125.334 57.3952L124.937 58.0989L123.397 57.7594L124.182 57.3952L123.578 56.7263Z" fill="url(#paint12_linear_44_6686)"/>
<path opacity="0.27" d="M98.7407 28.656C96.803 30.1524 97.0492 30.3176 97.7577 30.2621C98.4663 30.2067 100.013 29.6697 100.149 29.4075C100.286 29.1453 100.558 30.2621 100.558 30.2621L101.258 30.8253C101.258 30.8253 102.012 33.3656 101 33.8449C99.9876 34.3241 100.381 35.1145 100.381 35.1145C100.381 35.1145 101.321 35.1353 101.258 35.8258C101.195 36.5163 100.999 37.6863 100.999 37.6863C100.999 37.6863 100.488 37.0188 100.557 36.7561C100.626 36.4934 99.8946 38.5501 99.523 38.8635C99.1514 39.1768 98.1771 42.9091 98.1771 42.9091L98.792 45.1658L99.5228 45.9433L99.9124 48.602L100.382 49.1198L99.9124 49.5694C99.9124 49.5694 101.683 52.9115 101.806 53.0472C101.928 53.183 102.883 54.0573 102.828 53.8225C102.773 53.5877 101 49.1195 101 49.1195L100.806 47.6707L100.382 47.0222H101.258V48.6016L102.828 51.0384L103.109 50.856V51.8896L104.57 53.8226L104.924 54.4256L104.57 54.6163V55.6975L105.797 56.8767L110.08 59.0183H110.748L111.778 59.2065L112.241 60.0241L113.561 60.7476L114.81 61.535L115.226 62.6734L116.021 62.9165L117.992 63.409L118.19 63.9932H119L118.669 63.409L119.35 62.9165L119.873 63.1618V63.5842L120.554 63.8023V64.4018L120.096 64.9581V65.8751L119.623 66.1195L119.35 66.7342L118.19 67.0034L117.596 68.3203H118.19L117.596 69.1515V70.099L118.19 70.4878L119.873 72.3828L121.023 72.764H122.488C122.488 72.764 122.278 74.4388 121.34 74.629C120.402 74.8192 119.624 75.6368 119.624 75.6368C119.624 75.6368 125.453 75.2042 132.259 69.5698C136.83 65.3291 138.265 61.8443 138.265 61.8443C138.265 61.8443 135.562 62.7027 134.928 62.6732C134.293 62.6438 134.928 61.0367 134.928 61.0367H133.052L132.376 61.8446L131.145 61.0367H130.51V59.5379L127.272 60.7478L126.443 61.0368L124.914 60.0244L125.157 60.7479L124.404 61.037V62.3959L123.712 61.8446L124.036 60.4251L122.488 61.2441L121.024 62.9167L119.624 62.0808L118.412 62.6734L116.942 61.8444L117.174 59.0183L115.226 58.645L113.284 59.0183L113.898 58.1589V57.5387L114.537 57.318L114.81 56.1731L115.226 55.6983L113.036 55.3298L112.625 56.1731L113.036 56.8775L111.082 57.5389V56.8775H110.08L109.548 55.6983V53.0497L110.08 53.3022V51.8922L111.401 51.0411L113.036 50.8587H113.561L113.898 50.2468H115.534L116.021 50.6413L116.515 50.2468L117.174 51.041V51.892L117.596 52.6636L118.19 53.302H118.669L118.411 49.3973L119.35 48.6049L119.872 48.1759L120.553 47.3206L121.339 47.0255L121.57 45.9462L122.487 44.022V43.2218H123.086L123.495 42.6004H124.217V42.1311L124.035 41.7724L125.518 40.0756L125.709 40.9338L127.876 39.4833L125.925 38.8654L125.709 37.9006H124.403L124.913 36.9768H126.969L128.21 35.8268L125.925 34.2948L124.913 33.8459L123.495 32.0765L123.086 32.9349L122.487 33.1663L121.57 32.0765L118.668 31.3838V33.1665L119.349 33.8459L118.668 35.1155L118.999 36.758L117.991 37.4091V36.2834L117.594 34.8349L113.559 33.6306L114.202 32.4331H114.808L114.993 31.3838L116.019 30.4707L116.514 31.8742L117.99 31.6806L116.94 30.827L117.345 29.6246L118.41 28.6082L118.188 29.4089L118.41 30.2635L121.022 31.1185L122.878 31.3841L121.788 30.2644L122.878 29.8752L119.349 28.0216L117.172 26.7513L118.41 26.2648L116.94 25.6909L115.532 26.2648L112.239 25.6909L111.399 25.9929L108.525 26.7509L108.043 27.2584L108.301 27.7763H109.247V28.362L110.078 28.983L109.247 28.782L106.426 27.7763L105.26 27.5018L104.567 26.7509L104.922 26.2644H103.622L102.826 27.0322L102.767 26.1285C101.354 26.8518 100.006 27.6976 98.7407 28.656Z" fill="url(#paint13_linear_44_6686)"/>
<path d="M89.6346 29.0051C84.6517 35.6251 137.733 77.3678 140.727 67.6998C143.721 58.0318 94.6169 22.3854 89.6346 29.0051Z" stroke="#4DD2BA" stroke-width="0.560976"/>
<path d="M88.9455 29.6943C83.9626 36.3143 137.044 78.057 140.038 68.389C143.032 58.721 93.9278 23.0746 88.9455 29.6943Z" stroke="#4DD2BA" stroke-width="0.560976"/>
<path d="M90.3237 28.3161C85.3407 34.9362 138.422 76.6789 141.416 67.0108C144.41 57.3428 95.3059 21.6964 90.3237 28.3161Z" stroke="#4DD2BA" stroke-width="0.560976"/>
<path d="M115.324 76.6165C129.928 76.6165 141.767 64.7773 141.767 50.1729C141.767 35.5685 129.928 23.7292 115.324 23.7292C100.719 23.7292 88.8802 35.5685 88.8802 50.1729C88.8802 64.7773 100.719 76.6165 115.324 76.6165Z" fill="url(#paint14_radial_44_6686)"/>
<g opacity="0.747" filter="url(#filter0_f_44_6686)">
<path d="M130.225 53.5322C134.792 53.5322 138.494 49.83 138.494 45.2632C138.494 40.6963 134.792 36.9941 130.225 36.9941C125.658 36.9941 121.956 40.6963 121.956 45.2632C121.956 49.83 125.658 53.5322 130.225 53.5322Z" fill="url(#paint15_linear_44_6686)"/>
</g>
<mask id="mask1_44_6686" style="mask-type:luminance" maskUnits="userSpaceOnUse" x="88" y="23" width="54" height="54">
<path d="M115.284 76.6165C129.866 76.6165 141.688 64.7773 141.688 50.1729C141.688 35.5685 129.866 23.7292 115.284 23.7292C100.701 23.7292 88.8802 35.5685 88.8802 50.1729C88.8802 64.7773 100.701 76.6165 115.284 76.6165Z" fill="white"/>
</mask>
<g mask="url(#mask1_44_6686)">
<g filter="url(#filter1_f_44_6686)">
<path d="M123.076 75.2384C131.591 75.2384 138.494 68.3354 138.494 59.8201C138.494 51.3049 131.591 44.4019 123.076 44.4019C114.561 44.4019 107.658 51.3049 107.658 59.8201C107.658 68.3354 114.561 75.2384 123.076 75.2384Z" fill="url(#paint16_linear_44_6686)"/>
</g>
</g>
<g opacity="0.396" filter="url(#filter2_f_44_6686)">
<path d="M132.809 60.4231C135.949 60.4231 138.494 57.8779 138.494 54.7382C138.494 51.5985 135.949 49.0532 132.809 49.0532C129.67 49.0532 127.124 51.5985 127.124 54.7382C127.124 57.8779 129.67 60.4231 132.809 60.4231Z" fill="url(#paint17_linear_44_6686)"/>
</g>
<g opacity="0.747" filter="url(#filter3_f_44_6686)">
<path d="M121.095 66.6248C123.949 66.6248 126.263 64.311 126.263 61.4567C126.263 58.6024 123.949 56.2886 121.095 56.2886C118.241 56.2886 115.927 58.6024 115.927 61.4567C115.927 64.311 118.241 66.6248 121.095 66.6248Z" fill="url(#paint18_linear_44_6686)"/>
</g>
<g opacity="0.747" filter="url(#filter4_f_44_6686)">
<path d="M124.024 67.1417C126.117 67.1417 127.814 65.4449 127.814 63.3517C127.814 61.2586 126.117 59.5618 124.024 59.5618C121.93 59.5618 120.234 61.2586 120.234 63.3517C120.234 65.4449 121.93 67.1417 124.024 67.1417Z" fill="url(#paint19_linear_44_6686)"/>
</g>
<g opacity="0.412" filter="url(#filter5_f_44_6686)">
<path d="M109.553 54.2212C116.688 54.2212 122.473 48.7836 122.473 42.076C122.473 35.3685 116.688 29.9309 109.553 29.9309C102.417 29.9309 96.6324 35.3685 96.6324 42.076C96.6324 48.7836 102.417 54.2212 109.553 54.2212Z" fill="url(#paint20_linear_44_6686)"/>
</g>
<g opacity="0.453" filter="url(#filter6_f_44_6686)">
<path d="M100.681 56.4608C102.631 56.4608 104.212 54.8797 104.212 52.9293C104.212 50.9788 102.631 49.3977 100.681 49.3977C98.7304 49.3977 97.1492 50.9788 97.1492 52.9293C97.1492 54.8797 98.7304 56.4608 100.681 56.4608Z" fill="url(#paint21_linear_44_6686)"/>
</g>
<g opacity="0.453" filter="url(#filter7_f_44_6686)">
<path d="M107.055 62.4904C109.005 62.4904 110.586 60.9092 110.586 58.9588C110.586 57.0084 109.005 55.4272 107.055 55.4272C105.104 55.4272 103.523 57.0084 103.523 58.9588C103.523 60.9092 105.104 62.4904 107.055 62.4904Z" fill="url(#paint22_linear_44_6686)"/>
</g>
<g opacity="0.453" filter="url(#filter8_f_44_6686)">
<path d="M99.561 62.1457C100.703 62.1457 101.628 61.2202 101.628 60.0785C101.628 58.9368 100.703 58.0112 99.561 58.0112C98.4193 58.0112 97.4938 58.9368 97.4938 60.0785C97.4938 61.2202 98.4193 62.1457 99.561 62.1457Z" fill="url(#paint23_linear_44_6686)"/>
</g>
<path d="M99.2575 29.1729C97.3198 30.6692 97.566 30.8344 98.2746 30.779C98.9831 30.7235 100.53 30.1865 100.666 29.9243C100.802 29.6621 101.074 30.779 101.074 30.779L101.775 31.3421C101.775 31.3421 102.529 33.8824 101.517 34.3617C100.504 34.841 100.898 35.6313 100.898 35.6313C100.898 35.6313 101.838 35.6522 101.775 36.3427C101.712 37.0331 101.516 38.2032 101.516 38.2032C101.516 38.2032 101.005 37.5356 101.073 37.2729C101.142 37.0102 100.411 39.0669 100.04 39.3803C99.6682 39.6937 98.694 43.4259 98.694 43.4259L99.3089 45.6827L100.04 46.4601L100.429 49.1188L100.898 49.6366L100.429 50.0863C100.429 50.0863 102.2 53.4283 102.323 53.5641C102.445 53.6998 103.4 54.5741 103.345 54.3393C103.289 54.1045 101.517 49.6363 101.517 49.6363L101.322 48.1875L100.898 47.5391H101.775V49.1185L103.345 51.5552L103.626 51.3728V52.4064L105.087 54.3395L105.441 54.9424L105.087 55.1331V56.2143L106.314 57.3935L110.597 59.5352H111.265L112.295 59.7233L112.758 60.5409L114.078 61.2644L115.327 62.0519L115.743 63.1903L116.538 63.4333L118.509 63.9259L118.707 64.51H119.517L119.186 63.9259L119.867 63.4333L120.389 63.6786V64.101L121.071 64.3191V64.9187L120.613 65.4749V66.3919L120.14 66.6364L119.867 67.251L118.706 67.5203L118.113 68.8371H118.706L118.113 69.6683V70.6158L118.706 71.0047L120.39 72.8996L121.54 73.2809H123.005C123.005 73.2809 122.795 74.9557 121.857 75.1459C120.919 75.3361 120.14 76.1537 120.14 76.1537C120.14 76.1537 125.97 75.7211 132.776 70.0866C137.346 65.846 138.782 62.3611 138.782 62.3611C138.782 62.3611 136.079 63.2195 135.445 63.1901C134.81 63.1606 135.445 61.5535 135.445 61.5535H133.569L132.893 62.3615L131.662 61.5535H131.027V60.0547L127.789 61.2646L126.959 61.5537L125.431 60.5412L125.674 61.2648L124.921 61.5539V62.9127L124.228 62.3615L124.553 60.9419L123.005 61.7609L121.541 63.4335L120.141 62.5976L118.929 63.1903L117.459 62.3613L117.691 59.5352L115.743 59.1619L113.801 59.5352L114.414 58.6757V58.0555L115.054 57.8349L115.327 56.6899L115.743 56.2152L113.553 55.8467L113.142 56.6899L113.553 57.3944L111.598 58.0557V57.3944H110.597L110.064 56.2152V53.5665L110.597 53.8191V52.409L111.918 51.558L113.553 51.3756H114.078L114.414 50.7636H116.051L116.538 51.1581L117.032 50.7636L117.691 51.5578V52.4088L118.113 53.1804L118.707 53.8189H119.186L118.927 49.9142L119.866 49.1217L120.389 48.6928L121.07 47.8374L121.856 47.5423L122.087 46.4631L123.004 44.5388V43.7386H123.603L124.012 43.1172H124.734V42.648L124.552 42.2893L126.035 40.5924L126.226 41.4507L128.393 40.0001L126.441 39.3822L126.226 38.4175H124.92L125.429 37.4936H127.486L128.727 36.3437L126.441 34.8117L125.429 34.3627L124.012 32.5933L123.603 33.4518L123.004 33.6831L122.087 32.5933L119.185 31.9006V33.6833L119.866 34.3627L119.185 35.6324L119.516 37.2748L118.508 37.926V36.8002L118.111 35.3517L114.076 34.1474L114.719 32.9499H115.325L115.509 31.9006L116.536 30.9876L117.03 32.3911L118.506 32.1975L117.457 31.3439L117.862 30.1414L118.927 29.125L118.705 29.9257L118.927 30.7804L121.539 31.6353L123.395 31.901L122.305 30.7812L123.395 30.3921L119.866 28.5384L117.689 27.2681L118.927 26.7816L117.457 26.2078L116.049 26.7816L112.756 26.2078L111.916 26.5098L109.042 27.2678L108.56 27.7753L108.818 28.2931H109.764V28.8788L110.595 29.4999L109.764 29.2988L106.943 28.2931L105.777 28.0187L105.084 27.2678L105.439 26.7813H104.139L103.342 27.5491L103.284 26.6453C101.871 27.3686 100.523 28.2144 99.2575 29.1729Z" fill="url(#paint24_linear_44_6686)"/>
<path d="M116.192 55.932L118.287 54.9749L123.238 56.3263L121.125 57.1746L120.761 56.3263L118.556 55.932L116.652 56.3263L116.192 55.932Z" fill="url(#paint25_linear_44_6686)"/>
<path d="M123.578 56.7263L125.951 56.3088L126.847 56.9979L125.334 57.3952L124.937 58.0989L123.397 57.7594L124.182 57.3952L123.578 56.7263Z" fill="url(#paint26_linear_44_6686)"/>
<path opacity="0.27" d="M98.7407 28.656C96.803 30.1524 97.0492 30.3176 97.7577 30.2621C98.4663 30.2067 100.013 29.6697 100.149 29.4075C100.286 29.1453 100.558 30.2621 100.558 30.2621L101.258 30.8253C101.258 30.8253 102.012 33.3656 101 33.8449C99.9876 34.3241 100.381 35.1145 100.381 35.1145C100.381 35.1145 101.321 35.1353 101.258 35.8258C101.195 36.5163 100.999 37.6863 100.999 37.6863C100.999 37.6863 100.488 37.0188 100.557 36.7561C100.626 36.4934 99.8946 38.5501 99.523 38.8635C99.1514 39.1768 98.1771 42.9091 98.1771 42.9091L98.792 45.1658L99.5228 45.9433L99.9124 48.602L100.382 49.1198L99.9124 49.5694C99.9124 49.5694 101.683 52.9115 101.806 53.0472C101.928 53.183 102.883 54.0573 102.828 53.8225C102.773 53.5877 101 49.1195 101 49.1195L100.806 47.6707L100.382 47.0222H101.258V48.6016L102.828 51.0384L103.109 50.856V51.8896L104.57 53.8226L104.924 54.4256L104.57 54.6163V55.6975L105.797 56.8767L110.08 59.0183H110.748L111.778 59.2065L112.241 60.0241L113.561 60.7476L114.81 61.535L115.226 62.6734L116.021 62.9165L117.992 63.409L118.19 63.9932H119L118.669 63.409L119.35 62.9165L119.873 63.1618V63.5842L120.554 63.8023V64.4018L120.096 64.9581V65.8751L119.623 66.1195L119.35 66.7342L118.19 67.0034L117.596 68.3203H118.19L117.596 69.1515V70.099L118.19 70.4878L119.873 72.3828L121.023 72.764H122.488C122.488 72.764 122.278 74.4388 121.34 74.629C120.402 74.8192 119.624 75.6368 119.624 75.6368C119.624 75.6368 125.453 75.2042 132.259 69.5698C136.83 65.3291 138.265 61.8443 138.265 61.8443C138.265 61.8443 135.562 62.7027 134.928 62.6732C134.293 62.6438 134.928 61.0367 134.928 61.0367H133.052L132.376 61.8446L131.145 61.0367H130.51V59.5379L127.272 60.7478L126.443 61.0368L124.914 60.0244L125.157 60.7479L124.404 61.037V62.3959L123.712 61.8446L124.036 60.4251L122.488 61.2441L121.024 62.9167L119.624 62.0808L118.412 62.6734L116.942 61.8444L117.174 59.0183L115.226 58.645L113.284 59.0183L113.898 58.1589V57.5387L114.537 57.318L114.81 56.1731L115.226 55.6983L113.036 55.3298L112.625 56.1731L113.036 56.8775L111.082 57.5389V56.8775H110.08L109.548 55.6983V53.0497L110.08 53.3022V51.8922L111.401 51.0411L113.036 50.8587H113.561L113.898 50.2468H115.534L116.021 50.6413L116.515 50.2468L117.174 51.041V51.892L117.596 52.6636L118.19 53.302H118.669L118.411 49.3973L119.35 48.6049L119.872 48.1759L120.553 47.3206L121.339 47.0255L121.57 45.9462L122.487 44.022V43.2218H123.086L123.495 42.6004H124.217V42.1311L124.035 41.7724L125.518 40.0756L125.709 40.9338L127.876 39.4833L125.925 38.8654L125.709 37.9006H124.403L124.913 36.9768H126.969L128.21 35.8268L125.925 34.2948L124.913 33.8459L123.495 32.0765L123.086 32.9349L122.487 33.1663L121.57 32.0765L118.668 31.3838V33.1665L119.349 33.8459L118.668 35.1155L118.999 36.758L117.991 37.4091V36.2834L117.594 34.8349L113.559 33.6306L114.202 32.4331H114.808L114.993 31.3838L116.019 30.4707L116.514 31.8742L117.99 31.6806L116.94 30.827L117.345 29.6246L118.41 28.6082L118.188 29.4089L118.41 30.2635L121.022 31.1185L122.878 31.3841L121.788 30.2644L122.878 29.8752L119.349 28.0216L117.172 26.7513L118.41 26.2648L116.94 25.6909L115.532 26.2648L112.239 25.6909L111.399 25.9929L108.525 26.7509L108.043 27.2584L108.301 27.7763H109.247V28.362L110.078 28.983L109.247 28.782L106.426 27.7763L105.26 27.5018L104.567 26.7509L104.922 26.2644H103.622L102.826 27.0322L102.767 26.1285C101.354 26.8518 100.006 27.6976 98.7407 28.656Z" fill="url(#paint27_linear_44_6686)"/>
<path d="M89.6346 29.0051C84.6517 35.6251 137.733 77.3678 140.727 67.6998C143.721 58.0318 94.6169 22.3854 89.6346 29.0051Z" stroke="#4DD2BA" stroke-width="0.560976"/>
<path d="M88.9455 29.6943C83.9626 36.3143 137.044 78.057 140.038 68.389C143.032 58.721 93.9278 23.0746 88.9455 29.6943Z" stroke="#4DD2BA" stroke-width="0.560976"/>
<path d="M90.3237 28.3161C85.3407 34.9362 138.422 76.6789 141.416 67.0108C144.41 57.3428 95.3059 21.6964 90.3237 28.3161Z" stroke="#4DD2BA" stroke-width="0.560976"/>
<path d="M88.8374 67.2543C93.7113 73.9551 149.149 35.3978 140.779 29.7077C132.409 24.0176 83.9636 60.5544 88.8374 67.2543Z" stroke="#4DD2BA" stroke-width="0.560976"/>
<path d="M89.295 68.1149C94.1689 74.8157 149.607 36.2584 141.237 30.5683C132.867 24.8782 84.4212 61.415 89.295 68.1149Z" stroke="#4DD2BA" stroke-width="0.560976"/>
<path d="M88.3802 66.394C93.2541 73.0947 148.692 34.5374 140.322 28.8473C131.952 23.1573 83.5064 59.694 88.3802 66.394Z" stroke="#4DD2BA" stroke-width="0.560976"/>
<g filter="url(#filter9_f_44_6686)">
<path d="M139.528 70.7591C140.765 70.7591 141.767 69.7564 141.767 68.5196C141.767 67.2827 140.765 66.28 139.528 66.28C138.291 66.28 137.288 67.2827 137.288 68.5196C137.288 69.7564 138.291 70.7591 139.528 70.7591Z" fill="url(#paint28_linear_44_6686)"/>
</g>
<g filter="url(#filter10_f_44_6686)">
<path d="M89.9138 30.4478C91.1506 30.4478 92.1533 29.4451 92.1533 28.2083C92.1533 26.9714 91.1506 25.9688 89.9138 25.9688C88.6769 25.9688 87.6743 26.9714 87.6743 28.2083C87.6743 29.4451 88.6769 30.4478 89.9138 30.4478Z" fill="url(#paint29_linear_44_6686)"/>
</g>
<g filter="url(#filter11_f_44_6686)">
<path d="M140.906 31.6536C142.143 31.6536 143.146 30.6509 143.146 29.4141C143.146 28.1772 142.143 27.1746 140.906 27.1746C139.669 27.1746 138.667 28.1772 138.667 29.4141C138.667 30.6509 139.669 31.6536 140.906 31.6536Z" fill="url(#paint30_linear_44_6686)"/>
</g>
<g filter="url(#filter12_f_44_6686)">
<path d="M89.9138 70.7591C91.1506 70.7591 92.1533 69.7564 92.1533 68.5196C92.1533 67.2827 91.1506 66.28 89.9138 66.28C88.6769 66.28 87.6743 67.2827 87.6743 68.5196C87.6743 69.7564 88.6769 70.7591 89.9138 70.7591Z" fill="url(#paint31_linear_44_6686)"/>
</g>
<mask id="mask2_44_6686" style="mask-type:luminance" maskUnits="userSpaceOnUse" x="73" y="112" width="84" height="51">
<path d="M75.0535 135.304L112.818 113.579C114.306 112.72 116.493 112.804 117.835 113.579L155.513 135.304C155.928 135.54 156.273 135.881 156.513 136.294C156.753 136.706 156.88 137.175 156.88 137.652C156.88 138.13 156.753 138.599 156.513 139.011C156.273 139.424 155.928 139.765 155.513 140.001L116.65 162.329C116.236 162.571 115.764 162.699 115.283 162.699C114.802 162.699 114.331 162.571 113.916 162.329L75.0535 140.001C73.1476 139.012 73.1476 136.375 75.0535 135.304Z" fill="white"/>
</mask>
<g mask="url(#mask2_44_6686)">
<path d="M75.0535 135.287L112.818 113.561C114.306 112.702 116.493 112.786 117.835 113.561L155.513 135.287C155.928 135.522 156.273 135.864 156.513 136.276C156.753 136.689 156.88 137.157 156.88 137.635C156.88 138.112 156.753 138.581 156.513 138.993C156.273 139.406 155.928 139.747 155.513 139.983L116.65 162.311C116.236 162.554 115.764 162.682 115.283 162.682C114.802 162.682 114.331 162.554 113.916 162.311L75.0535 139.983C73.1477 138.994 73.1477 136.358 75.0535 135.287Z" fill="url(#paint32_linear_44_6686)"/>
</g>
<path d="M124.113 127.625L115.084 132.847L124.12 138.064L133.126 132.853" fill="url(#paint33_linear_44_6686)"/>
<path d="M124.113 122.426L115.084 127.649L124.12 132.866L133.126 127.655" fill="url(#paint34_linear_44_6686)"/>
<path d="M124.113 117.461L115.084 122.683L124.12 127.9L133.126 122.689" fill="url(#paint35_linear_44_6686)"/>
<path d="M124.113 112.262L115.084 117.485L124.12 122.702L133.126 117.491" fill="url(#paint36_linear_44_6686)"/>
<path d="M124.113 107.125L115.084 112.347L124.12 117.564L133.126 112.353" fill="url(#paint37_linear_44_6686)"/>
<path d="M124.113 101.926L115.084 107.148L124.12 112.366L133.126 107.154" fill="url(#paint38_linear_44_6686)"/>
<path d="M124.113 96.9604L115.084 102.183L124.12 107.4L133.126 102.189" fill="url(#paint39_linear_44_6686)"/>
<path d="M124.113 91.762L115.084 96.9844L124.12 102.202L133.126 96.9904" fill="url(#paint40_linear_44_6686)"/>
<path d="M124.113 86.9688L115.084 92.1912L124.12 97.4084L133.126 92.1972" fill="url(#paint41_linear_44_6686)"/>
<path d="M124.113 81.7703L115.084 86.9927L124.12 92.2099L133.126 86.9987" fill="url(#paint42_linear_44_6686)"/>
<path d="M124.121 76.8174L115.084 81.8551L124.121 87.0723L133.127 81.8611" fill="url(#paint43_linear_44_6686)"/>
<path d="M106.886 127.625L97.8564 132.847L106.893 138.064L115.899 132.853" fill="url(#paint44_linear_44_6686)"/>
<path d="M106.886 122.426L97.8564 127.649L106.893 132.866L115.899 127.655" fill="url(#paint45_linear_44_6686)"/>
<path d="M106.886 117.461L97.8564 122.683L106.893 127.9L115.899 122.689" fill="url(#paint46_linear_44_6686)"/>
<path d="M106.886 112.262L97.8564 117.485L106.893 122.702L115.899 117.491" fill="url(#paint47_linear_44_6686)"/>
<path d="M106.886 107.125L97.8564 112.347L106.893 117.564L115.899 112.353" fill="url(#paint48_linear_44_6686)"/>
<path d="M106.886 101.926L97.8564 107.148L106.893 112.366L115.899 107.154" fill="url(#paint49_linear_44_6686)"/>
<path d="M106.886 96.9604L97.8564 102.183L106.893 107.4L115.899 102.189" fill="url(#paint50_linear_44_6686)"/>
<path d="M106.886 91.762L97.8564 96.9844L106.893 102.202L115.899 96.9904" fill="url(#paint51_linear_44_6686)"/>
<path d="M106.886 86.9688L97.8564 92.1912L106.893 97.4084L115.899 92.1972" fill="url(#paint52_linear_44_6686)"/>
<path d="M106.886 81.7703L97.8564 86.9927L106.893 92.2099L115.899 86.9987" fill="url(#paint53_linear_44_6686)"/>
<path d="M106.893 76.8174L97.8568 81.8551L106.893 87.0723L115.9 81.8611" fill="url(#paint54_linear_44_6686)"/>
<path d="M106.366 86.675V137.724L115.279 142.745L124.152 137.724L124.287 86.675L115.279 81.4875L106.366 86.675Z" fill="url(#paint55_linear_44_6686)"/>
<mask id="mask3_44_6686" style="mask-type:luminance" maskUnits="userSpaceOnUse" x="124" y="132" width="18" height="11">
<path d="M125.098 137.152L132.842 132.697C133.001 132.615 133.177 132.572 133.356 132.572C133.535 132.572 133.711 132.615 133.87 132.697L141.596 137.152C141.681 137.201 141.752 137.271 141.802 137.355C141.851 137.44 141.877 137.536 141.877 137.634C141.877 137.732 141.851 137.828 141.802 137.912C141.752 137.997 141.681 138.067 141.596 138.115L133.627 142.694C133.542 142.743 133.446 142.77 133.347 142.77C133.249 142.77 133.152 142.743 133.067 142.694L125.098 138.115C125.009 138.07 124.935 138.001 124.884 137.916C124.832 137.831 124.805 137.733 124.805 137.634C124.805 137.534 124.832 137.437 124.884 137.352C124.935 137.267 125.009 137.198 125.098 137.152Z" fill="white"/>
</mask>
<g mask="url(#mask3_44_6686)">
<g opacity="0.653">
<path d="M112.732 128.716L132.093 117.578C132.49 117.371 132.931 117.263 133.379 117.263C133.826 117.263 134.267 117.371 134.664 117.578L153.981 128.716C154.194 128.837 154.371 129.012 154.494 129.223C154.617 129.435 154.682 129.675 154.682 129.92C154.682 130.164 154.617 130.405 154.494 130.616C154.371 130.828 154.194 131.003 153.981 131.123L134.057 142.571C133.845 142.695 133.603 142.761 133.356 142.761C133.11 142.761 132.868 142.695 132.655 142.571L112.732 131.123C112.511 131.009 112.326 130.837 112.196 130.624C112.067 130.412 111.999 130.168 111.999 129.92C111.999 129.671 112.067 129.427 112.196 129.215C112.326 129.003 112.511 128.83 112.732 128.716Z" fill="url(#paint56_linear_44_6686)"/>
</g>
</g>
<path d="M124.151 86.6284L115.166 91.6717V142.75L124.151 137.632V86.6284Z" fill="url(#paint57_linear_44_6686)"/>
<path opacity="0.589" d="M115.166 91.6558L106.313 86.6635L115.321 81.4702L124.262 86.6635L115.166 91.6558Z" fill="url(#paint58_linear_44_6686)"/>
<path d="M124.286 137.444L115.256 142.666L124.292 147.884L133.299 142.673" fill="url(#paint59_linear_44_6686)"/>
<path d="M124.286 132.246L115.256 137.468L124.292 142.685L133.299 137.474" fill="url(#paint60_linear_44_6686)"/>
<path d="M124.286 127.28L115.256 132.503L124.292 137.72L133.299 132.509" fill="url(#paint61_linear_44_6686)"/>
<path d="M124.286 122.082L115.256 127.304L124.292 132.521L133.299 127.31" fill="url(#paint62_linear_44_6686)"/>
<path d="M124.286 116.944L115.256 122.166L124.292 127.383L133.299 122.172" fill="url(#paint63_linear_44_6686)"/>
<path d="M124.286 111.745L115.256 116.968L124.292 122.185L133.299 116.974" fill="url(#paint64_linear_44_6686)"/>
<path d="M124.286 106.78L115.256 112.002L124.292 117.219L133.299 112.008" fill="url(#paint65_linear_44_6686)"/>
<path d="M124.286 101.581L115.256 106.804L124.292 112.021L133.299 106.81" fill="url(#paint66_linear_44_6686)"/>
<path d="M124.286 96.7881L115.256 102.01L124.292 107.228L133.299 102.017" fill="url(#paint67_linear_44_6686)"/>
<path d="M124.286 91.5896L115.256 96.812L124.292 102.029L133.299 96.818" fill="url(#paint68_linear_44_6686)"/>
<path d="M124.293 86.6367L115.256 91.6745L124.293 96.8917L133.299 91.6805" fill="url(#paint69_linear_44_6686)"/>
<path d="M106.714 137.444L97.6843 142.666L106.721 147.884L115.727 142.673" fill="url(#paint70_linear_44_6686)"/>
<path d="M106.714 132.246L97.6843 137.468L106.721 142.685L115.727 137.474" fill="url(#paint71_linear_44_6686)"/>
<path d="M106.714 127.28L97.6843 132.503L106.721 137.72L115.727 132.509" fill="url(#paint72_linear_44_6686)"/>
<path d="M106.714 122.082L97.6843 127.304L106.721 132.521L115.727 127.31" fill="url(#paint73_linear_44_6686)"/>
<path d="M106.714 116.944L97.6843 122.166L106.721 127.383L115.727 122.172" fill="url(#paint74_linear_44_6686)"/>
<path d="M106.714 111.745L97.6843 116.968L106.721 122.185L115.727 116.974" fill="url(#paint75_linear_44_6686)"/>
<path d="M106.714 106.78L97.6843 112.002L106.721 117.22L115.727 112.008" fill="url(#paint76_linear_44_6686)"/>
<path d="M106.714 101.582L97.6843 106.804L106.721 112.021L115.727 106.81" fill="url(#paint77_linear_44_6686)"/>
<path d="M106.714 96.7881L97.6843 102.01L106.721 107.228L115.727 102.017" fill="url(#paint78_linear_44_6686)"/>
<path d="M106.714 91.5896L97.6843 96.812L106.721 102.029L115.727 96.818" fill="url(#paint79_linear_44_6686)"/>
<mask id="mask4_44_6686" style="mask-type:luminance" maskUnits="userSpaceOnUse" x="89" y="132" width="18" height="11">
<path d="M89.4375 137.152L97.1814 132.697C97.3403 132.615 97.5167 132.572 97.6957 132.572C97.8748 132.572 98.0512 132.615 98.2101 132.697L105.936 137.152C106.021 137.201 106.092 137.271 106.141 137.355C106.19 137.44 106.216 137.536 106.216 137.634C106.216 137.732 106.19 137.828 106.141 137.912C106.092 137.997 106.021 138.067 105.936 138.115L97.9671 142.694C97.8821 142.743 97.7853 142.77 97.6868 142.77C97.5882 142.77 97.4915 142.743 97.4064 142.694L89.4375 138.115C89.3491 138.07 89.2751 138.001 89.2234 137.916C89.1716 137.831 89.1443 137.733 89.1443 137.634C89.1443 137.534 89.1716 137.437 89.2234 137.352C89.2751 137.267 89.3491 137.198 89.4375 137.152Z" fill="white"/>
</mask>
<g mask="url(#mask4_44_6686)">
<g opacity="0.653">
<path d="M77.0715 128.716L96.4326 117.578C96.8297 117.371 97.2708 117.263 97.7184 117.263C98.166 117.263 98.607 117.371 99.0042 117.578L118.321 128.716C118.534 128.837 118.711 129.012 118.834 129.223C118.957 129.435 119.022 129.675 119.022 129.92C119.022 130.164 118.957 130.405 118.834 130.616C118.711 130.828 118.534 131.003 118.321 131.123L98.3971 142.571C98.1845 142.695 97.9426 142.761 97.6962 142.761C97.4498 142.761 97.2078 142.695 96.9952 142.571L77.0715 131.123C76.8507 131.009 76.6655 130.837 76.5362 130.624C76.4069 130.412 76.3386 130.168 76.3386 129.92C76.3386 129.671 76.4069 129.427 76.5362 129.215C76.6655 129.003 76.8507 128.83 77.0715 128.716Z" fill="url(#paint80_linear_44_6686)"/>
</g>
</g>
<path d="M106.721 86.6367L97.6845 91.6745L106.721 96.8917L115.727 91.6805" fill="url(#paint81_linear_44_6686)"/>
<path opacity="0.541" d="M106.734 96.9237C106.706 109.683 106.691 147.895 106.691 147.895L115.412 142.869L115.354 91.7964L106.734 96.9237Z" fill="url(#paint82_linear_44_6686)"/>
<path opacity="0.844" d="M124.228 96.9353L124.345 147.973L115.383 142.8L115.353 91.7966L124.228 96.9353Z" fill="url(#paint83_linear_44_6686)"/>
<path opacity="0.541" d="M124.244 96.9297C124.216 109.689 124.327 147.988 124.327 147.988L133.328 142.869L133.27 91.7964L124.244 96.9297Z" fill="url(#paint84_linear_44_6686)"/>
<path opacity="0.784" d="M106.751 96.9499C106.781 109.709 106.774 147.973 106.774 147.973L97.8114 142.8L97.7363 91.7029L106.751 96.9499Z" fill="url(#paint85_linear_44_6686)"/>
<path opacity="0.46" d="M97.739 81.8591V91.6672L106.692 86.6347L97.739 81.8591Z" fill="#44E713"/>
<path opacity="0.46" d="M133.299 81.8137V91.7124L124.263 86.6335L133.299 81.8137Z" fill="#44E713"/>
<mask id="mask5_44_6686" style="mask-type:luminance" maskUnits="userSpaceOnUse" x="107" y="142" width="18" height="12">
<path d="M107.354 147.488L115.098 143.034C115.257 142.951 115.433 142.908 115.612 142.908C115.791 142.908 115.968 142.951 116.126 143.034L123.852 147.489C123.938 147.537 124.008 147.607 124.058 147.691C124.107 147.776 124.133 147.872 124.133 147.97C124.133 148.068 124.107 148.164 124.058 148.249C124.008 148.333 123.938 148.403 123.852 148.452L115.884 153.03C115.798 153.08 115.702 153.106 115.603 153.106C115.505 153.106 115.408 153.08 115.323 153.03L107.354 148.451C107.266 148.406 107.191 148.337 107.14 148.252C107.088 148.167 107.061 148.069 107.061 147.97C107.061 147.87 107.088 147.773 107.14 147.688C107.191 147.603 107.266 147.534 107.354 147.488Z" fill="white"/>
</mask>
<g mask="url(#mask5_44_6686)">
<path d="M94.9878 139.052L114.349 127.914C114.746 127.707 115.187 127.6 115.635 127.6C116.082 127.6 116.523 127.707 116.92 127.914L136.237 139.052C136.45 139.173 136.627 139.348 136.75 139.559C136.873 139.771 136.938 140.011 136.938 140.256C136.938 140.501 136.873 140.741 136.75 140.952C136.627 141.164 136.45 141.339 136.237 141.46L116.313 152.907C116.101 153.031 115.859 153.097 115.612 153.097C115.366 153.097 115.124 153.031 114.911 152.907L94.9878 141.46C94.7669 141.346 94.5818 141.173 94.4525 140.961C94.3232 140.748 94.2548 140.504 94.2548 140.256C94.2548 140.007 94.3232 139.763 94.4525 139.551C94.5818 139.339 94.7669 139.166 94.9878 139.052Z" fill="url(#paint86_linear_44_6686)"/>
</g>
<path d="M75.3462 140.076C77.2324 141.154 111.077 160.621 113.312 161.831C115.546 163.041 117.174 161.988 117.174 161.988C117.174 161.988 152.826 141.501 155.011 140.253C157.196 139.005 156.948 137.518 156.948 137.518C156.948 137.518 157.103 142.492 157.036 143.984C157.017 144.414 156.89 144.832 156.667 145.199C156.443 145.567 156.13 145.872 155.757 146.086C155.757 146.086 119.081 167.203 117.058 168.413C116.491 168.759 115.834 168.928 115.171 168.898C114.507 168.868 113.868 168.64 113.336 168.244C113.336 168.244 76.543 147.029 75.0223 146.141C73.5017 145.253 73.6075 143.822 73.6075 143.822L73.63 137.606C73.8655 138.619 74.4797 139.502 75.3462 140.076Z" fill="url(#paint87_linear_44_6686)"/>
<path d="M75.3462 146.277C77.2324 147.356 111.077 166.823 113.312 168.033C115.546 169.243 117.174 168.19 117.174 168.19C117.174 168.19 152.826 147.702 155.011 146.455C157.196 145.207 156.948 143.719 156.948 143.719C156.948 143.719 157.103 148.694 157.036 150.185C157.017 150.615 156.89 151.033 156.667 151.401C156.443 151.769 156.13 152.074 155.757 152.288C155.757 152.288 119.081 173.404 117.058 174.614C116.491 174.961 115.834 175.129 115.171 175.099C114.507 175.069 113.868 174.841 113.336 174.445C113.336 174.445 76.543 153.231 75.0223 152.343C73.5017 151.455 73.6075 150.023 73.6075 150.023L73.63 143.808C73.8655 144.82 74.4797 145.704 75.3462 146.277Z" fill="url(#paint88_linear_44_6686)"/>
<path d="M75.3462 152.652C77.2324 153.73 111.077 173.197 113.312 174.407C115.546 175.617 117.174 174.564 117.174 174.564C117.174 174.564 152.826 154.076 155.011 152.829C157.196 151.581 156.948 150.093 156.948 150.093C156.948 150.093 157.103 155.068 157.036 156.559C157.017 156.989 156.89 157.407 156.667 157.775C156.443 158.143 156.13 158.448 155.757 158.662C155.757 158.662 119.081 179.778 117.058 180.988C116.491 181.335 115.834 181.503 115.171 181.473C114.507 181.443 113.868 181.215 113.336 180.819C113.336 180.819 76.543 159.605 75.0223 158.717C73.5017 157.829 73.6075 156.397 73.6075 156.397L73.63 150.182C73.8655 151.194 74.4797 152.078 75.3462 152.652Z" fill="url(#paint89_linear_44_6686)"/>
<path d="M75.3462 158.853C77.2324 159.931 111.077 179.399 113.312 180.609C115.546 181.818 117.174 180.766 117.174 180.766C117.174 180.766 152.826 160.278 155.011 159.03C157.196 157.783 156.948 156.295 156.948 156.295C156.948 156.295 157.103 161.27 157.036 162.761C157.017 163.191 156.89 163.609 156.667 163.977C156.443 164.344 156.13 164.649 155.757 164.864C155.757 164.864 119.081 185.98 117.058 187.19C116.491 187.536 115.834 187.705 115.171 187.675C114.507 187.645 113.868 187.417 113.336 187.021C113.336 187.021 76.543 165.806 75.0223 164.918C73.5017 164.031 73.6075 162.599 73.6075 162.599L73.63 156.384C73.8655 157.396 74.4797 158.28 75.3462 158.853Z" fill="url(#paint90_linear_44_6686)"/>
<path d="M75.3462 165.227C77.2324 166.306 111.077 185.773 113.312 186.983C115.546 188.193 117.174 187.14 117.174 187.14C117.174 187.14 152.826 166.652 155.011 165.405C157.196 164.157 156.948 162.669 156.948 162.669C156.948 162.669 157.103 167.644 157.036 169.135C157.017 169.565 156.89 169.983 156.667 170.351C156.443 170.719 156.13 171.024 155.757 171.238C155.757 171.238 119.081 192.354 117.058 193.564C116.491 193.91 115.834 194.079 115.171 194.049C114.507 194.019 113.868 193.791 113.336 193.395C113.336 193.395 76.543 172.181 75.0223 171.293C73.5017 170.405 73.6075 168.973 73.6075 168.973L73.63 162.758C73.8655 163.77 74.4797 164.654 75.3462 165.227Z" fill="url(#paint91_linear_44_6686)"/>
<path d="M75.3462 171.429C77.2324 172.507 111.077 191.975 113.312 193.185C115.546 194.394 117.174 193.341 117.174 193.341C117.174 193.341 152.826 172.854 155.011 171.606C157.196 170.359 156.948 168.871 156.948 168.871C156.948 168.871 157.103 173.846 157.036 175.337C157.017 175.767 156.89 176.185 156.667 176.553C156.443 176.92 156.13 177.225 155.757 177.439C155.757 177.439 119.081 198.556 117.058 199.766C116.491 200.112 115.834 200.281 115.171 200.251C114.507 200.221 113.868 199.993 113.336 199.597C113.336 199.597 76.543 178.382 75.0223 177.494C73.5017 176.607 73.6075 175.175 73.6075 175.175L73.63 168.96C73.8655 169.972 74.4797 170.855 75.3462 171.429Z" fill="url(#paint92_linear_44_6686)"/>
<path d="M75.3462 177.803C77.2324 178.881 111.077 198.349 113.312 199.559C115.546 200.768 117.174 199.715 117.174 199.715C117.174 199.715 152.826 179.228 155.011 177.98C157.196 176.733 156.948 175.245 156.948 175.245C156.948 175.245 157.103 180.22 157.036 181.711C157.017 182.141 156.89 182.559 156.667 182.927C156.443 183.294 156.13 183.599 155.757 183.813C155.757 183.813 119.081 204.93 117.058 206.14C116.491 206.486 115.834 206.655 115.171 206.625C114.507 206.595 113.868 206.367 113.336 205.971C113.336 205.971 76.543 184.756 75.0223 183.868C73.5017 182.981 73.6075 181.549 73.6075 181.549L73.63 175.334C73.8655 176.346 74.4797 177.229 75.3462 177.803Z" fill="url(#paint93_linear_44_6686)"/>
<path d="M75.3462 184.005C77.2324 185.083 111.077 204.55 113.312 205.76C115.546 206.97 117.174 205.917 117.174 205.917C117.174 205.917 152.826 185.43 155.011 184.182C157.196 182.934 156.948 181.447 156.948 181.447C156.948 181.447 157.103 186.421 157.036 187.913C157.017 188.342 156.89 188.761 156.667 189.128C156.443 189.496 156.13 189.801 155.757 190.015C155.757 190.015 119.081 211.131 117.058 212.341C116.491 212.688 115.834 212.857 115.171 212.827C114.507 212.797 113.868 212.569 113.336 212.172C113.336 212.172 76.543 190.958 75.0223 190.07C73.5017 189.182 73.6075 187.75 73.6075 187.75L73.63 181.535C73.8655 182.548 74.4797 183.431 75.3462 184.005Z" fill="url(#paint94_linear_44_6686)"/>
<defs>
<filter id="filter0_f_44_6686" x="110.737" y="25.7746" width="38.977" height="38.9771" filterUnits="userSpaceOnUse" color-interpolation-filters="sRGB">
<feFlood flood-opacity="0" result="BackgroundImageFix"/>
<feBlend mode="normal" in="SourceGraphic" in2="BackgroundImageFix" result="shape"/>
<feGaussianBlur stdDeviation="5.60976" result="effect1_foregroundBlur_44_6686"/>
</filter>
<filter id="filter1_f_44_6686" x="94.7552" y="31.4994" width="56.6414" height="56.6413" filterUnits="userSpaceOnUse" color-interpolation-filters="sRGB">
<feFlood flood-opacity="0" result="BackgroundImageFix"/>
<feBlend mode="normal" in="SourceGraphic" in2="BackgroundImageFix" result="shape"/>
<feGaussianBlur stdDeviation="6.45122" result="effect1_foregroundBlur_44_6686"/>
</filter>
<filter id="filter2_f_44_6686" x="114.222" y="36.1508" width="37.1748" height="37.1748" filterUnits="userSpaceOnUse" color-interpolation-filters="sRGB">
<feFlood flood-opacity="0" result="BackgroundImageFix"/>
<feBlend mode="normal" in="SourceGraphic" in2="BackgroundImageFix" result="shape"/>
<feGaussianBlur stdDeviation="6.45122" result="effect1_foregroundBlur_44_6686"/>
</filter>
<filter id="filter3_f_44_6686" x="108.634" y="48.9959" width="24.9216" height="24.9215" filterUnits="userSpaceOnUse" color-interpolation-filters="sRGB">
<feFlood flood-opacity="0" result="BackgroundImageFix"/>
<feBlend mode="normal" in="SourceGraphic" in2="BackgroundImageFix" result="shape"/>
<feGaussianBlur stdDeviation="3.64634" result="effect1_foregroundBlur_44_6686"/>
</filter>
<filter id="filter4_f_44_6686" x="112.941" y="52.2691" width="22.1653" height="22.1652" filterUnits="userSpaceOnUse" color-interpolation-filters="sRGB">
<feFlood flood-opacity="0" result="BackgroundImageFix"/>
<feBlend mode="normal" in="SourceGraphic" in2="BackgroundImageFix" result="shape"/>
<feGaussianBlur stdDeviation="3.64634" result="effect1_foregroundBlur_44_6686"/>
</filter>
<filter id="filter5_f_44_6686" x="89.3397" y="22.6382" width="40.426" height="38.8756" filterUnits="userSpaceOnUse" color-interpolation-filters="sRGB">
<feFlood flood-opacity="0" result="BackgroundImageFix"/>
<feBlend mode="normal" in="SourceGraphic" in2="BackgroundImageFix" result="shape"/>
<feGaussianBlur stdDeviation="3.64634" result="effect1_foregroundBlur_44_6686"/>
</filter>
<filter id="filter6_f_44_6686" x="89.2956" y="41.544" width="22.7704" height="22.7705" filterUnits="userSpaceOnUse" color-interpolation-filters="sRGB">
<feFlood flood-opacity="0" result="BackgroundImageFix"/>
<feBlend mode="normal" in="SourceGraphic" in2="BackgroundImageFix" result="shape"/>
<feGaussianBlur stdDeviation="3.92683" result="effect1_foregroundBlur_44_6686"/>
</filter>
<filter id="filter7_f_44_6686" x="95.6696" y="47.5736" width="22.7704" height="22.7705" filterUnits="userSpaceOnUse" color-interpolation-filters="sRGB">
<feFlood flood-opacity="0" result="BackgroundImageFix"/>
<feBlend mode="normal" in="SourceGraphic" in2="BackgroundImageFix" result="shape"/>
<feGaussianBlur stdDeviation="3.92683" result="effect1_foregroundBlur_44_6686"/>
</filter>
<filter id="filter8_f_44_6686" x="89.6401" y="50.1576" width="19.8418" height="19.8418" filterUnits="userSpaceOnUse" color-interpolation-filters="sRGB">
<feFlood flood-opacity="0" result="BackgroundImageFix"/>
<feBlend mode="normal" in="SourceGraphic" in2="BackgroundImageFix" result="shape"/>
<feGaussianBlur stdDeviation="3.92683" result="effect1_foregroundBlur_44_6686"/>
</filter>
<filter id="filter9_f_44_6686" x="129.435" y="58.4264" width="20.1864" height="20.1863" filterUnits="userSpaceOnUse" color-interpolation-filters="sRGB">
<feFlood flood-opacity="0" result="BackgroundImageFix"/>
<feBlend mode="normal" in="SourceGraphic" in2="BackgroundImageFix" result="shape"/>
<feGaussianBlur stdDeviation="3.92683" result="effect1_foregroundBlur_44_6686"/>
</filter>
<filter id="filter10_f_44_6686" x="79.8206" y="18.1151" width="20.1864" height="20.1863" filterUnits="userSpaceOnUse" color-interpolation-filters="sRGB">
<feFlood flood-opacity="0" result="BackgroundImageFix"/>
<feBlend mode="normal" in="SourceGraphic" in2="BackgroundImageFix" result="shape"/>
<feGaussianBlur stdDeviation="3.92683" result="effect1_foregroundBlur_44_6686"/>
</filter>
<filter id="filter11_f_44_6686" x="130.813" y="19.3209" width="20.1864" height="20.1863" filterUnits="userSpaceOnUse" color-interpolation-filters="sRGB">
<feFlood flood-opacity="0" result="BackgroundImageFix"/>
<feBlend mode="normal" in="SourceGraphic" in2="BackgroundImageFix" result="shape"/>
<feGaussianBlur stdDeviation="3.92683" result="effect1_foregroundBlur_44_6686"/>
</filter>
<filter id="filter12_f_44_6686" x="79.8206" y="58.4264" width="20.1864" height="20.1863" filterUnits="userSpaceOnUse" color-interpolation-filters="sRGB">
<feFlood flood-opacity="0" result="BackgroundImageFix"/>
<feBlend mode="normal" in="SourceGraphic" in2="BackgroundImageFix" result="shape"/>
<feGaussianBlur stdDeviation="3.92683" result="effect1_foregroundBlur_44_6686"/>
</filter>
<radialGradient id="paint0_radial_44_6686" cx="0" cy="0" r="1" gradientUnits="userSpaceOnUse" gradientTransform="translate(97.6031 47.0331) rotate(30.4132) scale(45.1449 43.3015)">
<stop stop-color="#FFB73B"/>
<stop offset="1" stop-color="#5AC400"/>
</radialGradient>
<linearGradient id="paint1_linear_44_6686" x1="130.225" y1="36.9941" x2="130.225" y2="53.5322" gradientUnits="userSpaceOnUse">
<stop stop-color="#A0FFC5"/>
<stop offset="0.568" stop-color="#12ED2C"/>
<stop offset="1"/>
</linearGradient>
<linearGradient id="paint2_linear_44_6686" x1="123.076" y1="44.4019" x2="123.076" y2="75.2384" gradientUnits="userSpaceOnUse">
<stop stop-color="#A0FFC5"/>
<stop offset="0.568" stop-color="#12ED2C"/>
<stop offset="1"/>
</linearGradient>
<linearGradient id="paint3_linear_44_6686" x1="132.809" y1="49.0532" x2="132.809" y2="60.4231" gradientUnits="userSpaceOnUse">
<stop stop-color="#A4E30B"/>
<stop offset="1" stop-color="#F6A82A"/>
</linearGradient>
<linearGradient id="paint4_linear_44_6686" x1="121.095" y1="56.2886" x2="121.095" y2="66.6248" gradientUnits="userSpaceOnUse">
<stop stop-color="#A0FFC5"/>
<stop offset="0.568" stop-color="#12ED2C"/>
<stop offset="1"/>
</linearGradient>
<linearGradient id="paint5_linear_44_6686" x1="124.024" y1="59.5618" x2="124.024" y2="67.1417" gradientUnits="userSpaceOnUse">
<stop stop-color="#A0FFC5"/>
<stop offset="0.568" stop-color="#12ED2C"/>
<stop offset="1"/>
</linearGradient>
<linearGradient id="paint6_linear_44_6686" x1="109.553" y1="29.9309" x2="109.553" y2="54.2211" gradientUnits="userSpaceOnUse">
<stop stop-color="white"/>
<stop offset="0.537" stop-color="#D3D3D3"/>
<stop offset="0.576" stop-color="#B5B5B5"/>
<stop offset="1" stop-color="#C1C1C1"/>
</linearGradient>
<linearGradient id="paint7_linear_44_6686" x1="100.681" y1="49.3977" x2="100.681" y2="56.4608" gradientUnits="userSpaceOnUse">
<stop stop-color="#A0FFC5"/>
<stop offset="0.568" stop-color="#12ED2C"/>
<stop offset="1"/>
</linearGradient>
<linearGradient id="paint8_linear_44_6686" x1="107.055" y1="55.4272" x2="107.055" y2="62.4904" gradientUnits="userSpaceOnUse">
<stop stop-color="#A0FFC5"/>
<stop offset="0.568" stop-color="#12ED2C"/>
<stop offset="1"/>
</linearGradient>
<linearGradient id="paint9_linear_44_6686" x1="99.561" y1="58.0112" x2="99.561" y2="62.1457" gradientUnits="userSpaceOnUse">
<stop stop-color="#A0FFC5"/>
<stop offset="0.568" stop-color="#12ED2C"/>
<stop offset="1"/>
</linearGradient>
<linearGradient id="paint10_linear_44_6686" x1="118.268" y1="26.2078" x2="118.268" y2="76.1537" gradientUnits="userSpaceOnUse">
<stop stop-color="#A0FFC5"/>
<stop offset="0.568" stop-color="#12ED2C"/>
<stop offset="1"/>
</linearGradient>
<linearGradient id="paint11_linear_44_6686" x1="119.349" y1="51.0263" x2="119.507" y2="60.9923" gradientUnits="userSpaceOnUse">
<stop stop-color="#A0FFC5"/>
<stop offset="0.415" stop-color="#12ED2C"/>
<stop offset="0.874" stop-color="#178624"/>
<stop offset="1"/>
</linearGradient>
<linearGradient id="paint12_linear_44_6686" x1="124.943" y1="53.0957" x2="125.157" y2="61.2021" gradientUnits="userSpaceOnUse">
<stop stop-color="#A0FFC5"/>
<stop offset="0.415" stop-color="#12ED2C"/>
<stop offset="0.874" stop-color="#178624"/>
<stop offset="1"/>
</linearGradient>
<linearGradient id="paint13_linear_44_6686" x1="117.751" y1="25.6909" x2="117.751" y2="75.6368" gradientUnits="userSpaceOnUse">
<stop stop-color="#A0FFC5" stop-opacity="0.129"/>
<stop offset="0.151" stop-color="#2C8617" stop-opacity="0.294"/>
<stop offset="0.603" stop-color="#31C386"/>
<stop offset="1"/>
</linearGradient>
<radialGradient id="paint14_radial_44_6686" cx="0" cy="0" r="1" gradientUnits="userSpaceOnUse" gradientTransform="translate(97.6031 47.0331) rotate(30.4132) scale(45.1449 43.3015)">
<stop stop-color="#FFB73B"/>
<stop offset="1" stop-color="#5AC400"/>
</radialGradient>
<linearGradient id="paint15_linear_44_6686" x1="130.225" y1="36.9941" x2="130.225" y2="53.5322" gradientUnits="userSpaceOnUse">
<stop stop-color="#A0FFC5"/>
<stop offset="0.568" stop-color="#12ED2C"/>
<stop offset="1"/>
</linearGradient>
<linearGradient id="paint16_linear_44_6686" x1="123.076" y1="44.4019" x2="123.076" y2="75.2384" gradientUnits="userSpaceOnUse">
<stop stop-color="#A0FFC5"/>
<stop offset="0.568" stop-color="#12ED2C"/>
<stop offset="1"/>
</linearGradient>
<linearGradient id="paint17_linear_44_6686" x1="132.809" y1="49.0532" x2="132.809" y2="60.4231" gradientUnits="userSpaceOnUse">
<stop stop-color="#A4E30B"/>
<stop offset="1" stop-color="#F6A82A"/>
</linearGradient>
<linearGradient id="paint18_linear_44_6686" x1="121.095" y1="56.2886" x2="121.095" y2="66.6248" gradientUnits="userSpaceOnUse">
<stop stop-color="#A0FFC5"/>
<stop offset="0.568" stop-color="#12ED2C"/>
<stop offset="1"/>
</linearGradient>
<linearGradient id="paint19_linear_44_6686" x1="124.024" y1="59.5618" x2="124.024" y2="67.1417" gradientUnits="userSpaceOnUse">
<stop stop-color="#A0FFC5"/>
<stop offset="0.568" stop-color="#12ED2C"/>
<stop offset="1"/>
</linearGradient>
<linearGradient id="paint20_linear_44_6686" x1="109.553" y1="29.9309" x2="109.553" y2="54.2211" gradientUnits="userSpaceOnUse">
<stop stop-color="white"/>
<stop offset="0.537" stop-color="#D3D3D3"/>
<stop offset="0.576" stop-color="#B5B5B5"/>
<stop offset="1" stop-color="#C1C1C1"/>
</linearGradient>
<linearGradient id="paint21_linear_44_6686" x1="100.681" y1="49.3977" x2="100.681" y2="56.4608" gradientUnits="userSpaceOnUse">
<stop stop-color="#A0FFC5"/>
<stop offset="0.568" stop-color="#12ED2C"/>
<stop offset="1"/>
</linearGradient>
<linearGradient id="paint22_linear_44_6686" x1="107.055" y1="55.4272" x2="107.055" y2="62.4904" gradientUnits="userSpaceOnUse">
<stop stop-color="#A0FFC5"/>
<stop offset="0.568" stop-color="#12ED2C"/>
<stop offset="1"/>
</linearGradient>
<linearGradient id="paint23_linear_44_6686" x1="99.561" y1="58.0112" x2="99.561" y2="62.1457" gradientUnits="userSpaceOnUse">
<stop stop-color="#A0FFC5"/>
<stop offset="0.568" stop-color="#12ED2C"/>
<stop offset="1"/>
</linearGradient>
<linearGradient id="paint24_linear_44_6686" x1="118.268" y1="26.2078" x2="118.268" y2="76.1537" gradientUnits="userSpaceOnUse">
<stop stop-color="#A0FFC5"/>
<stop offset="0.568" stop-color="#12ED2C"/>
<stop offset="1"/>
</linearGradient>
<linearGradient id="paint25_linear_44_6686" x1="119.349" y1="51.0263" x2="119.507" y2="60.9923" gradientUnits="userSpaceOnUse">
<stop stop-color="#A0FFC5"/>
<stop offset="0.415" stop-color="#12ED2C"/>
<stop offset="0.874" stop-color="#178624"/>
<stop offset="1"/>
</linearGradient>
<linearGradient id="paint26_linear_44_6686" x1="124.943" y1="53.0957" x2="125.157" y2="61.2021" gradientUnits="userSpaceOnUse">
<stop stop-color="#A0FFC5"/>
<stop offset="0.415" stop-color="#12ED2C"/>
<stop offset="0.874" stop-color="#178624"/>
<stop offset="1"/>
</linearGradient>
<linearGradient id="paint27_linear_44_6686" x1="117.751" y1="25.6909" x2="117.751" y2="75.6368" gradientUnits="userSpaceOnUse">
<stop stop-color="#A0FFC5" stop-opacity="0.129"/>
<stop offset="0.151" stop-color="#2C8617" stop-opacity="0.294"/>
<stop offset="0.603" stop-color="#31C386"/>
<stop offset="1"/>
</linearGradient>
<linearGradient id="paint28_linear_44_6686" x1="139.528" y1="66.28" x2="139.528" y2="70.7591" gradientUnits="userSpaceOnUse">
<stop stop-color="#A4E30B"/>
<stop offset="1" stop-color="#F6A82A"/>
</linearGradient>
<linearGradient id="paint29_linear_44_6686" x1="89.9138" y1="25.9688" x2="89.9138" y2="30.4478" gradientUnits="userSpaceOnUse">
<stop stop-color="#A4E30B"/>
<stop offset="1" stop-color="#F6A82A"/>
</linearGradient>
<linearGradient id="paint30_linear_44_6686" x1="140.906" y1="27.1746" x2="140.906" y2="31.6536" gradientUnits="userSpaceOnUse">
<stop stop-color="#A4E30B"/>
<stop offset="1" stop-color="#F6A82A"/>
</linearGradient>
<linearGradient id="paint31_linear_44_6686" x1="89.9138" y1="66.28" x2="89.9138" y2="70.7591" gradientUnits="userSpaceOnUse">
<stop stop-color="#A4E30B"/>
<stop offset="1" stop-color="#F6A82A"/>
</linearGradient>
<linearGradient id="paint32_linear_44_6686" x1="114.586" y1="189.14" x2="114.824" y2="92.9537" gradientUnits="userSpaceOnUse">
<stop stop-color="#A0FFC5"/>
<stop offset="0.244" stop-color="#364E39"/>
<stop offset="0.731" stop-color="#253627"/>
<stop offset="1" stop-color="#222222"/>
</linearGradient>
<linearGradient id="paint33_linear_44_6686" x1="124.105" y1="127.625" x2="124.105" y2="138.064" gradientUnits="userSpaceOnUse">
<stop stop-color="#A4E30B"/>
<stop offset="1" stop-color="#F6A82A"/>
</linearGradient>
<linearGradient id="paint34_linear_44_6686" x1="124.105" y1="122.426" x2="124.105" y2="132.866" gradientUnits="userSpaceOnUse">
<stop stop-color="#A4E30B"/>
<stop offset="1" stop-color="#F6A82A"/>
</linearGradient>
<linearGradient id="paint35_linear_44_6686" x1="124.105" y1="117.461" x2="124.105" y2="127.9" gradientUnits="userSpaceOnUse">
<stop stop-color="#A4E30B"/>
<stop offset="1" stop-color="#F6A82A"/>
</linearGradient>
<linearGradient id="paint36_linear_44_6686" x1="124.105" y1="112.262" x2="124.105" y2="122.702" gradientUnits="userSpaceOnUse">
<stop stop-color="#A4E30B"/>
<stop offset="1" stop-color="#F6A82A"/>
</linearGradient>
<linearGradient id="paint37_linear_44_6686" x1="124.105" y1="107.125" x2="124.105" y2="117.564" gradientUnits="userSpaceOnUse">
<stop stop-color="#A4E30B"/>
<stop offset="1" stop-color="#F6A82A"/>
</linearGradient>
<linearGradient id="paint38_linear_44_6686" x1="124.105" y1="101.926" x2="124.105" y2="112.366" gradientUnits="userSpaceOnUse">
<stop stop-color="#A4E30B"/>
<stop offset="1" stop-color="#F6A82A"/>
</linearGradient>
<linearGradient id="paint39_linear_44_6686" x1="124.105" y1="96.9604" x2="124.105" y2="107.4" gradientUnits="userSpaceOnUse">
<stop stop-color="#A4E30B"/>
<stop offset="1" stop-color="#F6A82A"/>
</linearGradient>
<linearGradient id="paint40_linear_44_6686" x1="124.105" y1="91.762" x2="124.105" y2="102.202" gradientUnits="userSpaceOnUse">
<stop stop-color="#A4E30B"/>
<stop offset="1" stop-color="#F6A82A"/>
</linearGradient>
<linearGradient id="paint41_linear_44_6686" x1="124.105" y1="86.9688" x2="124.105" y2="97.4084" gradientUnits="userSpaceOnUse">
<stop stop-color="#A4E30B"/>
<stop offset="1" stop-color="#F6A82A"/>
</linearGradient>
<linearGradient id="paint42_linear_44_6686" x1="124.105" y1="81.7703" x2="124.105" y2="92.2099" gradientUnits="userSpaceOnUse">
<stop stop-color="#A4E30B"/>
<stop offset="1" stop-color="#F6A82A"/>
</linearGradient>
<linearGradient id="paint43_linear_44_6686" x1="124.105" y1="76.8174" x2="124.105" y2="87.0723" gradientUnits="userSpaceOnUse">
<stop stop-color="#A4E30B"/>
<stop offset="1" stop-color="#F6A82A"/>
</linearGradient>
<linearGradient id="paint44_linear_44_6686" x1="106.878" y1="127.625" x2="106.878" y2="138.064" gradientUnits="userSpaceOnUse">
<stop stop-color="#A4E30B"/>
<stop offset="1" stop-color="#F6A82A"/>
</linearGradient>
<linearGradient id="paint45_linear_44_6686" x1="106.878" y1="122.426" x2="106.878" y2="132.866" gradientUnits="userSpaceOnUse">
<stop stop-color="#A4E30B"/>
<stop offset="1" stop-color="#F6A82A"/>
</linearGradient>
<linearGradient id="paint46_linear_44_6686" x1="106.878" y1="117.461" x2="106.878" y2="127.9" gradientUnits="userSpaceOnUse">
<stop stop-color="#A4E30B"/>
<stop offset="1" stop-color="#F6A82A"/>
</linearGradient>
<linearGradient id="paint47_linear_44_6686" x1="106.878" y1="112.262" x2="106.878" y2="122.702" gradientUnits="userSpaceOnUse">
<stop stop-color="#A4E30B"/>
<stop offset="1" stop-color="#F6A82A"/>
</linearGradient>
<linearGradient id="paint48_linear_44_6686" x1="106.878" y1="107.125" x2="106.878" y2="117.564" gradientUnits="userSpaceOnUse">
<stop stop-color="#A4E30B"/>
<stop offset="1" stop-color="#F6A82A"/>
</linearGradient>
<linearGradient id="paint49_linear_44_6686" x1="106.878" y1="101.926" x2="106.878" y2="112.366" gradientUnits="userSpaceOnUse">
<stop stop-color="#A4E30B"/>
<stop offset="1" stop-color="#F6A82A"/>
</linearGradient>
<linearGradient id="paint50_linear_44_6686" x1="106.878" y1="96.9604" x2="106.878" y2="107.4" gradientUnits="userSpaceOnUse">
<stop stop-color="#A4E30B"/>
<stop offset="1" stop-color="#F6A82A"/>
</linearGradient>
<linearGradient id="paint51_linear_44_6686" x1="106.878" y1="91.762" x2="106.878" y2="102.202" gradientUnits="userSpaceOnUse">
<stop stop-color="#A4E30B"/>
<stop offset="1" stop-color="#F6A82A"/>
</linearGradient>
<linearGradient id="paint52_linear_44_6686" x1="106.878" y1="86.9688" x2="106.878" y2="97.4084" gradientUnits="userSpaceOnUse">
<stop stop-color="#A4E30B"/>
<stop offset="1" stop-color="#F6A82A"/>
</linearGradient>
<linearGradient id="paint53_linear_44_6686" x1="106.878" y1="81.7703" x2="106.878" y2="92.2099" gradientUnits="userSpaceOnUse">
<stop stop-color="#A4E30B"/>
<stop offset="1" stop-color="#F6A82A"/>
</linearGradient>
<linearGradient id="paint54_linear_44_6686" x1="106.878" y1="76.8174" x2="106.878" y2="87.0723" gradientUnits="userSpaceOnUse">
<stop stop-color="#A4E30B"/>
<stop offset="1" stop-color="#F6A82A"/>
</linearGradient>
<linearGradient id="paint55_linear_44_6686" x1="115.326" y1="81.4875" x2="115.326" y2="142.745" gradientUnits="userSpaceOnUse">
<stop stop-color="#A4E30B"/>
<stop offset="1" stop-color="#F6A82A"/>
</linearGradient>
<linearGradient id="paint56_linear_44_6686" x1="133.34" y1="149.543" x2="133.34" y2="107.014" gradientUnits="userSpaceOnUse">
<stop stop-color="#A0FFC5"/>
<stop offset="0.254" stop-color="#364E39"/>
<stop offset="0.731" stop-color="#253627"/>
<stop offset="1" stop-color="#222222"/>
</linearGradient>
<linearGradient id="paint57_linear_44_6686" x1="119.658" y1="86.6284" x2="119.658" y2="142.75" gradientUnits="userSpaceOnUse">
<stop stop-color="#A0FFC5"/>
<stop offset="0.368" stop-color="#12ED2C"/>
<stop offset="1"/>
</linearGradient>
<linearGradient id="paint58_linear_44_6686" x1="115.287" y1="111.925" x2="115.287" y2="84.3833" gradientUnits="userSpaceOnUse">
<stop stop-color="#A0FFC5"/>
<stop offset="1" stop-color="#11ED2B"/>
</linearGradient>
<linearGradient id="paint59_linear_44_6686" x1="124.277" y1="137.444" x2="124.277" y2="147.884" gradientUnits="userSpaceOnUse">
<stop stop-color="#A4E30B"/>
<stop offset="1" stop-color="#F6A82A"/>
</linearGradient>
<linearGradient id="paint60_linear_44_6686" x1="124.277" y1="132.246" x2="124.277" y2="142.685" gradientUnits="userSpaceOnUse">
<stop stop-color="#A4E30B"/>
<stop offset="1" stop-color="#F6A82A"/>
</linearGradient>
<linearGradient id="paint61_linear_44_6686" x1="124.277" y1="127.28" x2="124.277" y2="137.72" gradientUnits="userSpaceOnUse">
<stop stop-color="#A4E30B"/>
<stop offset="1" stop-color="#F6A82A"/>
</linearGradient>
<linearGradient id="paint62_linear_44_6686" x1="124.277" y1="122.082" x2="124.277" y2="132.521" gradientUnits="userSpaceOnUse">
<stop stop-color="#A4E30B"/>
<stop offset="1" stop-color="#F6A82A"/>
</linearGradient>
<linearGradient id="paint63_linear_44_6686" x1="124.277" y1="116.944" x2="124.277" y2="127.383" gradientUnits="userSpaceOnUse">
<stop stop-color="#A4E30B"/>
<stop offset="1" stop-color="#F6A82A"/>
</linearGradient>
<linearGradient id="paint64_linear_44_6686" x1="124.277" y1="111.745" x2="124.277" y2="122.185" gradientUnits="userSpaceOnUse">
<stop stop-color="#A4E30B"/>
<stop offset="1" stop-color="#F6A82A"/>
</linearGradient>
<linearGradient id="paint65_linear_44_6686" x1="124.277" y1="106.78" x2="124.277" y2="117.219" gradientUnits="userSpaceOnUse">
<stop stop-color="#A4E30B"/>
<stop offset="1" stop-color="#F6A82A"/>
</linearGradient>
<linearGradient id="paint66_linear_44_6686" x1="124.277" y1="101.581" x2="124.277" y2="112.021" gradientUnits="userSpaceOnUse">
<stop stop-color="#A4E30B"/>
<stop offset="1" stop-color="#F6A82A"/>
</linearGradient>
<linearGradient id="paint67_linear_44_6686" x1="124.277" y1="96.7881" x2="124.277" y2="107.228" gradientUnits="userSpaceOnUse">
<stop stop-color="#A4E30B"/>
<stop offset="1" stop-color="#F6A82A"/>
</linearGradient>
<linearGradient id="paint68_linear_44_6686" x1="124.277" y1="91.5896" x2="124.277" y2="102.029" gradientUnits="userSpaceOnUse">
<stop stop-color="#A4E30B"/>
<stop offset="1" stop-color="#F6A82A"/>
</linearGradient>
<linearGradient id="paint69_linear_44_6686" x1="124.278" y1="86.6367" x2="124.278" y2="96.8917" gradientUnits="userSpaceOnUse">
<stop stop-color="#A4E30B"/>
<stop offset="1" stop-color="#F6A82A"/>
</linearGradient>
<linearGradient id="paint70_linear_44_6686" x1="106.706" y1="137.444" x2="106.706" y2="147.884" gradientUnits="userSpaceOnUse">
<stop stop-color="#A4E30B"/>
<stop offset="1" stop-color="#F6A82A"/>
</linearGradient>
<linearGradient id="paint71_linear_44_6686" x1="106.706" y1="132.246" x2="106.706" y2="142.685" gradientUnits="userSpaceOnUse">
<stop stop-color="#A4E30B"/>
<stop offset="1" stop-color="#F6A82A"/>
</linearGradient>
<linearGradient id="paint72_linear_44_6686" x1="106.706" y1="127.28" x2="106.706" y2="137.72" gradientUnits="userSpaceOnUse">
<stop stop-color="#A4E30B"/>
<stop offset="1" stop-color="#F6A82A"/>
</linearGradient>
<linearGradient id="paint73_linear_44_6686" x1="106.706" y1="122.082" x2="106.706" y2="132.521" gradientUnits="userSpaceOnUse">
<stop stop-color="#A4E30B"/>
<stop offset="1" stop-color="#F6A82A"/>
</linearGradient>
<linearGradient id="paint74_linear_44_6686" x1="106.706" y1="116.944" x2="106.706" y2="127.383" gradientUnits="userSpaceOnUse">
<stop stop-color="#A4E30B"/>
<stop offset="1" stop-color="#F6A82A"/>
</linearGradient>
<linearGradient id="paint75_linear_44_6686" x1="106.706" y1="111.745" x2="106.706" y2="122.185" gradientUnits="userSpaceOnUse">
<stop stop-color="#A4E30B"/>
<stop offset="1" stop-color="#F6A82A"/>
</linearGradient>
<linearGradient id="paint76_linear_44_6686" x1="106.706" y1="106.78" x2="106.706" y2="117.22" gradientUnits="userSpaceOnUse">
<stop stop-color="#A4E30B"/>
<stop offset="1" stop-color="#F6A82A"/>
</linearGradient>
<linearGradient id="paint77_linear_44_6686" x1="106.706" y1="101.582" x2="106.706" y2="112.021" gradientUnits="userSpaceOnUse">
<stop stop-color="#A4E30B"/>
<stop offset="1" stop-color="#F6A82A"/>
</linearGradient>
<linearGradient id="paint78_linear_44_6686" x1="106.706" y1="96.7881" x2="106.706" y2="107.228" gradientUnits="userSpaceOnUse">
<stop stop-color="#A4E30B"/>
<stop offset="1" stop-color="#F6A82A"/>
</linearGradient>
<linearGradient id="paint79_linear_44_6686" x1="106.706" y1="91.5896" x2="106.706" y2="102.029" gradientUnits="userSpaceOnUse">
<stop stop-color="#A4E30B"/>
<stop offset="1" stop-color="#F6A82A"/>
</linearGradient>
<linearGradient id="paint80_linear_44_6686" x1="97.6803" y1="149.543" x2="97.6803" y2="107.014" gradientUnits="userSpaceOnUse">
<stop stop-color="#A0FFC5"/>
<stop offset="0.254" stop-color="#364E39"/>
<stop offset="0.731" stop-color="#253627"/>
<stop offset="1" stop-color="#222222"/>
</linearGradient>
<linearGradient id="paint81_linear_44_6686" x1="106.706" y1="86.6367" x2="106.706" y2="96.8917" gradientUnits="userSpaceOnUse">
<stop stop-color="#A4E30B"/>
<stop offset="1" stop-color="#F6A82A"/>
</linearGradient>
<linearGradient id="paint82_linear_44_6686" x1="111.051" y1="91.7964" x2="111.051" y2="147.895" gradientUnits="userSpaceOnUse">
<stop stop-color="#A0FFC5"/>
<stop offset="0.568" stop-color="#12ED2C"/>
<stop offset="1"/>
</linearGradient>
<linearGradient id="paint83_linear_44_6686" x1="119.849" y1="91.7966" x2="119.849" y2="147.973" gradientUnits="userSpaceOnUse">
<stop stop-color="#A0FFC5"/>
<stop offset="0.568" stop-color="#12ED2C"/>
<stop offset="1"/>
</linearGradient>
<linearGradient id="paint84_linear_44_6686" x1="128.784" y1="91.7964" x2="128.784" y2="147.988" gradientUnits="userSpaceOnUse">
<stop stop-color="#A0FFC5"/>
<stop offset="0.568" stop-color="#12ED2C"/>
<stop offset="1"/>
</linearGradient>
<linearGradient id="paint85_linear_44_6686" x1="102.255" y1="91.7029" x2="102.255" y2="147.973" gradientUnits="userSpaceOnUse">
<stop stop-color="#A0FFC5"/>
<stop offset="0.568" stop-color="#12ED2C"/>
<stop offset="1"/>
</linearGradient>
<linearGradient id="paint86_linear_44_6686" x1="115.597" y1="173.622" x2="115.094" y2="113.314" gradientUnits="userSpaceOnUse">
<stop stop-color="#A0FFC5"/>
<stop offset="0.468" stop-color="#364E39"/>
<stop offset="0.731" stop-color="#253627"/>
<stop offset="1" stop-color="#222222"/>
</linearGradient>
<linearGradient id="paint87_linear_44_6686" x1="160.474" y1="140.938" x2="72.5761" y2="144.704" gradientUnits="userSpaceOnUse">
<stop stop-color="#A0FFC5"/>
<stop offset="0.495" stop-color="#12ED2C"/>
<stop offset="0.56" stop-color="#178624"/>
<stop offset="1" stop-color="#776F00"/>
</linearGradient>
<linearGradient id="paint88_linear_44_6686" x1="160.474" y1="147.14" x2="72.5761" y2="150.906" gradientUnits="userSpaceOnUse">
<stop stop-color="#A0FFC5"/>
<stop offset="0.244" stop-color="#364E39"/>
<stop offset="0.731" stop-color="#253627"/>
<stop offset="1" stop-color="#222222"/>
</linearGradient>
<linearGradient id="paint89_linear_44_6686" x1="160.474" y1="153.514" x2="72.5761" y2="157.28" gradientUnits="userSpaceOnUse">
<stop stop-color="#A0FFC5"/>
<stop offset="0.495" stop-color="#12ED2C"/>
<stop offset="0.56" stop-color="#178624"/>
<stop offset="1" stop-color="#776F00"/>
</linearGradient>
<linearGradient id="paint90_linear_44_6686" x1="160.474" y1="159.716" x2="72.5761" y2="163.482" gradientUnits="userSpaceOnUse">
<stop stop-color="#A0FFC5"/>
<stop offset="0.244" stop-color="#364E39"/>
<stop offset="0.731" stop-color="#253627"/>
<stop offset="1" stop-color="#222222"/>
</linearGradient>
<linearGradient id="paint91_linear_44_6686" x1="160.474" y1="166.09" x2="72.5761" y2="169.856" gradientUnits="userSpaceOnUse">
<stop stop-color="#A0FFC5"/>
<stop offset="0.495" stop-color="#12ED2C"/>
<stop offset="0.56" stop-color="#178624"/>
<stop offset="1" stop-color="#776F00"/>
</linearGradient>
<linearGradient id="paint92_linear_44_6686" x1="160.474" y1="172.292" x2="72.5761" y2="176.058" gradientUnits="userSpaceOnUse">
<stop stop-color="#A0FFC5"/>
<stop offset="0.244" stop-color="#364E39"/>
<stop offset="0.731" stop-color="#253627"/>
<stop offset="1" stop-color="#222222"/>
</linearGradient>
<linearGradient id="paint93_linear_44_6686" x1="160.474" y1="178.666" x2="72.5761" y2="182.432" gradientUnits="userSpaceOnUse">
<stop stop-color="#A0FFC5"/>
<stop offset="0.495" stop-color="#12ED2C"/>
<stop offset="0.56" stop-color="#178624"/>
<stop offset="1" stop-color="#776F00"/>
</linearGradient>
<linearGradient id="paint94_linear_44_6686" x1="160.474" y1="184.867" x2="72.5761" y2="188.633" gradientUnits="userSpaceOnUse">
<stop stop-color="#A0FFC5"/>
<stop offset="0.244" stop-color="#364E39"/>
<stop offset="0.731" stop-color="#253627"/>
<stop offset="1" stop-color="#222222"/>
</linearGradient>
</defs>
</svg>
