<svg width="231" height="230" viewBox="0 0 231 230" fill="none" xmlns="http://www.w3.org/2000/svg">
<path d="M147.884 26.4738C146.968 27.0045 48.835 83.948 48.835 83.948C42.7398 87.4669 42.7935 87.7299 42.7935 94.0295V187.632C42.8838 193.03 42.4359 198.094 48.4619 195.945L162.173 129.045C166.41 126.412 166.939 124.312 166.939 119.906L167.703 23.6634C167.703 18.1405 167.329 18.4749 165.736 17.4106C164.208 16.5459 162.392 18.0794 157.459 20.9909C153.106 23.5598 148.322 26.22 147.884 26.4738Z" fill="url(#paint0_linear_44_12653)"/>
<path d="M148.632 27.0346C147.716 27.5654 49.583 84.5088 49.583 84.5088C43.4878 88.0278 43.5415 88.2907 43.5415 94.5903V188.193C43.6318 193.591 43.3616 198.603 49.5832 195.529L162.921 129.606C167.158 126.973 167.687 124.873 167.687 120.467L167.729 27.1521C167.729 21.6291 168.212 19.0617 166.619 17.9974C165.09 17.1318 163.14 18.6396 158.207 21.5506C153.854 24.1207 149.07 26.7809 148.632 27.0346Z" fill="url(#paint1_linear_44_12653)"/>
<path d="M172.829 207.372C172.829 207.372 174.003 212.139 171.762 212.423C169.522 212.707 168.602 212.576 168.024 212.292C167.447 212.007 165.152 211.523 164.496 211.499C162.025 211.231 159.655 209.261 159.72 208.761C159.72 208.761 159.089 206.74 163.01 206.817C166.932 206.893 166.249 206.222 166.249 206.222C166.635 206.419 172.829 207.372 172.829 207.372Z" fill="url(#paint2_linear_44_12653)"/>
<path d="M184.45 122.26C184.45 122.26 186.832 123.513 188.038 125.554C189.245 127.594 187.937 135.267 187.937 135.267C187.599 135.611 187.156 135.834 186.678 135.899C185.859 136.02 184.951 136.194 184.951 136.194L183.323 122.05L184.45 122.26Z" fill="#23FF0C"/>
<path d="M184.096 201.88C184.096 201.88 185.448 206.654 183.123 206.893C180.798 207.132 179.682 205.598 179.26 205.232C178.839 204.865 177.107 203.95 176.56 203.761C176.426 203.705 176.295 203.643 176.044 203.513C174.345 202.643 172.845 200.649 173.003 200.31C173.003 200.31 172.128 197.818 174.679 198.322C177.23 198.825 178.268 199.789 178.268 199.789C178.549 200.04 184.096 201.88 184.096 201.88Z" fill="url(#paint3_linear_44_12653)"/>
<path d="M184.024 158.167C184.024 158.167 184.337 161.904 184.354 164.622C184.375 166.583 184.028 168.53 183.332 170.363C182.83 173.774 182.857 178.919 182.857 178.919C182.857 178.919 183.892 197.187 184.018 198.77C184.32 202.586 184.099 204.367 181.7 204.288C179.301 204.209 177.777 202.485 177.72 200.733C177.664 198.981 176.475 181.206 175.907 179.794C175.339 178.383 175.002 172.974 175.002 172.974C175.002 172.974 174.567 169.28 173.782 171.595C173.344 172.883 172.302 176.26 171.578 182.232C171.578 182.232 173.024 202.696 173.012 203.564C172.999 204.433 173.418 207.397 173.011 208.01C172.605 208.622 171.414 209.555 168.731 208.988C166.048 208.422 166.271 206.72 166.094 201.524C165.62 196.581 164.119 183.248 164.164 180.969C164.21 178.689 163.957 174.513 163.854 173.893C163.751 173.274 163.546 168.442 163.546 168.442C163.546 168.442 163.553 165.655 163.546 164.02C163.539 162.386 165.14 153.886 165.14 153.886L177.461 160.045L184.024 158.167Z" fill="url(#paint4_linear_44_12653)"/>
<path d="M137.636 142.177L140.539 140.771L145.76 144.371L142.741 145.925L137.636 142.177Z" fill="url(#paint5_linear_44_12653)"/>
<path d="M178.271 115.288C178.271 115.288 177.922 119.451 179.631 120.533C181.339 121.614 182.036 121.711 182.036 121.711C182.036 121.711 178.107 126.593 176.962 126.465C175.817 126.336 171.302 124.682 169.535 124.809C167.769 124.936 165.654 124.376 165.654 124.376C165.654 124.376 169.208 122.478 170.007 121.711C170.807 120.944 170.547 118.078 170.515 117.724C170.483 117.37 176.316 116.095 176.316 116.095L178.271 115.288Z" fill="url(#paint6_linear_44_12653)"/>
<path d="M168.535 105.631C168.535 105.631 166.888 107.675 166.88 109.705C167.78 111.246 165.993 112.969 166.672 113.684C166.894 113.917 167.203 114.118 167.319 114.525C167.51 115.192 167.372 116.158 167.701 117.097C168.19 118.493 168.289 119.362 170.121 119.072C171.953 118.782 175.474 118.511 176.293 118.044C177.112 117.576 178.751 114.017 178.829 113.963C178.907 113.909 168.535 105.631 168.535 105.631Z" fill="url(#paint7_linear_44_12653)"/>
<path d="M158.161 135.205C157.405 136.503 154.987 141.606 154.445 143.298C152.255 143.093 149.312 143.989 146.557 144.189C145.502 144.114 145.509 144.589 144.516 144.553C143.523 144.518 143.983 142.916 143.09 142.945C142.679 143.17 143.125 143.709 143.09 144.553C143.074 144.706 143.009 144.849 142.906 144.962C142.804 145.076 142.667 145.154 142.517 145.185C141.858 145.154 140.696 143.894 140.378 143.951C140.31 143.919 140.051 143.798 140.116 144.19C140.156 144.42 140.568 145.075 140.941 145.748C141.855 146.34 142.797 146.432 143.569 146.553C143.94 146.633 146.127 146.553 146.127 146.553C146.127 146.553 154.089 147.437 155.631 147.174C158.089 146.755 161.225 141.012 161.497 140.185C161.769 139.358 163.188 138.141 163.188 138.141L158.161 135.205Z" fill="url(#paint8_linear_44_12653)"/>
<path d="M180.566 112.894C182.099 110.408 182.665 109.079 181.717 106.902C180.769 104.724 180.986 103.408 178.056 102.321C175.126 101.235 173.817 100.828 171.237 101.168C168.656 101.508 167.373 102.079 167.104 102.772C166.834 103.466 167.998 105.242 168.157 105.716C168.316 106.189 168.504 108.701 168.468 109.51C168.432 110.319 168.262 115.927 169.705 114.991C170.302 114.603 170.45 113.946 170.487 112.894C170.535 111.538 170.39 109.733 171.237 109.51C172.683 109.129 173.313 110.78 173.236 111.861C173.196 112.422 172.261 114.131 172.261 114.131C172.261 114.131 173.343 113.866 173.669 114.131C174.144 114.518 175.104 116.014 175.471 116.183C176.647 116.722 175.561 118.418 177.686 117.01C179.811 115.601 179.032 115.38 180.566 112.894Z" fill="url(#paint9_linear_44_12653)"/>
<path d="M187.732 127.095C187.274 121.153 179.732 120.969 179.255 121.001C178.777 121.032 178.411 122.945 175.969 123.263C173.526 123.581 173.112 123.63 170.543 123.263C167.973 122.897 169.517 122.091 166.432 123.263C163.348 124.435 164.083 124.223 162.733 125.095C161.383 125.966 160.176 127.694 159.593 129.126C159.01 130.559 157.186 134.428 157.085 136.061C156.983 137.693 158.383 140.675 161.036 140.395C163.689 140.115 164.265 131.233 165.405 146.905C164.879 149.097 164.578 151.336 164.505 153.589C163.86 160.19 163.007 160.322 165.926 161.256C169.306 161.672 183.846 163.944 184.486 157.074C185.126 150.203 184.964 149.411 184.964 149.411L185.784 142.518C185.784 142.518 186.627 140.122 187.116 135.008C187.257 133.529 188.013 129.615 187.732 127.095Z" fill="#61FF5D"/>
<path d="M183.198 122.556C178.841 120.327 175.681 123.912 172.751 123.953C171.383 123.972 167.404 123.263 165.555 124.285C162.799 125.524 160.379 130.241 160.471 132.113C160.483 132.363 159.628 138.186 160.901 139.425C161.167 139.682 161.737 139.912 162.368 139.425C163.735 137.594 163.744 137.069 164.819 136.871C165.582 136.731 166.264 141.042 166.138 147.379C165.542 149.67 166.671 155.535 166.671 155.535C166.671 155.535 167.514 158.066 169.903 158.64C172.291 159.213 172.17 164.809 182.506 158.639C183.632 157.641 184.14 150.492 184.995 142.239C187.07 136.118 186.795 128.11 186.776 127.6C186.676 125.067 183.198 122.556 183.198 122.556Z" fill="url(#paint10_linear_44_12653)"/>
<path d="M168.906 121.036C168.66 121.246 168.582 120.891 167.804 122.716C175.326 125.96 179.647 122.256 180.554 121.576C181.461 120.897 179.55 119.555 179.55 119.555C179.55 119.555 174.451 123.442 168.906 121.036Z" fill="url(#paint11_linear_44_12653)"/>
<path d="M172.92 199.305C172.903 199.014 172.462 200.021 172.59 200.322C172.717 200.622 173.266 201.955 174.296 202.657C174.961 203.127 175.675 203.523 176.426 203.839C176.708 203.941 176.746 203.969 177.012 204.08C177.49 204.292 177.943 204.556 178.362 204.869C179 205.325 179.343 205.763 179.485 205.835C179.628 205.907 180.506 206.551 180.98 206.695C181.455 206.838 181.516 206.928 182.521 206.945C183.525 206.963 183.523 206.791 183.885 206.695C183.984 206.677 184.076 206.633 184.151 206.567C184.227 206.5 184.282 206.415 184.311 206.319C184.377 206.222 184.311 205.835 184.311 205.835C184.311 205.835 182.919 206.865 181.819 206.425C181.065 206.127 180.337 205.769 179.641 205.355C179.472 205.239 178.679 204.536 178.531 204.439C178.056 204.091 177.548 203.79 177.014 203.54C176.366 203.275 176.025 203.307 174.973 202.635C173.922 201.963 173.607 201.555 173.274 200.916C173.04 200.411 172.919 199.861 172.92 199.305Z" fill="#F6A400"/>
<path d="M180.566 113.164C182.099 110.678 182.665 109.08 181.717 106.902C180.769 104.724 180.986 103.408 178.056 102.321C175.127 101.235 173.817 100.828 171.237 101.168C168.656 101.508 167.691 102.156 167.421 102.85C167.151 103.543 167.415 104.252 168.674 104.054C168.674 104.054 168.052 104.652 170.901 103.118C171.919 102.564 173.051 102.251 174.209 102.204C175.367 102.158 176.521 102.379 177.58 102.85C177.751 102.929 178.868 103.174 179.615 104.054C180.361 104.935 180.567 106.371 180.567 106.371C180.567 106.371 181.765 108.033 181.391 109.264C180.283 112.904 179.032 115.65 180.566 113.164Z" fill="url(#paint12_linear_44_12653)"/>
<path d="M167.842 104.026C167.602 103.595 168.765 102.603 169.655 102.181C170.544 101.758 169.72 103.612 169.348 103.872C168.977 104.132 168.082 104.458 167.842 104.026Z" fill="#A0FFAE"/>
<path d="M175.612 168.869C175.958 168.882 175.116 170.073 174.309 171.085C173.501 172.096 173.24 173.686 173.24 173.686L171.714 181.24C171.714 181.24 171.797 183.198 171.854 184.44C171.878 184.955 172.152 188.859 172.444 193.075C172.849 198.906 173.111 205.56 173.111 205.56C173.111 205.56 173.322 206.785 173.235 207.438C173.221 207.615 173.168 207.787 173.079 207.94C172.99 208.093 172.868 208.225 172.721 208.324C172.721 208.324 170.463 184.273 169.392 184.12C167.194 183.806 169.808 184.243 170.159 183.305C170.51 182.366 170.763 180.576 170.84 180.117C170.918 179.658 171.597 173.914 172.443 172.476C173.29 171.039 172.773 171.65 173.239 171.085C173.538 170.732 173.901 170.437 174.308 170.216C174.308 170.216 175.267 168.856 175.612 168.869Z" fill="#C0EE00"/>
<path d="M163.99 160.971C163.72 161.749 163.556 162.56 163.501 163.382C163.379 164.674 163.167 165.895 163.204 167.002C163.192 167.514 163.427 168.272 163.501 169.348C163.672 171.826 163.99 175.316 163.99 175.316C163.99 175.316 164.245 180.218 164.215 180.381C164.185 180.543 164.523 185.828 164.611 186.768C164.699 187.708 165.94 199.418 165.94 199.418C165.94 199.418 166.113 202.363 166.171 203.547C166.229 204.73 166.156 205.558 166.702 205.614C167.248 205.67 167.348 202.868 167.213 201.895C167.077 200.922 167.195 194.026 166.702 192.318C166.209 190.611 166.073 185.972 165.94 185.088C165.807 184.204 165.176 173.081 165.516 171.492C165.856 169.904 167.144 167.222 169.586 165.716C172.028 164.209 172.682 164.5 173.44 164.296C174.199 164.091 174.938 164.859 176.436 163.381C177.935 161.903 176.381 162.552 170.749 162.26C165.117 161.967 163.99 160.971 163.99 160.971Z" fill="#F6A400"/>
<path opacity="0.154" d="M167.011 171.997C166.109 172.871 166.691 181.703 166.868 182.855C167.565 184.653 168.61 183.806 170.077 183.868C170.545 183.888 172.19 173.968 172.19 173.968C172.19 173.968 173.891 170.69 174.279 170.851C175.273 171.261 176.375 180.355 176.979 182.394C179.657 184.128 181.335 182.896 182.139 181.653C182.496 180.824 182.748 173.54 183.029 171.839C183.31 170.139 183.752 167.051 183.752 167.051C183.752 167.051 182.378 170.635 179.502 171.324C176.826 171.542 173.486 170.277 173.486 170.277C173.486 170.277 171.868 172.523 170.625 172.24C167.798 171.598 167.912 171.123 167.011 171.997Z" fill="#C0EE00"/>
<path d="M164.083 160.125C163.851 159.96 163.842 158.896 163.915 158.394C163.989 157.892 164.391 154.312 164.421 154.145C164.451 153.979 164.623 151.816 164.695 150.845C164.767 149.874 165.183 147.416 165.389 146.862C165.341 146.419 165.27 145.566 165.27 145.566L164.572 138.956L164.522 138.399C164.522 138.399 164.693 137.904 164.91 138.606C165.127 139.309 165.486 141.646 165.486 141.646C165.486 141.646 165.868 145.19 165.9 145.611C165.932 146.031 165.968 146.845 165.9 147.133C165.833 147.421 165.065 150.43 165.098 151.786C165.094 152.897 165.026 154.007 164.893 155.11L164.499 158.11L164.261 160.098C164.261 160.098 164.314 160.291 164.083 160.125Z" fill="#89FF92"/>
<path opacity="0.335" d="M163.875 162.167C163.875 162.167 165.86 164.946 166.109 164.726C166.359 164.506 165.919 165.141 165.919 165.141C165.919 165.141 165.524 165.126 164.479 164.637C163.434 164.148 163.875 162.167 163.875 162.167Z" fill="#DBED00"/>
<path d="M163.875 162.024C163.875 162.024 163.172 163.819 164.644 164.717C166.116 165.614 166.024 164.997 166.11 164.717" stroke="#0BB5E3" stroke-width="0.199653" stroke-linecap="round"/>
<path d="M166.881 109.311C166.881 109.311 166.573 109.821 166.881 109.949C167.189 110.077 167.732 109.911 167.821 109.949C167.909 109.986 166.881 109.311 166.881 109.311Z" fill="#57FE00"/>
<path d="M171.153 111.056C171.153 111.056 170.939 110.62 171.328 110.539C171.716 110.458 172.283 110.497 172.332 110.842C172.423 111.259 172.423 111.69 172.332 112.106C172.201 112.57 172.278 112.653 171.997 112.974C171.716 113.296 171.498 113.317 171.328 113.207C171.157 113.097 171.559 112.687 171.537 112.307C171.516 111.928 171.143 111.913 171.153 111.734C171.162 111.554 171.153 111.056 171.153 111.056Z" fill="#E5D300"/>
<path d="M164.654 207.621L166.208 206.565L165.025 206.852L165.869 207.621H164.654Z" stroke="#8771F9" stroke-width="0.199653" stroke-linecap="round" stroke-linejoin="round"/>
<path d="M176.099 199.763L177.584 199.405L176.76 199.222L177.389 200.334L176.099 199.763Z" stroke="#8771F9" stroke-width="0.199653" stroke-linecap="round" stroke-linejoin="round"/>
<path d="M159.755 208.301C159.649 208.03 159.541 209.123 159.755 209.37C159.969 209.616 160.903 210.714 162.099 211.063C162.877 211.305 163.678 211.461 164.49 211.529C164.789 211.539 164.834 211.555 165.122 211.578C165.642 211.631 166.154 211.743 166.649 211.911C167.397 212.148 167.859 212.458 168.016 212.483C168.174 212.507 169.504 212.896 170.419 212.821C170.905 212.801 171.387 212.728 171.857 212.601C172.093 212.553 172.316 212.458 172.514 212.321C172.648 212.231 172.75 212.101 172.807 211.95C172.821 211.857 172.811 211.763 172.776 211.676C172.776 211.676 171.601 212.401 170.42 212.321C169.611 212.271 168.808 212.156 168.017 211.977C167.821 211.919 166.85 211.496 166.679 211.449C166.12 211.265 165.543 211.135 164.959 211.063C164.261 211.011 163.946 211.147 162.738 210.833C161.53 210.519 161.105 210.228 160.591 209.722C160.211 209.315 159.926 208.83 159.755 208.301Z" fill="#F6A400"/>
<path d="M86.9398 131.033C86.7537 131.14 66.8347 142.699 66.8347 142.699C65.5974 143.413 65.6083 143.467 65.6083 144.745L65.4719 172.105C65.4906 173.2 65.5716 174.451 66.8345 173.827L89.7036 160.213C90.5638 159.678 90.671 159.252 90.671 158.358L90.8156 131.056C90.8156 129.935 91.393 129.41 90.8156 129.221C90.5053 129.045 89.8843 129.328 88.8828 129.919C88.0001 130.441 87.0286 130.981 86.9398 131.033Z" fill="url(#paint13_linear_44_12653)"/>
<path d="M177.478 197.601C177.557 199.861 178.158 198.506 178.078 197.601C177.998 196.696 177.6 189.017 177.478 188.398C177.355 187.78 176.986 184.088 176.986 184.088C176.986 184.088 176.219 181.756 176.396 183.147C176.574 184.539 177.398 195.341 177.478 197.601Z" fill="#F6A400"/>
<path d="M157.267 135.426C157.267 135.426 157.102 136.328 157.267 136.601C157.432 136.875 157.573 136.874 157.676 136.601C157.778 136.328 158.445 133.699 158.813 132.958C159.181 132.217 160.675 128.127 161.34 127.394C161.616 127.089 161.783 126.34 163.362 125.252C164.941 124.164 167.413 123.383 167.694 123.182C168.175 122.837 167.695 122.737 167.351 122.84C167.147 122.902 164.873 123.689 163.164 124.734C162.418 125.214 161.754 125.808 161.196 126.497C160.791 126.94 159.832 128.712 159.009 130.619C158.186 132.525 157.594 133.939 157.534 134.242C157.474 134.546 157.267 135.426 157.267 135.426Z" fill="#89FF92"/>
<g filter="url(#filter0_d_44_12653)">
<path d="M87.5016 131.219C87.3155 131.326 67.3964 142.885 67.3964 142.885C66.1592 143.599 66.17 143.652 66.17 144.931L66.0337 172.29C66.0524 173.386 65.9963 174.404 67.2601 173.78L90.2656 160.399C91.1258 159.865 91.233 159.438 91.233 158.544L91.3775 131.242C91.3775 130.121 91.4757 129.6 91.1531 129.384C90.8429 129.208 90.4471 129.515 89.4457 130.106C88.5619 130.627 87.5904 131.167 87.5016 131.219Z" fill="url(#paint14_linear_44_12653)"/>
</g>
<g filter="url(#filter1_d_44_12653)">
<path d="M147.664 52.1962C147.478 52.3039 67.0223 98.5637 67.0223 98.5637C65.785 99.2779 65.7959 99.3314 65.7959 100.61L65.7338 136.422C65.7525 137.518 65.6964 138.535 66.9602 137.911L150.502 89.8293C151.362 89.295 151.469 88.8686 151.469 87.9744L151.54 52.2199C151.54 51.0988 151.638 50.5778 151.315 50.3618C151.005 50.186 150.609 50.4927 149.608 51.0833C148.724 51.6047 147.753 52.1444 147.664 52.1962Z" fill="url(#paint15_linear_44_12653)"/>
</g>
<g filter="url(#filter2_d_44_12653)">
<path d="M116.301 113.827C116.115 113.935 96.1958 125.493 96.1958 125.493C94.9585 126.208 94.9694 126.261 94.9694 127.54V146.54C94.9881 147.635 94.932 148.653 96.1958 148.029L119.201 134.648C120.061 134.113 120.169 133.687 120.169 132.793L120.177 113.852C120.177 112.73 120.275 112.209 119.953 111.993C119.642 111.818 119.247 112.124 118.245 112.715C117.361 113.236 116.39 113.776 116.301 113.827Z" fill="url(#paint16_linear_44_12653)"/>
</g>
<path d="M148.037 52.3842C147.851 52.4919 67.3958 98.7517 67.3958 98.7517C66.1585 99.4659 66.1694 99.5194 66.1694 100.798L66.1073 136.61C66.126 137.706 66.0699 138.723 67.3337 138.099L150.875 90.0173C151.736 89.483 151.843 89.0566 151.843 88.1623L151.913 52.4079C151.913 51.2868 152.012 50.7658 151.689 50.5498C151.379 50.374 150.983 50.6807 149.982 51.2713C149.097 51.7927 148.126 52.3324 148.037 52.3842Z" fill="url(#paint17_linear_44_12653)"/>
<path opacity="0.42" d="M65.7324 106.755L151.944 56.6362" stroke="#3F3E52" stroke-width="0.199653"/>
<path d="M72.2777 105.539C73.2589 105.539 74.0543 104.492 74.0543 103.201C74.0543 101.91 73.2589 100.864 72.2777 100.864C71.2965 100.864 70.5011 101.91 70.5011 103.201C70.5011 104.492 71.2965 105.539 72.2777 105.539Z" fill="url(#paint18_linear_44_12653)"/>
<defs>
<filter id="filter0_d_44_12653" x="52.657" y="118.953" width="38.7346" height="55.017" filterUnits="userSpaceOnUse" color-interpolation-filters="sRGB">
<feFlood flood-opacity="0" result="BackgroundImageFix"/>
<feColorMatrix in="SourceAlpha" type="matrix" values="0 0 0 0 0 0 0 0 0 0 0 0 0 0 0 0 0 0 127 0" result="hardAlpha"/>
<feOffset dx="-8.38542" dy="-5.39062"/>
<feGaussianBlur stdDeviation="2.49566"/>
<feColorMatrix type="matrix" values="0 0 0 0 0.137255 0 0 0 0 0.909804 0 0 0 0 0.654902 0 0 0 0.18 0"/>
<feBlend mode="normal" in2="BackgroundImageFix" result="effect1_dropShadow_44_12653"/>
<feBlend mode="normal" in="SourceGraphic" in2="effect1_dropShadow_44_12653" result="shape"/>
</filter>
<filter id="filter1_d_44_12653" x="52.357" y="39.9306" width="99.1968" height="98.1713" filterUnits="userSpaceOnUse" color-interpolation-filters="sRGB">
<feFlood flood-opacity="0" result="BackgroundImageFix"/>
<feColorMatrix in="SourceAlpha" type="matrix" values="0 0 0 0 0 0 0 0 0 0 0 0 0 0 0 0 0 0 127 0" result="hardAlpha"/>
<feOffset dx="-8.38542" dy="-5.39062"/>
<feGaussianBlur stdDeviation="2.49566"/>
<feColorMatrix type="matrix" values="0 0 0 0 0 0 0 0 0 0 0 0 0 0 0 0 0 0 0.133 0"/>
<feBlend mode="normal" in2="BackgroundImageFix" result="effect1_dropShadow_44_12653"/>
<feBlend mode="normal" in="SourceGraphic" in2="effect1_dropShadow_44_12653" result="shape"/>
</filter>
<filter id="filter2_d_44_12653" x="85.5857" y="111.145" width="34.6054" height="45.0599" filterUnits="userSpaceOnUse" color-interpolation-filters="sRGB">
<feFlood flood-opacity="0" result="BackgroundImageFix"/>
<feColorMatrix in="SourceAlpha" type="matrix" values="0 0 0 0 0 0 0 0 0 0 0 0 0 0 0 0 0 0 127 0" result="hardAlpha"/>
<feOffset dx="-4.99132" dy="3.59375"/>
<feGaussianBlur stdDeviation="2.19618"/>
<feColorMatrix type="matrix" values="0 0 0 0 0.611765 0 0 0 0 0.219608 0 0 0 0 0.898039 0 0 0 0.161 0"/>
<feBlend mode="normal" in2="BackgroundImageFix" result="effect1_dropShadow_44_12653"/>
<feBlend mode="normal" in="SourceGraphic" in2="effect1_dropShadow_44_12653" result="shape"/>
</filter>
<linearGradient id="paint0_linear_44_12653" x1="52.4115" y1="151.093" x2="128.099" y2="88.2612" gradientUnits="userSpaceOnUse">
<stop stop-color="#1C5216"/>
<stop offset="1" stop-color="#2D7723"/>
</linearGradient>
<linearGradient id="paint1_linear_44_12653" x1="105.669" y1="17.7544" x2="105.669" y2="196.467" gradientUnits="userSpaceOnUse">
<stop stop-color="#1C5216"/>
<stop offset="1" stop-color="#25681C"/>
</linearGradient>
<linearGradient id="paint2_linear_44_12653" x1="166.296" y1="212.468" x2="166.514" y2="206.232" gradientUnits="userSpaceOnUse">
<stop stop-color="#A0FFAE"/>
<stop offset="0.568" stop-color="#1FFF00"/>
<stop offset="1"/>
</linearGradient>
<linearGradient id="paint3_linear_44_12653" x1="177.584" y1="205.415" x2="179.497" y2="199.858" gradientUnits="userSpaceOnUse">
<stop stop-color="#A0FFAE"/>
<stop offset="0.568" stop-color="#1FFF00"/>
<stop offset="1"/>
</linearGradient>
<linearGradient id="paint4_linear_44_12653" x1="178.975" y1="165.777" x2="183.361" y2="141.736" gradientUnits="userSpaceOnUse">
<stop stop-color="#E1EE00"/>
<stop offset="1" stop-color="#FF7521"/>
</linearGradient>
<linearGradient id="paint5_linear_44_12653" x1="141.698" y1="140.771" x2="141.698" y2="145.925" gradientUnits="userSpaceOnUse">
<stop stop-color="#A0FFAE"/>
<stop offset="1" stop-color="#1FFE00"/>
</linearGradient>
<linearGradient id="paint6_linear_44_12653" x1="172.092" y1="118.172" x2="173.295" y2="123.753" gradientUnits="userSpaceOnUse">
<stop stop-color="#E1EE00"/>
<stop offset="1" stop-color="#FF7521"/>
</linearGradient>
<linearGradient id="paint7_linear_44_12653" x1="181.514" y1="116.213" x2="162.068" y2="116.426" gradientUnits="userSpaceOnUse">
<stop stop-color="#E1EE00"/>
<stop offset="1" stop-color="#FF7521"/>
</linearGradient>
<linearGradient id="paint8_linear_44_12653" x1="151.647" y1="135.205" x2="151.647" y2="147.223" gradientUnits="userSpaceOnUse">
<stop stop-color="#E1EE00"/>
<stop offset="1" stop-color="#FF7521"/>
</linearGradient>
<linearGradient id="paint9_linear_44_12653" x1="174.622" y1="101.051" x2="173.649" y2="124.317" gradientUnits="userSpaceOnUse">
<stop stop-color="#A0FFAE"/>
<stop offset="0.227" stop-color="#1FFF00"/>
<stop offset="0.62" stop-color="#E5D300"/>
<stop offset="1" stop-color="#E0C100"/>
</linearGradient>
<linearGradient id="paint10_linear_44_12653" x1="175.694" y1="193.145" x2="164.972" y2="58.2075" gradientUnits="userSpaceOnUse">
<stop stop-color="#A0FFAE" stop-opacity="0"/>
<stop offset="0.261" stop-color="#139D00" stop-opacity="0"/>
<stop offset="0.67" stop-color="#1FFF00"/>
<stop offset="1"/>
</linearGradient>
<linearGradient id="paint11_linear_44_12653" x1="167.128" y1="118.942" x2="173.365" y2="140.04" gradientUnits="userSpaceOnUse">
<stop stop-color="#A0FFAE"/>
<stop offset="0.477" stop-color="#1FFF00"/>
<stop offset="0.866" stop-color="#139D00"/>
<stop offset="1"/>
</linearGradient>
<linearGradient id="paint12_linear_44_12653" x1="174.753" y1="102.136" x2="174.753" y2="129.135" gradientUnits="userSpaceOnUse">
<stop stop-color="#A0FFAE"/>
<stop offset="0.568" stop-color="#1FFF00"/>
<stop offset="0.843" stop-color="#139D00"/>
<stop offset="1"/>
</linearGradient>
<linearGradient id="paint13_linear_44_12653" x1="78.2721" y1="129.169" x2="78.2721" y2="173.994" gradientUnits="userSpaceOnUse">
<stop stop-color="#A0FFAE"/>
<stop offset="0.568" stop-color="#1FFF00"/>
<stop offset="1"/>
</linearGradient>
<linearGradient id="paint14_linear_44_12653" x1="78.7126" y1="129.335" x2="78.7126" y2="173.97" gradientUnits="userSpaceOnUse">
<stop stop-color="#E1EE00"/>
<stop offset="1" stop-color="#FF7521"/>
</linearGradient>
<linearGradient id="paint15_linear_44_12653" x1="55.2637" y1="151.797" x2="123.864" y2="73.9747" gradientUnits="userSpaceOnUse">
<stop stop-color="#1C5216"/>
<stop offset="1" stop-color="#25681C"/>
</linearGradient>
<linearGradient id="paint16_linear_44_12653" x1="65.1068" y1="210.177" x2="175.472" y2="114.572" gradientUnits="userSpaceOnUse">
<stop stop-color="#A0FFAE"/>
<stop offset="1" stop-color="#1FFE00"/>
</linearGradient>
<linearGradient id="paint17_linear_44_12653" x1="110.905" y1="66.8293" x2="63.8547" y2="126.459" gradientUnits="userSpaceOnUse">
<stop stop-color="#1C5216"/>
<stop offset="1" stop-color="#25681C"/>
</linearGradient>
<linearGradient id="paint18_linear_44_12653" x1="76.044" y1="98.788" x2="51.8205" y2="118.382" gradientUnits="userSpaceOnUse">
<stop stop-color="#A0FFAE"/>
<stop offset="0.312" stop-color="#1FFF00"/>
<stop offset="0.813" stop-color="#139D00"/>
<stop offset="1"/>
</linearGradient>
</defs>
</svg>
