<svg width="197" height="22" viewBox="0 0 197 22" fill="none" xmlns="http://www.w3.org/2000/svg">
<g clip-path="url(#clip0_18_647)">
<path d="M8.57785 20.6769L0.407837 1.33865H6.25527L13.141 18.08H9.69815L16.7479 1.33865H22.1035L13.9061 20.6769H8.57785Z" fill="#79962C"/>
<path d="M30.9286 8.8253H39.8091V12.9139H30.9286V8.8253ZM31.3111 16.4501H41.3119V20.6769H25.9556V1.33865H40.9567V5.56543H31.3111V16.4501Z" fill="#79962C"/>
<path d="M47.0466 20.6769V1.33865H55.7904C57.5392 1.33865 59.042 1.62412 60.299 2.19506C61.5741 2.766 62.5578 3.59478 63.25 4.6814C63.9422 5.74961 64.2883 7.0204 64.2883 8.49379C64.2883 9.94876 63.9422 11.2103 63.25 12.2786C62.5578 13.3283 61.5741 14.1387 60.299 14.7096C59.042 15.2622 57.5392 15.5384 55.7904 15.5384H50.0523L52.4569 13.2455V20.6769H47.0466ZM58.8781 20.6769L54.1237 13.6322H59.8891L64.6709 20.6769H58.8781ZM52.4569 13.8256L50.0523 11.3116H55.4626C56.592 11.3116 57.4299 11.063 57.9764 10.5657C58.5411 10.0685 58.8235 9.37782 58.8235 8.49379C58.8235 7.59134 58.5411 6.89148 57.9764 6.39421C57.4299 5.89694 56.592 5.64831 55.4626 5.64831H50.0523L52.4569 3.13434V13.8256Z" fill="#79962C"/>
<path d="M70.0056 20.6769V1.33865H74.4594L85.0067 14.2124H82.9027V1.33865H88.2037V20.6769H83.7498L73.2025 7.80314H75.3065V20.6769H70.0056Z" fill="#79962C"/>
<path d="M104.289 21.0636C102.777 21.0636 101.374 20.8242 100.081 20.3453C98.8055 19.8481 97.6943 19.1482 96.747 18.2458C95.818 17.3433 95.0893 16.2843 94.5611 15.0688C94.0328 13.8348 93.7687 12.4811 93.7687 11.0078C93.7687 9.53437 94.0328 8.1899 94.5611 6.97436C95.0893 5.7404 95.818 4.67219 96.747 3.76974C97.6943 2.86729 98.8055 2.17664 100.081 1.69779C101.374 1.20052 102.777 0.951889 104.289 0.951889C106.056 0.951889 107.631 1.26498 109.016 1.89117C110.418 2.51736 111.584 3.41981 112.513 4.59852L109.07 7.74789C108.451 7.01119 107.768 6.44946 107.021 6.0627C106.292 5.67594 105.473 5.48255 104.562 5.48255C103.779 5.48255 103.059 5.61148 102.403 5.86932C101.747 6.12716 101.183 6.50472 100.709 7.00198C100.254 7.48084 99.8893 8.06098 99.6161 8.74242C99.3611 9.42386 99.2335 10.179 99.2335 11.0078C99.2335 11.8365 99.3611 12.5916 99.6161 13.2731C99.8893 13.9545 100.254 14.5439 100.709 15.0412C101.183 15.52 101.747 15.8883 102.403 16.1462C103.059 16.404 103.779 16.533 104.562 16.533C105.473 16.533 106.292 16.3396 107.021 15.9528C107.768 15.566 108.451 15.0043 109.07 14.2676L112.513 17.417C111.584 18.5773 110.418 19.4797 109.016 20.1243C107.631 20.7505 106.056 21.0636 104.289 21.0636Z" fill="#79962C"/>
<path d="M130.446 1.33865H135.856V20.6769H130.446V1.33865ZM123.068 20.6769H117.658V1.33865H123.068V20.6769ZM130.828 13.135H122.686V8.60429H130.828V13.135Z" fill="#79962C"/>
<path d="M140.109 20.6769L148.553 1.33865H153.881L162.352 20.6769H156.723L150.11 4.01838H152.241L145.629 20.6769H140.109ZM144.727 16.9197L146.121 12.8863H155.466L156.859 16.9197H144.727Z" fill="#79962C"/>
<path d="M166.618 20.6769V1.33865H172.028V20.6769H166.618Z" fill="#79962C"/>
<path d="M178.61 20.6769V1.33865H183.063L193.611 14.2124H191.507V1.33865H196.808V20.6769H192.354L181.807 7.80314H183.911V20.6769H178.61Z" fill="#79962C"/>
</g>
<g clip-path="url(#clip1_18_647)">
<path d="M8.57785 20.6769L0.407837 1.33867H6.25527L13.141 18.08H9.69815L16.7479 1.33867H22.1035L13.9061 20.6769H8.57785Z" fill="#C9FA49"/>
<path d="M30.9286 8.82532H39.8091V12.914H30.9286V8.82532ZM31.3111 16.4501H41.3119V20.6769H25.9556V1.33867H40.9567V5.56545H31.3111V16.4501Z" fill="#C9FA49"/>
<path d="M47.0466 20.6769V1.33867H55.7904C57.5392 1.33867 59.0421 1.62414 60.299 2.19507C61.5741 2.76601 62.5578 3.59479 63.25 4.68141C63.9422 5.74962 64.2883 7.02042 64.2883 8.4938C64.2883 9.94877 63.9422 11.2104 63.25 12.2786C62.5578 13.3284 61.5741 14.1387 60.299 14.7097C59.0421 15.2622 57.5392 15.5384 55.7904 15.5384H50.0523L52.4569 13.2455V20.6769H47.0466ZM58.8781 20.6769L54.1237 13.6322H59.8891L64.6709 20.6769H58.8781ZM52.4569 13.8256L50.0523 11.3117H55.4626C56.592 11.3117 57.4299 11.063 57.9764 10.5658C58.5411 10.0685 58.8235 9.37784 58.8235 8.4938C58.8235 7.59135 58.5411 6.8915 57.9764 6.39423C57.4299 5.89696 56.592 5.64833 55.4626 5.64833H50.0523L52.4569 3.13436V13.8256Z" fill="#C9FA49"/>
<path d="M70.0056 20.6769V1.33867H74.4594L85.0067 14.2124H82.9027V1.33867H88.2037V20.6769H83.7498L73.2025 7.80315H75.3065V20.6769H70.0056Z" fill="#C9FA49"/>
<path d="M104.289 21.0636C102.777 21.0636 101.374 20.8242 100.081 20.3454C98.8055 19.8481 97.6943 19.1482 96.747 18.2458C95.818 17.3433 95.0893 16.2843 94.5611 15.0688C94.0328 13.8348 93.7687 12.4812 93.7687 11.0078C93.7687 9.53438 94.0328 8.18992 94.5611 6.97437C95.0893 5.74041 95.818 4.67221 96.747 3.76976C97.6943 2.86731 98.8055 2.17666 100.081 1.69781C101.374 1.20054 102.777 0.951904 104.289 0.951904C106.056 0.951904 107.631 1.265 109.016 1.89119C110.418 2.51738 111.584 3.41983 112.513 4.59854L109.07 7.7479C108.451 7.01121 107.768 6.44948 107.021 6.06272C106.292 5.67595 105.473 5.48257 104.562 5.48257C103.779 5.48257 103.059 5.61149 102.403 5.86933C101.747 6.12718 101.183 6.50473 100.709 7.002C100.254 7.48085 99.8893 8.061 99.6161 8.74244C99.3611 9.42388 99.2335 10.179 99.2335 11.0078C99.2335 11.8366 99.3611 12.5917 99.6161 13.2731C99.8893 13.9545 100.254 14.5439 100.709 15.0412C101.183 15.52 101.747 15.8884 102.403 16.1462C103.059 16.4041 103.779 16.533 104.562 16.533C105.473 16.533 106.292 16.3396 107.021 15.9528C107.768 15.5661 108.451 15.0043 109.07 14.2676L112.513 17.417C111.584 18.5773 110.418 19.4797 109.016 20.1244C107.631 20.7505 106.056 21.0636 104.289 21.0636Z" fill="#C9FA49"/>
<path d="M130.446 1.33867H135.856V20.6769H130.446V1.33867ZM123.068 20.6769H117.658V1.33867H123.068V20.6769ZM130.828 13.135H122.686V8.60431H130.828V13.135Z" fill="#C9FA49"/>
<path d="M140.109 20.6769L148.553 1.33867H153.881L162.352 20.6769H156.723L150.11 4.01839H152.241L145.629 20.6769H140.109ZM144.727 16.9197L146.121 12.8863H155.466L156.859 16.9197H144.727Z" fill="#C9FA49"/>
<path d="M166.618 20.6769V1.33867H172.028V20.6769H166.618Z" fill="#C9FA49"/>
<path d="M178.61 20.6769V1.33867H183.063L193.611 14.2124H191.507V1.33867H196.808V20.6769H192.354L181.807 7.80315H183.911V20.6769H178.61Z" fill="#C9FA49"/>
</g>
<defs>
<clipPath id="clip0_18_647">
<rect width="105.773" height="20.1117" fill="white" transform="translate(91.0348 0.951904)"/>
</clipPath>
<clipPath id="clip1_18_647">
<rect width="90.627" height="20.1117" fill="white" transform="translate(0.407837 0.951904)"/>
</clipPath>
</defs>
</svg>
